<svg id="Calque_1" data-name="Calque 1" xmlns="http://www.w3.org/2000/svg" viewBox="0 0 100.67 20.21"><defs><style>.cls-1{fill:#1d1d1b;isolation:isolate;}</style></defs><title>Artboard 2</title><path class="cls-1" d="M84.59,5.78a.13.13,0,1,1-.13-.13A.13.13,0,0,1,84.59,5.78Zm-.68-1.23a.13.13,0,1,0,.13.13A.13.13,0,0,0,83.91,4.55Zm0,.55a.13.13,0,1,0,.13.13A.13.13,0,0,0,83.91,5.1Zm.55,0a.13.13,0,1,0,.13.13A.13.13,0,0,0,84.46,5.1Zm-.55.55a.13.13,0,1,0,.13.13A.13.13,0,0,0,83.91,5.65Zm0,.55a.13.13,0,1,0,.13.13A.13.13,0,0,0,83.91,6.2Zm.55,0a.13.13,0,1,0,.13.13A.13.13,0,0,0,84.46,6.2Zm-.55.55a.13.13,0,0,0-.13.13.13.13,0,0,0,.26,0A.13.13,0,0,0,83.91,6.75Zm.55,0a.13.13,0,0,0-.13.13.13.13,0,0,0,.26,0A.13.13,0,0,0,84.46,6.75Zm0-2.2a.13.13,0,1,0,.13.13A.13.13,0,0,0,84.46,4.55Zm-1.09,1.1a.13.13,0,1,0,0,.26.13.13,0,0,0,0-.26Zm-.55-1.1a.13.13,0,1,0,0,.26.13.13,0,1,0,0-.26Zm0,.55a.13.13,0,1,0,0,.26.13.13,0,1,0,0-.26Zm.55,0a.13.13,0,1,0,0,.26.13.13,0,0,0,0-.26Zm-.55.55a.13.13,0,1,0,0,.26.13.13,0,1,0,0-.26Zm0,.55a.13.13,0,1,0,0,.26.13.13,0,1,0,0-.26Zm.55,0a.13.13,0,1,0,0,.26.13.13,0,0,0,0-.26Zm0,.55a.13.13,0,0,0-.14.13.13.13,0,0,0,.14.13.13.13,0,0,0,.13-.13A.13.13,0,0,0,83.37,6.75Zm0-2.2a.13.13,0,1,0,0,.26.13.13,0,0,0,0-.26Zm-1.1,1.1a.13.13,0,1,0,.13.13A.13.13,0,0,0,82.27,5.65Zm-.55-1.1a.13.13,0,1,0,.13.13A.13.13,0,0,0,81.72,4.55Zm0,.55a.13.13,0,1,0,.13.13A.13.13,0,0,0,81.72,5.1Zm.55,0a.13.13,0,1,0,.13.13A.13.13,0,0,0,82.27,5.1Zm-.55,1.1a.13.13,0,1,0,.13.13A.13.13,0,0,0,81.72,6.2Zm1.1.55a.12.12,0,0,0-.13.13.13.13,0,0,0,.13.13A.13.13,0,0,0,83,6.88.13.13,0,0,0,82.82,6.75Zm-.55-2.2a.13.13,0,1,0,.13.13A.13.13,0,0,0,82.27,4.55Zm-1.1,1.1a.13.13,0,1,0,0,.26.14.14,0,0,0,.14-.13A.13.13,0,0,0,81.17,5.65Zm-.54-1.1a.13.13,0,1,0,0,.26.13.13,0,1,0,0-.26Zm0,.55a.13.13,0,1,0,0,.26.13.13,0,1,0,0-.26Zm.54,0a.13.13,0,1,0,0,.26.14.14,0,0,0,.14-.13A.13.13,0,0,0,81.17,5.1Zm-.54.55a.13.13,0,1,0,0,.26.13.13,0,1,0,0-.26Zm0,.55a.13.13,0,1,0,0,.26.13.13,0,1,0,0-.26Zm.54,0a.13.13,0,0,0-.13.13.13.13,0,0,0,.13.13.13.13,0,0,0,0-.26Zm0,.55a.13.13,0,0,0-.13.13.13.13,0,0,0,.13.13.13.13,0,0,0,.13-.13A.12.12,0,0,0,81.17,6.75Zm0-2.2a.13.13,0,1,0,0,.26.13.13,0,1,0,0-.26Zm-1.09,1.1a.13.13,0,0,0-.13.13.13.13,0,1,0,.13-.13Zm-.55-1.1a.13.13,0,1,0,.13.13A.13.13,0,0,0,79.53,4.55Zm0,.55a.13.13,0,1,0,.13.13A.13.13,0,0,0,79.53,5.1Zm.55,0a.13.13,0,0,0-.13.13.13.13,0,1,0,.13-.13Zm-.55,1.1a.13.13,0,1,0,.13.13A.13.13,0,0,0,79.53,6.2Zm.55,0a.13.13,0,0,0-.13.13.13.13,0,1,0,.13-.13Zm0,.55a.12.12,0,0,0-.13.13.13.13,0,0,0,.13.13.13.13,0,0,0,.13-.13A.13.13,0,0,0,80.08,6.75Zm0-2.2a.13.13,0,1,0,0,.26.13.13,0,0,0,0-.26ZM79,5.65a.13.13,0,1,0,.13.13A.13.13,0,0,0,79,5.65Zm-.55-1.1a.13.13,0,1,0,.13.13A.13.13,0,0,0,78.43,4.55Zm0,.55a.13.13,0,1,0,.13.13A.13.13,0,0,0,78.43,5.1Zm.55,0a.13.13,0,1,0,.13.13A.13.13,0,0,0,79,5.1Zm-.55,1.1a.13.13,0,0,0,0,.26.13.13,0,0,0,.13-.13A.13.13,0,0,0,78.43,6.2Zm.55,0a.13.13,0,1,0,.13.13A.13.13,0,0,0,79,6.2Zm0,.55a.13.13,0,0,0-.13.13.13.13,0,1,0,.26,0A.13.13,0,0,0,79,6.75Zm0-2.2a.13.13,0,1,0,.13.13A.13.13,0,0,0,79,4.55ZM77.89,7.84a.13.13,0,0,0-.14.13.13.13,0,0,0,.14.13A.13.13,0,0,0,78,8,.13.13,0,0,0,77.89,7.84Zm0-2.19a.13.13,0,1,0,0,.26.13.13,0,0,0,0-.26Zm-.55-1.1a.13.13,0,0,0,0,.26.13.13,0,0,0,0-.26Zm0,.55a.13.13,0,0,0,0,.26.13.13,0,0,0,0-.26Zm.55,0a.13.13,0,1,0,0,.26.13.13,0,0,0,0-.26Zm-.55,1.1a.13.13,0,0,0,0,.26.13.13,0,0,0,0-.26Zm0,1.64a.13.13,0,0,0-.13.13.12.12,0,0,0,.13.13A.13.13,0,0,0,77.47,8,.13.13,0,0,0,77.34,7.84Zm0-.55a.13.13,0,0,0-.13.13.12.12,0,0,0,.13.13.13.13,0,0,0,.13-.13A.13.13,0,0,0,77.34,7.29Zm.55,1.1a.13.13,0,1,0,0,.26.13.13,0,1,0,0-.26Zm0-2.19a.13.13,0,1,0,0,.26.13.13,0,0,0,0-.26Zm0,.55a.13.13,0,0,0-.14.13.13.13,0,0,0,.14.13A.13.13,0,0,0,78,6.88.13.13,0,0,0,77.89,6.75Zm0,.54a.13.13,0,0,0-.14.13.13.13,0,0,0,.14.13A.13.13,0,0,0,78,7.42.13.13,0,0,0,77.89,7.29Zm0-2.74a.13.13,0,1,0,0,.26.13.13,0,0,0,0-.26Zm-1.1,3.29a.13.13,0,0,0-.13.13.13.13,0,1,0,.26,0A.13.13,0,0,0,76.79,7.84Zm0-2.19a.13.13,0,1,0,.13.13A.13.13,0,0,0,76.79,5.65Zm-.55-1.1a.13.13,0,1,0,.13.13A.13.13,0,0,0,76.24,4.55Zm0,.55a.13.13,0,1,0,.13.13A.13.13,0,0,0,76.24,5.1Zm.55,0a.13.13,0,1,0,.13.13A.13.13,0,0,0,76.79,5.1Zm-.55,1.1a.13.13,0,1,0,.13.13A.13.13,0,0,0,76.24,6.2Zm0,1.64a.13.13,0,0,0-.13.13.13.13,0,0,0,.26,0A.13.13,0,0,0,76.24,7.84Zm0-.55a.13.13,0,0,0-.13.13.13.13,0,0,0,.26,0A.13.13,0,0,0,76.24,7.29Zm.55,1.1a.13.13,0,1,0,.13.13A.13.13,0,0,0,76.79,8.39Zm0-2.19a.13.13,0,1,0,.13.13A.13.13,0,0,0,76.79,6.2Zm0,.55a.13.13,0,0,0-.13.13.13.13,0,1,0,.26,0A.13.13,0,0,0,76.79,6.75Zm0,.54a.13.13,0,0,0-.13.13.13.13,0,1,0,.26,0A.13.13,0,0,0,76.79,7.29Zm0-2.74a.13.13,0,1,0,.13.13A.13.13,0,0,0,76.79,4.55Zm-1.1,3.29a.13.13,0,0,0-.13.13.13.13,0,0,0,.13.13A.12.12,0,0,0,75.82,8,.13.13,0,0,0,75.69,7.84Zm0-2.19a.13.13,0,1,0,.13.13A.13.13,0,0,0,75.69,5.65Zm-.55-1.1a.13.13,0,1,0,0,.26.13.13,0,1,0,0-.26Zm0,.55a.13.13,0,1,0,0,.26.13.13,0,1,0,0-.26Zm6.58.55a.13.13,0,1,0,.13.13A.13.13,0,0,0,81.72,5.65Zm-2.19,0a.13.13,0,1,0,.13.13A.13.13,0,0,0,79.53,5.65Zm-1.1,0a.13.13,0,1,0,.13.13A.13.13,0,0,0,78.43,5.65Zm-1.09,0a.13.13,0,0,0,0,.26.13.13,0,0,0,0-.26Zm-1.1,0a.13.13,0,1,0,.13.13A.13.13,0,0,0,76.24,5.65Zm4.39,1.1a.13.13,0,0,0-.14.13.13.13,0,0,0,.14.13.13.13,0,0,0,.13-.13A.13.13,0,0,0,80.63,6.75Zm-1.1,0a.13.13,0,0,0-.13.13.13.13,0,1,0,.26,0A.13.13,0,0,0,79.53,6.75Zm-1.1,0a.13.13,0,0,0-.13.13.13.13,0,0,0,.13.13.13.13,0,0,0,0-.26Zm-1.09,0a.12.12,0,0,0-.13.13.13.13,0,0,0,.13.13.13.13,0,0,0,.13-.13A.13.13,0,0,0,77.34,6.75Zm-1.1,0a.13.13,0,0,0-.13.13.13.13,0,0,0,.26,0A.13.13,0,0,0,76.24,6.75Zm-1.1-1.1a.13.13,0,1,0,0,.26.13.13,0,1,0,0-.26Zm.55-.55a.13.13,0,1,0,.13.13A.13.13,0,0,0,75.69,5.1Zm-.55,1.1a.13.13,0,1,0,0,.26.13.13,0,1,0,0-.26Zm0,1.64A.13.13,0,0,0,75,8a.13.13,0,0,0,.13.13A.13.13,0,0,0,75.28,8,.13.13,0,0,0,75.14,7.84Zm0-.55a.13.13,0,0,0-.13.13.13.13,0,0,0,.13.13.13.13,0,0,0,.14-.13A.13.13,0,0,0,75.14,7.29Zm0,1.1a.13.13,0,0,0,0,.26.13.13,0,1,0,0-.26Zm.55,0a.13.13,0,0,0,0,.26.13.13,0,0,0,.13-.13A.13.13,0,0,0,75.69,8.39Zm0-2.19a.13.13,0,1,0,0,.26.13.13,0,0,0,0-.26Zm-.55.55a.13.13,0,0,0-.13.13.13.13,0,0,0,.13.13.13.13,0,0,0,.14-.13A.13.13,0,0,0,75.14,6.75Zm.55,0a.13.13,0,0,0-.13.13.13.13,0,0,0,.13.13.13.13,0,0,0,.13-.13A.12.12,0,0,0,75.69,6.75Zm0,.54a.13.13,0,0,0-.13.13.13.13,0,0,0,.13.13.12.12,0,0,0,.13-.13A.13.13,0,0,0,75.69,7.29Zm0-2.74a.13.13,0,1,0,0,.26.13.13,0,0,0,0-.26ZM74.6,7.84a.13.13,0,0,0-.13.13.12.12,0,0,0,.13.13A.13.13,0,0,0,74.73,8,.13.13,0,0,0,74.6,7.84Zm0-2.19a.13.13,0,1,0,0,.26.13.13,0,1,0,0-.26Zm0-.55a.13.13,0,1,0,0,.26.13.13,0,1,0,0-.26Zm0,3.29a.13.13,0,0,0,0,.26.13.13,0,0,0,0-.26Zm0-2.19a.13.13,0,1,0,0,.26.13.13,0,1,0,0-.26Zm0,.55a.12.12,0,0,0-.13.13A.13.13,0,0,0,74.6,7a.13.13,0,0,0,.13-.13A.13.13,0,0,0,74.6,6.75Zm0,.54a.13.13,0,0,0-.13.13.12.12,0,0,0,.13.13.13.13,0,0,0,.13-.13A.13.13,0,0,0,74.6,7.29Zm6.57,0a.13.13,0,0,0-.13.13.13.13,0,0,0,.13.13.12.12,0,0,0,.13-.13A.13.13,0,0,0,81.17,7.29Zm-.54.55a.13.13,0,0,0-.14.13.13.13,0,0,0,.14.13A.13.13,0,0,0,80.76,8,.13.13,0,0,0,80.63,7.84Zm0,.55a.13.13,0,1,0,0,.26.13.13,0,0,0,0-.26Zm0-1.1a.13.13,0,0,0-.14.13.13.13,0,0,0,.14.13.13.13,0,0,0,.13-.13A.13.13,0,0,0,80.63,7.29Zm-1.1.55A.13.13,0,0,0,79.4,8a.13.13,0,1,0,.26,0A.13.13,0,0,0,79.53,7.84Zm-.55,0a.13.13,0,0,0-.13.13.13.13,0,1,0,.26,0A.13.13,0,0,0,79,7.84Zm0-.55a.13.13,0,0,0-.13.13.13.13,0,1,0,.26,0A.13.13,0,0,0,79,7.29Zm.55,1.1a.13.13,0,1,0,.13.13A.13.13,0,0,0,79.53,8.39Zm0-1.1a.13.13,0,0,0-.13.13.13.13,0,1,0,.26,0A.13.13,0,0,0,79.53,7.29Zm-1.1.55A.13.13,0,0,0,78.3,8a.13.13,0,1,0,.26,0A.13.13,0,0,0,78.43,7.84Zm0,.55a.13.13,0,1,0,.13.13A.13.13,0,0,0,78.43,8.39Zm0-1.1a.13.13,0,0,0-.13.13.13.13,0,1,0,.26,0A.13.13,0,0,0,78.43,7.29Zm6,.55a.13.13,0,0,0-.13.13.13.13,0,0,0,.13.13A.12.12,0,0,0,84.59,8,.13.13,0,0,0,84.46,7.84Zm-.54,0a.13.13,0,0,0-.14.13.13.13,0,0,0,.14.13A.13.13,0,0,0,84.05,8,.14.14,0,0,0,83.92,7.84Zm0-.55a.13.13,0,0,0-.14.13.13.13,0,0,0,.14.13.13.13,0,0,0,.13-.13A.14.14,0,0,0,83.92,7.29Zm-6.58,1.1a.13.13,0,1,0,0,.26.13.13,0,1,0,0-.26Zm-1.1,0a.13.13,0,1,0,.13.13A.13.13,0,0,0,76.24,8.39Zm8.22,0a.13.13,0,0,0,0,.26.13.13,0,0,0,0-.26Zm0-1.1a.13.13,0,0,0-.13.13.13.13,0,0,0,.13.13.12.12,0,0,0,.13-.13A.13.13,0,0,0,84.46,7.29Zm-1.09,0a.13.13,0,0,0-.13.13.13.13,0,1,0,.26,0A.13.13,0,0,0,83.37,7.29ZM74.6,4.55a.13.13,0,1,0,0,.26.13.13,0,1,0,0-.26ZM83.37,10a.14.14,0,0,0-.14.14.13.13,0,0,0,.14.13.14.14,0,0,0,.13-.13A.13.13,0,0,0,83.37,10Zm-.55-1.09a.13.13,0,0,0,0,.26.13.13,0,0,0,0-.26Zm0,.54a.13.13,0,0,0-.13.14.13.13,0,0,0,.13.13A.13.13,0,0,0,83,9.62.13.13,0,0,0,82.82,9.48Zm0,.55a.13.13,0,0,0-.13.14.13.13,0,0,0,.13.13.14.14,0,0,0,.13-.13A.13.13,0,0,0,82.82,10Zm-.55,0a.13.13,0,0,0-.13.14.13.13,0,0,0,.13.13.14.14,0,0,0,.13-.13A.13.13,0,0,0,82.27,10Zm-.55-1.09a.13.13,0,1,0,.13.13A.13.13,0,0,0,81.72,8.94Zm0,.54a.13.13,0,0,0-.13.14.13.13,0,1,0,.26,0A.13.13,0,0,0,81.72,9.48Zm.55,0a.13.13,0,0,0-.13.14.13.13,0,1,0,.26,0A.13.13,0,0,0,82.27,9.48Zm0-.54a.13.13,0,1,0,.13.13A.13.13,0,0,0,82.27,8.94Zm-1.1,0a.13.13,0,0,0,0,.26.13.13,0,1,0,0-.26Zm-1.64,0a.13.13,0,1,0,.13.13A.13.13,0,0,0,79.53,8.94ZM79,10a.13.13,0,0,0-.13.14.14.14,0,0,0,.13.13.13.13,0,0,0,.13-.13A.13.13,0,0,0,79,10Zm-.55-1.09a.13.13,0,1,0,.13.13A.13.13,0,0,0,78.43,8.94Zm0,.54a.13.13,0,0,0-.13.14.13.13,0,0,0,.26,0A.13.13,0,0,0,78.43,9.48Zm.55,0a.13.13,0,0,0-.13.14.13.13,0,0,0,.26,0A.13.13,0,0,0,79,9.48Zm-.55,1.1a.13.13,0,1,0,0,.26.12.12,0,0,0,.13-.13A.13.13,0,0,0,78.43,10.58Zm.55.55a.13.13,0,1,0,.13.13A.13.13,0,0,0,79,11.13Zm-1.09,1.1a.13.13,0,0,0-.14.12.14.14,0,0,0,.14.14.13.13,0,0,0,.13-.14A.12.12,0,0,0,77.89,12.23Zm0-2.2a.14.14,0,0,0-.14.14.14.14,0,0,0,.14.13.14.14,0,0,0,.13-.13A.13.13,0,0,0,77.89,10Zm-.55-1.09a.13.13,0,1,0,0,.26.13.13,0,1,0,0-.26Zm0,.54a.13.13,0,0,0-.13.14.13.13,0,0,0,.13.13.13.13,0,0,0,.13-.13A.13.13,0,0,0,77.34,9.48Zm.55,0a.14.14,0,0,0-.14.14.13.13,0,0,0,.14.13A.13.13,0,0,0,78,9.62.13.13,0,0,0,77.89,9.48Zm-.55,1.1a.13.13,0,1,0,0,.26.13.13,0,1,0,0-.26Zm0,1.65a.12.12,0,0,0-.13.12.13.13,0,0,0,.13.14.13.13,0,0,0,.13-.14A.12.12,0,0,0,77.34,12.23Zm0-.55a.12.12,0,0,0-.13.13.13.13,0,0,0,.13.13.13.13,0,0,0,.13-.13A.13.13,0,0,0,77.34,11.68Zm.55,1.09a.13.13,0,0,0-.14.13.13.13,0,0,0,.14.13A.13.13,0,0,0,78,12.9.13.13,0,0,0,77.89,12.77Zm0-2.19a.13.13,0,1,0,0,.26.13.13,0,1,0,0-.26Zm0,.55a.13.13,0,1,0,0,.26.13.13,0,1,0,0-.26Zm0,.55a.13.13,0,0,0-.14.13.13.13,0,0,0,.14.13.13.13,0,1,0,0-.26Zm0-2.74a.13.13,0,1,0,0,.26.13.13,0,1,0,0-.26Zm-1.1,3.29a.12.12,0,0,0-.13.12.13.13,0,1,0,.26,0A.12.12,0,0,0,76.79,12.23Zm0-2.2a.13.13,0,0,0-.13.14.13.13,0,0,0,.26,0A.13.13,0,0,0,76.79,10Zm-.55-1.09a.13.13,0,1,0,.13.13A.13.13,0,0,0,76.24,8.94Zm0,.54a.13.13,0,0,0-.13.14.13.13,0,1,0,.26,0A.13.13,0,0,0,76.24,9.48Zm.55,0a.13.13,0,0,0-.13.14.13.13,0,0,0,.26,0A.13.13,0,0,0,76.79,9.48Zm-.55,1.1a.13.13,0,1,0,.13.13A.13.13,0,0,0,76.24,10.58Zm0,1.65a.12.12,0,0,0-.13.12.13.13,0,1,0,.26,0A.12.12,0,0,0,76.24,12.23Zm0-.55a.13.13,0,0,0-.13.13.13.13,0,1,0,.26,0A.13.13,0,0,0,76.24,11.68Zm.55,1.09a.13.13,0,0,0-.13.13.13.13,0,0,0,.26,0A.13.13,0,0,0,76.79,12.77Zm0-2.19a.13.13,0,1,0,.13.13A.13.13,0,0,0,76.79,10.58Zm0,.55a.13.13,0,1,0,.13.13A.13.13,0,0,0,76.79,11.13Zm0,.55a.13.13,0,0,0-.13.13.13.13,0,0,0,.26,0A.13.13,0,0,0,76.79,11.68Zm0-2.74a.13.13,0,1,0,.13.13A.13.13,0,0,0,76.79,8.94Zm-1.1,3.29a.12.12,0,0,0-.13.12.13.13,0,0,0,.13.14.13.13,0,0,0,.13-.14A.12.12,0,0,0,75.69,12.23Zm0-2.2a.13.13,0,0,0-.13.14.13.13,0,1,0,.26,0A.13.13,0,0,0,75.69,10Zm-.55-1.09a.13.13,0,0,0,0,.26.13.13,0,1,0,0-.26Zm0,.54a.13.13,0,0,0-.13.14.13.13,0,0,0,.13.13.13.13,0,0,0,.14-.13A.14.14,0,0,0,75.14,9.48Zm3.29.55a.13.13,0,0,0-.13.14.13.13,0,0,0,.26,0A.13.13,0,0,0,78.43,10Zm-1.09,0a.13.13,0,0,0-.13.14.13.13,0,0,0,.13.13.13.13,0,0,0,.13-.13A.13.13,0,0,0,77.34,10Zm-1.1,0a.13.13,0,0,0-.13.14.13.13,0,1,0,.26,0A.13.13,0,0,0,76.24,10Zm2.19,1.1a.13.13,0,1,0,0,.26.13.13,0,0,0,.13-.13A.13.13,0,0,0,78.43,11.13Zm-1.09,0a.13.13,0,1,0,0,.26.13.13,0,1,0,0-.26Zm-1.1,0a.13.13,0,1,0,.13.13A.13.13,0,0,0,76.24,11.13ZM75.14,10a.13.13,0,0,0-.13.14.13.13,0,0,0,.13.13.13.13,0,0,0,.14-.13A.14.14,0,0,0,75.14,10Zm.55-.55a.13.13,0,0,0-.13.14.13.13,0,1,0,.26,0A.13.13,0,0,0,75.69,9.48Zm-.55,1.1a.13.13,0,0,0,0,.26.13.13,0,1,0,0-.26Zm0,1.65a.12.12,0,0,0-.13.12.13.13,0,0,0,.13.14.14.14,0,0,0,.14-.14A.13.13,0,0,0,75.14,12.23Zm0-.55a.13.13,0,0,0-.13.13.13.13,0,0,0,.13.13.13.13,0,0,0,.14-.13A.13.13,0,0,0,75.14,11.68Zm0,1.09a.13.13,0,0,0-.13.13.13.13,0,0,0,.13.13.13.13,0,0,0,.14-.13A.13.13,0,0,0,75.14,12.77Zm.55,0a.13.13,0,0,0-.13.13.13.13,0,0,0,.13.13.12.12,0,0,0,.13-.13A.13.13,0,0,0,75.69,12.77Zm0-2.19a.13.13,0,0,0,0,.26.13.13,0,1,0,0-.26Zm-.55.55a.13.13,0,0,0,0,.26.13.13,0,1,0,0-.26Zm.55,0a.13.13,0,0,0,0,.26.13.13,0,1,0,0-.26Zm0,.55a.13.13,0,0,0-.13.13.13.13,0,0,0,.13.13.13.13,0,0,0,.13-.13A.12.12,0,0,0,75.69,11.68Zm0-2.74a.13.13,0,0,0,0,.26.13.13,0,1,0,0-.26ZM74.6,12.23a.12.12,0,0,0-.13.12.13.13,0,0,0,.13.14.13.13,0,0,0,.13-.14A.12.12,0,0,0,74.6,12.23Zm0-2.2a.13.13,0,0,0-.13.14.13.13,0,0,0,.13.13.13.13,0,0,0,.13-.13A.13.13,0,0,0,74.6,10Zm0-.55a.13.13,0,0,0-.13.14.13.13,0,0,0,.13.13.13.13,0,0,0,.13-.13A.13.13,0,0,0,74.6,9.48Zm0,3.29a.13.13,0,0,0-.13.13.12.12,0,0,0,.13.13.13.13,0,0,0,.13-.13A.13.13,0,0,0,74.6,12.77Zm0-2.19a.13.13,0,0,0,0,.26.13.13,0,0,0,0-.26Zm0,.55a.13.13,0,0,0,0,.26.13.13,0,0,0,0-.26Zm0,.55a.12.12,0,0,0-.13.13.13.13,0,0,0,.13.13.13.13,0,0,0,.13-.13A.13.13,0,0,0,74.6,11.68Zm4.93.55a.12.12,0,0,0-.13.12.13.13,0,1,0,.26,0A.12.12,0,0,0,79.53,12.23Zm-.55,0a.12.12,0,0,0-.13.12.13.13,0,1,0,.26,0A.12.12,0,0,0,79,12.23Zm0,.54a.13.13,0,0,0-.13.13.13.13,0,0,0,.26,0A.13.13,0,0,0,79,12.77Zm-.55-.54a.12.12,0,0,0-.13.12.13.13,0,1,0,.26,0A.12.12,0,0,0,78.43,12.23Zm0,.54a.13.13,0,0,0-.13.13.13.13,0,0,0,.26,0A.13.13,0,0,0,78.43,12.77Zm0-1.09a.13.13,0,0,0-.13.13.13.13,0,0,0,.26,0A.13.13,0,0,0,78.43,11.68Zm-1.09,1.09a.13.13,0,0,0-.13.13.12.12,0,0,0,.13.13.13.13,0,0,0,.13-.13A.13.13,0,0,0,77.34,12.77Zm-1.1,0a.13.13,0,0,0-.13.13.13.13,0,1,0,.26,0A.13.13,0,0,0,76.24,12.77ZM74.6,8.94a.13.13,0,0,0,0,.26.13.13,0,0,0,0-.26Zm9.31,5.48a.13.13,0,0,0-.13.13.13.13,0,1,0,.26,0A.13.13,0,0,0,83.91,14.42Zm-1.09-1.1a.13.13,0,1,0,0,.26.13.13,0,0,0,0-.26Zm.54,2.19a.13.13,0,0,0-.13.13.13.13,0,0,0,.13.13.13.13,0,1,0,0-.26Zm-1.64-2.19a.13.13,0,1,0,.13.13A.13.13,0,0,0,81.72,13.32Zm0,.55a.13.13,0,1,0,.13.13A.13.13,0,0,0,81.72,13.87Zm.55,0a.13.13,0,0,0-.13.13.13.13,0,1,0,.13-.13ZM81.72,15a.13.13,0,0,0-.13.14.13.13,0,1,0,.26,0A.13.13,0,0,0,81.72,15Zm1.1.55a.13.13,0,0,0-.14.13.13.13,0,0,0,.14.13.13.13,0,0,0,.13-.13A.13.13,0,0,0,82.82,15.51Zm-.55-2.19a.13.13,0,1,0,.13.13A.13.13,0,0,0,82.27,13.32Zm-1.1,1.1a.13.13,0,0,0-.13.13.13.13,0,0,0,.26,0A.13.13,0,0,0,81.17,14.42Zm-.55-.55a.13.13,0,1,0,0,.26.13.13,0,1,0,0-.26Zm.55,0a.13.13,0,1,0,.13.13A.13.13,0,0,0,81.17,13.87ZM80.62,15a.13.13,0,0,0-.13.14.13.13,0,0,0,.13.13.13.13,0,0,0,.13-.13A.13.13,0,0,0,80.62,15Zm-.54-.54a.13.13,0,0,0-.14.13.13.13,0,0,0,.14.13.13.13,0,0,0,.13-.13A.13.13,0,0,0,80.08,14.42Zm-.55-1.1a.13.13,0,1,0,0,.26.13.13,0,1,0,0-.26Zm0,.55a.13.13,0,1,0,0,.26.13.13,0,1,0,0-.26Zm.55,0a.13.13,0,1,0,0,.26.13.13,0,1,0,0-.26ZM79.53,15a.14.14,0,0,0-.14.14.13.13,0,0,0,.14.13.13.13,0,0,0,.13-.13A.13.13,0,0,0,79.53,15Zm.54,0a.13.13,0,0,0-.13.14.13.13,0,0,0,.13.13.13.13,0,0,0,.14-.13A.14.14,0,0,0,80.07,15Zm0-1.64a.13.13,0,1,0,0,.26.13.13,0,1,0,0-.26ZM79,14.42a.13.13,0,0,0-.13.13.13.13,0,0,0,.26,0A.13.13,0,0,0,79,14.42Zm-.55-1.1a.13.13,0,1,0,.13.13A.13.13,0,0,0,78.43,13.32Zm0,.55a.13.13,0,1,0,.13.13A.13.13,0,0,0,78.43,13.87Zm.55,0a.13.13,0,1,0,.13.13A.13.13,0,0,0,79,13.87ZM78.43,15a.13.13,0,0,0-.13.14.13.13,0,0,0,.26,0A.13.13,0,0,0,78.43,15ZM79,15a.13.13,0,0,0-.13.14.13.13,0,0,0,.26,0A.13.13,0,0,0,79,15Zm0,.55a.13.13,0,1,0,.13.13A.13.13,0,0,0,79,15.51Zm0-2.19a.13.13,0,1,0,.13.13A.13.13,0,0,0,79,13.32Zm-1.1,3.29a.13.13,0,1,0,.13.13A.13.13,0,0,0,77.88,16.61Zm0-2.19a.13.13,0,0,0-.13.13.13.13,0,1,0,.13-.13Zm-.55-1.1a.13.13,0,0,0,0,.26.13.13,0,1,0,0-.26Zm0,.55a.13.13,0,0,0,0,.26.13.13,0,1,0,0-.26Zm.55,0A.13.13,0,1,0,78,14,.13.13,0,0,0,77.88,13.87ZM77.33,15a.13.13,0,0,0-.13.14.13.13,0,0,0,.13.13.13.13,0,0,0,.13-.13A.13.13,0,0,0,77.33,15Zm0,1.65a.13.13,0,0,0,0,.26.13.13,0,1,0,0-.26Zm0-.55a.13.13,0,0,0,0,.26.13.13,0,1,0,0-.26Zm.55,1.1a.13.13,0,1,0,.13.13A.13.13,0,0,0,77.88,17.16Zm0-2.2a.13.13,0,0,0-.13.14.13.13,0,1,0,.26,0A.13.13,0,0,0,77.88,15Zm0,.55a.13.13,0,1,0,.13.13A.13.13,0,0,0,77.88,15.51Zm0,.55a.13.13,0,1,0,.13.13A.13.13,0,0,0,77.88,16.06Zm0-2.74a.13.13,0,1,0,.13.13A.13.13,0,0,0,77.88,13.32Zm-1.09,3.29a.13.13,0,1,0,0,.26.13.13,0,1,0,0-.26Zm0-2.19a.13.13,0,0,0-.14.13.14.14,0,0,0,.14.13.13.13,0,0,0,.13-.13A.13.13,0,0,0,76.79,14.42Zm-.55-1.1a.13.13,0,1,0,.13.13A.13.13,0,0,0,76.24,13.32Zm0,.55a.13.13,0,1,0,.13.13A.13.13,0,0,0,76.24,13.87Zm.55,0a.13.13,0,0,0-.14.13.14.14,0,0,0,.14.13.13.13,0,1,0,0-.26ZM76.24,15a.13.13,0,0,0-.13.14.13.13,0,1,0,.26,0A.13.13,0,0,0,76.24,15Zm0,1.65a.13.13,0,1,0,.13.13A.13.13,0,0,0,76.24,16.61Zm0-.55a.13.13,0,1,0,.13.13A.13.13,0,0,0,76.24,16.06Zm.55,1.1a.14.14,0,0,0-.14.13.13.13,0,0,0,.14.13.13.13,0,1,0,0-.26Zm0-2.2a.14.14,0,0,0-.14.14.13.13,0,0,0,.14.13.13.13,0,0,0,.13-.13A.13.13,0,0,0,76.79,15Zm0,.55a.13.13,0,1,0,0,.26.13.13,0,1,0,0-.26Zm0,.55a.13.13,0,1,0,0,.26.13.13,0,1,0,0-.26Zm0-2.74a.13.13,0,1,0,0,.26.13.13,0,1,0,0-.26Zm-1.1,3.29a.13.13,0,1,0,.13.13A.13.13,0,0,0,75.69,16.61Zm0-2.19a.13.13,0,0,0-.13.13.13.13,0,1,0,.26,0A.13.13,0,0,0,75.69,14.42Zm-.55-1.1a.13.13,0,1,0,.13.13A.13.13,0,0,0,75.14,13.32Zm0,.55a.13.13,0,1,0,.13.13A.13.13,0,0,0,75.14,13.87Zm6.58.55a.13.13,0,0,0-.13.13.13.13,0,1,0,.13-.13Zm-2.19,0a.13.13,0,1,0,0,.26.13.13,0,1,0,0-.26Zm-1.1,0a.13.13,0,1,0,.13.13A.13.13,0,0,0,78.43,14.42Zm-1.1,0a.13.13,0,0,0-.13.13.13.13,0,0,0,.13.13.13.13,0,0,0,.13-.13A.12.12,0,0,0,77.33,14.42Zm-1.09,0a.13.13,0,1,0,.13.13A.13.13,0,0,0,76.24,14.42Zm2.19,1.09a.13.13,0,1,0,0,.26.13.13,0,0,0,.13-.13A.13.13,0,0,0,78.43,15.51Zm-1.1,0a.13.13,0,0,0,0,.26.13.13,0,1,0,0-.26Zm-1.09,0a.13.13,0,1,0,.13.13A.13.13,0,0,0,76.24,15.51Zm-1.1-1.09a.13.13,0,1,0,.13.13A.13.13,0,0,0,75.14,14.42Zm.55-.55a.13.13,0,1,0,.13.13A.13.13,0,0,0,75.69,13.87ZM75.14,15a.13.13,0,0,0-.13.14.13.13,0,1,0,.26,0A.13.13,0,0,0,75.14,15Zm0,1.65a.13.13,0,1,0,.13.13A.13.13,0,0,0,75.14,16.61Zm0-.55a.13.13,0,1,0,.13.13A.13.13,0,0,0,75.14,16.06Zm0,1.1a.13.13,0,1,0,.13.13A.13.13,0,0,0,75.14,17.16Zm.55,0a.13.13,0,1,0,.13.13A.13.13,0,0,0,75.69,17.16Zm0-2.2a.13.13,0,0,0-.13.14.13.13,0,1,0,.26,0A.13.13,0,0,0,75.69,15Zm-.55.55a.13.13,0,1,0,.13.13A.13.13,0,0,0,75.14,15.51Zm.55,0a.13.13,0,1,0,.13.13A.13.13,0,0,0,75.69,15.51Zm0,.55a.13.13,0,1,0,.13.13A.13.13,0,0,0,75.69,16.06Zm0-2.74a.13.13,0,1,0,.13.13A.13.13,0,0,0,75.69,13.32Zm-1.1,3.29a.13.13,0,1,0,0,.26.13.13,0,1,0,0-.26Zm0-2.19a.13.13,0,0,0-.13.13.13.13,0,0,0,.13.13.13.13,0,0,0,.13-.13A.12.12,0,0,0,74.59,14.42Zm0-.55a.13.13,0,1,0,0,.26.13.13,0,1,0,0-.26Zm0,3.29a.13.13,0,1,0,0,.26.13.13,0,1,0,0-.26Zm0-2.2a.13.13,0,0,0-.13.14.13.13,0,0,0,.13.13.13.13,0,0,0,.13-.13A.13.13,0,0,0,74.59,15Zm0,.55a.13.13,0,1,0,0,.26.13.13,0,1,0,0-.26Zm0,.55a.13.13,0,1,0,0,.26.13.13,0,1,0,0-.26Zm7.13.55a.13.13,0,1,0,.13.13A.13.13,0,0,0,81.72,16.61Zm-.55,0a.13.13,0,1,0,.13.13A.13.13,0,0,0,81.17,16.61Zm.55.55a.13.13,0,1,0,.13.13A.13.13,0,0,0,81.72,17.16Zm-1.64-.55a.13.13,0,1,0,0,.26.13.13,0,1,0,0-.26Zm0-.55a.13.13,0,1,0,0,.26.13.13,0,1,0,0-.26Zm.54,1.1a.13.13,0,1,0,0,.26.13.13,0,1,0,0-.26Zm-1.09-.55a.13.13,0,1,0,0,.26.13.13,0,1,0,0-.26Zm-.55,0a.13.13,0,1,0,.13.13A.13.13,0,0,0,79,16.61Zm0-.55a.13.13,0,1,0,.13.13A.13.13,0,0,0,79,16.06Zm0,1.1a.13.13,0,1,0,.13.13A.13.13,0,0,0,79,17.16Zm.55,0a.13.13,0,1,0,0,.26.13.13,0,1,0,0-.26Zm0-1.1a.13.13,0,1,0,0,.26.13.13,0,1,0,0-.26Zm-1.1.55a.13.13,0,1,0,.13.13A.13.13,0,0,0,78.43,16.61Zm0,.55a.13.13,0,1,0,.13.13A.13.13,0,0,0,78.43,17.16Zm0-1.1a.13.13,0,1,0,.13.13A.13.13,0,0,0,78.43,16.06Zm-1.1,1.1a.13.13,0,0,0,0,.26.13.13,0,1,0,0-.26Zm-1.09,0a.13.13,0,1,0,.13.13A.13.13,0,0,0,76.24,17.16Zm4.93,0a.13.13,0,1,0,.13.13A.13.13,0,0,0,81.17,17.16Zm-1.09,0a.13.13,0,1,0,0,.26.13.13,0,1,0,0-.26Zm2.74-.55a.13.13,0,1,0,0,.26.13.13,0,0,0,0-.26Zm0-.55a.13.13,0,1,0,0,.26.13.13,0,0,0,0-.26Zm0,1.1a.13.13,0,1,0,0,.26.13.13,0,0,0,0-.26Zm-.55,0a.13.13,0,1,0,.13.13A.13.13,0,0,0,82.27,17.16Zm-7.68-3.84a.13.13,0,1,0,0,.26.13.13,0,1,0,0-.26Zm9.32,4.93a.13.13,0,0,0-.13.14.13.13,0,1,0,.26,0A.13.13,0,0,0,83.91,18.25Zm0,1.1a.13.13,0,1,0,.13.13A.13.13,0,0,0,83.91,19.35Zm0,.55A.13.13,0,1,0,84,20,.13.13,0,0,0,83.91,19.9Zm.55,0a.13.13,0,1,0,.13.13A.13.13,0,0,0,84.46,19.9Zm0-2.19a.13.13,0,1,0,.13.13A.13.13,0,0,0,84.46,17.71Zm-1.64.54a.14.14,0,0,0-.14.14.13.13,0,0,0,.14.13.13.13,0,0,0,.13-.13A.13.13,0,0,0,82.82,18.25Zm0,.55a.14.14,0,0,0-.14.14.13.13,0,0,0,.14.13.13.13,0,0,0,.13-.13A.13.13,0,0,0,82.82,18.8Zm0,.55a.13.13,0,1,0,0,.26.13.13,0,0,0,0-.26Zm.54,0a.13.13,0,0,0,0,.26.13.13,0,1,0,0-.26Zm0,.55a.13.13,0,0,0,0,.26.13.13,0,1,0,0-.26Zm0-2.19a.13.13,0,0,0,0,.26.13.13,0,1,0,0-.26ZM82.27,18.8a.13.13,0,0,0-.13.14.13.13,0,1,0,.26,0A.13.13,0,0,0,82.27,18.8Zm-.55-1.09a.13.13,0,1,0,.13.13A.13.13,0,0,0,81.72,17.71Zm0,.54a.13.13,0,0,0-.13.14.13.13,0,0,0,.26,0A.13.13,0,0,0,81.72,18.25Zm.55,0a.13.13,0,0,0-.13.14.13.13,0,1,0,.26,0A.13.13,0,0,0,82.27,18.25Zm0,1.1a.13.13,0,1,0,.13.13A.13.13,0,0,0,82.27,19.35Zm-.55,0a.13.13,0,1,0,.13.13A.13.13,0,0,0,81.72,19.35Zm1.1.55a.13.13,0,1,0,0,.26.13.13,0,0,0,0-.26Zm-.55,0a.13.13,0,1,0,.13.13A.13.13,0,0,0,82.27,19.9Zm-.55,0a.13.13,0,1,0,.13.13A.13.13,0,0,0,81.72,19.9Zm.55-2.19a.13.13,0,1,0,.13.13A.13.13,0,0,0,82.27,17.71Zm-1.1,1.09a.13.13,0,0,0-.13.14.13.13,0,1,0,.26,0A.13.13,0,0,0,81.17,18.8Zm-.55-1.09a.13.13,0,1,0,0,.26.13.13,0,1,0,0-.26Zm0,.54a.13.13,0,0,0-.13.14.13.13,0,0,0,.13.13.13.13,0,0,0,.13-.13A.13.13,0,0,0,80.62,18.25Zm.55,0a.13.13,0,0,0-.13.14.13.13,0,0,0,.26,0A.13.13,0,0,0,81.17,18.25Zm-.55.55a.13.13,0,0,0-.13.14.13.13,0,0,0,.13.13.13.13,0,0,0,.13-.13A.13.13,0,0,0,80.62,18.8Zm0,.55a.13.13,0,1,0,0,.26.13.13,0,1,0,0-.26Zm.55,0a.13.13,0,0,0-.13.13.13.13,0,0,0,.13.13.13.13,0,1,0,0-.26Zm0,.55a.13.13,0,1,0,.13.13A.13.13,0,0,0,81.17,19.9Zm0-2.19a.13.13,0,1,0,.13.13A.13.13,0,0,0,81.17,17.71ZM80.08,18.8a.14.14,0,0,0-.14.14.13.13,0,0,0,.14.13.13.13,0,0,0,.13-.13A.13.13,0,0,0,80.08,18.8Zm-.55-1.09a.13.13,0,1,0,0,.26.13.13,0,1,0,0-.26Zm0,.54a.14.14,0,0,0-.14.14.13.13,0,0,0,.14.13.13.13,0,0,0,.13-.13A.13.13,0,0,0,79.53,18.25Zm.55,0a.14.14,0,0,0-.14.14.13.13,0,0,0,.14.13.13.13,0,0,0,.13-.13A.13.13,0,0,0,80.08,18.25Zm-.55,1.1a.13.13,0,1,0,0,.26.13.13,0,1,0,0-.26Zm.54,0a.13.13,0,0,0,0,.26.13.13,0,1,0,0-.26Zm0,.55a.13.13,0,0,0,0,.26.13.13,0,1,0,0-.26Zm0-2.19a.13.13,0,1,0,0,.26.13.13,0,1,0,0-.26ZM79,18.8a.13.13,0,0,0-.13.14.13.13,0,0,0,.26,0A.13.13,0,0,0,79,18.8Zm-.55-1.09a.13.13,0,1,0,.13.13A.13.13,0,0,0,78.43,17.71Zm0,.54a.13.13,0,0,0-.13.14.13.13,0,0,0,.26,0A.13.13,0,0,0,78.43,18.25Zm.55,0a.13.13,0,0,0-.13.14.13.13,0,0,0,.26,0A.13.13,0,0,0,79,18.25Zm-.55,1.1a.13.13,0,1,0,0,.26.13.13,0,0,0,.13-.13A.13.13,0,0,0,78.43,19.35Zm.55,0a.13.13,0,1,0,.13.13A.13.13,0,0,0,79,19.35Zm0,.55a.13.13,0,1,0,.13.13A.13.13,0,0,0,79,19.9Zm0-2.19a.13.13,0,1,0,.13.13A.13.13,0,0,0,79,17.71Zm-1.1,1.09a.13.13,0,0,0-.13.14.13.13,0,1,0,.26,0A.13.13,0,0,0,77.88,18.8Zm-.55-1.09a.13.13,0,0,0,0,.26.13.13,0,1,0,0-.26Zm0,.54a.13.13,0,0,0-.13.14.13.13,0,0,0,.13.13.13.13,0,0,0,.13-.13A.13.13,0,0,0,77.33,18.25Zm.55,0a.13.13,0,0,0-.13.14.13.13,0,1,0,.26,0A.13.13,0,0,0,77.88,18.25Zm-.55,1.1a.13.13,0,0,0,0,.26.13.13,0,1,0,0-.26Zm.55,0a.13.13,0,1,0,.13.13A.13.13,0,0,0,77.88,19.35Zm0,.55A.13.13,0,1,0,78,20,.13.13,0,0,0,77.88,19.9Zm0-2.19a.13.13,0,1,0,.13.13A.13.13,0,0,0,77.88,17.71ZM76.79,18.8a.14.14,0,0,0-.14.14.14.14,0,0,0,.14.13.13.13,0,0,0,.13-.13A.13.13,0,0,0,76.79,18.8Zm-.55-1.09a.13.13,0,1,0,.13.13A.13.13,0,0,0,76.24,17.71Zm0,.54a.13.13,0,0,0-.13.14.13.13,0,1,0,.26,0A.13.13,0,0,0,76.24,18.25Zm.55,0a.14.14,0,0,0-.14.14.14.14,0,0,0,.14.13.13.13,0,0,0,.13-.13A.13.13,0,0,0,76.79,18.25Zm-.55,1.1a.13.13,0,1,0,.13.13A.13.13,0,0,0,76.24,19.35Zm.55,0a.13.13,0,1,0,0,.26.13.13,0,1,0,0-.26Zm0,.55a.13.13,0,1,0,0,.26.13.13,0,1,0,0-.26Zm0-2.19a.13.13,0,1,0,0,.26.13.13,0,1,0,0-.26Zm-1.1,1.09a.13.13,0,0,0-.13.14.13.13,0,1,0,.26,0A.13.13,0,0,0,75.69,18.8Zm-.55-1.09a.13.13,0,1,0,.13.13A.13.13,0,0,0,75.14,17.71Zm0,.54a.13.13,0,0,0-.13.14.13.13,0,1,0,.26,0A.13.13,0,0,0,75.14,18.25Zm6.58.55a.13.13,0,0,0-.13.14.13.13,0,1,0,.26,0A.13.13,0,0,0,81.72,18.8Zm-2.19,0a.14.14,0,0,0-.14.14.13.13,0,0,0,.14.13.13.13,0,0,0,.13-.13A.13.13,0,0,0,79.53,18.8Zm-1.1,0a.13.13,0,0,0-.13.14.13.13,0,0,0,.26,0A.13.13,0,0,0,78.43,18.8Zm-1.1,0a.13.13,0,0,0-.13.14.13.13,0,0,0,.13.13.13.13,0,0,0,.13-.13A.13.13,0,0,0,77.33,18.8Zm-1.09,0a.13.13,0,0,0-.13.14.13.13,0,1,0,.26,0A.13.13,0,0,0,76.24,18.8Zm4.38,1.1a.13.13,0,1,0,0,.26.13.13,0,1,0,0-.26Zm-1.09,0a.13.13,0,1,0,0,.26.13.13,0,1,0,0-.26Zm-1.1,0a.13.13,0,1,0,.13.13A.13.13,0,0,0,78.43,19.9Zm-1.1,0a.13.13,0,0,0,0,.26.13.13,0,1,0,0-.26Zm-1.09,0a.13.13,0,1,0,.13.13A.13.13,0,0,0,76.24,19.9Zm-1.1-1.1a.13.13,0,0,0-.13.14.13.13,0,1,0,.26,0A.13.13,0,0,0,75.14,18.8Zm.55-.55a.13.13,0,0,0-.13.14.13.13,0,1,0,.26,0A.13.13,0,0,0,75.69,18.25Zm-.55,1.1a.13.13,0,1,0,.13.13A.13.13,0,0,0,75.14,19.35Zm.55,0a.13.13,0,1,0,.13.13A.13.13,0,0,0,75.69,19.35Zm-.55.55a.13.13,0,1,0,.13.13A.13.13,0,0,0,75.14,19.9Zm.55,0a.13.13,0,1,0,.13.13A.13.13,0,0,0,75.69,19.9Zm0-2.19a.13.13,0,1,0,.13.13A.13.13,0,0,0,75.69,17.71Zm-1.1,1.09a.13.13,0,0,0-.13.14.13.13,0,0,0,.13.13.13.13,0,0,0,.13-.13A.13.13,0,0,0,74.59,18.8Zm0-.55a.13.13,0,0,0-.13.14.13.13,0,0,0,.13.13.13.13,0,0,0,.13-.13A.13.13,0,0,0,74.59,18.25Zm0,1.1a.13.13,0,1,0,0,.26.13.13,0,1,0,0-.26Zm0,.55a.13.13,0,1,0,0,.26.13.13,0,1,0,0-.26Zm19.74-.55a.13.13,0,0,0-.13.13.13.13,0,1,0,.13-.13Zm.55,0a.13.13,0,1,0,0,.26.13.13,0,0,0,0-.26Zm-.55.55a.13.13,0,0,0,0,.26.13.13,0,1,0,0-.26Zm.55,0a.13.13,0,1,0,0,.26.13.13,0,0,0,0-.26Zm-1.65-.55a.13.13,0,1,0,.13.13A.13.13,0,0,0,93.23,19.35Zm.55,0a.13.13,0,1,0,.13.13A.13.13,0,0,0,93.78,19.35Zm0,.55a.13.13,0,0,0-.13.13.13.13,0,0,0,.13.13.13.13,0,1,0,0-.26Zm-1.1-.55a.13.13,0,1,0,.13.13A.13.13,0,0,0,92.68,19.35Zm-.55,0a.13.13,0,0,0,0,.26.13.13,0,1,0,0-.26Zm1.1.55a.13.13,0,1,0,.13.13A.13.13,0,0,0,93.23,19.9Zm-.55,0a.13.13,0,1,0,.13.13A.13.13,0,0,0,92.68,19.9Zm-.55,0a.13.13,0,0,0,0,.26.13.13,0,1,0,0-.26ZM91,19.35a.13.13,0,1,0,.13.13A.13.13,0,0,0,91,19.35Zm.55,0a.13.13,0,0,0-.13.13.12.12,0,0,0,.13.13.13.13,0,1,0,0-.26Zm0,.55a.13.13,0,1,0,0,.26.13.13,0,1,0,0-.26Zm-1.65-.55a.13.13,0,1,0,.13.13A.13.13,0,0,0,89.94,19.35Zm.55,0a.13.13,0,1,0,.13.13A.13.13,0,0,0,90.49,19.35Zm0,.55a.13.13,0,1,0,.13.13A.13.13,0,0,0,90.49,19.9Zm-1.65-.55a.13.13,0,1,0,0,.26.12.12,0,0,0,.13-.13A.13.13,0,0,0,88.84,19.35Zm.55,0a.13.13,0,0,0,0,.26.13.13,0,1,0,0-.26Zm0,.55a.13.13,0,0,0,0,.26.13.13,0,1,0,0-.26Zm-1.64-.55a.13.13,0,1,0,.13.13A.13.13,0,0,0,87.75,19.35Zm.55,0a.13.13,0,0,0,0,.26.13.13,0,0,0,0-.26Zm0,.55a.13.13,0,0,0,0,.26.13.13,0,0,0,0-.26Zm-1.65-.55a.13.13,0,1,0,.13.13A.13.13,0,0,0,86.65,19.35Zm.55,0a.13.13,0,1,0,.13.13A.13.13,0,0,0,87.2,19.35Zm0,.55a.13.13,0,1,0,.13.13A.13.13,0,0,0,87.2,19.9Zm3.84,0a.13.13,0,1,0,.13.13A.13.13,0,0,0,91,19.9Zm-1.1,0a.13.13,0,1,0,.13.13A.13.13,0,0,0,89.94,19.9Zm-1.1,0a.13.13,0,1,0,0,.26.13.13,0,1,0,0-.26Zm-1.09,0a.13.13,0,1,0,.13.13A.13.13,0,0,0,87.75,19.9Zm-1.1,0a.13.13,0,1,0,.13.13A.13.13,0,0,0,86.65,19.9Zm-1.09-.55a.13.13,0,1,0,0,.26.13.13,0,1,0,0-.26Zm.55,0a.13.13,0,1,0,0,.26.13.13,0,0,0,0-.26Zm-.55.55a.13.13,0,1,0,0,.26.13.13,0,1,0,0-.26Zm.55,0a.13.13,0,1,0,0,.26.13.13,0,0,0,0-.26ZM85,19.35a.13.13,0,1,0,.13.13A.13.13,0,0,0,85,19.35Zm0,.55a.13.13,0,1,0,.13.13A.13.13,0,0,0,85,19.9ZM74.59,17.71a.13.13,0,1,0,0,.26.13.13,0,1,0,0-.26ZM95.42,4.55a.13.13,0,1,0,0,.26.13.13,0,1,0,0-.26Zm0,.55a.13.13,0,1,0,0,.26.13.13,0,1,0,0-.26Zm0,.55a.13.13,0,1,0,0,.26.13.13,0,1,0,0-.26Zm0,.55a.13.13,0,1,0,0,.26.13.13,0,1,0,0-.26Zm0,1.64a.13.13,0,0,0-.13.13.13.13,0,0,0,.13.13A.13.13,0,0,0,95.56,8,.13.13,0,0,0,95.42,7.84Zm0-.55a.13.13,0,0,0-.13.13.13.13,0,0,0,.13.13.13.13,0,0,0,.14-.13A.13.13,0,0,0,95.42,7.29Zm0,1.1a.13.13,0,0,0,0,.26.13.13,0,1,0,0-.26Zm0-1.64a.13.13,0,0,0-.13.13.13.13,0,0,0,.13.13.13.13,0,0,0,.14-.13A.13.13,0,0,0,95.42,6.75Zm-.54,1.09a.13.13,0,0,0-.14.13.13.13,0,0,0,.14.13A.13.13,0,0,0,95,8,.13.13,0,0,0,94.88,7.84Zm0-2.19a.13.13,0,1,0,.13.13A.13.13,0,0,0,94.88,5.65Zm0-.55a.13.13,0,0,0-.13.13.13.13,0,1,0,.13-.13Zm0,3.29a.13.13,0,1,0,0,.26.13.13,0,0,0,0-.26Zm0-2.19a.13.13,0,1,0,0,.26.13.13,0,1,0,0-.26Zm0,.55a.13.13,0,0,0-.14.13.13.13,0,0,0,.14.13A.13.13,0,0,0,95,6.88.13.13,0,0,0,94.88,6.75Zm0,.54a.13.13,0,0,0-.14.13.13.13,0,0,0,.14.13A.13.13,0,0,0,95,7.42.13.13,0,0,0,94.88,7.29Zm0-2.74a.13.13,0,1,0,.13.13A.13.13,0,0,0,94.88,4.55Zm.54,4.39a.13.13,0,0,0,0,.26.13.13,0,1,0,0-.26Zm0,.54a.13.13,0,0,0-.13.14.13.13,0,0,0,.13.13.13.13,0,0,0,.14-.13A.14.14,0,0,0,95.42,9.48Zm0,.55a.13.13,0,0,0-.13.14.13.13,0,0,0,.13.13.13.13,0,0,0,.14-.13A.14.14,0,0,0,95.42,10Zm0,.55a.13.13,0,0,0,0,.26.13.13,0,1,0,0-.26Zm0,1.65a.12.12,0,0,0-.13.12.13.13,0,0,0,.13.14.14.14,0,0,0,.14-.14A.13.13,0,0,0,95.42,12.23Zm0-.55a.13.13,0,0,0-.13.13.13.13,0,0,0,.13.13.13.13,0,0,0,.14-.13A.13.13,0,0,0,95.42,11.68Zm0,1.09a.13.13,0,0,0-.13.13.13.13,0,0,0,.13.13.13.13,0,0,0,.14-.13A.13.13,0,0,0,95.42,12.77Zm0-1.64a.13.13,0,0,0,0,.26.13.13,0,1,0,0-.26Zm-.54,1.1a.13.13,0,0,0-.14.12.14.14,0,0,0,.14.14.13.13,0,0,0,.13-.14A.12.12,0,0,0,94.88,12.23Zm0-2.2a.13.13,0,0,0-.13.14.13.13,0,1,0,.26,0A.13.13,0,0,0,94.88,10Zm0-.55a.13.13,0,0,0-.13.14.13.13,0,1,0,.26,0A.13.13,0,0,0,94.88,9.48Zm0,3.29a.13.13,0,0,0-.14.13.13.13,0,0,0,.14.13A.13.13,0,0,0,95,12.9.13.13,0,0,0,94.88,12.77Zm0-2.19a.13.13,0,1,0,0,.26.13.13,0,0,0,0-.26Zm0,.55a.13.13,0,1,0,0,.26.13.13,0,0,0,0-.26Zm0,.55a.13.13,0,0,0-.14.13.13.13,0,0,0,.14.13.13.13,0,0,0,.13-.13A.13.13,0,0,0,94.88,11.68Zm0-2.74a.13.13,0,1,0,.13.13A.13.13,0,0,0,94.88,8.94Zm.54,4.38a.13.13,0,1,0,.13.13A.13.13,0,0,0,95.42,13.32Zm0,.55a.13.13,0,1,0,.13.13A.13.13,0,0,0,95.42,13.87Zm0,.55a.13.13,0,1,0,.13.13A.13.13,0,0,0,95.42,14.42Zm0,.54a.13.13,0,0,0-.13.14.13.13,0,0,0,.26,0A.13.13,0,0,0,95.42,15Zm0,1.65a.13.13,0,1,0,.13.13A.13.13,0,0,0,95.42,16.61Zm0-.55a.13.13,0,1,0,.13.13A.13.13,0,0,0,95.42,16.06Zm0,1.1a.13.13,0,1,0,.13.13A.13.13,0,0,0,95.42,17.16Zm0-1.65a.13.13,0,1,0,.13.13A.13.13,0,0,0,95.42,15.51Zm-.54,1.1a.13.13,0,1,0,0,.26.13.13,0,0,0,0-.26Zm0-2.19a.13.13,0,0,0-.14.13.13.13,0,0,0,.14.13.12.12,0,0,0,.12-.13A.12.12,0,0,0,94.88,14.42Zm0-.55a.13.13,0,1,0,0,.26.13.13,0,0,0,0-.26Zm0,3.29a.13.13,0,1,0,0,.26.13.13,0,0,0,0-.26Zm0-2.2a.14.14,0,0,0-.14.14.13.13,0,0,0,.14.13A.12.12,0,0,0,95,15.1.13.13,0,0,0,94.88,15Zm0,.55a.13.13,0,1,0,0,.26.13.13,0,0,0,0-.26Zm0,.55a.13.13,0,1,0,0,.26.13.13,0,0,0,0-.26Zm0-2.74a.13.13,0,1,0,0,.26.13.13,0,0,0,0-.26Zm.54,4.39a.13.13,0,1,0,.13.13A.13.13,0,0,0,95.42,17.71Zm0,.54a.13.13,0,0,0-.13.14.13.13,0,1,0,.26,0A.13.13,0,0,0,95.42,18.25Zm0,.55a.13.13,0,0,0-.13.14.13.13,0,1,0,.26,0A.13.13,0,0,0,95.42,18.8Zm0,.55a.13.13,0,1,0,.13.13A.13.13,0,0,0,95.42,19.35Zm0,.55a.13.13,0,1,0,.13.13A.13.13,0,0,0,95.42,19.9Zm-.54-1.1a.14.14,0,0,0-.14.14.13.13,0,0,0,.14.13.12.12,0,0,0,.12-.13A.13.13,0,0,0,94.88,18.8Zm0-.55a.14.14,0,0,0-.14.14.13.13,0,0,0,.14.13.12.12,0,0,0,.12-.13A.13.13,0,0,0,94.88,18.25Zm0-.54a.13.13,0,1,0,0,.26.13.13,0,0,0,0-.26ZM84.75,3.05V9.2L84.57,9a4.69,4.69,0,0,0-.5-.5.83.83,0,0,0,.07-.55c-.29.41-.48.1-.48.1.26-.42,0-.53,0-.53s0,.38-.29.25-.28-.38-.74-.47l.15-.44v0c0-.21-.23-.38-.53-.4a.16.16,0,0,0,.08-.13.16.16,0,0,0-.16-.16.15.15,0,0,0-.07.29c-.3,0-.52.19-.52.4v0l.15.45h0a.71.71,0,0,0-.51.29c-.26,0-.59.21-.38.67A1.2,1.2,0,0,1,80.5,8a.61.61,0,0,0,.67.63c.24,0,.54-.14.69-.14,0,0,0,.05-.09.07s-.36,0-.44.14.25.31.8.06a1,1,0,0,1,.77.42c.14.23-.16.51-.16.51a.73.73,0,0,0,.42-.13c.14-.13,0,.22-.4.38-.12.06.49.17.71,0a.28.28,0,0,1-.14.25c-.15.09-.45,0-.45,0a1.19,1.19,0,0,0-.34.07l-.38.17s-.35.2-.27-.25V9.93a.23.23,0,0,0-.07-.17s-.48-.32-.55-.56l-.18.11a2.08,2.08,0,0,1-.82-2.16.05.05,0,0,0-.1,0c-.08.06-1,.76-.11,2.15a2.55,2.55,0,0,1-.82-1.85s-.43.61.67,2a2.15,2.15,0,0,1-1-1.38s-.78,1,.66,2.19a3.18,3.18,0,0,1-1.07-.89s.14.74,1.33,1.26a2.93,2.93,0,0,1-1.37-.52s-.09.7,1.1,1.2A2,2,0,0,1,78.53,11s0,.35,1.17.55a1.77,1.77,0,0,1-1.19-.18s.11.87,1.59.85a2.9,2.9,0,0,1-1.46.07,1.56,1.56,0,0,0,1.5.06s-.34.4-1.44.21a1.46,1.46,0,0,0,2,.41,1.91,1.91,0,0,1-1.42.6,1.82,1.82,0,0,0,1.67-.5,5.32,5.32,0,0,1-1.23.88s1,.58,2.22-.8a5.09,5.09,0,0,1-.54.75c.32,0,.77-.85.83-1s-.17.68-.24.85c0,0,.38.19,1-1a1.49,1.49,0,0,1-.09.36c-.06.17.09,0,.09,0s.15,0,.27-.72l0,.36-.08.18.2-.08c.2-.06,0,.14,0,.14s-.38,0-1,.83c0,0,0,.17-.54.31,0,0-.14,0,0,.12l.21.19v.37l-.57.6c-.26.28-.28-.11-.28-.11l0-.37c-.08-.57-.94-.84-1-.21,0,0,.19-.11.27,0s0,.11,0,.11l.21.19c.06.07,0,.39,0,.39a.3.3,0,0,0,.09.21,2.42,2.42,0,0,0-.67-.34c-1-.2-1,.9-.61.86,0,0-.08-.08,0-.25s.17.05.17.05l.64,0c.26,0,.22.05.12.13s-.52.34-.25.83c0,0-.07.27.28.3s.32-.15.32-.15-.38.11-.32-.14.18-.12.18-.12a1.44,1.44,0,0,1,.52-.52.52.52,0,0,1,.56.08s0,.2.3.25a.19.19,0,0,1-.17.25.3.3,0,0,0,.4-.22s.21-.14.19-.33a.63.63,0,0,0-.42-.46l.76-.78a.52.52,0,0,0,.33.46.7.7,0,0,0,0-.46l.35.19a1.92,1.92,0,0,1,0-.72,2.86,2.86,0,0,1,.26-.49,2.36,2.36,0,0,1-.06,1.17s.08,0,.39-.17c0,0-.5,1.2-1.2.55,0,0-.12,1.23,1.09.39,0,0,0,.27-.71.46-.43.12-.64.86-.64.86a3.78,3.78,0,0,1,.63-.41,4,4,0,0,0,.85-.37s-.14.38-1,.69c-1.08.38-1.12,1.6-.24,1.48,0,0-.25-.33-.12-.57a3,3,0,0,1,.58-.44L84,17.4a4.7,4.7,0,0,0-.61.82c-.2.48-.26.88.31,1a1.15,1.15,0,0,1,.25-.95s.52-.57.68-.71a2.39,2.39,0,0,1-.75,1.4s.21.11.49.22a.89.89,0,0,0,.42,1v-1h9.81V3.05Zm-3.88,5.2a.4.4,0,0,1,.57,0A.54.54,0,0,1,80.87,8.25ZM82.06,7h-.13a1.59,1.59,0,0,0-.08-.22s.09-.11.21-.13Zm.39,0h-.14V6.67c.13,0,.21.08.21.13Zm7.06,9.77a.2.2,0,1,1,.19-.19A.2.2,0,0,1,89.51,16.79Zm.41.42a.2.2,0,0,1-.19-.2.2.2,0,0,1,.19-.19.2.2,0,1,1,0,.39Zm0-.42a.2.2,0,0,1-.19-.19.19.19,0,0,1,.19-.2.2.2,0,1,1,0,.39Zm0-.42a.18.18,0,0,1-.19-.19.19.19,0,0,1,.19-.19.19.19,0,1,1,0,.38Zm.42,1.25a.2.2,0,0,1-.2-.19.19.19,0,0,1,.2-.19.18.18,0,0,1,.19.19A.19.19,0,0,1,90.34,17.62Zm0-.41a.2.2,0,1,1,0-.39.19.19,0,0,1,.19.19A.19.19,0,0,1,90.34,17.21Zm0-.42a.2.2,0,1,1,0-.39.19.19,0,0,1,.19.2A.19.19,0,0,1,90.34,16.79Zm0-.42a.19.19,0,1,1,0-.38.19.19,0,1,1,0,.38Zm0-.41a.2.2,0,1,1,0-.39.19.19,0,0,1,.19.2A.19.19,0,0,1,90.34,16ZM90.76,18a.2.2,0,1,1,0-.39.2.2,0,0,1,.19.19A.2.2,0,0,1,90.76,18Zm0-.42a.2.2,0,0,1-.2-.19.19.19,0,0,1,.2-.19.19.19,0,0,1,.19.19A.2.2,0,0,1,90.76,17.62Zm0-.41a.2.2,0,1,1,0-.39A.2.2,0,0,1,91,17,.2.2,0,0,1,90.76,17.21Zm0-.84a.19.19,0,1,1,0-.38.19.19,0,1,1,0,.38Zm0-.41a.2.2,0,1,1,.19-.19A.2.2,0,0,1,90.76,16Zm0-.42a.2.2,0,1,1,.19-.19A.2.2,0,0,1,90.76,15.54Zm.41,2.91a.19.19,0,1,1,0-.38.19.19,0,1,1,0,.38Zm0-.41a.19.19,0,0,1-.19-.2.19.19,0,0,1,.19-.19.2.2,0,1,1,0,.39Zm0-.42a.19.19,0,0,1-.19-.19.18.18,0,0,1,.19-.19.19.19,0,0,1,.2.19A.2.2,0,0,1,91.17,17.62Zm0-.41A.19.19,0,0,1,91,17a.19.19,0,0,1,.19-.19.2.2,0,1,1,0,.39Zm0-.84a.19.19,0,0,1,0-.38.19.19,0,1,1,0,.38Zm0-.41a.19.19,0,0,1-.19-.19.19.19,0,0,1,.19-.2.2.2,0,1,1,0,.39Zm0-.42a.19.19,0,0,1-.19-.19.19.19,0,0,1,.19-.2.2.2,0,1,1,0,.39Zm0-.41a.19.19,0,0,1-.19-.2.19.19,0,0,1,.19-.19.2.2,0,1,1,0,.39Zm0-.42a.19.19,0,0,1-.19-.19.19.19,0,0,1,.19-.2.2.2,0,1,1,0,.39Zm0-.42a.19.19,0,0,1,0-.38.19.19,0,1,1,0,.38Zm0-.41a.19.19,0,0,1-.19-.2.19.19,0,0,1,.19-.19.2.2,0,1,1,0,.39Zm0-.42a.19.19,0,0,1-.19-.19.19.19,0,0,1,.19-.2.2.2,0,1,1,0,.39Zm0-.42a.19.19,0,0,1,0-.38.19.19,0,1,1,0,.38Zm0-.41a.19.19,0,0,1-.19-.19.19.19,0,0,1,.19-.2.2.2,0,1,1,0,.39Zm0-.42a.19.19,0,0,1,0-.38.19.19,0,0,1,.2.19A.2.2,0,0,1,91.17,12.21Zm0-.41a.19.19,0,0,1-.19-.2.18.18,0,0,1,.19-.19.19.19,0,0,1,.2.19A.2.2,0,0,1,91.17,11.8Zm0-.42a.19.19,0,0,1-.19-.19.19.19,0,0,1,.19-.2.2.2,0,1,1,0,.39Zm0-.42a.19.19,0,0,1,0-.38.19.19,0,1,1,0,.38Zm0-.41a.19.19,0,0,1-.19-.2.19.19,0,0,1,.19-.19.2.2,0,1,1,0,.39Zm0-.42A.18.18,0,0,1,91,9.94a.19.19,0,0,1,.19-.2.2.2,0,0,1,.2.2A.19.19,0,0,1,91.17,10.13Zm0-.42a.19.19,0,0,1,0-.38.19.19,0,1,1,0,.38Zm0-.41A.19.19,0,0,1,91,9.11a.19.19,0,0,1,.19-.2.2.2,0,1,1,0,.39Zm0-.42A.18.18,0,0,1,91,8.69a.19.19,0,0,1,.19-.2.2.2,0,0,1,.2.2A.19.19,0,0,1,91.17,8.88Zm0-.41a.19.19,0,0,1-.19-.2.19.19,0,0,1,.19-.19.2.2,0,1,1,0,.39Zm0-.42A.19.19,0,0,1,91,7.86a.19.19,0,0,1,.19-.2.2.2,0,1,1,0,.39Zm0-.42a.19.19,0,0,1,0-.38.19.19,0,1,1,0,.38Zm.42,11.24a.2.2,0,1,1,.19-.19A.2.2,0,0,1,91.59,18.87Zm0-.42a.19.19,0,1,1,0-.38.19.19,0,0,1,0,.38Zm0-.41a.2.2,0,1,1,0-.39.2.2,0,0,1,.19.19A.2.2,0,0,1,91.59,18Zm0-2.5a.2.2,0,1,1,.19-.19A.2.2,0,0,1,91.59,15.54Zm0-.41a.2.2,0,1,1,0-.39.2.2,0,0,1,.19.19A.2.2,0,0,1,91.59,15.13Zm0-.42a.2.2,0,1,1,.19-.19A.2.2,0,0,1,91.59,14.71Zm0-.42a.19.19,0,1,1,0-.38.19.19,0,1,1,0,.38Zm0-.41a.2.2,0,1,1,0-.39.2.2,0,0,1,.19.19A.2.2,0,0,1,91.59,13.88Zm0-.42a.2.2,0,1,1,.19-.19A.2.2,0,0,1,91.59,13.46Zm0-.42a.19.19,0,1,1,0-.38.19.19,0,1,1,0,.38Zm0-.41a.2.2,0,1,1,.19-.19A.2.2,0,0,1,91.59,12.63Zm0-.42a.2.2,0,0,1-.2-.19.19.19,0,0,1,.2-.19.19.19,0,0,1,.19.19A.2.2,0,0,1,91.59,12.21Zm0-.41a.2.2,0,0,1-.2-.2.19.19,0,0,1,.2-.19.19.19,0,0,1,.19.19A.2.2,0,0,1,91.59,11.8Zm0-.42a.2.2,0,1,1,.19-.19A.2.2,0,0,1,91.59,11.38Zm0-.42a.19.19,0,1,1,0-.38.19.19,0,1,1,0,.38Zm0-.41a.2.2,0,1,1,0-.39.2.2,0,0,1,.19.19A.2.2,0,0,1,91.59,10.55Zm0-.42a.19.19,0,0,1-.2-.19.2.2,0,1,1,.39,0A.19.19,0,0,1,91.59,10.13Zm0-.42a.19.19,0,1,1,0-.38.19.19,0,1,1,0,.38Zm0-.41a.2.2,0,1,1,.19-.19A.2.2,0,0,1,91.59,9.3Zm0-.42a.19.19,0,0,1-.2-.19.2.2,0,1,1,.39,0A.19.19,0,0,1,91.59,8.88Zm0-.41a.2.2,0,1,1,0-.39.2.2,0,0,1,.19.19A.2.2,0,0,1,91.59,8.47Zm0-.42a.2.2,0,1,1,.19-.19A.2.2,0,0,1,91.59,8.05Zm0-.42a.19.19,0,1,1,0-.38.19.19,0,1,1,0,.38ZM92,18.45a.19.19,0,0,1-.19-.19.18.18,0,0,1,.19-.19.19.19,0,1,1,0,.38ZM92,18a.2.2,0,0,1-.19-.2.2.2,0,0,1,.19-.19A.2.2,0,1,1,92,18Zm0-.42a.2.2,0,0,1-.19-.19.18.18,0,0,1,.19-.19.19.19,0,0,1,.2.19A.2.2,0,0,1,92,17.62Zm0-.41a.2.2,0,0,1-.19-.2.2.2,0,0,1,.19-.19.2.2,0,1,1,0,.39Zm0-.84A.19.19,0,0,1,92,16a.19.19,0,1,1,0,.38ZM92,16a.2.2,0,0,1-.19-.19A.2.2,0,1,1,92,16Zm0-.42a.2.2,0,0,1-.19-.19.2.2,0,1,1,.19.19Zm0-.41a.19.19,0,0,1-.19-.2.2.2,0,0,1,.19-.19.2.2,0,1,1,0,.39Zm0-.42a.2.2,0,0,1-.19-.19.2.2,0,1,1,.19.19Zm0-.42a.19.19,0,0,1,0-.38.19.19,0,1,1,0,.38Zm0-.41a.2.2,0,0,1-.19-.2.2.2,0,0,1,.19-.19.2.2,0,1,1,0,.39Zm0-.42a.2.2,0,0,1-.19-.19.2.2,0,1,1,.19.19ZM92,13a.19.19,0,0,1,0-.38A.19.19,0,1,1,92,13Zm0-.41a.2.2,0,0,1-.19-.19.2.2,0,1,1,.19.19Zm0-.42a.2.2,0,0,1-.19-.19.19.19,0,0,1,.19-.19.19.19,0,0,1,.2.19A.2.2,0,0,1,92,12.21Zm0-.41a.2.2,0,0,1-.19-.2.19.19,0,0,1,.19-.19.19.19,0,0,1,.2.19A.2.2,0,0,1,92,11.8Zm0-.42a.2.2,0,0,1-.19-.19.2.2,0,1,1,.19.19ZM92,11a.19.19,0,0,1,0-.38A.19.19,0,1,1,92,11Zm0-.41a.2.2,0,0,1-.19-.2.2.2,0,0,1,.19-.19.2.2,0,1,1,0,.39Zm0-.42a.19.19,0,0,1-.19-.19.2.2,0,1,1,.39,0A.19.19,0,0,1,92,10.13Zm0-.42a.19.19,0,0,1,0-.38.19.19,0,1,1,0,.38Zm0-.41a.2.2,0,0,1-.19-.19A.2.2,0,1,1,92,9.3Zm0-.83a.2.2,0,0,1-.19-.2A.2.2,0,0,1,92,8.08a.2.2,0,1,1,0,.39Zm0-.42a.2.2,0,0,1-.19-.19.2.2,0,1,1,.19.19Zm0-.42a.19.19,0,0,1,0-.38.19.19,0,1,1,0,.38ZM92.42,18a.2.2,0,1,1,0-.39.19.19,0,0,1,.19.19A.19.19,0,0,1,92.42,18Zm0-.42a.2.2,0,0,1-.2-.19.19.19,0,0,1,.2-.19.18.18,0,0,1,.19.19A.19.19,0,0,1,92.42,17.62Zm0-.41a.2.2,0,1,1,0-.39.19.19,0,0,1,.19.19A.19.19,0,0,1,92.42,17.21Zm0-.84a.19.19,0,1,1,0-.38.19.19,0,1,1,0,.38Zm0-.41a.2.2,0,1,1,0-.39.19.19,0,0,1,.19.2A.19.19,0,0,1,92.42,16Zm0-.42a.2.2,0,1,1,0-.39.19.19,0,0,1,.19.2A.19.19,0,0,1,92.42,15.54Zm0-5.41a.18.18,0,0,1-.19-.19.19.19,0,0,1,.19-.2.2.2,0,0,1,.2.2A.19.19,0,0,1,92.42,10.13Zm0-.42a.19.19,0,0,1,0-.38.19.19,0,1,1,0,.38Zm0-.41a.19.19,0,0,1-.19-.19.19.19,0,0,1,.19-.2.2.2,0,1,1,0,.39Zm0-.83a.19.19,0,0,1-.19-.2.19.19,0,0,1,.19-.19.2.2,0,1,1,0,.39Zm0-.42a.19.19,0,0,1-.19-.19.19.19,0,0,1,.19-.2.2.2,0,1,1,0,.39Zm0-.42a.19.19,0,0,1,0-.38.19.19,0,1,1,0,.38Zm.42,10a.2.2,0,0,1-.2-.19.19.19,0,0,1,.2-.19.19.19,0,0,1,.19.19A.2.2,0,0,1,92.84,17.62Zm0-.41a.2.2,0,1,1,0-.39A.2.2,0,0,1,93,17,.2.2,0,0,1,92.84,17.21Zm0-.42A.2.2,0,1,1,93,16.6.2.2,0,0,1,92.84,16.79Zm0-.42a.19.19,0,1,1,0-.38.19.19,0,1,1,0,.38Zm0-.41a.2.2,0,1,1,.19-.19A.2.2,0,0,1,92.84,16Zm0-5.83a.19.19,0,0,1-.2-.19.2.2,0,1,1,.39,0A.19.19,0,0,1,92.84,10.13Zm0-2.5a.19.19,0,1,1,0-.38.19.19,0,1,1,0,.38Zm.41,9.58a.19.19,0,0,1-.19-.2.19.19,0,0,1,.19-.19.2.2,0,1,1,0,.39Zm0-.42a.19.19,0,0,1-.19-.19.19.19,0,0,1,.19-.2.2.2,0,1,1,0,.39Zm0-.42a.19.19,0,0,1,0-.38.19.19,0,1,1,0,.38Zm0-6.24a.18.18,0,0,1-.19-.19.19.19,0,0,1,.19-.2.2.2,0,0,1,.2.2A.19.19,0,0,1,93.25,10.13Zm0-.42a.19.19,0,0,1,0-.38.19.19,0,1,1,0,.38Zm0-.41a.19.19,0,0,1-.19-.19.19.19,0,0,1,.19-.2.2.2,0,1,1,0,.39Zm0-.83a.19.19,0,0,1-.19-.2.19.19,0,0,1,.19-.19.2.2,0,1,1,0,.39Zm0-.42a.19.19,0,0,1-.19-.19.19.19,0,0,1,.19-.2.2.2,0,1,1,0,.39Zm0-.42a.19.19,0,0,1,0-.38.19.19,0,1,1,0,.38Zm.42,9.16a.2.2,0,1,1,0-.39.19.19,0,0,1,.19.2A.19.19,0,0,1,93.67,16.79Zm0-6.66a.19.19,0,0,1-.2-.19.2.2,0,0,1,.2-.2.19.19,0,0,1,.19.2A.18.18,0,0,1,93.67,10.13Zm0-.42a.19.19,0,1,1,0-.38.19.19,0,1,1,0,.38Zm0-.41a.2.2,0,1,1,0-.39.19.19,0,0,1,.19.2A.19.19,0,0,1,93.67,9.3Zm0-.83a.2.2,0,1,1,0-.39.19.19,0,0,1,.19.19A.19.19,0,0,1,93.67,8.47Zm0-.42a.2.2,0,1,1,0-.39.19.19,0,0,1,.19.2A.19.19,0,0,1,93.67,8.05Zm0-.42a.19.19,0,1,1,0-.38.19.19,0,1,1,0,.38Zm.42,2.5a.19.19,0,0,1-.2-.19.2.2,0,1,1,.39,0A.19.19,0,0,1,94.09,10.13Zm0-.42a.19.19,0,1,1,0-.38.19.19,0,1,1,0,.38Zm0-.41a.2.2,0,1,1,.19-.19A.2.2,0,0,1,94.09,9.3Zm0-.83a.2.2,0,1,1,0-.39.2.2,0,0,1,.19.19A.2.2,0,0,1,94.09,8.47Zm0-.42a.2.2,0,1,1,.19-.19A.2.2,0,0,1,94.09,8.05Zm0-.42a.19.19,0,1,1,0-.38.19.19,0,1,1,0,.38Zm4.73,1.65a.21.21,0,0,0-.17.1.16.16,0,0,0-.14-.08.18.18,0,0,0-.12,0,.28.28,0,0,0-.07.23V10H99V9.59a.5.5,0,0,0,0-.17.19.19,0,0,0-.18-.14m-.29.23s.06,0,.06.07v.16h-.12V9.58s0-.07.06-.07m.27,0c.06,0,.07,0,.07.09v.15h-.14V9.6S98.74,9.5,98.8,9.5ZM99,7.62l-.3.17a.22.22,0,0,0-.19-.12c-.14,0-.2.1-.21.23v.43H99V8.12h-.27V8L99,7.86V7.62m-.49.27c.06,0,.07.05.07.1v.13h-.13V8S98.47,7.89,98.53,7.89Zm2.14-.2h-.18V8H100v.21h.71ZM99,5.87l-.7.34v.24l.7.34V6.56l-.15-.07V6.17L99,6.1V5.87m-.3.36v.2l-.21-.1ZM100.35,6H100V6.2h.44a.13.13,0,0,1,.12.13.12.12,0,0,1-.05.1s-.09,0-.15,0H100v.21h.4a.3.3,0,0,0,.32-.34A.3.3,0,0,0,100.35,6ZM98.81,4.34c-.16,0-.21.19-.24.31s0,.12-.06.12-.05-.06-.05-.1a.33.33,0,0,1,.05-.16l-.14-.11a.44.44,0,0,0-.07.27c0,.13.07.32.23.32s.2-.15.22-.27,0-.16.07-.16.05.07.05.1a.32.32,0,0,1-.08.23l.12.13A.53.53,0,0,0,99,4.68C99,4.54,99,4.34,98.81,4.34Zm1.15,0v.24l.19.13L100,4.8V5l.34-.24.36.27V4.83l-.2-.14.2-.14V4.3l-.35.25Zm-.94,10h-.17v.39h-.11v-.31h-.17v.31h-.09v-.38h-.17v.59H99Zm-.53,1.6h-.17v.69h.17V16.3H99v-.21h-.53Zm.53-3.3h-.7v.21h.4l-.4.3v.2H99v-.2h-.4l.4-.31ZM99,11h-.17v.39h-.11V11h-.17v.31h-.09V11h-.17v.59H99ZM83.67,0H83.5V.26L83.32.14l-.18.12V0H83V.6l.35-.23.35.23Zm0,1.59H83V1.8h.25v.29H83v.21h.7V2.08h-.28V1.8h.28Zm-1.93.11h-.06c-.15,0-.27.07-.27.25a.21.21,0,0,0,.2.23h.13v.24H82V2H81.7c-.06,0-.09,0-.09-.1a.08.08,0,0,1,.09-.08H82V1.46h-.21Zm15.1,2.64h-.17V5h.17V4.79h.54V4.58h-.54ZM97.16,6c-.16,0-.21.18-.23.31s0,.12-.06.12-.05-.06-.05-.1a.29.29,0,0,1,0-.16l-.14-.11a.46.46,0,0,0-.06.26c0,.14.06.32.23.32s.19-.15.22-.26,0-.16.07-.16,0,.06,0,.1a.35.35,0,0,1-.09.23l.12.13a.48.48,0,0,0,.13-.34C97.39,6.18,97.34,6,97.16,6ZM97,7.8c.12,0,.21,0,.21.17s-.09.18-.21.18-.2-.05-.2-.18.09-.17.2-.17m0-.22a.37.37,0,0,0-.37.39.38.38,0,0,0,.37.4.4.4,0,0,0,0-.79ZM96.9,9.5a.08.08,0,0,1,.08.09v.14h-.16V9.59a.08.08,0,0,1,.08-.09m0-.2a.21.21,0,0,0-.22.21.19.19,0,0,0,0,.08v.35h.71V9.73h-.24V9.58C97.13,9.43,97.08,9.3,96.9,9.3Zm-13.23-6H83.5v.14h-.36V3.36H83v.46h.17V3.69h.36v.13h.17Zm-43.62,14a.39.39,0,1,0,.38.39A.39.39,0,0,0,40.05,17.35Zm19.14-5.74a.38.38,0,0,0-.38.37.39.39,0,0,0,.38.39.38.38,0,0,0,.39-.39A.37.37,0,0,0,59.19,11.61ZM21,5.86a.38.38,0,0,0,0,.76.37.37,0,0,0,.38-.38A.38.38,0,0,0,21,5.86ZM1.73,11.61a.39.39,0,0,0-.4.37.4.4,0,0,0,.4.39A.38.38,0,0,0,2.09,12,.37.37,0,0,0,1.73,11.61ZM35.29,5.86a.38.38,0,1,0,0,.76.38.38,0,0,0,0-.76ZM6.51,11.61a.38.38,0,0,0-.39.37.38.38,0,1,0,.76,0A.38.38,0,0,0,6.51,11.61Zm4.78,0a.38.38,0,0,0-.38.37.4.4,0,0,0,.38.39.38.38,0,0,0,.38-.39A.37.37,0,0,0,11.29,11.61Zm4.79,0a.37.37,0,0,0-.38.37.39.39,0,0,0,.38.39.4.4,0,0,0,.39-.39A.39.39,0,0,0,16.08,11.61Zm4.8,0a.38.38,0,0,0-.38.37.38.38,0,1,0,.75,0A.38.38,0,0,0,20.88,11.61Zm4.79,0a.38.38,0,0,0-.38.37.39.39,0,0,0,.38.39.38.38,0,0,0,.38-.39A.37.37,0,0,0,25.67,11.61Zm4.79,0a.38.38,0,0,0-.38.37.4.4,0,0,0,.38.39.39.39,0,0,0,.38-.39A.38.38,0,0,0,30.46,11.61Zm-4.71,5.74a.39.39,0,1,0,0,.77.39.39,0,0,0,0-.77Zm9.5-5.74a.37.37,0,0,0-.38.37.38.38,0,0,0,.38.39.39.39,0,0,0,.38-.39A.38.38,0,0,0,35.25,11.61Zm4.8,0a.38.38,0,0,0-.38.37.38.38,0,1,0,.76,0A.38.38,0,0,0,40.05,11.61Zm4.63,0a.38.38,0,0,0-.38.37.38.38,0,1,0,.76,0A.37.37,0,0,0,44.68,11.61ZM2.23,6.5H1.28l.47-1.12ZM3.51,7.68,2.21,4.8h-.9L0,7.68H.78L1.05,7h1.4l.28.65ZM8,4.8H7.29L6.53,6.94,5.79,4.8H5l1.1,2.87h.78Zm4.48,2.87V7.09H10.94V6.47h1.28V5.91H10.94V5.38h1.57V4.8H10.24V7.67Zm4.8-2.3a1.21,1.21,0,0,0-1.15-.63,1.33,1.33,0,0,0-1.34.9,1.79,1.79,0,0,0-.1.62,1.35,1.35,0,0,0,1.43,1.48,1.23,1.23,0,0,0,1.14-.59l-.53-.32a.7.7,0,0,1-.59.36c-.54,0-.72-.48-.72-.93s.16-1,.71-1a.66.66,0,0,1,.61.39ZM26.8,7.68V7.1H25.38V4.8h-.71V7.68Zm28.7,5.74v-.58H53.92v-.63h1.27v-.58H53.92v-.53h1.56v-.59H53.21v2.87ZM31.73,7.67V7.09H30.16V6.47h1.26V5.91H30.16V5.38h1.56V4.8H29.45V7.67Zm-.52,10a1,1,0,0,1-.27.77,1,1,0,0,1-.65.14H30V16.86h.49a.79.79,0,0,1,.28,0A.75.75,0,0,1,31.21,17.69Zm.72,0a1.34,1.34,0,0,0-1.52-1.42H29.25v2.87h1.18a1.93,1.93,0,0,0,.72-.1A1.33,1.33,0,0,0,31.93,17.72Zm33.21-4.29v-.59H63.71v-2.3H63v2.88ZM36.42,19.17v-.58H34.85V18h1.27V17.4H34.85v-.53h1.56V16.3H34.14v2.87Zm13.76-7.23a.93.93,0,0,1-.25.77,1.09,1.09,0,0,1-.67.14h-.32V11.11h.49a.74.74,0,0,1,.28.05C50,11.25,50.18,11.55,50.18,11.94Zm.73,0a1.34,1.34,0,0,0-1.52-1.43H48.23v2.88h1.19a1.89,1.89,0,0,0,.71-.11A1.3,1.3,0,0,0,50.91,12ZM41.33,6.84c0-.65-.7-.84-1.2-.94-.21-.06-.56-.13-.56-.34s.32-.28.48-.28a1.28,1.28,0,0,1,.72.22c.13-.15.25-.31.37-.46a1.77,1.77,0,0,0-1-.31c-.55,0-1.23.27-1.23.91s.57.78,1,.88c.19.05.73.12.73.39s-.31.29-.49.29a1.34,1.34,0,0,1-.92-.33l-.45.41A1.94,1.94,0,0,0,40,7.75C40.6,7.75,41.33,7.53,41.33,6.84ZM69.8,13.43l-.28-.66H68.11l-.27.66h-.78l1.32-2.88h.89l1.3,2.88Zm-1-2.3-.46,1.12h1Zm-24-3.39a1.42,1.42,0,0,1-1.53-1.49,1.53,1.53,0,0,1,3,0A1.42,1.42,0,0,1,44.84,7.74Zm0-2.47c-.58,0-.79.46-.79,1s.22,1,.79,1,.78-.45.78-1S45.41,5.27,44.84,5.27Zm1.33,12.27H44.93v.54h.56v.27c0,.3-.29.35-.52.35-.58,0-.8-.44-.8-.95s.25-1,.78-1a.89.89,0,0,1,.7.33l.44-.41a1.43,1.43,0,0,0-1.1-.48,1.47,1.47,0,0,0-1.56,1.51A1.41,1.41,0,0,0,45,19.24a1.31,1.31,0,0,0,1.07-.43,1,1,0,0,0,.11-.54ZM51,6.41V4.77h-.71V6.25a1.2,1.2,0,0,1-.08.54.58.58,0,0,1-.54.35.59.59,0,0,1-.49-.23,1,1,0,0,1-.13-.66V4.77h-.72V6.41a1.34,1.34,0,0,0,2.67,0ZM3.26,16.3H2.5l-.76,2.13L1,16.3H.25l1.11,2.87h.78Zm47.52,2.87v-.58H49.2V18h1.27V17.4H49.2v-.53h1.56V16.3H48.49v2.87ZM55.87,5.39V4.8H53.23v.59h1V7.67h.71V5.38Zm0,13.78V16.3h-.7v1.91l-1.3-1.91h-.78v2.87h.7V17.26l1.3,1.91Zm-43.46,0V18.6H11V16.29h-.7v2.89Zm47.42-3.51-1-.64-.45.48,1.06.52Zm.49,3.5v-.58H58.77V18H60V17.4H58.77v-.53h1.56V16.3H58.06v2.87ZM65,7.67V7.09H63.46V6.47h1.27V5.91H63.46V5.38H65V4.8H62.75V7.67ZM17.32,19.18V18.6H15.9V16.29H15.2v2.89Zm48-2.88h-.75l-.76,2.13-.73-2.13h-.76l1.11,2.87h.78Zm4.89-8.62V4.8h-.7l0,1.92L68.26,4.8h-.78V7.68h.71l0-1.92,1.31,1.92ZM22.15,19.17v-.58H20.57V18h1.27v-.58H20.57v-.53h1.56V16.3H19.86v2.87Zm47.86,0v-.58H68.44V18H69.7V17.4H68.44v-.53H70V16.3H67.72v2.87ZM6.18,16.3v2.87H6.9V16.3ZM58.83,4.8V7.68h.72V4.8Z"/></svg>