<?xml version="1.0" encoding="utf-8"?>
<!-- Generator: Adobe Illustrator 23.0.6, SVG Export Plug-In . SVG Version: 6.00 Build 0)  -->
<svg version="1.1" id="Calque_1" xmlns="http://www.w3.org/2000/svg" xmlns:xlink="http://www.w3.org/1999/xlink" x="0px" y="0px"
	 viewBox="0 0 495.7 555.2" style="enable-background:new 0 0 495.7 555.2;" xml:space="preserve">
<style type="text/css">
	.st0{fill:#ed6ea7;}
	.st1{fill-rule:evenodd;clip-rule:evenodd;}
</style>
<g>
	<polygon class="st0" points="290.9,388.8 261.7,386.1 217.4,360.8 218.2,309.9 249.7,310.5 245.6,314.6 232.6,318 273.6,316.4
		297.4,327.7 277,349.4 277,356.5 290.9,372 296.6,380.8 304.4,386.1 	"/>
	<g>
		<path d="M417.1,331.8c-1.9-0.8-3.7-1.5-5.4-2.2c-3.5-1.4-5.8-4.3-8.3-6.9c-1.2-1.2-2.3-2.6-3.1-4.1c-1.4-2.5-2.8-5-3.7-7.7
			c-0.7-2.3-0.7-4.8-1-7.3c-0.3-2.8-0.6-5.6-0.8-8.3c-0.3-2.8-0.6-5.6-0.7-8.4c0-0.8,0.6-1.9,1.3-2.3c5.1-3.2,10.4-3.3,16-1.4
			c4.1,1.4,7.1,3.9,9.2,7.5c-1.6,2.3-2.4,2.3-4.7,1c-1.2-0.7-2.6-1.1-4-1.3c-2.4-0.3-4.8-1.1-7.3-0.1c-0.3,0.1-0.7,0.2-1,0.2
			c-3,0.5-4.8,5.1-4.6,7.4c0.3,2.8,0.6,5.7,0.7,8.5c0.1,2.9,2.9,6.5,5.9,6.8c0.8,0.1,1.6,0.7,2.4,1.2c3.4,2.1,7.1,2.8,11,2.3
			c1.9-0.3,3.2-0.6,3.2-3.6c-0.1-5.9,0-11.7,0-17.6c0-3.3,0.9-6.2,2.8-8.9c0.9-1.2,1.5-2.8,2.6-3.8c2.1-2.1,4.2-4.3,6.6-5.7
			c4-2.4,8.7-2.2,13.2-3.3c-5.4-1.5-10.8-3-16.3-4.6c-0.1,0.1-0.3,0.3-0.4,0.4c0.2,1.1,0.4,2.2,0.7,3.3c0.3,1,0.9,2,0.9,3
			c0,0.7-0.8,1.4-1.2,2.1c-0.6-0.6-1.8,0.5-2.1-0.8c-0.6-2.1-1.4-4.2-1.8-6.4c-0.5-2.4-1.6-3.8-4-4.7c-4.7-1.8-9.1-4.1-13.7-6.1
			c-4.7-2-8.9-4.8-13-7.6c-3.3-2.3-7-4-10.2-6.4c-1.7-1.3-3.2-3.2-4.3-5c-0.4-0.7,0.3-2.2,0.7-3.2c0.1-0.1,1.4-0.1,1.9,0.3
			c2.9,2,5.6,4.3,8.5,6.3c3.5,2.3,7.1,4.4,10.7,6.5c3.5,2,6.9,4.1,10.5,5.9c3,1.6,5.9,3.1,9.9,3.6c-1-2-1.7-3.8-2.6-5.4
			c-2.5-4.4-5.7-8.4-9.7-11.6c-4-3.3-8.4-6.1-13.4-7.8c-5-1.7-10-3.3-15.3-3c-1.6,0.1-2.9-1.1-3.5-2.7c-0.9-2.4-1.8-4.9-2.8-7.3
			c-0.6-1.4,0.6-3.5,2.1-3.6c1.9-0.1,3.9-0.2,5.8-0.1c4.4,0.2,8.8,0.6,13,2c4.5,1.5,8.5,3.8,11.8,7c4.2,4,7.8,8.5,11.9,12.6
			c3.9,3.9,5.7,8.7,6.9,13.9c0.6,2.4,1.1,4.9,1.8,7.2c0.2,0.6,0.9,1.2,1.5,1.5c2.1,0.7,4.3,1.3,6.5,1.9c3.7,1,7.3,2.2,11,3
			c4.5,1,8.9,0.3,13.2-1.5c1-0.4,1.3-1.1,1.4-2.3c0-6-3.2-9.9-8-12.8c-3.4-2.1-6.9-3.9-10.3-6.1c-3.7-2.4-5.3-5.8-3.8-10.3
			c0.5-1.6,1.7-2.7,3.3-3.1c2.3-0.6,4.5-0.5,6.7,0.6c1.4,0.7,2.9,1.1,4.3,1.8c4.8,2.5,7.7,7,10.9,11c2.2,2.7,4.2,5.6,6.2,8.5
			c1.3,1.9,1.5,4,1.2,6.3c-0.8,8-9.3,13.5-15.4,13.7c-2.6,0.1-5.2,0.2-7.8,0.3c-0.7,0-1.4-0.1-1.7-0.1c1.7,0.7,3.9,1.2,5.8,2.3
			c2.9,1.7,5.6,3.7,8.2,5.7c3,2.3,5.2,5.2,6.6,8.8c1.4,3.6,3.1,7.1,4.3,10.7c1.9,5.6,2.1,11.3,0.1,17c-1.8,5-5,9-8.2,13.1
			c-1.3,1.7-2.9,3-4.6,4.1c-2.2,1.5-4.6,2-7.2,1.5c-0.9-0.2-1.8-0.9-2.6-1.5c-4.6-4-5.1-8.1-1.6-13.2c3.1-4.4,7.1-8,11-11.7
			c2.4-2.3,3.9-5.1,4.5-8.4c0.3-1.6-0.1-3-1-4.5c-1.5-2.5-2.5-5.3-4.1-7.8c-1-1.5-2.5-2.8-4-3.9c-2-1.6-4.1-3.1-6.4-4.2
			c-1.5-0.7-3.4-0.7-5.1-0.8c-1.2-0.1-2.3,0.2-3.5,0.1c-4.1-0.1-6.4,2.4-8.1,5.6c-2.5,4.8-3.4,9.9-3.5,15.2c-0.1,4.7,0.3,9.3,0.1,14
			c-0.1,3.1-0.9,6.2-2.1,9.2c-1.2,3.1-3.2,5-6,6.1c4.1,0.4,8.2,0.6,12.3,1.4c7.7,1.5,15.3,3.3,22.6,6c2.6,1,5.4,1.7,7.9,2.9
			c1.5,0.8,3,2,4.1,3.4c2.8,3.7,1.3,7.4-3.2,8.6c-3.6,0.9-7,0.1-10.4-0.9c-2.9-0.8-5.7-1.9-8.6-2.7c-4.6-1.3-9.3-2.5-13.9-3.8
			c-2.7-0.7-5.4-1.6-8.1-2c-3.5-0.6-7-1.4-10.5-0.3c-0.8,0.2-1.6,0.8-2,1.5c-1,1.8-2,3.6-2.5,5.6c-1.1,3.7,0.8,8.9,4,11.2
			c2.9,2.1,5.5,4.5,9,5.8c2.7,1,5.4,2,8.2,3c2.3,0.8,4.6,1.7,7,2.2c3.1,0.8,6.3,1.1,9.5,1.9c4.1,1,8.3,1.7,12,3.8
			c2.1,1.2,2.3,4,0.3,5.4c-1.8,1.3-3.8,1.6-6,1.1c-6.3-1.4-12.6-2.6-18.9-4.1c-4.2-1-8.3-2.4-12.4-3.6c-3-0.9-5.9-2-9-2.8
			c-4.4-1.2-6.8-4.4-8.8-8.1c-2.6-4.8-3.2-9.8-2.4-15.2c0.4-2.7,0.3-5.6,0.1-8.4c-0.3-3,1.2-4.9,3.3-6.4c3.4-2.5,7.2-4,11.2-5.1
			C416.5,332.1,416.7,332,417.1,331.8z"/>
		<path d="M297.5,481.1c5.4-0.2,9.3-2.8,11.9-7.5c0.7-1.2,1.8-2.1,2.7-3.1c0.2-0.2,0.7-0.1,1,0c2.3,0.7,4.5,0.2,6.7-0.8
			c0.7-0.3,1.6-0.4,2.4-0.3c4.2,0.6,7.9,2.2,10.9,5.3c1.3,1.3,2.8,2.5,3.8,4c0.9,1.2,1.3,2.6,1.9,4c0.4,0.9,0.8,1.9,1.3,3.1
			c5.2-5.3,10.4-10.2,17.8-11.9c-2.1-4-4.2-7.8-6-11.6c-1.3-2.7-2.5-5.4-3.3-8.3c-0.9-3-1.2-6.2-1.8-9.3c-0.1-0.9-0.4-2-0.1-2.5
			c0.4-0.6,1.6-0.6,2.3-1c1.6-0.8,2.4-2.4,2.8-4c0.3-1.3,0.9-2.7-0.9-3.7c-0.5-0.3-0.7-1.3-0.9-1.9c2.3-1.4,3.6-3.4,4.3-5.7
			c0.3-1.1,0.8-1.9,1.9-2.5c2.2-1.4,4.1-3.3,6.3-4.8c3.2-2.1,6.5-4,10.4-4.3c2.6-0.2,5.2-0.8,7.8-0.7c5.6,0.2,11.2,0.9,16,3.9
			c4.1,2.6,7.8,5.7,11.2,9.2c3.1,3.1,5.7,6.6,7.9,10.3c3.4,5.5,5.2,11.5,6.3,17.8c0.8,4.5,1.5,9,1.8,13.6c0.2,3.8-0.4,7.5-1.8,11.1
			c-1,2.6-2,5.3-3.8,7.3c-1.9,2.1-4.2,3.7-6.9,4.9c-2.9,1.3-5.7,2.4-8.8,2.8c-3.5,0.5-7.1,0.5-10.6,0.4c-1.7,0-3.3-0.6-5-0.8
			c-1.3-0.2-1.5,0.2-1.2,1.4c0.8,3.6,2.1,7.1,2,10.9c-0.1,3.2,0.1,6.4-0.1,9.6c-0.1,2.3-0.5,4.6-1.1,6.9c-0.9,3-2,6.1-3.3,8.9
			c-1,2-2.5,3.8-4,5.6c-2.6,3.2-5.3,6.3-7.9,9.4c-1.1,1.3-2.2,2.8-3.6,3.8c-1.4,1-2.6,2.4-4.5,3c-1.5,0.5-2.9,0.9-4.5,0.8
			c-0.2,0-0.4,0.1-0.6,0.2c-1.2,0.8-2.4,0.7-3.8,0.7c-3.9,0-6.7-2-9.4-4.1c-1.9-1.5-3.7-3.8-4.5-6.1c-0.6-1.8,0-4.4,1-6.1
			c0.6-1.1,2.9-1.6,4.5-1.7c3-0.2,6,0.1,9,0c1.6-0.1,3.3-0.4,4.7-1c4.8-2,9.3-4.6,11.3-9.8c0.8-2.3,1.5-4.6,1.9-7
			c0.6-2.9,1-5.8,1.2-8.7c0.4-5.7,0.4-11.5-1.7-16.9c-0.9-2.4-2.6-4.6-5.1-5.9c-2.8-1.5-5.8-2.2-8.8-2c-2.4,0.2-5,1-7.1,2.2
			c-2.7,1.5-5.3,3.4-7.7,5.4c-1.2,1-2.1,2.6-3,4c-1.6,2.3-3.2,4.6-4.6,7.1c-1.8,3.2-3.4,6.5-4.9,9.8c-1,2.3-1.7,4.8-2.4,7.2
			c-0.3,1.2-0.9,2.2-2,1.9c-0.7-0.2-1.1-1.5-1.5-2.3c-0.2-0.3,0-0.8,0-1.2c0.6-4.1,1.4-8.2,1.9-12.4c0.6-4.9,1.2-9.8,1.2-14.7
			c0.1-5-3-9.5-8-11c-1.6-0.5-3.2-0.9-4.9-1.2c-3.4-0.6-8.1,1.5-9,5.3c-0.6,2.5-1.4,4.9-1.7,7.4c-0.4,3.9,0.8,7.4,3.1,10.6
			c0.5,0.7,0.7,1.5,1.2,2.2c0.9,1.4,1.9,2.7,2.9,4c1.3,1.7,2.6,3.3,3.9,5c0.7,0.9,0.4,2.1-0.8,2.2c-1.4,0.1-2.9-0.1-4.2-0.4
			c-2.1-0.5-4.1-1.2-6.2-1.7c-6-1.4-10.6-4.3-12.9-10.3c-1.6-4.1-1.9-8.4-0.8-12.6c0.8-3,2.4-5.8,3.7-8.7c0.2-0.5,0.9-0.7,1.4-1
			c0.5-0.3,1-0.7,1.6-1C297.4,481.4,297.5,481.2,297.5,481.1z M382.3,422.8c-1-0.1-1.9-0.4-2.9-0.4c-3.3,0-6.4,1-9.5,2.1
			c-1.1,0.4-2.2,0.8-3.2,1.4c-2.1,1.5-4.3,2.9-6.2,4.6c-1.4,1.2-3.4,2.3-3.6,4.3c-0.1,1.8,0.1,3.8,0.6,5.6c0.7,2.8,1.2,5.8,2.9,8.2
			c0.2,0.3,0.3,0.7,0.4,1c1.3,2.7,2.5,5.4,3.8,8.1c0.4,0.8,0.8,1.5,1.3,2.2c1.1,1.7,2.1,3.5,3.5,5c1.8,2.1,3.7,4,5.8,5.8
			c1.3,1.1,2.7,2.1,4.2,2.9c1.7,0.9,3.6,1.6,5.5,2.3c1.9,0.8,3.8,1.7,5.8,2.2c2.6,0.7,5.4,1.3,8.1,1.5c2.7,0.2,5.5,0.7,8-1.1
			c0.6-0.4,1.2-0.8,1.8-1.1c1.9-1,3.2-2.5,3.7-4.7c0.3-1.2,0.8-2.3,1-3.5c0.2-2.2,0.6-4.5,0.3-6.6c-0.4-2.6-1.3-5.2-2.4-7.6
			c-2-4.4-3.9-8.9-6.4-13c-3.3-5.5-7.6-10.1-12.8-13.8C389,426.2,386.3,423.4,382.3,422.8z"/>
		<path d="M456,141.5c-1.5-1.7-3.1-3.4-4.3-5.3c-2.9-4.3-5.4-8.8-5.8-14c-0.5-5-0.2-10,3.2-14.1c1.5-1.9,3.5-3.1,5.8-3.7
			c2.2-0.6,4.5-1.1,6.8-0.9c5.2,0.4,8.8,3.5,10.3,8.2c1.8,5.7,0.4,11.1-1.6,16.4c-1.1,3.1-2.6,6-3.8,9c-0.4,0.9-0.8,1.6-1.9,1.2
			c-1.1-0.4-1.6-1.2-1.3-2.3c0.6-3,1.2-6,1.9-9c1.2-5.2-0.1-9.9-2.6-14.4c-1.4-2.6-6.1-3-8.8-1.2c-4.5,3-4.6,5.5-3.5,10.6
			c1.1,5.1,4,9.6,7.5,13.4c3,3.2,6.6,5.9,11,7.3c0.9,0.3,1.8,0.6,2.7,0.9c2.3,0.8,4,0,5.6-1.7c2.6-2.7,3.1-5.9,2.9-9.5
			c-0.2-4.2-0.3-8.4,0-12.5c0.1-2.1,0.8-4.1,2.6-5.7c2.6-2.3,7.1-2.2,10.1,0.9c2.1,2.3,2.9,5,3.1,7.9c0.2,2.8,0.1,5.7-0.3,8.5
			c-0.3,2.1-1.2,4.2-2.1,6.2c-1,2-2.4,4-3.8,5.7c-2.4,2.9-5.7,4.6-9.3,5.4c-1.8,0.4-3.8,0.4-5.7,0.5c-3.5,0.1-6.8-0.9-10.2-2
			c2.1,2,4.3,4,6.4,6.1c2.3,2.2,4.5,4.5,6.8,6.8c0.6,0.6,1.3,1.2,1.8,1.8c1.4,1.8,1.1,3.5-0.7,4.8c-1.2,0.8-3.5,0.8-4.6-0.1
			c-3.8-3.1-7.5-6.3-11.5-9.2c-6.3-4.6-12.7-9.2-19.2-13.5c-1.9-1.2-4.2-1.7-6.4-2.5c-1.5-0.5-2,0.7-2.3,1.6c-0.3,0.7-0.1,1.7,0,2.5
			c0,0.3,0.5,0.6,0.5,0.9c0.3,4.2,3.1,7,5.7,9.7c3.5,3.6,7.5,6.8,11.4,9.9c4.2,3.4,8.5,6.5,12.8,9.7c0.9,0.7,1.9,1.2,2.8,1.8
			c1.2,0.9,1.1,1.9-0.3,2.6c-1.2,0.6-2.2,0.7-3.4-0.1c-3.5-2.4-7.2-4.5-10.7-6.9c-2-1.3-3.8-3-5.6-4.5c-2.8-2.4-5.6-4.8-8.4-7.1
			c-0.3-0.2-0.8-0.3-1.2-0.4c0.1,0.4,0,0.9,0.2,1.2c2.4,3.7,5.5,6.8,8.7,9.8c1.7,1.7,3.2,3.6,4.9,5.3c2.7,2.7,5.4,5.4,8.2,8
			c1,1,2,1.9,2,3.4c0,0.7-0.1,1.7-0.5,2c-0.6,0.4-1.8,0.6-2.4,0.3c-1.5-1-3-2.2-4.2-3.5c-4.9-5.2-9.7-10.5-14.7-15.6
			c-3.2-3.3-6.6-6.4-9.9-9.6c-2.5-2.5-5.2-4.8-7.3-7.6c-1.5-2-2.4-4.5-3.5-6.8c-0.2-0.4-0.2-0.8-0.4-1.1c-0.6-1.1-0.1-2.1,0.7-2.7
			c0.9-0.7,1.6,0,2.2,0.7c1.3,1.5,2.7,2.5,4.7,2.9c-0.1-1.5-0.3-2.9-0.2-4.4c0.1-4.2,2.4-6.9,6.2-8.6c4.3-1.9,8.2-0.9,12.1,0.8
			c2.4,1.1,4.7,2.7,7,4c1.3,0.7,2.6,1.4,3.8,2.1C455.8,141.7,455.9,141.6,456,141.5z"/>
		<path d="M441.9,209.8c1.4,4.7,2.8,9.1,4,13.6c0.5,2-0.1,5.5-2.3,7.5c-4.6,4-9.5,3.7-14.4,1.4c-6.6-3.1-12.5-7.4-18-12.4
			c-3.6-3.3-7.7-6-11.5-9.1c-2.5-2-5.1-4-7.2-6.3c-1.9-2-2-5.5,0.4-7.3c1-0.8,2.8-1.1,4.1-0.8c4.6,0.7,7.9,3.6,10.7,7.1
			c3.5,4.2,6.7,8.8,10.6,12.6c4.2,4.1,9.3,7.1,15.3,7.7c1.5,0.2,3,0.1,3.8-1.4c0.7-1.3,0.4-2.8-0.5-4c-2-2.7-3.7-5.6-6-7.9
			c-1.9-1.9-4.4-3.2-6.6-4.8c-3.8-2.8-7.7-5.5-11.4-8.5c-2.5-2-2.7-4-1-6.7c1.1-1.9,1.1-1.9,3.1-1.1c2.7,1,5.5,1.7,8,3.1
			c3.7,2.1,7.1,4.7,10.7,7c2.5,1.6,5.1,3.1,7.7,4.6c0.5,0.3,1.1,0.6,1.5,1c2.4,1.9,5.9,1.3,7.7,0c0.6-0.4,1.1-1.3,1.2-2.1
			c0.5-4.4-0.7-8.5-3.7-11.6c-3.1-3.3-7.3-4.6-11.8-3.4c-4.3,1.1-8.5,1.3-12.9,1.2c-5.8-0.2-11.3-5.6-12.3-11
			c-1-5.5,3.9-10.2,9.7-9.5c3.9,0.4,7.4,1.5,10.3,4.4c1,1,1.3,2.1,0.8,3.3c-0.4,1.1-1.5,1.3-2.6,1.1c-1.8-0.4-3.7-0.8-5.5-1.3
			c-2-0.6-5,1.1-6.1,2.8c-0.2,0.3-0.1,1,0.2,1.4c1.4,1.8,3.2,2.9,5.5,3.5c2.9,0.8,5.3-0.2,7.8-1.1c3.2-1.1,6.2-1.3,9.6-0.3
			c3.8,1.1,7.1,2.8,10.1,5.3c4.5,3.8,7.7,8.5,9.6,14c0.2,0.5,0.2,1.2,0,1.8c-1.7,7.7-8.3,9.4-14.2,7.5
			C444.7,210.4,443.3,210.1,441.9,209.8z"/>
		<path d="M442.3,404.4c1.2,2.5,2.2,4.5,3.1,6.6c0.8,1.9,1.2,3.9,1.9,5.8c0.9,2.7-0.3,5.2-1.1,7.6c-1.2,3.4-3.3,6.4-6.3,8.7
			c-1.6,1.2-3.4,1.2-5,1.8c-2.8,1-5.4-0.1-8.1-0.9c-5.2-1.5-9.5-4.6-14-7.4c-1.6-1-2.9-2.6-4.3-3.8c-2.2-2-4.6-3.8-6.5-6
			c-4.1-4.8-8.1-9.8-11.9-14.9c-1.7-2.3-2.9-5.1-4.3-7.8c-1.2-2.3-0.2-4.4,0.9-6.2c1.7-2.7,3.9-5.1,6.8-6.8c0.4-0.2,0.8-0.5,1.1-0.8
			c2.6-2.6,5.9-3.3,9.4-3.4c5.7-0.2,10.6,2.2,15.4,4.8c5.3,2.8,10.6,5.7,16.1,8.1c2.9,1.3,6.3,1.5,9.5,2.2c3.2,0.7,6.5,1,9.5,2.8
			c2.9,1.7,3.9,5.5,0.9,8.4c-3.2,3-6.7,3.2-10.6,1.9C444.1,404.8,443.4,404.7,442.3,404.4z M411.6,386.4c-3.9-1-6.7-0.9-9.6-0.2
			c-2.6,0.6-4.5,2.2-5.6,4.5c-1.3,2.8-0.6,5.7,0.6,8.4c1.1,2.4,2.9,4.4,4.8,6.3c3.3,3.3,6.4,6.9,9.7,10.2c1.9,1.9,4,3.7,6.2,5.1
			c2.1,1.4,4.4,2.6,6.7,3.4c1.6,0.5,3.4,0.3,5.1,0.4c3.1,0.3,5.5-1.4,7.6-3.3c0.8-0.7,1.2-2.2,1.2-3.3c0.1-4-1.4-7.4-3.9-10.5
			c-2.2-2.8-4.2-5.8-6.6-8.4c-2.3-2.5-5.1-4.6-7.5-7.1C417.7,389,414.3,387.3,411.6,386.4z"/>
		<path d="M384.3,200.9c1.7,1,3.6,2,5.4,3.1c1.3,0.8,2.7,1.5,3.8,2.5c1,0.9,1.7,2.1,2.4,3.3c1.1,1.8,2.2,3.5,3.2,5.4
			c0.4,0.6,0.6,1.4,0.7,2.1c0.2,0.9-0.2,1.2-1.2,1.3c-2.2,0.1-3.7-0.5-5-2.5c-3-4.4-7.3-7-12.2-8.8c-1-0.4-1.9-1.1-2.9-1.6
			c-1-0.5-1.4-1.5-0.9-2.3c0.5-0.9,1.3-2.1,2.2-2.3C381.1,200.6,382.6,200.9,384.3,200.9z"/>
	</g>
	<g>
		<path class="st1" d="M363.6,415c-0.1,0-0.1-0.1-0.2,0.1c-1.4,0.3-2.9,0.7-4.1,0.9c-0.9,2.3-1.9,4.4-2.7,6.7
			c-0.2,0.7-0.2,1.5,0,2.2c0.3,0.9,0.1,1.5-0.4,2.2c-0.4,0.6-0.7,1.2-1.1,1.7c-0.2,0.2-0.5,0.3-0.8,0.5c-0.3,0.2-0.9,0.5-0.9,0.7
			c-0.1,2.7,0.1,5.3-0.1,8c-0.1,1.2-0.5,2.4-1.1,3.4c-0.6,1-1.6,1.7-2.9,2c-0.8,0.2-1.4,0.9-2.2,1.4c0.9,2.2-0.4,3.8-1.8,5.3
			c-1,1-1.9,2.1-3.1,3c-0.7,0.5-1.6,0.9-2.4,1.1c-1.2,0.2-2.6,1.5-3,2.7c-0.4,1.4-0.9,2.9-2.5,3.6c-1,0.4-1.9,1-2.8,1.6
			c-1.4,1.1-3.1,1.4-4.7,1.9c-1.4,0.4-2.6,1.3-3.9,2.1c-0.3,0.2-0.4,0.8-0.5,1.2c-0.8,0.7-1.8,1.4-2.5,2.3c-1,1.3-2.2,1.8-3.7,2
			c-1.5,0.1-2.9,0.7-4.1,1.6c-0.8,0.6-1.1,1.9-1.6,2.9c-0.8,1.4-0.7,3.1-2.1,4.2c-0.5,0.4-1.2,0.7-1.8,0.8c-1.4,0.3-2.1,1.6-3.6,1.9
			c-2.4,0.5-4.6,0.5-6.9-0.5c-0.5-0.2-1.6,0.1-2.1,0.5c-2.4,1.9-4.6,4-6.9,6c-1.4,1.2-3.2,1.6-4.9,1.3c-1.2-0.2-2.8-0.3-3.7-1.7
			c-0.4-0.6-1.3-0.9-2-1.4c-1.3-0.9-2.2-2.1-2-3.8c0.1-0.9,0.2-1.8,0.4-2.7c0.2-1.1-0.1-1.8-1.1-2.5c-1.3-0.9-2.6-1.9-3.6-3.1
			c-1.2-1.4-1.5-3.2-0.8-5.1c0.5-1.4,1.2-2.7,2.1-3.9c0.7-1.1,0.7-2.1,0-3.1c-2-2.6-3.8-5.4-6.2-7.6c-2.2-2-2.4-4.2-2-6.8
			c0.5-2.6,1.1-5.2,1.5-7.9c0.2-1.2,0-2.5,0-3.8c-0.2-0.1-0.4-0.1-0.6-0.2c-0.2,0.5-0.4,1.1-0.7,1.6c-0.6,0.9-1.2,1.7-1.9,2.5
			c-0.7,0.9-0.8,1.8-0.3,2.7c1.3,2.3,1.2,4.6,0,6.8c-1.1,2.1-1.3,4-0.4,6.1c0.5,1.1,0.3,2.2-0.1,3.2c-0.8,1.9-1.6,3.7-3,5.3
			c-0.6,0.7-0.6,2.1-0.4,3.1c0.2,1.3,0.3,2.6,1,3.8c0.3,0.4,0,1.3,0,1.9c-0.2,1.9-0.7,3.6-2,5c-0.7,0.8-1,1.9-1.6,2.8
			c-1,1.5-1.9,2.9-3.6,3.7c-0.8,0.4-1.5,1.2-2.3,1.6c-1.1,0.6-2,1.3-3.4,1.3c-0.7,0-1.5,0.7-2.3,1c-0.2,0.1-0.5,0.2-0.7,0.1
			c-2.1-0.5-4.4-0.7-6.3-1.5c-1.9-0.8-3.7-2.2-5.4-3.4c-0.9-0.6-1.8-1.5-2.7-2.1c-0.4-0.3-1.1-0.3-1.7-0.3c-1.7,0-3.3,0.1-5-0.1
			c-1.1-0.2-2.2-0.8-3.3-1.3c-1.2-0.5-2.6-0.8-3.7-1.5c-1.1-0.7-2.2-0.9-3.5-1c-2.8-0.1-4.8-1.7-6.3-4c-1.3-2.1-3.3-3-5.6-2.4
			c-0.8,0.2-4-0.5-4.3-1.2c-0.6-1.4-1.2-2.9-1.7-4.4c-0.4-1.1-0.6-2.2-0.9-3.3c-0.6-2.1-2.2-3.2-4.1-3.7c-1.6-0.4-2.3-1.6-3-2.7
			c-0.9-1.5-1.2-3.2-1.2-5c-0.1-2.1-1.3-3.5-3.5-4.2c-1.6-0.5-2.8-1.4-3.4-3.1c-0.5-1.3-1.4-2.5-2.2-3.6c-1.1-1.5-0.6-3-0.4-4.5
			c0.1-1,0.5-1.9,0.7-2.8c0.2-1-1.3-3.5-2.2-4.1c-1.9-1.3-4-1.4-6.1-1.8c-3.9-0.7-7.8-1.4-11.4-3.1c-1.8-0.8-3.6-1.6-5.5-2.2
			l-3.5-1.4c-0.9-0.4-1.7-0.6-2.4-1.1c-2.2-1.5-4.2-3-6.4-4.5c-0.8-0.5-1.6-0.9-2.4-1.5c-1.9-1.6-3.7-3.3-5.7-4.8
			c-1.7-1.3-3-2.8-4.4-4.3c-1.3-1.4-2.9-2.6-4-4.2c-1.4-2.2-3-4.3-4.2-6.5c-1.3-2.3-2.7-4.7-3.4-7.3c-0.3-1.1-1-2-1.6-3
			c-0.3-0.7-0.7-1.4-0.9-2.1c-0.7-2.3-1.3-4.6-2.1-6.8c-0.5-1.3-1.1-2.6-1.8-3.8c-1-1.9-2-3.8-3.2-5.6c-1.2-1.9-2.7-3.6-4-5.3
			c-0.5-0.7-1.1-1.3-1.5-2c-1.4-2.2-3.4-3.9-5.5-5.4c-0.9-0.6-2.1-1-3.1-1.4c-2-0.9-4-1.8-6-2.5c-2.1-0.7-4.2-1.3-6.3-1.8
			c-2.9-0.8-5.7-1.6-8.6-2.2c-1.5-0.4-3-0.4-4.5-0.7c-2.3-0.5-4.6-1.1-6.9-1.8c-1.9-0.5-3.8-1.1-5.6-1.9c-2-0.9-3.9-2-5.8-3.1
			c-1.8-1-3.6-2.1-5.3-3.2c-0.3-0.2-0.6-0.5-1-0.7c-1-0.7-2-1.3-2.9-2.1c-0.9-0.8-1.8-1.6-2.7-2.4c-1-0.9-2.1-1.8-3-2.8
			c-1.9-2-3.8-4-5.5-6.2c-2.1-2.6-4.1-5.4-6.1-8.1c-0.5-0.6-0.8-1.3-1.2-2c-0.9-1.5-2-3-2.8-4.6c-0.9-1.7-1.7-3.6-2.6-5.3
			c-1.3-2.4-2.7-4.7-4-7.1c-0.9-1.7-1.8-3.4-2.5-5.2c-1.6-4.1-3.2-8.3-5.6-12.1c-0.7-1.2-0.6-2.2,0.1-2.7c0.7-0.4,2.5,0,2.9,0.9
			c1,2,3,2.7,4.7,3.7c2.5,1.5,5.3,2.8,7.9,4.1c1.2,0.6,2.5,1.2,3.7,1.7c-0.3-1-0.8-1.9-1-2.9c-0.2-1,0.8-1.7,1.8-1.3
			c1.2,0.5,2.2,1.2,3.4,1.7c3,1.5,5.9,3.1,9,4.3c2.1,0.9,4.4,1.3,6.8,1.9c-0.9-0.7-1.5-1.6-2.4-1.9c-1.2-0.5-1.5-1.5-1.7-2.6
			c-0.2-1,0.8-1.7,1.8-1.3c2.1,0.9,4.1,2.2,6.3,2.8c3.3,0.9,6.6,2,10.2,2c3.3,0,6.7,0.5,10,0.4c4-0.1,8-0.1,11.8-1.6
			c0.5-0.2,1-0.6,1.4-1c1.5-1.5,2.2-3.3,2.9-5.2c0.7-2,1.6-3.9,2.2-5.9c0.4-1.2,0.5-2.5,0.8-3.7c1.1-4.9,2-9.8,2.4-14.8
			c0.3-3.5,0.3-7.1,0.6-10.6c0-0.5,0.6-1.3,1.1-1.5c0.6-0.3,1.4-0.2,1.7,0.7c0.2,0.4,0.5,0.8,1,1.5c0-0.8,0-1.4,0.1-2
			c0.2-2,0.5-4,0.4-6c-0.1-2.5-0.6-5.1-1-7.6c-0.1-0.6-0.5-1.1-0.7-1.7c-0.5-1.1-0.3-2.2,0.6-2.7c0.6-0.3,1.7,0.5,2.3,1.4
			c0.6,0.9,1.3,1.7,2,2.5c0.2-0.1,0.3-0.1,0.5-0.2c0.1-2,0.1-4.1,0.3-6.1c0.3-2.5-0.7-4.8-1.1-7.2c-0.3-2-1.1-3.9-1.8-5.8
			c-0.2-0.6-1-1.1-1.2-1.7c-0.2-0.6-0.3-1.9,0-2c0.7-0.4,1.7-0.5,2.6-0.4c2.5,0.3,3.8,2.5,5.8,3.7c1.8,1.1,3.4,2.4,4.9,3.8
			c1.6,1.5,3.5,2.6,4.7,4.6c1.2,2,2.8,3.8,4.2,5.6c1.2,1.6,2.5,3.3,3.7,4.9c1.6,2.3,3,4.7,4,7.3c0.7,1.8,1.7,3.5,2.5,5.3
			c0.8,1.9,1.6,3.9,2.4,5.8c0.4,1,0.9,2,1.2,3c0.5,1.7,0.8,3.5,1.2,5.2c0.5,2,1.2,4,1.5,6.1c0.6,3,0.9,6,1.4,9
			c0.1,0.7,0.2,1.5,0.2,2.2c0.3,3.8-0.5,7.5-0.9,11.2c-0.4,3.5-1,7-1.6,10.4c-0.5,2.8-1.2,5.6-1.6,8.4c-0.6,3.6-1.2,7.2-1.5,10.9
			c-0.2,2.6,0.4,5.1,1.1,7.7c0.5,1.7,1.6,2.9,2,4.6c0.1,0.5,0.9,0.9,1.5,1.6c0.3-1.3,0.5-2.2,0.7-3.2c0.4-2.4,0.8-4.9,1.2-7.3
			c0.5-2.6,0.9-5.2,1.4-7.8c0.7-3.6,1.2-7.3,2-10.9c1.1-5.6,2.4-11.2,3.7-16.7c0.6-2.5,1.4-4.9,2-7.4c0.7-3,1.2-6,1.9-9
			c0.4-1.9,1.1-3.7,1.5-5.5c0.5-2.5,0.9-5,1.4-7.4c0.6-2.7,1.2-5.4,2.1-8c1.6-4.4,3.2-8.9,5.1-13.2c0.9-2,2.4-3.9,3.6-5.7
			c0.9-1.4,1.9-2.8,2.8-4.1c0.1-0.2,0.3-0.5,0.5-0.5c1.7-0.5,1.6-1.9,2-3.3c0.4-2.1-0.3-3.3-1.8-4.5c-1.2-0.9-1.7-2.5-1.4-3.9
			c0.4-1.7,1.2-3.3,3.4-3.7c1-0.2,1.8-0.6,2.3-1.7c0.3-0.8,1.1-1.7,1.9-2.1c0.7-0.4,1.7-0.3,2.6-0.4c0.3,0,0.7,0,1.1-0.1
			c-0.2-0.6-0.4-1-0.5-1.5c-0.2-1.6,2.1-4.1,3.7-3.9c0.7,0.1,1.3,0.6,1.9,0.7c1.7,0.3,3-0.4,4.2-1.6c1.6-1.6,3.2-3.2,4.7-4.8
			c1.3-1.4,2.4-3,3.6-4.5c0-0.1-0.1-0.2-0.1-0.2c-2.3-0.7-2.3-1.5-0.8-3.3c0.5-0.6,0.8-1,0.5-1.9c-0.3-0.8,0.1-1.5,1-1.9
			c0.4-0.2,0.8-0.5,1.4-0.8c-1.3-0.8-3.8-0.2-2.9-2.9c-4.3-1.7-8.2-4.3-11.9-7c-3.6-2.6-7.5-4.8-11.1-7.4c-2.5-1.8-4.9-3.9-7.3-5.9
			c-2.4-2-4.8-4.1-7.2-6.2c-1.6-1.4-3-3-4.6-4.4c-3.5-3.2-6.1-7.1-8.9-10.9c-2.2-2.9-3.7-6.2-5.1-9.5c-0.5-1.3-0.6-2.7-0.8-4
			c-0.5-2.7-1.1-5.3-1.6-8c0-0.2-0.1-0.5-0.1-0.7c-0.1-2.4-0.1-4.8-0.2-7.1c-0.1-2-0.4-4-0.3-6c0-1.9,0.2-3.8,0.5-5.6
			c0.5-2.6,1-5.2,1.7-7.7c0.6-2.1,1.3-4.2,2.1-6.2c1.1-3.1,2.3-6.2,3.5-9.3c0.9-2.4,1.7-5,2.9-7.3c1.1-2,2.6-3.8,4.2-5.5
			c3.2-3.2,7.4-4.9,11.5-6.5c1.7-0.7,3.5-1.2,5.2-1.8c0.2-0.1,0.5-0.1,0.7-0.1c3.3-0.2,6.8-0.9,10-0.3c3.6,0.6,5.6-1.5,7.9-3.2
			c2.6-1.9,5.5-3.2,8.5-4.2c2.2-0.7,4.3-1.5,6.5-2c3.2-0.7,6.4-1,9.7-0.3c2,0.4,4,0.8,5.8,1.6c1.9,0.8,3.7,2,5.4,3.2
			c1.4,1,1.5,1,2.9-0.1c0.6-0.5,1.4-0.9,2.2-1.2c1.7-0.6,2.6-1.9,3.4-3.4c0.4-0.8-0.1-1.2-0.7-1.6c-0.4-0.3-0.8-0.6-1.3-0.8
			c-1.5-0.7-1.8-2-1.5-3.4c0.3-1.4,1-2.7,1.5-4.1c0.1-0.2,0.3-0.3,0.5-0.4c0.9-0.5,1.8-1,2.7-1.3c1.7-0.5,2.2-1.9,2.2-3.4
			c0-1.2,0.7-1.6,1.6-2c1.6-0.8,3.1-1.6,4.7-2.4c1.2-0.6,1.2-1.9,1.4-3c0.2-1.2-0.2-2.5,0.9-3.6c1.9-1.9,3.5-4.1,6.2-4.8
			c1.1-0.3,2.3-0.1,3.4,0.1c1.1,0.1,2.2,0.5,3.2,0.7c0.8,0.2,1.5-0.1,2.3-0.5c1.7-0.9,3.6-1.7,5.5-2.1c1.7-0.4,3.3,0.5,4.4,1.7
			c1.6,1.7,3.5,1.8,5.5,2c1.6,0.2,3.4-0.5,4.6-1.6c0.9-0.9,1.8-1,2.9-0.8c1.7,0.4,3.1-0.2,4.4-1.1c1.3-0.9,2.6-1.9,4-2.5
			c1.9-0.7,4.2-0.9,6,0c2.4,1.1,4.5,0.2,6.8-0.4c0.6-0.2,1.3-0.4,2-0.3c1.5,0.2,2.9,0.6,4.4,0.9c1.5,0.4,2.6,1.2,3.4,2.5
			c0.3,0.5,0.7,0.9,1.2,1.3c1.6,1.5,2,3.7,2.7,5.7c0.4,1.1,1.1,2,2.3,2.5c2.2,0.9,4.5,1.9,6.5,3.3c1.9,1.4,2.9,4.1,2.5,6.4
			c-0.2,1.2-0.5,2.4-0.6,3.6c0,1.4,1,2.4,2,3.2c2.4,2.1,3.3,4.7,2.9,7.8c-0.2,1.4-0.4,2.9,0.4,4.1c0.5,0.9,1.5,1.6,2.2,2.4
			c1.6,2,3,4.1,4,6.5c1.4,3.2,1.5,6.5,1.4,9.8c0,2.8-0.4,5.7-0.7,8.5c-0.2,2-1.8,3.4-3,4.8c-1.2,1.3-2.8,1.9-4.4,2.2
			c-0.7,0.1-1,0.4-1,1c-0.1,1.2-0.2,2.5-0.4,3.7c-0.2,1.1-0.5,2.2-0.6,3.3c-0.1,1.1,0,2.3-0.2,3.4c-0.6,2.5-1.3,5.1-2.1,7.6
			c-1,3.3-2.3,6.5-3.2,9.8c-0.8,3.1-1,6.3-0.8,9.5c0.2,2.2,0.7,4.4,1,6.6c0.3,2.9-0.1,5.8-0.7,8.7c-0.5,2.1-0.9,4.2-1.4,6.3
			c-0.4,1.4-1.1,2.6-1.6,4c-0.6,1.9-1.1,3.9-1.8,5.9c-0.4,1.3-1.1,2.6-1.6,4c-1,2.9-1.6,5.8-0.6,9.2c0.7-2.4,2.1-4.2,2.1-6.7
			c0-1.9,0.9-3.9,1.7-5.7c1.7-4.2,4.5-8,5.6-12.5c0.6-2.5,1.4-5,1.1-7.7c-0.2-1.2-0.4-2.4-0.8-3.4c-1-2.2-1.8-4.4-1.9-6.8
			c0-2.3,0.1-4.7,0.5-7c0.4-2.5,0.8-5,1.6-7.4c0.7-2.2,1-4.5,1.4-6.8c0.4-2,1.4-3.8,1.8-5.8c0.5-2.3,0.7-4.7,1.2-7
			c0.4-1.6,1-3.2,1.6-4.7c0.6-1.5,2.1-1.8,3.5-2c1.8-0.2,3.4-1,4.6-2.2c0.6-0.6,0.9-1.7,1.1-2.6c0.9-3.5,0.7-7.1-0.3-10.6
			c-0.3-1-0.4-2-0.6-3c-0.2-1.1-0.5-2.2-0.7-3.3c-0.3-1.7,0.5-3.1,1.2-4.4c1.3-2.4,3.3-4,5.4-5.7c2.9-2.3,6.1-2.6,9.5-2.1
			c1.2,0.2,1.2-0.8,1.8-1.3c0.9-0.8,1.6-1.8,2.5-2.5c1.1-0.8,2.3-1.5,3.5-2.1c0.8-0.4,1.5-0.3,2.2,0.3c1.1,1,2.2,1.2,3.7,0.4
			c2.4-1.3,4.3-3.1,6.1-5.1c0.7-0.8,1.6-1.5,2.6-1.8c2.3-0.8,4.6-1.7,7.2-1.4c1.9,0.2,3.8,0.1,5.6,0.5c1.7,0.4,3.3,1.2,4.8,2
			c1.3,0.7,2.2,1.8,2.6,3.2c0.1,0.4,0,0.9-0.1,1.6c1.3,0.2,2.7,0.6,4.1,0.6c1.4,0,2.7,0.6,3.9,1.2c1.1,0.6,2.1,1.3,3.2,1.7
			c2.1,0.9,2.8,2.7,3,4.7c0.1,0.9,0.6,1,1.3,1.2c2.5,0.7,5.2,0.5,7.5,1.9c2.1,1.2,4.2,2.4,6.4,3.5c1.1,0.6,2.4,0.8,3.6,1.3
			c3,1.3,5.5,3.2,7.9,5.4c1.8,1.7,2.1,4.5,0.7,6.5c-0.4,0.6-1.3,0.9-2.1,1.4c0.4,0.8,1,1.8,1.3,2.8c0.6,1.8,1.3,3.6,1.6,5.5
			c0.1,0.8-0.8,1.8-1.4,2.6c-1.1,1.4-2.7,1-4.1,1c-0.3,0.9,0,1.4,0.8,1.7c1.9,0.8,3.9,1.4,5.8,2.3c1.3,0.6,2.5,1.3,3.5,2.3
			c1,0.9,1.3,2.3,0.9,3.7c-0.3,1-0.5,2.1-0.8,3.1c-0.1,0.4-0.5,0.7-0.8,1.1c1.9,0.1,3.7,0.1,5.5,0.3c1.7,0.2,2.9,2.6,2.1,4.1
			c-0.9,1.8-2.2,3-4.2,3.6c-1.7,0.5-3.1,1.5-3.4,3.4c0,0.3,0.2,0.8,0.4,0.9c0.7,0.5,1.4,0.9,2.2,1.2c1.1,0.4,2.1,0.3,3-0.6
			c0,0,0.1-0.1,0.1-0.1c0.8-0.8,1.8-1.1,2.8-0.5c1.1,0.6,0.6,1.7,0.6,2.6c0,0.6-0.2,1.1-0.3,1.7c-0.4,1.2-0.8,2.5-1.2,3.7
			c-1.5,4.8-5.2,7.4-9.5,9.4c-0.5,0.2-1,0.3-1.5,0.3c-1.5,0.1-2.2,0.8-2.2,2.3c0,3.5-1.3,6.4-3.9,8.8c-0.3,0.3-0.6,0.8-1,1
			c-1.1,0.9-2.2,1.7-3.4,2.5c-3,2.1-5.4,4.6-6.9,8c-0.9,2.1-1.8,4.2-2.7,6.3c-0.3,0.6-0.7,1.1-1.1,1.7c-1.9,2.6-3.7,5.2-6.5,6.9
			c-1.5,0.9-3.1,1.8-4.7,2.7c-0.2,0.1-0.5,0.2-0.8,0.2c-1.5,0.2-2.8,0.8-3.7,2.1c-0.3,0.4-0.7,0.8-1.2,0.9c-1.6,0.4-2.2,1.6-2.7,2.9
			c-0.9,2.4-2.4,3.8-5,3.7c-0.6,0-1.3,0.2-1.9,0.3c-0.1,0-0.3,0.2-0.4,0.3c-0.3,1.4-1.6,2.6-0.8,4.2c0.6,1.3,0.1,2.2-0.9,2.8
			c-0.7,0.4-1.3,1.1-1.6,1.8c-0.3,0.7-0.3,1.6-0.3,2.4c0,1.7-0.7,3.1-1.7,4.4c-0.5,0.7-0.6,1.8-1.2,2.5c-1,1.2-2.1,2.3-3.3,3.3
			c-1,0.8-0.9,1.6-0.7,2.6c0.1,0.6,0.5,1.3,0.5,1.9c0,0.6-0.1,1.5-0.5,1.9c-1.7,1.4-1.9,3.3-1.7,5.3c0,0.1,0.1,0.2,0.1,0.4
			c-0.8,4,1.5,7.2,2.8,10.6c1.3,3.4,2.6,6.8,3.6,10.4c1,3.6,2.4,7,3.7,10.5c0.6,1.7,1.1,3.4,1.6,5.1c0.8,2.4,1.7,4.9,2.5,7.3
			c0.6,1.8,1.1,3.7,1.6,5.6c1.2,4.4,2.3,8.8,3.4,13.1c0.4,1.5,0.9,3,1.3,4.6c0.3,1.1,0.4,2.3,0.6,3.5c0.4,1.8,0.9,3.5,1.3,5.2
			c0.6,2.6,1.1,5.1,1.5,7.7c0.5,2.6,0.9,5.3,1.2,7.9c0.3,1.7,0.4,3.5,0.6,5.3c0.3,2.8,0.6,5.6,1,8.4c0.3,2,0.6,4,0.9,6
			c0.4,2.5,0.8,5,1.2,7.5c0.5,4.3,1,8.5,1.5,12.8c0.2,1.2,0.5,2.4,0.7,3.6c0.3,3,0.6,6,0.7,8.9c0.1,3,0,6.1-0.1,9.2
			c0,2.1-0.3,4.1-1,6.2c-0.4,1.1-0.4,2.2-0.6,3.4c-0.2,1-0.6,2-0.9,2.9c-0.4,1.1-0.9,2.2-1.3,3.4c-0.4,1.1-0.7,2.4-1.2,3.5
			c-0.9,1.8-1.7,3.7-2.8,5.4c-1.3,1.9-3,3.5-4.5,5.3c-0.8,1-1.6,2-2.5,2.9c-2.8,2.6-5.6,5.2-8.5,7.7c-1.3,1.2-2.8,2.2-4.2,3.2
			c-0.9,0.7-1.9,1.3-2.9,2c-0.1,0.1-0.3,0.2-0.4,0.3c-0.1,1.5-1.4,2.3-2.3,3.3c-0.8,0.9-2,1.5-3,2.2c-0.8,0.5-1.8,0.9-2.2,1.6
			c-0.4,0.6-0.2,1.9,0.2,2.5C365.4,413,366.6,414.7,363.6,415z M65.7,304.3c-0.7-0.5-1.4-1-2.2-1.5
			C63.9,304.3,64.3,304.6,65.7,304.3c0.2,0.5,0.2,1.1,0.5,1.4c1.1,0.9,2.3,1.8,3.5,2.6c0.4,0.2,0.8,0.4,1.2,0.6
			c0.1-0.2,0.2-0.3,0.3-0.5c-1.4-1-2.7-1.9-4.1-2.9C66.6,305,66.1,304.6,65.7,304.3z M66,317.8c-0.4-0.3-0.8-0.5-1.2-0.8
			c-1.4-1-2.8-2.1-4.2-3.1c-0.2-0.1-0.5,0-0.8,0.1c0,0.1,0,0.2-0.1,0.3c1,0.7,2.3,1.2,3.1,2.1C63.8,317.3,64.7,317.9,66,317.8
			c0.3,0.3,0.5,0.8,0.9,1c1.2,0.6,2.4,1,3.6,1.6c1,0.5,1.8,1.1,3,0.8c-2.1-1.1-4.2-2.2-6.3-3.3C66.8,317.7,66.4,317.8,66,317.8z
			 M220.4,190.1c0.7,0.2,1.4,0.4,2,0.6c0.2-2,1.1-2.4,3.5-1.2c0.2-0.7,0.5-1.3,0.7-2c-2.6-0.5-3.2-1.1-3.9-3.5
			c-0.2-0.8-0.3-1.6-0.6-2.4c-0.4-1.1,0.3-1.5,1-1.8c0.8-0.2,1.4,0.1,1.6,1.1c0.2,1.4,0.5,2.9,1.8,3.6c1.2,0.7,1.5,1.5,0.8,2.7
			c0.6,0.1,1.2,0.3,1.8,0.4c0.8-1.1,1.7-2,3-1.2c0.2-1,0.3-1.9,0.6-2.7c0.2-0.4,0.8-0.6,1.1-0.9c0.5-0.6,0.9-1.2,1.4-1.8
			c-0.5-3.6-1.1-7.3-1.6-10.5c-0.3,0.2-0.8,0.7-1.4,0.9c-0.8,0.3-1,0.7-1,1.5c-0.1,1.1-0.5,2.1-1.7,2.4c-1,0.3-2.1,0.4-2.7,0.5
			c-0.6,1-1,1.9-1.6,2.5c-0.9,1-1.7,0.1-2.6-0.2c-0.4,0.9-0.5,1.9-1.1,2.3c-0.6,0.4-1.6,0.3-2.6,0.4c-0.6,1.3-0.8,1.7-5.6-0.1
			c-0.3,0.5-0.6,1-0.9,1.6c-0.7,1.2-1.5,1.3-2.5,0.5c-0.4-0.4-0.8-0.9-1.2-1.3c-0.3-0.2-0.9-0.2-1.1,0c-0.4,0.4-0.7,1-1.1,1.4
			c-0.9,1-2,0.7-2.5-0.5c-0.2-0.5-0.5-0.9-0.8-1.3c-3.7,2.6-4.5,2.7-6.1,0.7c-0.3,0.2-0.6,0.4-0.7,0.4c0.9,1.4,1.7,2.6,2.5,3.9
			c0.1,0.2,0,0.5,0,0.7c-0.3,0.9-1.1,1.1-2.2,0.4c-1.5-0.9-1.5-2.5-1.5-4c-2,0.5-2.5,0-2.2-2.1c0-0.2,0-0.5,0-0.7
			c0-1-0.1-1.7-1.4-1.1c-0.2,0.1-0.6,0-0.9,0c-0.2,0-0.5,0.2-0.7,0.3c0.2,0.2,0.3,0.5,0.5,0.5c0.8,0.1,1,0.7,0.9,1.3
			c-0.1,1-0.4,2.1-0.5,3.2c0.6,0.2,1.5,0.3,1.9,0.8c0.4,0.5,0.4,1.4,0.6,2.2c2.4-1.8,3.4,0,4.2,2c2.5-1.6,2.9-2.4,4.8,0.7
			c0.4-0.5,0.8-1,1-1.2c-0.5-1.3-1-2.5-1.3-3.7c-0.1-0.5,0.2-1.2,0.4-1.7c0.5,0.3,1,0.5,1.3,0.9c0.7,1,1.2,2.1,2,3
			c1.2,1.4,1.3,1.3,0.1,2.6c0.2,0.3,0.5,0.7,0.7,1c2.1-0.8,3-0.3,3.5,2.2c0.8-0.8,1.4-1.5,2.1-2.2c0-0.1,0-0.1-0.1-0.2
			c-0.1-0.1-0.2-0.2-0.4-0.3c-1.9-1.6-3.3-3.5-3.4-6.1c0-0.3,0.5-1,0.8-1c0.4-0.1,1.2,0.2,1.3,0.6c0.5,1.5,1.4,2.7,2.5,3.9
			c0.8,0.9,1.9,2,0.7,3.4c0.5,0.6,0.9,1.1,1.3,1.6c2-2.7,2.8-2.1,4-0.4C219.4,191.7,219.9,190.9,220.4,190.1L220.4,190.1z
			 M182.1,333.3c0.6-1.6,1-3.1,1.5-4.5c0.8-2.2,1.5-4.4,2.3-6.5c1.1-2.8,2.2-5.6,3.2-8.5c0.7-1.9,1.3-3.8,1.9-5.7
			c0.1-0.2,0.1-0.5,0-0.7c-0.5-0.8-1-1.6-1.6-2.3c-0.8-1.1-1.7-2.2-2.3-3.4c-1.2-2.4-2.3-4.9-3.4-7.5c-0.5-1.2-1-2.5-1.4-3.8
			c-0.8-2.7-1.6-5.3-2.2-8c-0.7-3.1-1.2-6.1-1.6-9.2c-0.3-1.9-0.4-3.9-0.6-5.9c-0.3-3.5-1.2-6.9-0.9-10.5c0.1-1.4-0.3-2.8-0.4-4.2
			c-0.2-1.3,0.2-2.1,1.5-2.5c0.8-0.2,1.1-0.2,1.3,0.7c0.1,0.5,0.4,1.2,0.8,1.4c0.8,0.5,1.8,0.7,2.7,1c1.4,0.4,2.1,1,2.2,2.5
			c0.2,2.1,0.2,2,2.4,2.6c1.9,0.6,3.5,1.6,4,3.8c0.1,0.5,0.7,1.1,1.2,1.3c1.3,0.6,2.8,1,4.1,1.5c0.3,0.1,0.8,0.4,0.9,0.7
			c0.4,2.1,1.6,2.4,3.4,2c0.3-0.1,0.7,0,1.1,0c1.1,0,2.5,1.1,2.8,2.2c0.5,1.7,1.3,1.9,2.5,1.9c1.3,0,2.8-0.2,3.8,0.8
			c1.7,1.8,3.7,1.9,5.9,1.8c0.3,0,0.6,0.3,0.8,0.6c0.5,0.8,1.1,1.4,2.2,1.1c0.4-0.1,1,0,1.4,0.2c1,0.5,1.9,1.1,2.9,1.7
			c0.9,0.5,1.4,1.4,1.1,2.3c-0.2,0.6-0.9,1-1.5,1.5c-0.5,0.4-1,0.6-1.8,1.1c0.9,0.5,1.5,0.9,2.2,1.2c2.1,1.2,4.3,2.4,6.4,3.7
			c0.7,0.4,1.4,1,1.7,1.7c0.6,1.2,0.1,1.9-1.2,2.2c-2.2,0.4-4.4,0.9-6.3,2.2c-0.6,0.4-0.8,0.9-0.4,1.6c0.4,0.7,0.7,1.4,1.2,2.3
			c6.2-3.1,13.4-4.2,19.3-8.2c-0.8,0-1.6,0-2.5-0.1c-1-0.1-2-0.3-2.9-0.5c-2.2-0.5-4.4-0.9-6.6-1.6c-1.3-0.4-2.6-1-3.8-1.8
			c-0.6-0.4-1.3-1.2-1.4-1.9c-0.1-0.7,0.2-1.6,1.3-1.9c2.3-0.6,4.5-1.6,6.8-2c3.2-0.6,6.4-0.8,9.6-1.3c0.9-0.1,1.8-0.6,2.8-1
			c-0.9-0.5-1.6-0.6-2.3-0.9c-1.5-0.7-2.7-1.5-4.6-0.4c-2.1,1.1-4.6,0.8-6.5-1.2c-0.2-0.2-0.9-0.2-1.3-0.2c-1.2,0.2-2.5,0.5-3.7,0.6
			c-1.6,0.1-2.3-1.1-2.9-2.4c-0.3-0.7-0.8-1.9-2.1-0.8c-0.2,0.2-0.7,0-1,0c-1.7-0.3-2.8-1.5-4-2.7c-0.4-0.4-0.9-0.7-1.4-0.9
			c-1.3-0.6-2.7-1-3.7-2.2c-0.6-0.8-1.4-1.6-2.2-2.3c-0.2-0.2-0.7-0.5-1-0.4c-1.3,0.5-2-0.3-2.8-1.2c-1.2-1.3-2.8-2.3-4.6-2.1
			c-2.1,0.2-3.5-0.5-4.7-2.1c-0.2-0.3-0.9-0.6-1.2-0.5c-1.8,0.5-3-0.2-4.1-1.5c-0.5-0.5-0.8-1.2-1.3-1.7c-0.4-0.4-0.9-0.7-1.4-0.8
			c-1.8-0.3-3.5-0.8-4.3-2.6c-1.2-2.5-2.4-3.3-5.1-3.3c-2.3-0.1-2.9,0.1-3.7-2.5c-0.4-1.2-0.7-2.4-1.1-3.6c-1.3,0.1-2.6-0.1-3.4-1.3
			c-0.6-1-1.2-2-1.4-3.1c-0.4-2.2-1.8-3.5-3.7-4.5c-1.5-0.8-2.5-2.3-2.8-3.9c-0.2-1.2-0.1-2.6,0-3.9c0.2-1.4-0.6-3.2-1.8-3.7
			c-1.1-0.5-2.1-1-3.4-1.6c0,0-0.4,0.3-0.6,0.6c-0.8,1.3-1.7,2.6-2.5,3.9c-1.1,1.8-2.3,3.6-3.2,5.5c-1.4,3.1-2.7,6.3-3.8,9.5
			c-1.1,3-2.1,6-2.9,9.1c-1,4-1.8,8.1-2.7,12.1c-0.4,2-0.7,4-1.2,6c-1.2,5-2.5,10-3.7,14.9c-0.5,2.1-0.8,4.2-1.3,6.3
			c-0.4,1.7-0.8,3.4-1.2,5.2c-0.4,1.8-0.9,3.5-1.2,5.3c-0.7,3.6-1.3,7.3-1.9,10.9c-0.4,2.5-1,5-1.4,7.5c-0.8,5.1-1,10.2-2.2,15.2
			c-0.2,1-0.3,2-0.4,3c-0.3,3-0.6,6-0.8,9c-0.1,1.5,0.1,3.1,0.1,4.6c0,0.9-0.3,1.8-0.2,2.7c0.1,2.9,0.3,5.7,0.5,8.6
			c0.1,2.4,0.1,4.8,0.5,7.2c0.4,2.7,1.2,5.4,2,8.1c0.5,1.9,1.1,3.8,1.9,5.5c1,2.1,2.3,4,3.5,5.9c1.5,2.3,2.9,4.6,4.6,6.7
			c1,1.3,2.5,2.3,3.8,3.4c1.4,1.2,3,2.2,4.9,2.7c1.2,0.3,2.3,1.2,3.5,1.7c1,0.5,1.7,1.6,3.1,1c0.2-0.1,0.7,0.4,1.1,0.7
			c0.3,0.3,0.6,0.8,0.9,0.9c3.5,0.9,6.5,2.7,9.7,4.2c2.9,1.4,5.8,3,8.7,4.3c1.6,0.7,3.2,1.7,5.2,1.1c1.2-0.4,2.5-0.6,3.8-0.7
			c3-0.4,6.1-0.7,9.1-1c2.2-0.2,4.4-0.4,6.6-0.5c1.3-0.1,2.6,0,3.9,0.2c2.9,0.6,5.7,1.4,8.5,2.1c2.4,0.6,4.7,1.2,7.1,1.7
			c2.3,0.5,4.6,1,7,1.4c1.8,0.3,3.7,0.6,5.5,0.7c2.7,0.1,5.5,0.1,8.2,0c1.7-0.1,3.4-0.6,5.1-0.9c1.5-0.3,3.1-0.5,4.6-0.9
			c1-0.3,2-0.9,2.6-1.7c1-1.5,1.6-3.2,1.6-5.1c0-1.7,0.1-3.3,0.1-5c0-4.5,0.1-9,0.1-13.6c0-1.6-0.2-3.2-0.2-4.7c0-0.7-0.2-1-0.8-1.2
			c-0.9-0.3-1.9-0.6-2.8-1c-1.5-0.7-3-1.5-4.4-2.3c-2.2-1.3-4.4-2.7-6.7-3.9c-1.8-1-3.7-1.8-5.6-2.8c-2.3-1.2-4.4-3-6.9-3.9
			c-2.4-0.9-4.5-2.4-6.7-3.7c-2.1-1.2-4.1-2.5-6.2-3.7c-1.8-1-3.7-1.9-5.5-2.9c-2.1-1.1-4.2-2.2-6.4-3.1c-2.6-1.1-5.3-2.1-7.9-3
			c-2.7-0.9-5.5-1.8-8.3-2.3c-3.1-0.5-6.3-0.7-9.4-0.6c-1.9,0.1-4-0.1-5.6,1.5c-0.1,0.1-0.4,0.2-0.5,0.2c-0.6-0.3-1.6-0.3-1.6-1.4
			c0-1,0.3-1.8,1.4-2.1c3.4-0.8,7-1.3,10.5-1.1c2.9,0.2,5.7,0.8,8.5,1.1c0.3,0,0.6,0,0.9,0c-0.3-0.4-0.4-0.8-0.7-1.1
			c-1-1-1.9-2.4-3.2-2.9c-2.6-1-5.2-2.1-8.1-2.4c-4.2-0.3-8.3-0.3-12.3,0.9c-2,0.6-4.1,1.1-6.2,1.7c-1.3,0.3-2.5,0.8-3.8,1.1
			c-0.7,0.2-1.5,0.1-1.8-0.8c-0.3-0.8,0.2-1.3,0.9-1.6c0.4-0.2,0.8-0.5,1.3-0.6c4.5-1.4,8.9-3.2,13.5-3.6c3.2-0.3,6.5,0,9.8,0
			c0.5,0,0.9,0.1,1.4,0.2c0-0.1,0.1-0.2,0.1-0.3c-1.2-1-1.7-2.8-3.6-3.2c-0.7-0.1-1.3-1-2.1-1.2c-2.7-0.9-5.4-1.6-8-2.6
			c-0.4-0.2-0.8-1.1-0.9-1.6c0-0.6,0.5-1.1,1.3-0.9c2.3,0.5,4.5,1,6.8,1.6c0.9-1.7,2.1-3.4,2.9-5.3c1-2.4,1.8-4.9,2.7-7.4
			c0.2-0.4,0.6-0.8,0.8-1.2c0.1,0.1,0.2,0.1,0.3,0.2c0.2,1.8,0.1,3.6-0.4,5.3c-0.7,2.5-1.5,5-3,7.2c-0.3,0.5-0.6,1.3-0.4,1.7
			C180.7,332.8,181.5,333,182.1,333.3z M371.7,214.7c-0.2,0-0.5,0.1-0.7,0.1c0.1,0.6,0.1,1.2,0.3,1.7c0.3,0.9,0.8,1.7,1.2,2.5
			c0.2,0.5,0.2,1.1,0,1.5c-0.5,1-1.4,1.8-1.9,2.8c-0.4,0.8-0.9,1.8-0.9,2.7c0,2.2-0.4,4.2-2.2,5.7c-0.8,0.6-1.6,1.1-2.4,1.7
			c-0.4,0.3-0.8,0.8-0.9,1.3c-0.5,2.2-0.2,4.3,0.2,6.5c0.3,1.6,0.1,3.3,0.1,4.9c-0.1,1.9-0.2,3.8-0.5,5.7c-0.4,2.7-0.9,5.4-1.2,8.1
			c-0.2,1.7-0.2,3.4-0.4,5.1c-0.5,2.8-1.1,5.7-1.7,8.5c-0.4,1.9-1,3.7-1.5,5.5c-0.2,0.6-0.1,1.2-0.3,1.8c-0.5,1.3-1,2.6-1.6,3.9
			c-0.9,2-1.8,4-2.8,5.9c-0.4,0.6-0.4,1,0,1.5c0.2,0.2,0.3,0.5,0.5,0.7c-0.5,0.4-1.2,0.3-1.2,1.3c0,2-0.5,4-0.8,6
			c-0.3,2.2-0.5,4.4-0.8,6.6c-0.3,2.4-0.5,4.8-0.8,7.1c-0.4,2.8-0.8,5.6-1.2,8.4c-0.5,3.4-0.9,6.8-1.3,10.2c0,0.3,0.2,0.9,0.4,0.9
			c1.6,0.2,2.9,1.8,4.8,0.6c1.7-1.1,3.7-1.9,5.6-2.8c2-1,3.9-2.3,6.1-2.9c3.5-1,7.2-1.3,10.9-0.5c2.2,0.5,4.1,1.4,5.9,2.7
			c1.1,0.8,2.1,1.5,3.3,2.1c1,0.6,1.2,0.9,0.2,2.2c-1.5-0.7-3.3-1.3-4.7-2.3c-2.8-2-5.9-2.4-9.2-2.2c-3.4,0.2-6.3,1.7-9.4,2.9
			c-0.6,0.2-1,0.8-1.6,1.2c2.3,0.4,4.4,0.8,6.4,1.2c0.9,0.2,1.7,0.6,2.6,0.7c4.5,0.5,8.5,2.4,12.3,4.7c1.2,0.7,2.2,1.8,3.4,2.6
			c2.8,2,5.6,3.9,8.3,6c0.4,0.3,0.5,0.9,0.8,1.4c-0.6,0.1-1.2,0.3-1.8,0.3c-0.4,0-0.7-0.3-1.1-0.5c-1-0.6-1.9-1.3-2.9-1.9
			c-2.4-1.7-4.8-3.5-7.3-5.1c-1.2-0.8-2.6-1.4-3.9-2.1c-0.1,0.1-0.1,0.2-0.2,0.3c0.1,0.2,0.3,0.4,0.4,0.6c1.2,1.4,2.5,2.8,3.5,4.3
			c0.8,1.2,1.6,2.5,2.1,3.9c1.1,2.8,1.9,5.7,2.9,8.6c0.5,1.3,1.1,2.5,1.7,3.7c0.1,0.3,0.3,0.7,0.3,1c0,0.3-0.2,0.8-0.4,0.9
			c-0.3,0.1-0.9,0.1-1.1-0.1c-0.7-0.9-1.5-1.8-1.9-2.8c-1.3-3.1-2.5-6.3-3.6-9.5c-1.1-3.2-3.4-5.5-5.4-8c-2.4-2.9-5.1-5.5-9.2-6.2
			c-2.3-0.4-4.4-0.9-6.8-0.6c1.1,0.8,2.2,1.4,3.2,2.2c2,1.5,4.2,2.9,6,4.7c1.6,1.5,2.8,3.4,4.2,5c1.1,1.2,1.9,2.4,1.8,4.5
			c-0.7-0.4-1.3-0.6-1.7-1.1c-0.7-0.7-1.1-1.7-1.8-2.4c-2.2-2-4.3-4.1-6.6-6c-3.1-2.5-6.4-4.7-10.1-6.2c-2-0.8-3.9-1.6-5.9-2.4
			c-2.3-0.9-4.8-1.7-7-2.8c-2.9-1.4-5.7-3-8.5-4.6c-1.3-0.7-2.4-1.7-3.6-2.6c-1.8-1.4-3.5-2.9-5.4-4.4c-0.5,0.6-1.2,1.1-1.4,1.7
			c-0.8,2.2-2.1,3.9-3.5,5.7c-0.4,0.6-0.8,1.1-1.1,1.8c-0.9,1.9-1.8,3.8-2.7,5.6c-0.7,1.4-1.6,2.8-2.4,4.2c-0.9,1.5-1.6,3.2-2.6,4.5
			c-2,2.7-3.8,5.6-4.9,8.8c-0.6,1.7-1.1,3.6,0.2,5.4c0.5,0.7,1,1.3,1.3,2.1c0.6,1.9,1.2,3.8,2.4,5.4c1.1,1.4,2,2.9,3.1,4.2
			c1.6,1.8,3.3,3.4,5,5c2,1.9,3.9,4,6.1,5.8c2.7,2.2,5.5,4.1,8.3,6.1c0.8,0.6,1.8,1,2.6,1.5c0.6,0.3,1.3,0.7,1.9,1
			c0.2,0.2,0.6,0.1,0.9,0.3c1.8,1,3.5,2.1,5.2,3.1c1.2,0.7,2.4,1.5,3.6,2.1c2.1,0.9,4.2,1.8,6.4,2.6c2.1,0.7,4.2,1.6,6.4,1.8
			c3.3,0.4,6.7,0.1,9.9-1.1c2.2-0.8,4.5-1.4,6.3-2.9c3.6-3,7.2-6,10.5-9.3c2.5-2.5,4.8-5.4,6.8-8.4c1.6-2.4,2.8-5.1,3.9-7.8
			c0.9-2.3,1.4-4.7,2-7.2c0.4-1.8,0.7-3.6,0.8-5.5c0.2-4,0.4-7.9,0.3-11.9c0-2.7-0.5-5.4-0.8-8.1c-0.2-1.7-0.4-3.5-0.6-5.2
			c-0.3-2.6-0.4-5.1-0.8-7.7c-0.2-1.5-0.6-2.9-0.8-4.4c-0.7-5-1.3-10-1.9-15.1c-0.5-3.9-0.9-7.7-1.4-11.6c-0.4-3.3-1-6.6-1.5-9.8
			c-0.1-0.3-0.2-0.7-0.3-1c-0.6-2.5-1.2-5-1.9-7.6c-0.5-2.1-1.2-4.1-1.7-6.2c-0.5-2.3-0.8-4.6-1.3-6.9c-0.7-3-1.5-5.9-2.3-8.9
			c-0.6-2.4-1.2-4.8-2-7.2c-1-3-2.2-6-3.2-9c-1.2-3.6-2.5-7.1-3.7-10.7c-1-3-2-6.1-3-9.1C372.6,217.2,372.1,215.9,371.7,214.7z
			 M151.7,130.8c0.4,1.7,0.7,3.1,1,4.6c0.4,1.7,0.9,3.3,1.5,4.9c0.6,1.7,1.3,3.4,2.1,5c0.5,1,1.1,2.1,1.9,2.9c1,1,2.3,1.8,3.3,2.7
			c0.5,0.5,0.9,1.2,1.4,1.7c0.8,0.7,1.6,1.4,2.4,2.1c2.3,2.1,4.6,4.3,7,6.3c2,1.6,4.1,3,6.2,4.4c1.7,1.1,3.4,2,5.2,3
			c1.6,0.9,3.2,2.1,5,2.6c2.5,0.7,5.1,1.1,7.8,1.3c2.5,0.2,5-0.1,7.5-0.3c3-0.3,6.1-0.5,8.7-2.3c1.5-1.1,3.3-1.8,4.3-3.6
			c0.8-1.4,1.5-2.7,2.3-4.1c0.7-1.3,1.2-2.5,0.8-4c-0.1-0.4,0.3-1.5,0.6-1.5c1.1,0,1-0.8,1.2-1.5c0.1-0.5,0.1-1,0.2-1.5
			c0.4-1.6,0.9-3.1,1.3-4.7c0.3-1.2,0.4-2.4,0.7-3.5c0.2-1.1,0.3-2.3,0.5-3.4c0.7-3.4,1.5-6.7,2.1-10.1c0.4-2.4,0.9-4.8,0.6-7.2
			c-0.4-3.6-1-7.3-2.2-10.7c-0.9-2.6-3-4.8-4.5-7.1c-0.1-0.1-0.3-0.2-0.4-0.2c-1.6-1-3.4-1.9-4.7-3.2c-1.8-1.7-3.5-1-5.3-0.4
			c-1.8,0.6-3.4,1.4-5.2,1.9c-2.5,0.7-4.8,1.8-6.6,3.8c-1.6,1.7-3.1,3.6-3.9,5.9c-0.4,1.2-0.9,2.3-1.7,3.3c-1.4,1.7-2.3,2.4-5.1,0.9
			c-1.2-0.6-1.7-1.8-1.3-2.8c0.6-1.6,1.3-3.2,2.3-4.6c2-2.8,4.3-5.3,7.6-7c2.5-1.3,4.9-2.8,7.8-3.4c2.3-0.4,4.7-0.8,7.4-1.2
			c-2.4-2.1-4.7-3.9-6.9-5.9c-1.3-1.1-2.5-2.3-3.6-3.5c-1.3-1.3-2.5-2.7-3.5-3.8c-1.4,0.6-2.5,1-3.5,1.5c-3,1.4-6.3,1.4-9.5,1.8
			c-2.4,0.3-4.8,0.4-7.2,0.6c-3.1,0.2-6.2,0.4-9-1.5c-0.8-0.5-0.8-0.8,0-1.4c0.3-0.2,0.7-0.5,0.7-0.8c0.2-0.9,0.3-1.8,0.3-2.7
			c0-0.4-0.1-0.9-0.4-1.2c-1.2-1.4-1.2-1.4-0.1-2.9c0.8-1,0.7-1.9-0.2-2.8c-0.4-0.4-0.8-0.8-1.1-1.2c-0.9-1.4-0.9-2.1,0.2-3.1
			c0.6-0.5,0.9-1.3,1.4-2c-0.9-0.7-1.6-1.2-2.2-1.7c-1.2-0.9-1.2-1.5-0.3-2.6c0.7-0.8,1.4-1.6,2-2.3c-0.7-0.8-1.2-1.4-1.8-1.9
			c-0.6-0.5-0.5-1-0.1-1.5c0.5-0.6,1.1-1.2,1.7-1.7c0.5-0.4,0.5-0.7,0.1-1.3c-0.7-1-0.6-1.7,0.3-2.6c0.5-0.5,0.8-1,1.2-1.6
			c-0.1,0-0.2,0-0.4,0c-0.3-0.9-1.1-2-0.9-2.7c0.2-0.8,1.4-1.3,2.2-1.9c-1.2-1.4-2.6-1.5-4.7-0.5c-0.2,1.4-0.3,2.7-0.6,3.8
			c-0.5,1.6-2,1.3-3.4,1.1c0.2,0.4,0.2,0.7,0.4,0.9c0.9,1.4,1,3,0,4.3c-1.1,1.3-1.3,2.7-0.7,4.2c0.1,0.1,0.1,0.3,0.1,0.5
			c0.4,0.9,0.1,1.7-0.5,2.4c-0.5,0.5-1,1.1-1.5,1.6c0.1,0.2,0.2,0.3,0.2,0.3c1.7,1.9,1.8,3.4,0.3,5.5c-0.2,0.3-0.3,0.8-0.2,0.9
			c1.5,1.3,0.6,2.7-0.1,3.8c-0.7,1-0.7,1.5,0.3,2.1c0.2,0.1,0.2,0.5,0.2,0.7c0.1,1.7-0.3,3.3-1.6,4.8c0.5,0.2,0.9,0.5,1.3,0.5
			c0.9,0.1,1.4,0.4,1.2,1.4c-0.1,0.7-0.5,1.6-0.2,2c0.9,1.3,1,2.6,0.8,4.1c-2.6,0.5-4.1,2.5-5.3,4.5c-0.9,1.4-1.2,3.2-2.1,4.6
			c-1.8,2.7-2.8,5.6-3.1,8.8c-0.3,3.6-0.3,7.2-0.4,11.1c1.4-0.5,2.4-0.8,3.4-1.2c3.9-1.5,7.8-2.8,12-2.8c3.1,0,6,0.6,8.7,2.4
			c2.4,1.6,4.2,3.7,5.6,6.2c0.9,1.7,1.5,3.5,2,5.3c0.4,1.4,0.2,2.9,0.6,4.3c0.6,2.3,1.3,4.7,2.2,6.9c0.3,0.7,1,1.4,1.7,1.6
			c1.6,0.5,3.5-0.5,4.5-2c0.4-0.5,0.8-1.1,1.3-1.5c1.2-0.8,2.4-1.6,3.7-2.2c1.5-0.8,1.6-0.8,1.1-2.4c-0.1-0.3-0.2-0.7-0.1-0.8
			c0.4-0.5,0.9-1.2,1.5-1.2c1.2,0,2.6,2.6,2.1,3.7c-0.6,1.3-1.6,2.2-2.9,2.9c-1.5,0.9-3.2,1.5-4.2,3c-1.5,2-3.5,3.1-5.9,3.3
			c-1.4,0.1-2.9,0.4-4-0.8c-2.2-2.3-3.4-5.1-4.2-8.1c-0.5-1.9-0.5-4-0.8-6c-0.5-3.1-1.5-5.9-3.9-8.1c-0.3-0.2-0.8-0.3-1.1-0.3
			c-0.7,0.1-1.3,0.4-1.9,0.4c-3.2-0.2-6.3-1.3-9.5-0.8c-1.4,0.2-2.8,0.2-4.1,0.5c-1.9,0.5-3.9,1.1-5.8,1.7c-0.5,0.2-0.9,0.7-1.3,1.1
			c0.1,0.1,0.1,0.2,0.2,0.3c0.5-0.1,1.1-0.1,1.6-0.2c2.1-0.6,4-1.8,6.3-1.9c2.5-0.1,4.9-0.7,7.4-0.8c1.9-0.1,3.7,0.6,5.1,1.9
			c0.6,0.6,0.9,1.9,0.8,2.9c-0.2,2.4-4.1,5.1-7.1,5.2c-2.5,0.1-4.7-0.6-7-1.3c-1.7-0.5-3.4-1.3-5.1-1.9
			C153,131.2,152.5,131,151.7,130.8z M172,196.3c-0.1,0.1-0.2,0.2-0.3,0.4c0.1,0.2,0.1,0.4,0.2,0.7c0.5,1.7-0.1,3.3-1.6,4.2
			c-0.9,0.6-1.9,1-3,0.9c-0.4,0-1.2,0.4-1.3,0.7c-0.4,2.1-2.1,2.5-3.7,3.2c-0.4,0.2-0.9,0.5-1.1,0.9c-0.1,0.2,0.1,0.7,0.3,1
			c0.6,0.9,1.3,1.7,2.1,2.5c1,1,0.8,2.2,0.6,3.4c-0.2,1-0.2,2-0.3,2.9c0,0.2,0.3,0.6,0.5,0.6c1.6,0.5,2.8,1.4,3.6,3
			c0.6,1.1,1.1,2.2,0.9,3.5c-0.1,0.4-0.4,0.9-0.3,1.3c0.2,1.9,0.6,3.6,2.4,4.7c2.2,1.3,3.9,3,4.4,5.8c0.3,1.8,1.3,3.1,3.5,2.8
			c0.4-0.1,1.1,0.6,1.3,1c0.3,0.8,0.5,1.6,0.6,2.5c0.3,1.8,0.9,2.5,2.8,2.5c1.2,0,2.3,0,3.2,0.8c1,0.9,2.3,1.7,2.7,2.8
			c0.5,1.3,1.2,2,2.4,2.1c2.1,0.1,3.2,1.4,4.3,2.9c0.5,0.6,1.7,1.3,2.2,1.1c1.7-0.7,2.7,0.1,3.6,1.3c0.7,0.9,1.4,1.3,2.6,1.3
			c1.1,0,2.2,0.2,3.2,0.7c1.7,0.9,3.3,2.1,4.9,3.2c1.7,1.3,3.3,2.7,4.9,4.1c0.3,0.2,0.7,0.5,1.1,0.5c1.9,0.1,3.4,0.7,4.2,2.6
			c0.6,1.5,1.4,1.6,2.8,0.7c0.7-0.4,1.4-0.8,2,0.2c0.6,0.8,1.4,1.4,2,2.3c1.1,1.6,1.7,1.9,3.4,1c0.5-0.3,0.9-0.8,1.3-1.2
			c0.7-0.7,1.3-0.7,1.9,0.1c0.2,0.4,0.3,0.8,0.6,1.2c0.6,0.8,1.2,1.4,2.4,1.4c1.4,0,2.4-0.8,3.6-1.3c1-0.4,1.8-0.8,2.8,0.3
			c1.9,1.9,4,1.8,6.3,0.2c0.6-0.4,1.6-0.9,2.1-0.7c1.6,0.9,2.7,0.8,4.1-0.4c1.1-0.9,1.5-1.6,1.1-2.9c-0.6-1.9-0.5-3.7,1.3-5.1
			c0.1-0.1,0.2-0.3,0.3-0.5c0.2-2,0.8-4.1,0-6.1c-0.4-1-0.1-1.8,0.6-2.5c0.8-0.9,1.7-1.7,2.5-2.7c0.3-0.3,0.5-0.8,0.4-1.2
			c-0.3-1.1-0.6-2.3-1.2-3.3c-0.8-1.3-0.3-2.3,0.2-3.3c1-2,2.1-3.9,1.1-6.3c-0.2-0.6-0.2-1.3-0.3-2c-0.2-1.4,0.4-2.7,0.8-4
			c1.4-4,0.4-7.7-1.7-11.2c-1.1-1.9-1.1-4,0.3-5c1.4-1,2-2.4,2.5-3.9c0.3-0.8,0.4-1.8,0.2-2.6c-0.7-2.8-0.2-5.4,0.5-8
			c0.4-1.4,0.3-2.6-0.2-3.8c-0.2-0.5-0.3-1-0.5-1.7c-0.3,0.1-0.6,0.3-1,0.3c-0.4,0.1-1,0.3-1.2,0.1c-1.2-0.9-2.2-0.2-3.2,0.3
			c-0.8,0.4-1.4,0.5-2.2-0.2c-0.9-0.7-1.7-1.3-3.1-0.8c-1.3,0.4-3,0.6-4.3-0.6c-0.8-0.8-1.3-1.8-2.1-2.6c-0.3-0.3-0.8-0.5-1.2-0.7
			c-0.2,0.4-0.6,0.8-0.6,1.2c0,0.9,0.4,1.9,0.4,2.8c0,2.1-0.2,4.2-0.3,6.2c-0.2,3.4-0.3,6.7-0.5,10.1c-0.1,2-0.3,4-0.5,6
			c-0.1,1-0.1,2-0.2,3c-0.5,3.2-0.6,6.3-1.2,9.5c-0.6,2.9-0.9,5.9-1.9,8.7c-0.6,1.6-0.9,3.3-1.5,5c-0.2,0.6-0.8,1.1-0.9,1.7
			c-0.4,2.2-1.6,3.1-3.6,2.9c-1.4-0.1-2.7-0.5-4.1-0.9c-2.8-0.7-5.8-0.8-8.4-2.3c-2.4-1.4-5-2.4-7.4-3.6c-2.2-1.2-4.4-2.5-6.5-3.8
			c-2.6-1.7-5.2-3.6-7.8-5.4c-1.5-1.1-3-2.3-4.5-3.6c-1.5-1.2-2.9-2.6-4.2-3.9c-0.8-0.7-1.5-1.6-2.2-2.3c-1.4-1.4-2.9-2.8-4.2-4.3
			c-1.8-2.1-3.2-4.5-5-6.5c-2.9-3.1-5.1-6.6-7.1-10.3c-0.8-1.5-1.5-3.1-2.4-4.6C172.9,196.9,172.4,196.6,172,196.3z M172.9,413.1
			c-0.6,2.9-1.3,5.6-1.6,8.3c-0.1,1.1,0.5,2.4,1.2,3.3c0.7,0.9,1.9,1.6,3,2.2c1.5,1,2.2,2.6,2.5,4.2c0.3,1.5-0.1,3.1-0.2,4.7
			c0,1.5-0.8,3.1,0.5,4.4c0.3,0.3,0.6,0.6,0.7,1c0.3,1.9,1.8,2.7,3.1,3.3c1.5,0.6,2.3,1.7,3.4,2.6c1.5,1.2,1.3,2.8,1.6,4.4
			c0.3,1.6,0.5,3.4,2,4.4c1.1,0.7,2,1.7,3.4,1.9c0.7,0.1,1.4,0.6,1.7,1.6c0.5,1.6,1.4,3,2,4.6c0.2,0.4-0.2,1.3,0,1.5
			c1.2,0.7,0.6,2.1,1.4,3c0.2,0.2,0.6,0.5,0.9,0.5c1.9,0.1,3.8,0.1,5.7,0.3c0.8,0.1,1.8,0.7,2.4,1.3c1.1,1.1,1.8,2.5,2.9,3.7
			c0.6,0.7,1.3,1.3,2.5,1.3c1.8,0,3.6-0.1,5.2,1c1,0.7,2.1,1.4,3.2,2.1c0.6,0.4,1.1,0.8,1.8,0.9c1.9,0.4,3.8,0.1,5.7-0.4
			c1.6-0.4,3,0.4,4,1.3c1.5,1.4,2.5,3.2,4.6,4c1,0.4,2,1,3,1.4c0.8,0.3,1.7,0.5,2.6,0.6c0.4,0.1,1,0.1,1.4-0.1
			c1.7-0.9,3.6-1.4,4.9-2.8c1.4-1.5,2.8-2.9,4-4.4c0.7-0.8,0.9-2,1.6-2.9c0.7-0.9,0.9-1.8,0.7-2.8c-0.2-1.4-0.6-2.8-0.8-4.3
			c-0.3-2.1-0.5-4.2,0.8-6.1c0.9-1.3,1.7-2.5,2.6-3.8c0.6-1,0.7-2,0.2-3c-0.3-0.8-1-1.6-0.9-2.3c0.2-1.5,0.7-3,1.5-4.2
			c1.4-2.3,1.1-4.4-0.1-6.5c-0.7-1.3-0.7-2.2,0.3-3.4c0.5-0.5,0.8-1.1,1.2-1.7c-0.1-0.1-0.1-0.3-0.2-0.4c-1.7-0.2-3.3-0.5-5-0.7
			c-0.6,0-1.2,0.3-1.7,0.5c-1.5,0.6-3,1.4-4.5,1.7c-0.8,0.2-1.8-0.5-2.9-0.9c0,0.2-0.1,0.6-0.2,1c-0.6,2.2-1.1,4.4-1.8,6.5
			c-0.5,1.4-1.3,2.7-2.1,4c-0.6,1-1.3,1.8-1.9,2.8c-0.4,0.6-0.7,1.3-1,2c-0.3,0.9-0.8,1.5-1.8,1.2c-1.4-0.4-2.8-1-4.2-1.4
			c-2.6-0.6-5-1.5-7.4-2.7c-1.4-0.7-2.7-1.6-3.9-2.4c-2.2-1.5-4.5-2.8-6.5-4.6c-2.1-1.8-3.8-3.9-5.7-5.9c-1.6-1.7-3-3.5-4.5-5.3
			c-2.1-2.5-4.2-5.1-6.3-7.6c-1.1-1.3-2.3-2.5-3.1-3.9c-0.6-1.1-1.1-1.2-2.2-1.2c-0.9,0.1-1.9-0.1-2.7-0.4c-2.1-0.9-4.2-1.9-6.3-2.8
			c-2.2-0.9-4.4-1.6-6.5-2.9C175.8,414.1,174.3,413.7,172.9,413.1z M345.5,421.6c-0.4,0.4-0.7,0.9-1.2,1.2c-0.7,0.4-1.5,0.6-2.1,1.1
			c-1.4,1.1-2.7,2.4-4.2,3.6c-1.2,0.9-2.4,1.6-3.7,2.4c-0.6,0.3-1.2,0.7-1.8,0.8c-2,0.4-4.1,0.7-6.1,1.1c-1.3,0.2-2.6,0.7-3.9,0.8
			c-0.7,0.1-1,0.2-1.3,0.8c-0.4,1-1,2-1.5,2.9c-1,2.1-1.6,4.5-3,6.4c-2.3,3-5,5.7-7.6,8.5c-0.4,0.4-0.9,0.7-1.4,1.1
			c-0.9,0.7-1.7,1.5-2.6,2.1c-1.3,0.8-2.7,1.4-3.9,2.2c-1.5,0.9-2.6,0.8-3.8-0.3c-1.6-1.6-1.4-3.7-2-5.6c-0.4-1.2-0.6-2.4-1-3.5
			c-0.5-1.4-1.2-2.7-1.8-4.1c-0.6-1.4-1.1-2.9-1.7-4.3c-0.2-0.5-0.5-0.9-0.7-1.4c-1.1-1.6-2.3-3.2-2.9-5.1c-0.3-1.1-0.8-2.3-1.4-3.3
			c-1-1.7-2-3.3-3.1-4.9c-2-3-4.2-5.9-8.1-6.7c-0.4,2.6-0.7,3.2-2,4.9c-0.7,0.9-1.3,1.9-0.5,3.1c0.5,0.8,0.8,1.7,1.3,2.5
			c0.8,1.3,1,3.2-0.6,4.7c-0.7,0.6-1.6,0.9-2.4,1.3c-1,0.4-2,0.8-3.1,1.2c0.8,3.6,0.3,7,0,10.4c-0.1,1-0.6,2-0.6,3.1
			c0,1.8-0.6,3.8,1,5.4c0.5,0.5,1,0.9,1.4,1.5c1.3,1.7,2.5,3.6,3.9,5.2c1.1,1.3,2.4,2.5,1.9,4.4c-0.3,1.2-0.8,2.3-1.2,3.5
			c-0.5,1.3-1.8,2.3-1.3,3.9c0.3,0.1,0.6,0.2,0.9,0.4c-0.1,0.1-0.2,0.2-0.3,0.2c0.2,0.5,0.3,1.1,0.6,1.4c1.4,1.3,2.7,2.7,4.2,3.8
			c1,0.7,0.9,1.4,0.6,2.4c-0.3,1.2-0.4,2.5-0.5,3.7c0,0.3,0.4,0.8,0.7,1c0.7,0.5,1.4,1,2.1,1.5c2,1.2,4.2,1.4,5.4-0.9
			c1.3-2.4,3.2-4,5.4-5.3c0.9-0.5,2-1.2,3-1.1c2.1,0.2,4.2,0.8,6.3,1.2c0.3,0.1,0.7,0.1,0.9,0c1.1-0.7,2.1-1.6,3.2-2.2
			c1.3-0.6,1.4-1.6,1.8-2.7c0.4-1.2,0.9-2.4,1.6-3.5c0.7-1,1.6-2.1,2.6-2.5c1.4-0.6,3-0.7,4.6-1c0.3-0.1,0.8-0.1,1-0.3
			c0.6-0.6,1.1-1.4,1.8-2c1.2-1.2,2.4-2.4,3.7-3.6c0.4-0.3,1.1-0.3,1.6-0.6c1.1-0.8,2.3-1,3.6-1.1c0.6-0.1,1.3-0.4,1.9-0.8
			c1-0.7,1.9-1.5,3.3-1.4c0.3,0,0.8-0.5,0.9-0.9c0.2-1.2,0.2-2.4,0.5-3.6c0.1-0.5,0.7-1.2,1.2-1.4c1.4-0.6,2.9-1.2,4.4-1.6
			c1.4-0.4,2.4-1.2,3.2-2.4c0.4-0.6,0.8-1.1,1-1.7c0.3-0.7,0.6-1.5,0.5-2.2c-0.1-1.1,0-1.9,0.9-2.4c1.1-0.7,2.3-1.3,3.4-2
			c0.5-0.3,0.9-0.9,1.2-1.4c0.9-2,0.1-4.1,0.2-6.1c0-2.6,0.6-4.8,2.8-6.4c1.1-0.8,1.3-1.6,0.8-3.1c-0.3-1-0.6-1.9-2.1-1.7
			c-0.6,0.1-1.4-0.4-2.1-0.4C348.1,421.4,346.8,420.4,345.5,421.6z M274.2,192.7c-0.5,0.8-1,1.3-1.2,2c-0.4,1.3-0.6,2.7-0.7,4
			c-0.2,2-0.1,3.8,1.4,5.5c0.7,0.8,0.8,2.3,0.8,3.5c0,1.4-0.5,2.7-0.8,4c-0.3,1.2-0.7,2.4-0.8,3.6c-0.1,1.2-0.2,2.3,1.1,3.2
			c0.6,0.4,1.1,1.4,1.1,2.1c-0.1,1.5-0.3,3.2-0.9,4.6c-1,2.3-0.6,4.2,1,6c1.2,1.4,1.3,3.3,0.9,4.9c-0.6,2.3-1.6,4.5-2.4,6.7
			c-0.1,0.4-0.2,1,0,1.4c0.6,1.2,1.3,2.4,2,3.5c0.8,1.3,0.8,2.7,0.4,4.1c-0.4,1.4-0.5,2.6,0.7,3.7c2.3,2.1,3.1,4.7,2.7,7.7
			c-0.1,0.5,0.1,1.2,0.5,1.5c2.8,2.4,4.8,5.1,5.5,8.8c0.3,1.8,0.9,3.5,2.6,4.5c0.3,0.2,0.6,0.4,0.8,0.4c1.5-0.7,2.9-1.5,4.3-2.3
			c1.6-0.9,3-2.6,5.2-1.2c1.2,0.8,2.3,0.5,3.3-0.7c0.7-0.8,1.7-1.5,2.6-1.9c1-0.3,2.3-0.4,3.4-0.2c2.1,0.4,4,0,5.6-1.2
			c1.3-1,2.2-2.4,3.4-3.4c0.8-0.6,1.9-1.4,2.7-1.3c2.3,0.5,3.5-0.8,4.5-2.4c1.1-1.7,2.4-2.8,4.6-2.3c1.6,0.3,3-0.5,4.1-1.6
			c1-0.9,1.8-2,2.7-3c0.7-0.7,1.4-1.1,2.5-0.7c2,0.7,3.3-0.2,4.2-2.2c0.6-1.5,1.7-2.3,3.1-2.2c0.8,0,1.6,0.2,2.5,0.2
			c1.7,0,3.4-0.1,4.2-2.1c0.9-2.1,1.7-4.1,2-6.4c0.2-1.7,1.3-2.5,2.9-2.8c0.9-0.2,2.1-0.4,2.4-1c0.8-1.5,1.1-3.3,1.7-4.9
			c0.3-1,0.6-2.1,1.2-2.8c0.8-1,1.8-1.7,2.9-2.4c1.2-0.8,1.6-2.1,1.4-3.2c-0.4-2.2,0.9-3.6,1.9-5.1c1.2-1.7,1.3-2-0.2-3.7
			c-0.7-0.9-0.8-1.7-0.4-2.6c0.3-0.7,0.8-1.4,1.4-1.9c0.8-0.7,0.9-1.3,0.6-2.2c-0.4-1.3-0.8-2.6-1-4c-0.2-1.3-0.1-2.7-0.1-4
			c0-0.5-0.1-0.8-0.8-0.7c-1.2,0.3-2.5,0.5-3.7,0.9c-0.3,0.1-0.7,0.3-0.8,0.6c-0.5,0.7-0.9,1.4-1.4,2.1c-0.6,1-1.2,1.9-1.8,2.9
			c-0.6,0.9-1.3,1.9-1.9,2.8c-0.8,1.2-1.6,2.5-2.6,3.6c-0.8,1-2,1.7-2.7,2.7c-2.1,2.8-4.2,5.6-7.3,7.3c-0.7,0.4-1.3,1-1.9,1.5
			c-1.9,1.5-3.8,3.1-5.8,4.6c-2,1.5-4.2,2.7-6.1,4.3c-3.4,2.8-7.1,5.3-10.9,7.6c-2,1.2-3.9,2.7-5.9,3.9c-1.4,0.9-2.9,1.7-4.4,2.3
			c-2,0.8-4.1,1.3-6.1,2.1c-2.3,1-4.5,0.6-6.8,0c-0.3-0.1-0.7-0.5-0.8-0.8c-0.6-2.2-1.2-4.4-1.7-6.6c-0.4-1.6-0.7-3.3-1-5
			c-0.5-2.7-0.9-5.4-1.4-8c-0.4-2.1-0.8-4.1-1.1-6.2c-0.6-3.3-1.1-6.7-1.7-10c-0.5-3-1.1-6-1.6-9.1c-0.4-2.1-0.6-4.2-1.1-6.2
			c-0.6-2.4-1.6-4.7-2.1-7.1c-0.3-1.7-1.3-2.3-2.4-2.6c-0.9,0.9-1.6,1.9-2.5,2.4C278.4,193.5,276.4,194.3,274.2,192.7z M288.3,119.4
			c0.4,0.4,0.5,1.1,1,1.4c0.7,0.5,1.6,0.8,2.4,1.2c1.6,0.9,3.3,0.9,5,0.3c2.9-1,4.5-3.6,6.5-5.8c0.1-0.1,0.1-0.2,0.1-0.3
			c0.4-2,0.9-4,1.3-6c0.2-1,0.2-2.1,0.3-3.2c0.3-2.4,0.7-4.8,1.1-7.3c0.3-2.1,0.8-4.1,1.2-6.2c0.2-1.3,0.5-2.5,0.7-3.8
			c0.3-2.7-0.2-5.3-1.2-7.9c-0.6-1.6-1.1-3.2-1.7-4.8c-0.7-1.5-1.6-3-2.3-4.5c-1-2.1-2-4.3-4.1-5.7c-1-0.7-2-1.3-2.9-1.9
			c-0.7-0.5-1.4-1-2.2-1.4c-2.8-1.4-5.7-2.7-8.6-4.1c-1.5-0.7-3-1.3-4.4-2.1c-1.7-1.1-3.4-2.4-4-4.4c-0.6-2-0.9-4.1-1.1-6.1
			c-0.2-2.4-0.3-4.9-0.4-7.4c-0.2,0-0.3,0-0.5-0.1c-0.1,0.2-0.3,0.4-0.3,0.6c-0.1,1.6,0,3.2-0.1,4.8c-0.1,1.5-0.2,3-0.4,4.5
			c-0.2,1.3-0.9,2.5-1.9,3.4c-1.2,1.1-2.6,2.1-3.9,3c-1,0.7-2.1,1.4-3.2,1.9c-2.4,1-4.8,1.8-7.2,2.6c-0.7,0.2-1.3,0.4-2,0.6
			c-1.8,0.5-3.5,1-5.3,1.4c-1.7,0.4-3.4,0.7-5,1.7c-2.4,1.4-4.4,3.3-6.5,5c-1.7,1.4-2.4,3.4-3.4,5.3c-0.8,1.4-1.3,2.9-1.3,4.6
			c0,0.5,0.1,1.1,0.1,1.6c-0.1,2.2-0.2,4.5-0.4,6.7c-0.2,2.4-0.6,4.8-1,7.2c-0.2,1-0.7,2.1-0.7,3.1c0,3.2,1.7,5.8,3.3,8.3
			c1.5,2.4,3.3,4.7,4.1,7.5c0.7,2.5,1.7,5,3.8,6.8c0.7,0.6,1.4,0.9,2.2,0.4c1.8-0.9,3.6-1.7,5.3-2.6c0.2-0.1,0.4-0.2,0.6-0.3
			c1.2-1.1,2.3-2.2,3.6-3.3c1.3-1.1,6.9-3.3,9.5-5.7c1.2-1.3,3.7,0.5,4.5,1.8c0.5,0.7,1.6,1.1,2.3,0.8c0.6-0.3,0.7-0.5,1-1
			c1.2-1.5,2.9-3.3,4.2-1.9C276.6,109,285.6,116.7,288.3,119.4z M383.1,78.2c-1.5-0.8-3-0.4-4.5-0.2c-1.1,0.1-2,0.5-2.7,1.4
			c-0.6,0.8-1.1,1.7-1.5,2.5c-1.1,2.4-1,4.9-0.7,7.4c0.3,1.9-0.3,2.5-2.2,2.4c-3.7-0.2-6.9,0.8-9.3,3.8c-2.6,3.1-6,4.7-10,5.3
			c-1.5,0.2-3.2,0.9-4.2,1.8c-1.7,1.5-2.9,3.5-4.3,5.3c-0.1,0.2-0.2,0.5-0.2,0.7c0,3.4,0.8,6.7,1.9,9.9c0.2,0.5,0.3,1,0.2,1.5
			c-0.2,2.8-0.4,5.7-0.5,8.5c-0.1,2.3,1.6,4.8,3.5,5.4c2.3,0.6,4.6,1.4,6.9,2.1c2.3,0.7,4.6,1.7,7,2.2c3.1,0.6,6.2,0.7,9.3,1
			c0.4,0,0.9-0.3,1.2-0.7c0.9-1.3,0.7-2.8,0.2-4.1c-0.7-1.9-0.4-3.6,0.5-5.3c1.1-2.1,3.1-2.8,5.3-1.9c0.7,0.3,0.9,0.8,0.6,1.4
			c-0.2,0.6-0.8,0.9-1.4,0.5c-0.7-0.5-1.1-0.1-1.4,0.5c-0.8,1.5,0,3,0.8,3.9c1,1.1,2.6,1.8,4,2.5c1,0.5,2.2,0.8,2.9,1.5
			c1.6,1.6,3.2,3.2,4.3,5.1c0.7,1.2,1.7,1.4,2.7,1.6c0.4,0.1,1.1-0.1,1.3-0.5c0.5-0.7,0.8-1.4,1.1-2.2c0.7-2.1,1.2-4.2,1.9-6.3
			c1.2-3.3,2.5-6.5,3.9-9.7c1.2-2.7,2.9-5,6.1-5.6c0.3,0,0.5-0.2,0.8-0.4c-0.2-0.3-0.4-0.5-0.5-0.7c-1.4-2-1.6-4.3-0.6-6.3
			c1-2,2.6-3.9,4.3-5.4c1.9-1.7,4.1-3,6.3-4.4c1.5-1,2.4-3.4,1.5-5c-1.5-2.7-3.1-5.5-4.9-8c-1.2-1.7-2.9-3-4.5-4.3
			c-1.4-1.1-2.9-2.1-4.5-3c-1.3-0.8-2.7-1.5-4.1-2.2c-0.4-0.2-0.8-0.2-1.2-0.3c-0.1,0.4-0.3,1-0.2,1.3c1.3,2.3,2.6,4.6,4,6.9
			c1.1,1.9,1.9,4,1.8,6.1c-0.1,2.6-1.7,4.5-3.7,6.1c-1.7,1.3-3.7,1.8-5.8,2.1c-4.3,0.7-8.2-0.7-11.8-2.9c-1.7-1.1-3.2-2.5-4.6-3.9
			c-1.7-1.7-3.2-3.7-3-6.2c0.1-2,0.9-4,1.4-6.1c0.1-0.5,0.2-1.2,0.6-1.5C378.9,80.4,380.4,78.4,383.1,78.2z M278.4,354.9
			c0.8,0.5,1.7,1,2.6,1.6c2.6,1.9,4.2,4.5,4.8,7.7c0.2,1.1,0.2,2.3,1.5,3c1,0.5,1.9,1.1,2.6,1.9c1,1,1.9,2.2,2.7,3.4
			c0.6,0.9,1.3,1.8,1.6,2.8c0.8,2.8,1.2,3.2,4.1,3.5c1.7,0.2,3,0.9,3.8,2.5c0.3,0.6,0.5,1.3,0.8,2c0.6,1.3,1.2,2.5,2.8,2.9
			c0.3,0.1,0.6,0.4,0.8,0.7c0.7,1.1,1.1,2.5,2.1,3.3c1.7,1.3,3.6,2.3,5.5,3.2c1.8,0.8,3.8,1.1,5.7,1.8c0.6,0.2,1.1,0.7,1.5,1.2
			c0.6,0.9,1,2,1.6,3c1.5,2.3,3.3,3.6,5.8,3c0.9-0.2,1.8-0.4,2.7-0.5c2.6-0.5,4.8,0,6.8,2.1c1.5,1.6,3.6,2.6,5.9,2.7
			c1.5,0.1,2.9,0.1,4.3-1c1.1-0.8,2.7-1,4-0.2c1.3,0.8,2.5,1.5,4,0.6c0.8-0.5,1.7-0.9,2.4-1.5c0.5-0.4,0.3-0.8-0.2-0.9
			c-0.9-0.2-1.7-0.3-2.6-0.5c-0.9-0.2-2-0.3-2.8-0.7c-3.2-1.5-6.3-3-9.4-4.5c-2.6-1.3-5.1-2.7-7.6-4.1c-2.1-1.2-4.3-2.3-6.4-3.5
			c-2.3-1.4-4.7-2.7-6.7-4.4c-3.5-3-6.8-6.2-10.2-9.3c-2.7-2.4-4.9-5.3-6.6-8.5c-1.1-2-1.8-4.3-3-6.2c-1.6-2.7-1.5-5.4-0.4-8
			c1.1-2.6,2.5-5.1,3.9-7.5c1.2-2.1,2.6-4,3.9-6c1-1.5,2.1-3,3.1-4.6c1.2-2.1,2.3-4.4,3.5-6.5c1.7-2.9,3.6-5.6,5.4-8.5
			c0.1-0.1,0.1-0.4,0.1-0.5c-0.4-1.1-0.7-2.1-1.2-3.2c-1-2.2-2.1-4.3-3.2-6.5c-1.6-3.1-3-6.4-6.1-8.4c-0.6-0.4-1.5-0.7-2.1-0.6
			c-0.9,0.2-0.5,1.2-0.5,1.9c-0.2,1.9-0.2,3.9-0.8,5.6c-0.6,1.5-1.8,2.8-2.9,4c-0.8,0.9-1.1,1.6-0.6,2.7c0.4,0.8,0.9,1.7,1,2.6
			c0.3,2.7-1.6,4.3-3.1,5.9c-1.1,1.2-2.6,2.2-3.7,3.4c-0.5,0.5-1,1.4-1,2.1c0,1.6-0.7,2.7-1.8,3.6c-1.5,1.4-3.3,1.9-5.2,2.4
			c-2.1,0.5-2.1,0.4-2.2,2.6c0,0.3,0.1,0.6,0,1c-0.1,0.7-0.2,1.5-0.6,2.1c-1.6,2.8-4.2,4.4-7.1,5.7c-0.2,0.1-0.4,0.4-0.6,0.6
			c-0.8,0.8-0.8,1.9-1,2.9C279.7,352.1,279,353.5,278.4,354.9z M292.1,188.9c0.1,0.6,0.1,1,0.2,1.4c0.7,2.8,1.5,5.5,2.1,8.3
			c0.6,2.4,1,4.9,1.5,7.3c0.6,3.1,1.2,6.1,1.9,9.2c0.7,3.2,1.5,6.4,2.2,9.6c0.9,3.9,1.8,7.8,2.8,11.7c0.2,0.8,0.6,1.6,1.1,2.2
			c0.2,0.2,1-0.2,1.6-0.3c0.7-0.2,1.4-0.3,2.1-0.6c2.6-1.1,5.2-2.1,7.7-3.3c2.5-1.2,5-2.6,7.5-3.9c1.2-0.7,2.4-1.4,3.3-2.4
			c1.7-1.7,3.4-3.4,5.6-4.4c1.4-0.7,2.8-1.4,4.1-2.3c1.6-1,2.9-2.4,4.5-3.3c2.8-1.6,4.4-4.2,6.8-6.2c2.1-1.8,4-3.8,5.9-5.7
			c1.1-1,2.2-2,3.2-3.1c0.2-0.2,0.3-0.9,0.2-1.1c-1.2-1.6-2.4-3.1-3.7-4.6c-1.3-1.6-3-1.9-5-1.1c-1.2,0.5-2.6,0.5-3.9,0.8
			c-0.5,0.1-1,0.1-1.5,0.2c-0.7,0.1-1.4,0.6-2,0.5c-2.5-0.3-4.9-0.9-7.4-1.2c-1-0.1-2.1-0.1-3.1,0.1c-1.7,0.3-3.3,0.6-4.8-0.3
			c-0.8-0.5-1.6-1-2.3-1.6c-1.4-1.3-3-1.2-4.7-1c-1.2,0.1-2.5,0.2-3.7,0.2c-2.3-0.1-3.7-2-5.8-2.6c-0.3-0.1-0.6-0.3-0.9-0.5
			c-1.4-0.9-2.8-1.8-4.2-2.7c-1.3-0.8-3.7-0.6-4.9,0.3c-1.2,0.8-2.3,2.4-4.2,1.5C293.5,189.5,292.9,189.3,292.1,188.9z M186.6,187.3
			c-1.9,1.9-3,4.3-5.2,5.8c-0.7,0.5-1.4,1.2-1.9,1.9c-0.2,0.3-0.3,0.9-0.2,1.2c0.8,1.5,1.8,3.1,2.7,4.5c1.1,1.7,2.1,3.5,3.4,5.1
			c1.7,2.2,3.6,4.2,5.4,6.3c0.4,0.4,0.7,0.9,1.1,1.2c1.6,1.3,3.2,2.6,4.9,3.9c2.9,2.2,5.8,4.5,8.8,6.4c1.9,1.2,4.1,1.9,6.1,3
			c1.5,0.7,2.9,1.5,4.3,2.4c2.3,1.5,4.6,3.1,7,4.6c1.6,1.1,3.2,2.2,4.9,3.2c1,0.6,2.1,1,3.3,1.5c0.2-0.4,0.5-0.7,0.6-1
			c0.6-2,1.2-4,1.7-6c0.6-2.4,1.2-4.8,1.7-7.2c0.6-3.2,1.2-6.3,1.6-9.5c0.5-3.5,0.9-7,1.2-10.4c0.2-1.8,0.1-3.6,0.2-5.4
			c0.1-1.2,0.3-2.4,0.3-3.6c0.1-1.7-0.2-3.4,0.1-5c0.4-1.8-0.7-2.6-1.8-4c-0.4,1-0.6,1.7-1,2.4c-0.3,0.5-0.6,1.1-1.1,1.3
			c-1.1,0.4-2.1,0.8-2.4,2.1c-0.1,0.3-0.8,0.6-1.3,0.7c-0.6,0-1.3-0.2-2-0.3c-0.3,2-2,1.3-3.2,1.4c-0.2,1.2-1,1.7-2.1,1.4
			c-0.5-0.1-0.9-0.5-1.4-0.6c-0.3-0.1-0.9,0.1-1,0.3c-1.1,2-2.6,2.4-4.2,1.2c-1,0.5-1.8,1.3-2.8,1.5c-1.4,0.2-1.1-1.5-1.8-2
			c-1,0.6-1.8,1.5-2.7,1.7c-1.3,0.2-1.9-1-2.4-2.1c-0.8,0.7-1.4,1.8-2.5,0.9c-0.7-0.6-1-1.5-1.6-2.3c-2.1,1.8-3.2,0.4-3.9-1.6
			c-3.4,2.4-3.4,2.4-5.1-1c-1,0.1-2,1.5-3,0.3c-0.6-0.8-0.9-2-1.3-3.1C188.9,188.3,187.5,189.1,186.6,187.3z M233,283.5
			c0,0.2,0,0.3-0.1,0.5c0.5,0.2,1.1,0.5,1.6,0.7c3,0.9,6.1,1.6,9.3,1.4c1.8-0.1,3.6-0.4,5.4-0.5c2-0.1,4,0,5.8,0.9
			c2.8,1.5,5.7,1.9,8.8,2.1c0.9,0.1,1.9-0.2,2.7,0.1c0.6,0.2,1.2,0.8,1.5,1.4c0.2,0.3-0.2,1.3-0.5,1.4c-1.6,0.4-3.3,1-5,0.3
			c-0.3-0.1-0.7-0.2-1-0.2c-1.6-0.1-3.1,0-4.7-0.3c-2.1-0.4-4.2-0.8-6.2-0.2c-1.8,0.5-3.4,1.3-5.1,2c-1.4,0.6-2.8,1.4-4.3,2
			c-2.5,1-5,1.8-7.5,2.7c-1.6,0.6-3.1,1.4-4.6,2.1c-0.3,0.1-0.6,0.3-0.8,0.5c0,0,0.2,0.4,0.3,0.4c0.4,0.1,0.8,0.2,1.1,0.1
			c2.3-0.8,4.7-1.7,7-2.5c1.5-0.5,3.1-0.9,4.6-1.2c1.6-0.4,3.3-1,4.9-0.8c3.1,0.2,6.2,0.9,9.3,1.4c2.6,0.5,5.1,1,7.8,0.2
			c0.4-0.1,1-0.1,1.4,0c0.8,0.1,1.1,0.7,1.2,1.4c0.1,0.7-0.2,1-0.8,1.1c-1.3,0.3-2.7,0.8-4,0.8c-2.7-0.2-5.5-0.5-8.1-1.1
			c-3.1-0.6-6.3-1.2-9.4-0.3c-1.3,0.4-2.6,1.1-4,1.3c-3,0.5-5.7,1.6-8.2,3.2c-0.3,0.2-0.5,0.6-0.7,1c0.4,0.2,0.8,0.5,1.2,0.6
			c1.3,0.4,2.3-0.4,3.5-0.8c3.2-1,6.5-1.5,9.8-1.6c2.8-0.1,5.6,0.2,8.3,0.1c2,0,3.7,0.4,5.4,1.4c1.4,0.8,3,1.3,4.5,1.9
			c1.5,0.6,3.1,1,4.6,1.6c0.6,0.2,1.3,1.1,1.2,1.5c-0.1,0.8-0.9,1.2-1.8,1c-0.8-0.2-1.6-0.4-2.4-0.6c-0.8-0.2-1.5-0.7-2.2-0.5
			c-0.9,0.2-2,0.6-2.6,1.3c-1.4,1.5-3.1,1.8-4.8,2.3c-1.2,0.3-2.2,1-3.4,1.1c-3.4,0.5-6.9,0.9-10.3,1.3c-0.3,0-0.5,0.4-0.7,0.6
			c0.3,0.2,0.6,0.6,0.8,0.6c1.3,0,2.6-0.1,4-0.2c3.6-0.3,7.2-0.5,10.7-0.9c3.2-0.3,6.4-0.7,9.6-1.2c3.6-0.6,7.1-0.6,10.6,0.1
			c2.7,0.6,5.3,1.5,7.7,2.9c2.4,1.4,4.9,2.8,7.3,4.2c1.2,0.7,2.5,1.5,3.6,2.4c1.5,1.3,2.7,1,3.9-0.4c1-1.1,2.4-1.9,3.5-3
			c1.1-1.1,1-1.4,0.2-2.8c-0.5-0.8-0.9-1.8-0.9-2.7c0.1-1,0.6-2.1,1.2-3c0.7-1.1,1.6-2,2.5-3c1.1-1.2,1-2.3-0.3-3.3
			c-1.3-1-2.5-2.1-3.8-3.1c-0.7-0.6-1.4-1.2-2.2-1.8c-2.2-1.6-4.4-3.2-6.7-4.7c-1.8-1.3-3.6-2.5-5.5-3.7c-1.6-1-3.4-1.8-5.1-2.8
			c-2.4-1.4-4.8-2.9-7.3-4.2c-1.1-0.6-2.3-0.8-3.4-1.2c-1.2-0.4-2.3-0.9-3.5-1.2c-2.1-0.6-4.3-1.1-6.4-1.5c-2.8-0.6-5.6-1.2-8.4-1.4
			c-1.9-0.1-3.8,0.5-5.7,0.7c-2.3,0.3-4.6,0.4-6.9,0.8C238,282.6,235.5,283.1,233,283.5z M189.3,416.2c0.8,1.2,3.2,2,4.6,1.7
			c1.3-0.3,2.7-0.6,4,0.4c0.9,0.7,1.9,1.3,2.9,2c1.8,1.3,3.6,2.6,5.2,4c1.8,1.6,3.3,2,5.4,0.9c1.5-0.8,5.6,0.1,6.5,1.3
			c0.8,1.1,1.7,2.2,2.4,3.3c0.7,1.2,2,1.5,3,0.7c0.9-0.8,2.8-1.1,3.7-0.6c1.7,1.1,3.5,2.3,5.2,3.6c1.7,1.3,3.8,1.3,5.3-0.2
			c1.5-1.5,3.1-1.6,4.9-0.2c0.6,0.4,1.4,0.6,2.1,0.9c0.4,0.2,0.9,0.4,1.1,0.7c1.3,2.2,2.6,2.5,4.6,0.9c1.4-1.1,3-1.6,4.8-1.3
			c1.4,0.2,2.7,0.5,4.1,0.6c2.1,0.2,4.2-0.1,6-1.5c1.4-1.1,2.8-2.2,4.6-2.6c0.5-0.1,1-0.4,1.6-0.7c-0.6-1.5-1.2-3-1.8-4.4
			c-0.8-1.8-0.4-3.4,0.7-5c0.8-1.3,1.1-3,1.5-4.5c0.1-0.3-0.4-0.8-0.6-1.2c0.2-0.2,0.4-0.5,0.5-0.8c-1.1-1.7-1-2.1,0.1-3.8
			c0.5-0.7,0.7-1.9,0.5-2.8c-0.4-1.7-1.2-3.3-1.6-4.9c-0.3-1-0.7-2.3-0.4-3.2c0.7-2.2,0.2-4.1-0.8-6c-0.5-1-1.5-1.9-0.9-3.3
			c0.1-0.3,0.1-1-0.1-1.1c-0.4-0.2-0.9-0.2-1.4-0.2c-0.7,0-1.4,0.1-2,0c-1.4-0.3-2.8-0.7-4.3-1c-0.1,0.6-0.3,1-0.3,1.4
			c0,3.3,0.1,6.5,0.1,9.7c0,1.4-0.1,2.8-0.1,4.2c0,3.5,0.1,7-1.1,10.5c-1,2.8-2.8,4.6-5.4,5.3c-3.5,1-7.1,1.7-10.6,2
			c-3.2,0.3-6.4,0.4-9.6-0.2c-3.4-0.7-6.8-1.2-10.2-1.8c-0.5-0.1-0.9-0.4-1.4-0.5c-1.6-0.4-3.1-0.7-4.7-1.1
			c-1.7-0.4-3.4-0.8-5.2-1.2c-0.5-0.1-1-0.2-1.5-0.4c-3.3-1.4-6.7-1.2-10.1-0.8c-2.3,0.2-4.5,0.6-6.8,0.8
			C192.1,415.9,190.7,416,189.3,416.2z M276.3,350.6c-1.1,0-2,0-3,0c-3,0.2-6,0.4-9.1,0.6c-0.9,0-2.4-1.5-2.4-2.4
			c-0.1-1.9-0.1-3.8-0.2-5.7c-0.1-1.7-0.2-3.5-0.3-5.2c0-0.7-0.3-1.7,1.1-1.8c3.7-0.1,7.4-0.2,11.2-0.4c3.3-0.1,6.6-0.3,9.8-0.5
			c0.9-0.1,1.5,0.4,1.6,1.3c0.1,0.5,0.1,1,0.2,1.5c0.1,0.5,0.1,1,0.1,1.5c0.5-2.6-0.2-5.7,3-6.7c-0.1-1.2-0.2-2.1-0.2-3.1
			c-0.1-1.3-0.1-2.7-0.3-4c-0.1-0.7-0.4-1.4-0.7-2c-0.2-0.4-0.5-0.7-0.7-1c-0.1,0.1-0.3,0.1-0.4,0.2c0,0.8,0,1.6,0,2.4
			c-0.1,1.6-0.2,3.3-0.2,4.9c0.1,2.2-0.6,3.1-2.8,3.3c-2.5,0.2-5.1,0.5-7.6,0.5c-2.4,0.1-4.7-0.2-7.1-0.1c-1.8,0-3.6,0.2-5.3,0.4
			c-1.6,0.2-2.6-1.1-2.1-2.5c0.2-0.6,0.3-1.3,0.4-1.9c0-0.8-0.2-1.6-0.1-2.4c0-2.4,0.1-4.8,0.3-7.1c0-0.4,0.8-1,1.3-1
			c3.4-0.1,6.9-0.1,10.3-0.1c1.5,0,3-0.3,4.5-0.4c-0.8-0.5-1.5-0.7-2.3-0.9c-2.4-0.5-4.8-0.9-7.3-0.2c-1.3,0.3-2.6,0.2-3.9,0.4
			c-1.8,0.3-3.7,0.6-5.5,0.9c1.2,0.4,2.1,1,2,2.2c-0.1,1.9-0.5,3.8-0.8,5.6c-0.3,1.5-0.6,3-1,4.4c-0.1,0.5-0.5,1.2-0.9,1.3
			c-1.1,0.3-2.4,0.4-3.6,0.6c-2.5,0.3-4.9,0.6-7.5,0.6c-4.5-0.1-9,0.1-13.5,0.1c-0.3,0-0.8-0.1-0.9-0.3c-0.7-1.1-1.4-2.2-1.2-3.6
			c0.3-2.7,0.5-5.4,0.8-8c0.1-0.8,0.3-1.5,0.4-2.4c0,0-0.3-0.2-0.6-0.1c-1.2,0.1-2.4,0.2-3.6,0.5c-0.3,0.1-0.9,0.5-0.9,0.8
			c-0.2,3.2-0.3,6.4-0.4,9.6c-0.1,1.5,0,3.1-0.1,4.6c-0.1,2.5-0.2,5-0.3,7.5c-0.1,2.9-0.2,5.7-0.4,8.6c-0.1,1.6-0.2,3.2-0.3,4.8
			c-0.1,2.3-0.2,4.6-0.2,6.9c0,0.7-0.1,1.7,0.3,2c1.6,1.4,3.6,2.2,5.7,2.7c0.1-1.1,0.2-2.2,0.3-3.3c0.2-2.3,0.4-4.5,0.8-6.8
			c0.1-0.5,0.7-1.1,1.1-1.2c1.1-0.2,2.3-0.2,3.5-0.2c4.8-0.1,9.7-0.1,14.5-0.3c1.9,0,3.9-0.2,5.8-0.3c1.4,0,2.1,0.7,2,1.9
			c-0.1,0.9-0.4,1.7-0.6,2.5c-0.3,1.7-0.5,3.4-0.7,5.1c-0.2,1.7-0.1,3.5-1.9,4.4c-1.1,0.5-2.3,0.9-3.4,0.9c-3.5,0.1-7.1,0-10.6,0
			c-1.8,0-3.6,0.1-5.4,0.2c1,1.4,2.4,1.8,3.7,1.9c1.2,0.1,2.4-0.5,3.7-0.6c3.8-0.2,7.6-0.4,11.4-0.6c1.2-0.1,1.9,0.5,2.1,1.5
			c0.2,0.8,0.1,1.8-0.1,2.7c-0.3,1.9-0.7,3.8-1.1,5.8c2.8,1.2,5.4,2.3,8.2,3.5c0-1,0-1.8,0-2.7c-0.2-2.3,0.5-4.3,2-6
			c2.1-2.4,4.9-3.5,8-2.2c2.6,1.2,3.7,3.6,4.3,6c0.5,2,0.3,4.1,0.3,6.1c0,0.9,0.4,1.2,1.1,1.3c2.1,0.3,4.3,0.5,6.4,0.8
			c0.7,0.1,1.4,0,2.2,0c-0.1-0.7-0.2-1.3-0.1-1.9c0.1-3.4,0.2-6.9,0.5-10.3c0.1-1.1-0.2-1.7-0.9-2.3c-1.8-1.7-3.4-3.9-6.4-3
			c0,0-0.1,0-0.1,0c-1.4,0-2.8-0.1-4.1,0c-1.5,0-3,0.3-4.6,0.3c-3.4,0-6.7-0.1-10.1-0.2c-1.2,0-1.6-0.4-1.5-1.5
			c0.1-3,0.3-6.1,0.4-9.1c0-0.8-0.1-1.7-0.1-2.5c0-1.1,1.2-1.8,2.3-1.5c0.5,0.2,1.2,0.2,1.7,0.2c2,0.1,4,0.1,5.9,0.1
			c0.6,0,1.2,0,1.4-1c0.1-0.5,0.6-1.2,1.1-1.5C276.2,352.7,276.7,351.7,276.3,350.6z M363.1,407.7c-0.6-0.2-1.3-0.5-2-0.7
			c-0.1,0-0.3,0-0.5,0.1c-1.5,0.7-3,1.4-4.5,2.2c-1.4,0.7-2.7,0.4-4-0.2c-1.3-0.6-2.5-1.1-3.9-0.3c-0.5,0.3-1,0.6-1.6,0.7
			c-4,0.7-7.6-0.2-10.5-3c-2.1-2-4.4-1.9-6.8-1.2c-2.1,0.6-4.3,1.2-6-0.9c-0.2-0.2-0.4-0.2-0.6-0.4c-1-1.1-2.4-2-2.9-3.3
			c-0.8-2.1-2.2-3.4-4.3-3.6c-2.5-0.2-4.4-1.7-6.5-2.7c-1.7-0.8-3-2.3-3.7-4.2c-0.1-0.3-0.6-0.8-0.9-0.8c-1.1,0-1.7-0.6-2.3-1.3
			c-0.5-0.6-1.1-0.6-1.7-0.4c-0.9,0.3-1.7,0.7-2.6,1.1c-1.1,0.5-1.5,1.4-1,2.5c0.4,0.9,0.8,1.7,1.2,2.5c1.1,2.1,1,4.3,1.1,6.5
			c0,0.4-0.2,1-0.5,1.2c-0.9,0.7-0.6,1.4,0,2c0.5,0.6,1,1.1,1.6,1.5c1.7,1.1,2.6,2.8,2,4.7c-0.5,1.5-1.2,3-1.8,4.5
			c-0.4,1-0.2,2.7,0.8,3.2c1.5,0.8,3.1,0.8,4.6,0.2c2.2-0.9,4.3-1.4,6.5,0c0.2,0.1,0.5,0.3,0.8,0.3c1.2,0.3,1.8,1.1,2.1,2.2
			c0.1,0.4,0.3,0.8,0.6,1.2c0.6,1,1,1.1,2,0.4c0.6-0.4,1.4-0.6,1.9-1c1.1-1,2.3-0.7,3.3-0.4c1.7,0.5,3.2,1.5,4.8,2.2
			c0.7,0.3,1.4,0.6,2-0.2c0.3-0.3,0.7-0.4,1.1-0.6c0.7-0.4,1.7-0.7,2.2-1.2c1.3-1.5,2.7-1.2,4.2-0.5c0.8,0.4,1.5,0.7,2.3,1
			c0.3,0.1,0.6,0.1,0.9,0c0.7-0.2,1.4-0.5,2.1-0.7c0.2,0.1,0.2,0,0.3-0.1c0.6-0.9,0.7-2,2.1-2.5c2.1-0.8,3.9,0.5,5.8,0.5
			c0.3,0,0.6,0.3,0.7,0.2c0.7-0.7,1.4-1.5,2.1-2.3c0.6-0.7,0.9-1.8,1.6-2c1.5-0.6,3.2-0.7,4.9-1.1c0.5-0.1,1-0.3,1.3-0.7
			c0.6-0.8,0-2.1,1.1-2.8C363.1,409.4,363,408.4,363.1,407.7z M337.4,424c-0.9-0.4-1.5-0.7-2.1-1c-0.2-0.1-0.5-0.2-0.7-0.1
			c-1.4,0.8-2.9,1.7-4.2,2.6c-0.6,0.5-1.2,0.8-2,0.7c-2-0.2-3.7-1.3-5.6-2c-1.2-0.4-2.3-0.8-3.4,0.2c-0.7,0.6-1.5,1-2.4,1.3
			c-1.3,0.4-3.5-0.8-4.3-2.1c-0.4-0.7-0.7-1.3-1.2-1.9c-0.6-0.9-3-1.7-3.9-1.4c-1.8,0.7-3.7,1-5.7,1c-1.3,0-2.3-0.5-3.1-1.3
			c-0.3-0.3-0.6-0.5-0.9-0.8c-1.6-1.5-1.8-3.3-0.7-5.1c0.8-1.3,1.5-2.7,1.7-4.3c0.1-0.9-0.3-1.5-0.9-2.1c-0.9-0.8-1.9-1.4-2.8-2.3
			c-1-1-1.2-2.8-0.6-3.7c1.2-1.6,1.1-3.3,0.5-5c-0.6-1.8-1.3-3.7-2-5.5c-0.1-0.3-0.5-0.6-0.8-0.6c-2.9-0.1-5.8,0-8.7-0.1
			c-3.7-0.2-7.3-0.5-10.9-0.7c-0.9-0.1-1.5,0.8-1.3,1.8c0.2,0.6,0.4,1.1,0.7,1.6c1,1.8,1.6,3.7,1,5.8c-0.2,0.8-0.5,1.8-0.3,2.5
			c0.4,1.6,1.3,3,1.8,4.5c0.7,1.8,1.3,3.7-0.2,5.5c-0.7,0.9-0.2,3.1,0.7,3.4c1.5,0.5,2.9,1.1,4.5,1.3c2.2,0.4,4.1,1.2,6,2.3
			c2.6,1.5,5.4,2.7,8,4.2c3.1,1.7,6.4,2.5,9.8,3.3c2.9,0.7,5.9,1.2,8.8,1.8c1.6,0.3,3.3,0.6,4.8,1.2c2,0.7,2.1,0.8,3.3-1
			c0.2-0.3,0.8-0.6,1.2-0.6c0.3,0,0.7,0.8,0.6,1c-0.3,1,0.3,1.1,0.9,1c1.1-0.1,2.1-0.5,3.2-0.4c1.8,0.1,3.3-0.5,4.9-1
			c0.6-0.2,1.3-0.3,1.9-0.6c0.9-0.5,1.7-1.2,2.6-1.8C336.2,425.1,336.7,424.6,337.4,424z M175.6,197.3c0.3,0.7,0.4,1.4,0.8,2
			c1.9,2.7,3.8,5.5,5.7,8.2c0.4,0.6,1,1.1,1.5,1.7c1.7,2.2,3.2,4.4,5,6.5c1.7,2,3.6,3.9,5.4,5.7c1.7,1.7,3.4,3.4,5.2,5
			c2.5,2.1,5,4.2,7.7,6.2c2.9,2.1,5.9,3.9,8.9,5.8c1.7,1.1,3.5,2,5.3,2.9c2,1,3.9,2.1,6,2.8c2.8,0.9,5.6,1.4,8.4,2.1
			c0.9,0.2,1.3-0.1,1.5-0.8c0.3-1.2,0.4-2.5,2-2.7c0.1,0,0.2-0.3,0.3-0.5c0.2-0.7,0.4-1.4,0.7-2.1c2-4.9,2.6-10.1,3.2-15.3
			c0.5-4.2,0.9-8.4,1.2-12.6c0.4-4.6,0.6-9.2,0.8-13.7c0.1-1.8-0.2-3.7-0.4-5.6c0-0.3-0.3-0.7-0.5-0.9c-1.3-0.6-2.6-1.1-4-1.8
			c0,3.7,0.1,7.2,0,10.8c-0.1,3.1-0.2,6.3-0.5,9.4c-0.2,2-0.8,4-1.2,6c-0.7,3.5-1.2,7-1.9,10.5c-0.3,1.7-0.7,3.4-1.1,5.1
			c-0.8,3-1.7,6.1-2.7,9.1c-0.4,1.2-1.1,1.3-2.1,0.5c-0.3-0.2-0.7-0.3-1-0.5c-1.9-1-3.9-2-5.8-3.2c-0.9-0.5-1.5-1.4-2.4-2
			c-2.1-1.4-4.2-2.7-6.4-4c-2.3-1.3-4.7-2.6-7.1-3.8c-1.3-0.7-2.7-1-3.9-1.8c-2.8-1.8-5.6-3.7-8.2-5.8c-3.1-2.5-6-5.1-8.8-7.9
			c-1.1-1.1-1.9-2.6-2.8-3.9c-1-1.4-2-2.8-3-4.2c-1-1.5-2-3.1-2.9-4.6c-0.5-0.9-0.9-1.8-1.4-2.7
			C176.6,197.1,176.2,197.2,175.6,197.3z M360.3,203.1c-0.1-0.1-0.2-0.3-0.4-0.4c-0.5,0.3-1.1,0.6-1.5,1.1c-1,1.1-1.7,2.5-2.7,3.5
			c-1.5,1.5-3.4,2.7-4.9,4.2c-1.7,1.7-3,3.6-4.8,5.3c-1.7,1.6-3.5,2.9-5.4,4.3c-1.9,1.4-3.8,2.8-5.8,4.1c-1.1,0.8-2.4,1.3-3.5,2.1
			c-1.4,0.9-2.8,1.9-4,3.1c-1.1,1.1-2.2,2.1-3.6,2.8c-1.3,0.7-2.6,1.3-3.9,2c-0.9,0.5-1.7,1.3-2.7,1.7c-2.8,1.3-5.6,2.5-8.5,3.6
			c-2,0.8-4.1,1.5-6.3,0.5c-2-0.9-2.3-2.9-2.8-4.7c-0.8-3.1-1.3-6.3-2.1-9.4c-0.7-2.9-1.6-5.7-2.3-8.5c-0.7-3-1.2-6.1-1.8-9.1
			c-0.4-1.7-0.9-3.4-1.2-5.2c-0.3-1.5-0.2-3.1-0.5-4.6c-0.4-2.4-1.1-4.8-1.5-7.3c-0.4-2.3-0.5-2.4-2.3-1.2c-0.2,0.1-0.3,0.2-0.5,0.4
			c0.3,1.2,0.7,2.4,0.9,3.6c0.5,2.2,0.8,4.3,1.3,6.5c0.2,1.2,0.7,2.3,0.9,3.4c0.5,2.4,0.9,4.8,1.2,7.2c0.4,2.2,0.6,4.5,1,6.7
			c0.8,4.3,1.6,8.5,2.4,12.7c0.6,3.1,1.3,6.3,1.9,9.4c0.5,2.3,1,4.7,1.5,7c0.1,0.5,0.4,1.1,0.8,1.2c0.9,0.2,2,0.4,2.9,0.1
			c2.2-0.6,4.4-1.5,6.6-2.2c0.9-0.3,1.8-0.5,2.6-1c2-1.2,4-2.4,6-3.7c3.1-2,6.2-4.1,9.2-6.2c0.5-0.3,0.8-0.9,1.3-1.3
			c1.9-1.4,3.8-2.7,5.7-4c1.9-1.3,3.8-2.6,5.7-4c2.3-1.8,4.4-3.7,6.7-5.5c1.5-1.2,2.7-2.6,3.8-4.2c1-1.4,2.2-2.7,3.5-3.9
			c1.2-1.1,2.2-2.2,2.8-3.7c0.2-0.5,0.4-1,0.8-1.3C358.7,206.9,359.2,204.8,360.3,203.1z M239.7,153.9c-0.1,0.8,0.1,1.9-0.3,2.1
			c-1,0.8-0.8,1.9-1,2.9c0,0.2-0.1,0.5-0.1,0.7c-0.2,0.6-0.6,1.1-0.6,1.7c0,1.1-0.3,1.8-1.1,2.4c-0.7,0.5-1,1.1-0.8,2
			c0.3,1.8,0.5,3.5,0.7,5.3c0.3,2.2,0.5,4.5,1,6.7c0.6,2.4,1.5,4.6,2.4,6.9c0.3,0.8,0.6,1.7,1.3,2.3c1.3,1.1,2.8,2.2,4.8,1.7
			c0.2-0.1,0.5,0.2,0.8,0.2c0.8,0.1,1.5,0.1,2.3,0.1c0.5,0,1.2-0.1,1.5,0.2c0.7,0.6,1.2,1.4,1.8,2c0.5,0.5,1,1.3,1.6,1.5
			c1.4,0.5,2.8,0.3,3.9-0.7c0.7,0.4,1.5,0.5,1.8,1c0.7,1,1.3,0.8,2.2,0.5c1-0.4,2.1-1,3.2-0.2c0.1,0.1,0.4,0,0.8,0
			c-0.1-1.1,0-2.1-0.3-3c-0.7-2.1-1.4-4.2-2.3-6.3c-0.5-1.1-1.1-2.2-1.7-3.3c-1.4-2.6-4.2-3.7-6.3-5.5c-0.2-0.2-0.5-0.2-0.8-0.2
			c-2.1,0.4-3.9-0.5-5.8-1.1c-3.7-1.2-6.3-3.9-7.5-7.6c-1.2-3.6-1.5-7.4-0.5-11.1C241,153.8,240.4,153.9,239.7,153.9z M390.3,149.3
			c0,0,0,0.4,0.1,0.7c0.3,1,0.6,1.9,1,2.8c0.8,1.6,1.6,3.1,2.5,4.6c0.7,1.2,2.1,1.6,3.1,1.3c1.9-0.5,3.9-1,5.3-2.5
			c0.3-0.3,0.6-0.6,0.9-0.8c2.6-1.9,4.5-4.5,6.2-7.1c1.4-2.2,2.2-4.9,3.2-7.4c0.1-0.2-0.2-0.8-0.4-0.8c-2.5-0.3-4.7-1.6-6.8-2.8
			c-1.6-0.9-3.1-1.9-4.7-3c-0.8-0.6-1.2-0.4-1.4,0.5c-0.7,2.6-1.4,5.3-2.3,7.8c-0.5,1.3-1.1,2.8-2.1,3.7
			C393.6,147.7,392,148.3,390.3,149.3z M197.2,174.8c0.6,1.1,1,1.7,1.4,2.5c0.4,0.8,0.7,1.6,1.1,2.4c0.1,0.2,0.5,0.4,0.7,0.3
			c0.4-0.2,0.8-0.5,1.1-0.8c1.5-2,2.2-2.1,4-0.2c0.1,0.1,0.2,0.1,0.1,0.1c1-0.5,1.9-1.2,2.7-1.2c0.9,0.1,1.9,0.8,2.8,1.3
			c0.4-0.8,0.6-2.2,2-2.1c1,0.1,1.9,0.8,2.7,1.2c0.5-0.8,1-1.6,1.5-2.5c1,0.5,1.8,1,2.6,1.4c1-2.9,1.1-3,3.7-2.6
			c0-0.2-0.1-0.4-0.1-0.6c0.1-0.5,0.2-1.1,0.5-1.4c0.4-0.3,1.1-0.5,1.7-0.5c0.7,0,1.4,0.4,2.3,0.6c-0.1-1.2-1.3-1.8-0.7-3.2
			c0.7-1.5,2-0.6,2.9-1.1c-0.8-1.6-0.4-2.5,1.5-3.2c0-0.3,0.1-0.7,0-1.1c-0.3-0.8-0.4-1.5,0.2-2.2c0.1-0.2,0.1-0.5,0.1-0.7
			c0.2-1-0.4-1.9-0.6-2.9c-0.6-2.8-0.8-5.6-1.1-8.5c-0.3-2.6-0.2-5.2-1.9-7.8c-0.2,0.9-0.5,1.5-0.6,2.2c-0.2,1.2-0.3,2.3-0.5,3.5
			c-0.3,1.8-1.5,3.1-1.8,4.9c-0.6,3.4-1.5,6.8-2.4,10.1c-0.4,1.4-1,2.8-1.9,3.9c-2.5,3.2-5.6,5.7-9.7,6.7c-2,0.5-4.1,1.1-6.2,1.2
			C202.7,175,200.1,174.8,197.2,174.8z M314.3,190.8c0.1,0.1,0.2,0.2,0.3,0.3c0.4-0.5,0.8-1,1.2-1.4c1.9-2,3.8-3.9,5.6-5.9
			c1.1-1.2,1.4-1.2,2.8-0.1c-1.3,2.8-4.3,4.2-5.8,6.9c1.7,0,3.4,0,5.3,0c1.1-1.4,2.5-2.9,3.8-4.6c0.7-0.8,1.5-0.6,2,0
			c0.3,0.4,0.4,1.4,0.1,1.9c-0.5,0.8-1.3,1.3-1.9,2c-0.8,0.8-1.6,1.7-2.4,2.5c1.5,1.4,2.9,1.7,4.2,1.1c0.7-0.3,1.5-0.6,2.3-0.5
			c1.9,0.3,3.8,0.8,5.7,1.1c1.3,0.2,2.7,0.4,4.1,0.3c1-0.1,2-0.5,3-0.8c-0.4-0.4-0.8-0.8-1.1-1.2c-1-1.6-2.3-1.8-4.1-1.7
			c-2.8,0.2-5-0.9-6.7-3.3c-0.7-1-1.5-2-2.5-2.7c-1.6-1-3.5-1.8-5.3-2.6c-2-0.9-3.5-2.3-4-4.6c-0.4-1.5-1.2-2.8-2.4-3.7
			c-1.2-0.8-2.7-1.2-3.8-2c-1-0.7-2.1-1.7-2.6-2.7c-1.1-2.3-1.9-4.7-2.1-7.3c0-0.6-0.3-1.2-0.5-1.9c-0.8,1.6-1.4,2.9-2.1,4.2
			c-0.1,0.2-0.1,0.6,0.1,0.8c0.6,0.8,1.3,1.5,2,2.2c1.5,1.7,2.3,3.5,1.4,5.7c-0.5,1.4-1.1,2.7,0.2,4c0.2,0.2,0.3,0.6,0.3,0.9
			c-0.2,1.2,0.1,2.4-0.7,3.5c-0.5,0.6-0.5,1.5-0.7,2.3c-0.1,0.3,0.1,0.7,0.3,0.8c0.6,0.4,2.7-0.9,2.8-1.6c0.2-1.5,1.2-2.1,2.3-1.2
			c0.9,0.7,1.3,0.3,1.8-0.4c0.7-0.8,1.3-1.6,2.1-2.2c0.6-0.5,1.3-0.6,1.9,0.2c0.6,1,0.4,1.8-0.4,2.6c-0.7,0.6-1.2,1.3-1.8,2
			c-0.9,1.1-1.8,2.1-3.5,1.6c-0.2-0.1-0.5,0-0.6,0.2c-0.7,0.5-1.4,1-2.2,1.4c-0.6,0.4-1.3,0.8-1.9,1.1c0,0.2,0,0.3,0,0.5
			c1.3,0.4,2.6,0.9,3.9,1.3C314.3,190.1,314.3,190.5,314.3,190.8z M283.9,187c0.6,0.3,1.1,0.7,1.6,0.8c0.9,0.1,1.8,0.1,2.7-0.1
			c0.6-0.1,1.1-0.7,1.7-0.7c0.7-0.1,1.1-0.5,1.2-1.1c0.7-3.6,2.7-6.8,3-10.6c0-0.4,0.8-0.9,1.2-1c0.3-0.1,0.9,0.4,1,0.7
			c0.2,1,0.5,2.1,0.3,3c-0.6,2.4-1.5,4.8-2.3,7.2c-0.1,0.3,0,1,0.2,1.2c0.4,0.3,1,0.9,1.6,0.2c0.8-0.8,1.2-2.1,2.4-2.5
			c0.1,0,0.1-0.7,0-1.1c-1.1-3.5-1.4-7-0.8-10.5c0.2-1,0-2.1,0-2.9c-1.9-0.4-3.3,1.6-5.3,0.9c-0.6,0.8-1.1,1.7-1.8,2.3
			c-0.9,0.9-1.9,0.6-2.7-0.3c-2.5,2.3-3.8,2.7-5.2,1.6c-1.2,0.8-0.3,4.2-3.5,2.6c0,0.7,0,1.2-0.1,1.7c-0.2,1-0.5,1.9-0.6,2.9
			c-0.1,1.5,0.1,2.9,0.6,4.3c0.2,0.5,0.1,1.5-0.3,1.8c-0.4,0.3-1.3,0.2-1.9,0c-1.4-0.6-2.6-1.4-3.5-2.7c-0.6-0.8-1.2-1.5-2-2.4
			c-0.8,3.3,1.3,6.1,0.8,9.2c0.6-2.4,1.4-2.8,3.6-1.6c0.3,0.2,0.6,0.3,0.8,0.4c0.7,0.3,2.9-0.3,3.2-1c0.6-1.5,1.1-3,1.7-4.5
			c0.7-1.8,1.3-3.5,2.2-5.2c0.2-0.5,1.3-1,1.7-0.9c0.8,0.3,0.9,1.2,0.4,2c0,0-0.1,0.1-0.1,0.1C285.1,183.1,284.5,185,283.9,187z
			 M75.1,332c-0.9-0.6-1.6-1.4-2.3-1.4c-2.1-0.2-3.8-1.2-5.7-1.9c-2.3-0.8-4.5-1.6-6.7-2.6c-3.3-1.6-6.6-3.4-9.8-5.2
			c-1.4-0.8-2.7-1.6-4-2.5c-2-1.4-4-2.8-5.9-4.2c-2.6-1.9-5.2-3.7-7.8-5.6c-1-0.7-2-1.5-3.1-2.2c-0.3-0.2-0.8-0.2-1.2-0.3
			c0.1-0.9-3.3-4.4-4.8-4.8c0.1,0.2,0.1,0.3,0.2,0.4c1.9,2.5,3.9,5,5.8,7.5c0.5,0.6,0.8,1.4,1.4,2c1.1,1.2,2.5,2.2,3.5,3.5
			c2,2.6,4.8,4.1,7.3,5.9c1.7,1.3,3.7,2.2,5.7,3.2c2.9,1.5,5.8,3.1,8.9,4.3c2.6,1,5.4,1.5,8.2,2.2c2.1,0.5,4.2,0.9,6.3,1.2
			C72.1,331.8,73.4,331.9,75.1,332z M225,106.4c0.1-1.9-1.2-3.6-0.1-5.4c0.1-0.2-0.2-0.7-0.4-0.9c-0.7-0.5-1.5-1-2.3-1.5
			c-1.3-0.9-2-2.4-1.6-4c0.3-1.1,0.8-2.1,1.3-3.1c0.7-1.4,0.6-2-0.5-3.2c-1.5-1.5-2.1-5.3-1.2-7.2c0.8-1.6,1.8-3.1,2.8-4.7
			c0.5-0.8,0.4-1.3-0.5-1.9c-1.5-1-2.9-2.1-4.3-3.3c-0.6-0.5-1.1-1.2-0.5-2.1c0.3-0.5,0.7-0.9,1.1-1.4c0.5-0.7,0.4-1.2-0.2-1.9
			c-0.5-0.5-0.9-1.3-1.1-2c-0.4-1.5-0.3-2.8,0.7-4.2c1.6-2.1,0.6-4.8-1.6-6.1c-0.9-0.6-1.7-1.6-2.1-2.7c-0.5-1.4,0-2.8,0.9-4.1
			c0.3-0.4,0.3-1.3,0-1.7c-0.6-0.6-1.4-1-2.5-1.7c0.1,0.7,0,1.1,0.2,1.5c0.4,1.8,0.3,3.7-0.5,5.3c-0.6,1.3-0.5,2.4,0.1,3.6
			c0.4,0.7,1,1.3,1.5,2c0.6,1,1.5,2.1,0.9,3.4c-0.5,0.9-1.3,1.6-2,2.3c-0.5,0.5-0.8,0.8-0.3,1.5c0.3,0.3,0.5,0.8,0.9,1
			c2,1.7,2.7,4.1,1.5,6c-0.9,1.5-0.8,2.2,0.5,3.3c0.7,0.6,1.5,1.2,2.3,1.9c1.2,1.1,1.6,3.1,0.7,4.5c-1,1.6-1.8,3.5-1.1,5.3
			c0.6,1.7,0.4,3.2,0.4,4.9c0,0.5,0.5,1,0.8,1.4c0.5,0.7,1.3,1.4,1.4,2.2c0.2,1.8,0,3.7-0.1,5.6c0,0.6-0.2,1.1,0.4,1.7
			c0.8,0.7,1.5,1.6,1.9,2.5C222.7,104.7,223.8,105.5,225,106.4z M254.6,129.4c1.3,0.9,2.5,1.8,3.7,2.6c1.6,1.1,3.2,2,4.7,3.1
			c1.6,1.1,3.3,2.1,5.2,2.3c0.9,0.1,2,0.2,2.9-0.5c1.4-1.1,3-2,4.5-2.9c1.6-1,3.3-1.9,4.9-2.9c0.6-0.4,1.1-0.8,1.7-1.3
			c-1.1-1.2-2.1-2.3-3.1-3.4c-2.2-2.2-3.9-2.3-6.5-0.7c-1.6,1-3.3,1.8-5.3,0.9c-1.5-0.7-3-1.3-4.5-2c-1.6-0.8-3.4-0.9-4.9,0.8
			C256.9,126.6,255.9,127.8,254.6,129.4z M297.8,54.9c-0.4,1.1-0.8,2.3-1.1,3.6c-0.1,0.4-0.1,0.9,0,1.2c0.3,0.5,0.7,1.1,1.1,1.5
			c1.8,1.6,3.3,3.4,4.4,5.5c1.2,2.1,2.8,2.8,5.2,2.4c1.3-0.2,2.8-0.3,4,0.1c2,0.7,3.9,1.7,5.9,2.6c2.2,1,4.2,0.5,6.1-0.6
			c2.1-1.3,2.9-3.2,3.3-5.6c0.6-3.6,0.4-7.2,0.1-10.8c-0.1-1.1-0.3-2.3-0.8-3.2c-1-1.9-2.2-3.6-3.5-5.3c-1.3-1.8-3-2.5-5.4-1.9
			c-1.7,0.4-3.5,0.3-5.3,0.3c-0.7,0-1.4-0.5-2-0.7c-0.1,0.1-0.2,0.2-0.2,0.3c0.7,0.5,1.4,1.2,2.2,1.5c2.3,0.9,4.7,1.6,7.1,2.4
			c1.9,0.7,3.9,1.1,4.9,3.2c0.9,1.9,1.4,3.8,0.8,5.8c-0.4,1.4-1.5,2.4-1.6,4c-0.1,2.1-0.3,4.1-0.7,6.1c-0.6,2.7-3,4.3-6.1,2.8
			c-3-1.5-6.2-2.7-9.7-2.8c-0.6,0-1.3-0.4-1.8-0.7c-1.6-1-1.6-2.7-2-4.3c-0.2-1.2-0.5-2.5-1.2-3.4C300.5,57.3,299,56.1,297.8,54.9z
			 M240.3,435.9c-0.1,0.6-0.1,1.3-0.4,1.7c-1.6,1.8-1.8,4.2-2.9,6.2c-0.8,1.6-1.3,3.3-1.9,4.9c-0.5,1.1-1,1.2-1.8,0.4
			c-0.3-0.3-0.6-0.9-1-0.9c-2.2-0.4-4.1-1.4-6.1-2.3c-3-1.4-5.1-3.8-7.7-5.7c-2-1.5-3.6-3.5-5.5-5.3c-1.6-1.6-3.1-3.1-4.7-4.7
			c-0.7-0.7-1.3-1.7-2.2-2.1c-1.8-0.8-3.3-1.9-4.6-3.4c-0.3-0.3-0.7-0.6-1-0.9c-0.1,0.1-0.2,0.1-0.2,0.2c0.3,0.4,0.6,0.8,0.9,1.2
			c1.3,1.7,2.6,3.4,4,5c0.9,1.1,2,2,2.9,3c2.4,2.8,4.6,5.8,7.3,8.3c2.1,2,4.6,3.5,7,5.2c0.9,0.7,1.9,1.3,2.8,1.8
			c1,0.6,2,1.2,3.1,1.6c2,0.7,4.1,1.2,6.2,1.8c1.8,0.6,2.6,0.1,3.3-1.7c0.5-1.2,0.9-2.5,1.5-3.6c1.7-2.7,3-5.4,3.3-8.6
			C242.7,436.3,242.3,435.8,240.3,435.9z M299.4,453.7c1.6-0.9,2.9-1.8,4.3-2.3c1.6-0.6,2.4-2.1,3.8-3c0.7-0.5,1.4-1.1,1.9-1.8
			c1.3-1.5,2.4-3,3.6-4.5c1.2-1.5,2.7-2.8,3.3-4.6c0.5-1.3,1-2.5,1.5-3.7c0.2-0.5,0.5-1.1-0.3-1.3c-0.6-0.2-1.2-0.4-1.6-0.6
			c-3.7,6.1-7.2,12.2-13.9,15.5c-0.4-0.2-1-0.5-1.6-0.7c-0.6-0.1-0.7-0.4-0.9-0.9c-0.8-2.2-1.7-4.3-2.7-6.4
			c-0.7-1.4-1.9-2.6-2.5-4.1c-1.6-3.6-3.5-7-6.2-10c-0.5-0.6-1.2-1.1-1.4-1.8c-0.4-1.4-1.5-1.5-2.4-2c0.3,0.8,0.8,1.5,1.2,2.2
			c1.7,2.7,3.4,5.4,4.9,8.3c1.2,2.2,2,4.6,3,7c0.6,1.4,1.3,2.7,1.9,4.1c0.5,1.2,0.9,2.5,1.4,3.7c0.5,1.3,1.2,2.6,1.6,3.9
			C299,451.5,299.2,452.5,299.4,453.7z M292.4,425.7c0,0-0.1,0.1,0,0.1c1.7,2.9,3.4,5.8,5.1,8.6c0.6,1,1.3,1.9,1.8,3
			c0.8,1.7,1.5,3.5,2.4,5.2c0.1,0.2,0.7,0.5,0.8,0.5c1.7-1.2,3.5-2.3,4.9-3.7c2.2-2,3.6-4.7,5.1-7.4c-0.7-0.4-1.3-0.9-1.9-1.1
			c-2.6-0.8-5.2-1.4-7.9-2.2C299.2,427.7,295.8,426.7,292.4,425.7z M310.8,49c0.3,0.4,0.5,0.7,0.7,0.9c0.9,0.8,1.7,1.6,2.7,2.4
			c0.3,0.2,0.7,0.4,1,0.5c0.6,0.2,1.2,0.4,1.7,0.7c1.9,1.1,2.6,3,2.2,5.7c-0.3,2.4-2.5,4-4,4.3c-1.1,0.3-3.1-1-3.8-2.4
			c-0.9-1.9-2-3.6-4.1-4.3c-3.1-0.9-4.4-4-4.3-6.9c0.1-0.9,0.5-1.4,1.3-1.4c1.6,0,3.2-0.7,4.8,0c0.1,0,0.2-0.1,0.3-0.2
			c-1.5-1.8-2.9-3.5-5.6-3c-0.1,0-0.2,0-0.2,0c-1-0.4-1.6,0.2-2.2,0.9c-0.5,0.6-1.1,1.2-1.4,1.9c-0.3,0.9-0.6,1.9-0.4,2.8
			c0.3,1.1,0.8,2.1,1.6,2.9c2.2,2.3,3.9,4.8,4.3,8.1c0.3,1.9,0.7,2,2.6,2.3c1.7,0.3,3.5,0.7,5.2,1.2c1.6,0.5,3.2,1.2,4.7,1.7
			c1.1,0.4,1.6-0.3,1.7-1.2c0.2-1.3,0.4-2.7,0.4-4c0-2.2,0.3-4.3,1.8-6.1c1-1.2,0.1-3.5-1.4-3.9c-0.8-0.2-1.6-0.5-2.5-0.8
			C315.6,50.5,313.3,49.8,310.8,49z M237.1,437c-0.9,0.2-1.4,0.3-1.9,0.3c-3,0.2-5.5-1.2-7.8-3.1c-1.2-0.9-2.1-1.5-3.8-0.7
			c-1.7,0.8-3.7,0.8-5.2-0.5c-1-0.8-1.6-2.1-2.3-3.2c-1.2-2-4.1-2.5-5.8-1c1.7,1.5,3.5,3,5.2,4.5c2.4,2.1,4.7,4.1,7.1,6.1
			c1.5,1.3,3.1,2.5,4.7,3.7c0.8,0.5,1.8,0.9,2.7,1.1c1.2,0.3,2.5,0.5,3.8,0.8C234.9,442.5,235.9,439.9,237.1,437z M296.7,144.8
			c-0.6,0.6-1.1,1.1-1.5,1.7c-1.3,2-1.9,4.3-2.4,6.6c-0.5,2.4-0.7,4.9-2.3,6.9c-0.6,0.9-0.9,2.1-2.2,2.4c-1,0.3-2.1,0.7-2.9,1.4
			c-1.5,1.5-2.8,3.1-4,4.8c-0.6,0.9-0.8,2.2-1.2,3.3c1.2-1.9,2.2-2.1,4.4-0.6c0.5-0.6,1-1.2,1.4-1.8c0.6-1,1.2-1.1,2.2-0.4
			c0.4,0.3,0.8,0.6,1.2,0.9c1.8-3.8,1.8-3.8,3.3-3.2c0.6-0.6,1.2-1.1,1.7-1.6c0.2-0.2,0.6-0.4,0.6-0.7c0.3-2.9,0.5-5.7,0.7-8.6
			C296.1,152.4,296.4,148.7,296.7,144.8z M266.1,360c-0.1,2.4-0.2,4.4-0.3,6.4c0,0.2,0.4,0.6,0.7,0.7c0.8,0.1,1.6,0,2.4,0
			c4.4,0,8.9,0.1,13.3,0.1c0.3,0,0.8-0.5,0.7-0.6c-0.5-1.6-0.9-3.4-1.7-4.8c-0.6-1-2-1.5-2.8-2.4c-0.8-0.8-1.4-0.7-2.3-0.4
			c-1,0.4-2.1,0.8-3.1,0.8C270.7,360,268.4,359.9,266.1,360z M307.3,186.8c0-0.5,0-0.8-0.1-1c-1.1-2-0.8-3.9,0.2-5.8
			c0.3-0.6,0.5-1.6,0.2-2c-1.4-2-1-4,0-5.9c0.4-0.9,0.4-1.5-0.1-2.1c-1-1.2-2-2.3-3-3.5c-0.1-0.1-0.5-0.2-0.7-0.1
			c-2.1,0.6-3.4,0.9-3.2,3.4c0,0.5,0,1.1,0,1.6c0.1,3-0.6,6,0.1,9c0.5,2.2,1,4.3,3.5,5.2C305.3,185.7,306.2,186.3,307.3,186.8z
			 M254.9,362c-1-0.1-1.9-0.2-2.9-0.2c-2.5,0-4.9,0.1-7.4,0.2c-2.6,0-5.3,0.1-7.9,0c-0.7,0-1.2,0.2-1.2,0.9
			c-0.1,1.1-0.2,2.2-0.3,3.3c-0.1,1.5-0.1,1.5,1.3,1.4c1.5-0.1,3-0.2,4.5-0.3c4.1-0.1,8.3-0.3,12.4-0.3c0.8,0,1.2-0.3,1.2-1.1
			C254.7,364.7,254.8,363.4,254.9,362z M330.6,95.8c0.3-1,0.5-1.8,0.6-2.6c0-0.2-0.1-0.6-0.3-0.8c-1.4-1.9-3.4-1.9-5.3-1.6
			c-1.9,0.3-3,1.8-3.9,3.3c-0.9,1.6-0.8,3.1,0.1,4.8c0.7,1.2,1.2,2.7,0.8,4.2c-0.7,2.4-1.5,4.9-2.2,7.3c-0.6,2,0.3,3.2,2.3,3.3
			c3,0.1,5-1.8,7.4-3.1c0.2-0.1,0.1-0.5,0.2-0.8c-0.2,0-0.5-0.1-0.7-0.1c-0.4,0.1-0.9,0.2-1.2,0.3c-1.6,0.7-3.4-0.3-3.2-2.1
			c0.1-1.7,0.6-3.4,2.2-4.4c0.5-0.3,1.2-0.5,2-0.8c-0.6-0.2-0.8-0.2-1.1-0.3c-4.4-1.5-5.1-2.7-5.2-6.4c0-0.6,0.3-1.4,0.8-1.7
			c0.9-0.6,2-0.9,3.1-1.2c0.4-0.1,0.9,0.1,1.2,0.3C328.9,94.2,329.6,94.9,330.6,95.8z M223.1,318.6c-0.1,1-0.2,2-0.3,2.9
			c-0.2,2.5-0.5,5-0.6,7.5c-0.2,3.9-0.2,7.8-0.4,11.6c-0.1,1.8-0.6,3.5-0.7,5.2c-0.3,4.4-0.4,8.8-0.6,13.1c-0.1,2.4,0.4,3.2,2.5,3.6
			c0.2-3.1,0.3-6.2,0.5-9.3c0.1-2.8,0.3-5.6,0.3-8.4c0.1-3.5,0.2-7,0.3-10.4c0.1-3,0.3-5.9,0.2-8.9
			C224.2,323.2,225.8,320.6,223.1,318.6z M97.5,270.4c-0.1,0.4-0.2,0.9-0.2,1.3c0.4,2.7,0.9,5.3,1.4,8c0,0.2,0,0.4,0.1,0.6
			c0,1,0,2.1,0.1,3.1c0.2,3.2,0.5,6.4,0.8,9.7c0.1,1.8,0.2,3.6,0.3,5.4c0,0.7,0.1,1.3,0.2,2.1C104.5,289.9,103.8,279.9,97.5,270.4z
			 M265.5,342.4c2.6,0,5,0.1,7.5,0c2.3-0.1,4.5-0.3,6.8-0.4c2-0.1,2-0.1,2-2.1c0-0.1,0-0.2,0-0.4c0.1-0.8-0.2-1.2-1.1-1.1
			c-1.4,0.1-2.8,0.2-4.2,0.3c-3.2,0.2-6.5,0.5-9.7,0.7c-1,0.1-1.7,0.1-1.3,1.4C265.6,341.2,265.5,341.8,265.5,342.4z M111.3,277.8
			c0.1-0.8,0.3-1.4,0.2-2c-0.2-2.1,0-4.2-0.5-6.2c-0.1-0.4-0.2-0.7-0.3-1.1c-0.4-1.9-0.6-3.8-1.1-5.7c-0.4-1.5-1.2-2.8-1.8-4.2
			c-0.8-1.7-1.3-3.5-2.3-5c-1.1-1.5-2.6-2.8-4-4.1c-0.6-0.5-1.3-0.9-1.9-1.4c0.8,1.6,1.6,3.2,2.7,4.5c2.4,2.9,3.5,6.4,5,9.8
			c1.1,2.6,1.7,5.4,2.4,8.2c0.5,1.9,0.7,3.9,1.1,5.8C110.8,276.8,111.1,277.2,111.3,277.8z M278.3,284.5c0.5-1.2,1.2-2.3,1.5-3.4
			c0.6-2.8-1-5-2.8-6.9c-0.1-0.1-0.4-0.2-0.6-0.2c-0.8,0.1-1.6,0.3-2.3,0.4c0.7,1.3,1.7,2.6,1.9,4c0.2,1.4-0.5,2.9-0.9,4.5
			C276,283.3,277,283.8,278.3,284.5z M278.9,344.7c-1.6,0.1-3,0.3-4.4,0.3c-2.3,0-4.7-0.1-7-0.1c-2,0-2.7,1.3-1.7,3
			c3.2-0.1,6.4-0.2,9.5-0.2c1.3,0,2.3-0.3,2.7-1.7C278.1,345.7,278.5,345.4,278.9,344.7z M293.3,388.1c0.9-0.4,1.6-0.9,2.3-1.1
			c1.5-0.4,3-0.6,4.6-0.9c-0.1-0.8-0.2-1.4-0.3-1.9c-0.3-0.9-0.7-1.7-2-1.8c-1.7,0-3.5,0.1-4.8-1.6c-0.1,0.1-0.2,0.2-0.3,0.2
			C292.9,383.4,293.1,385.8,293.3,388.1z M374.6,157.9c-0.4,0.3-0.6,0.7-0.8,0.7c-1.1,0.1-2.2,0-3.3,0c-0.1,0.1-0.3,0.2-0.4,0.3
			c0.5,0.3,1.3,0.6,1.5,1.1c0.6,1.2,1.7,1.7,2.8,1.5c1.5-0.3,3-0.8,4.5-1.3c0.5-0.2,1-0.5,1.5-0.7c-0.6-0.3-1.1-0.3-1.6-0.5
			c-1.8-0.7-4.1-0.8-4.3-3.5c0-0.2-0.3-0.6-0.5-0.6c-1.1-0.1-2.2,0-3.2,0c0,0.1-0.1,0.2-0.1,0.2
			C372.1,155.9,373.3,156.9,374.6,157.9z M270.4,257.6c-0.6-0.4-0.9-0.6-1.2-0.8c-0.3-0.1-0.8-0.3-0.9-0.2c-1.3,0.9-2.8,1.7-3.6,3.4
			c-1.6,3.4,0.2,8.5,3.8,9.9c0.9,0.4,2.6-0.5,2.8-1.2c-1-0.5-2.1-0.9-3.1-1.3c-2.5-1-3.5-4.2-2.1-6.6
			C267.2,259.3,268.2,257.8,270.4,257.6z M242.9,160c0,2.9,0.8,5.2,2.1,7.3c1.4,2.4,3.9,3.2,6.6,3.5c-0.3-0.3-0.6-0.6-0.9-0.6
			c-1.4-0.2-2.2-1.3-2.7-2.3c-0.8-1.6-1.2-3.4-1.6-5.1c-0.3-1.4-0.7-2.3-2.3-2.1C243.8,160.6,243.5,160.3,242.9,160z M368.1,161.5
			c0.1-0.1,0.2-0.2,0.2-0.3c-1-1.1-2.1-2.1-2.9-3.2c-0.7-1-1.2-2.2-1.6-3.3c-0.3-0.8-0.3-1.6-0.4-2.4c-0.1-0.7,0.1-1.2,0.8-1.5
			c1.2-0.3,2.3-0.4,3.4,0c0.9,0.3,1.9,0.4,2.9,0.5c0-0.1,0.1-0.2,0.1-0.3c-0.2-0.2-0.4-0.4-0.6-0.4c-0.9-0.2-1.9-0.5-2.9-0.6
			c-1.7-0.3-3.3-0.5-5-0.7c-0.2,0-0.7,0.5-0.7,0.8c-0.1,0.9-0.2,1.9-0.1,2.8c0.2,2,0.8,4,2.4,5.4c0.9,0.8,1.9,1.4,2.9,2.2
			C367.2,160.7,367.7,161.1,368.1,161.5z M265.3,327.1c0.7-0.3,1.2-0.6,1.7-0.6c1.3-0.1,2.5-0.1,3.8,0c0.8,0,1-0.4,0.9-1
			c0-0.8-0.2-1.7-0.1-2.5c0-0.9-0.4-1-1.2-1c-1.3,0.1-2.5,0-3.8,0c-0.7,0-1.3,0-1.3,0.9C265.3,324.3,265.3,325.7,265.3,327.1z
			 M245.3,374.4c0,0.1-0.1,0.2-0.1,0.3c2.6,1.6,5.3,3.2,8,4.8c0.3-2,0.6-3.7,0.9-5.6C251,374.2,248.2,374.3,245.3,374.4z M81.6,296
			c0.2,0.4,0.5,0.7,0.7,1.1c0.5,0.8,1.1,1.6,1.6,2.4c1.1,1.6,2.2,3.3,3.4,4.8c0.7,0.9,1.7,1.6,2.1,2.6c0.5,1.2,1.2,1.4,2.4,1.5
			C89.3,303.5,86.8,298.7,81.6,296z M306.1,51.4c-0.1,0.2-0.2,0.4-0.3,0.6c0.8,0.6,1.5,1.3,2.3,1.8c1,0.7,2.2,1.2,3,2.1
			c1,1.1,1.7,2.5,2.7,3.7c0.2,0.2,0.7,0.4,0.9,0.3c0.4-0.2,0.8-0.6,1.1-1.1c0.9-1.3,0.5-2.5-0.9-2.9c-1.2-0.3-2.1-0.9-3-1.8
			c-0.8-0.8-1.6-1.5-2.6-2C308.3,51.7,307.2,51.6,306.1,51.4z M305.9,41.9c0-0.1,0-0.2,0-0.3c-0.5-0.2-1-0.5-1.6-0.7
			c-0.6-0.2-1.2-0.2-1.8-0.5c-2.6-1.1-3.6-0.8-5.3,1.4c-1.3,1.7-1.1,3.6-0.7,5.3c0.9-1.1,1.9-2.2,2.8-3.3c1.2-1.3,2.5-2.3,4.5-1.9
			C304.5,42.1,305.2,41.9,305.9,41.9z M387.5,92.8c1.2,0.9,2.3,1.9,3.6,2.6c1,0.6,2.5,0.3,2.8-0.3c0.6-1,0.1-3.6-0.8-4.5
			C391.4,91.6,389.1,91.1,387.5,92.8z M401.2,129.1c5.6,0.8,10,3.9,14.5,7.1c0.3-0.4,0.6-0.7,1.1-1.2c-5-2.6-9.7-5.2-14.6-7.7
			C401.9,127.9,401.6,128.5,401.2,129.1z M247.5,312c-0.8-0.2-1.2-0.3-1.7-0.3c-2.4,0.1-4.8,0.3-7.2,0.4c-2.3,0.1-4.6,0-6.9,0.1
			c-0.5,0-1,0.4-1.8,0.7c1.8,0.1,3.2,0.2,4.7,0.3c2.3,0.1,4.6,0.8,6.7-0.6c0.1-0.1,0.2-0.1,0.3-0.1
			C243.5,312.9,245.3,312.8,247.5,312z M337.5,310.9c1.2-0.2,2.2-0.3,3-0.7c0.4-0.2,0.6-1,0.9-1.6c0-0.1,0.1-0.1,0.1-0.2
			c1.7-2.8,3.3-5.7,5-8.6c0.1-0.3,0.2-0.6,0.4-1C343.7,303,340.7,306.8,337.5,310.9z M273.6,30.2c0.1,0,0.2,0,0.3-0.1
			c0-0.8,0.1-1.7,0-2.5c-0.4-3-0.7-6-1.3-8.9c-0.4-2.3-1-4.5-1.6-6.8c-0.1-0.3-0.4-0.4-0.7-0.7c-0.1,0.3-0.2,0.6-0.2,0.9
			c0.6,2.6,1.3,5.1,1.8,7.7c0.5,2.3,0.7,4.6,1,6.8C273.2,27.9,273.5,29.1,273.6,30.2z M114.9,251.7c0-0.2,0-0.5-0.1-0.7
			c-1-2.6-2-5.1-3-7.7c-0.9-2.2-2.2-4.1-4.3-5.8C110,242.3,112.4,247,114.9,251.7z M415.7,118.5c0.1,0.1,0.2,0.3,0.3,0.4
			c1.1,0,2.2,0.2,3.2-0.1c0.8-0.2,1.8-0.8,2.2-1.5c0.4-0.5,0.1-1.5,0.2-2.3c-0.6,0.1-1.2,0.2-1.7,0.5
			C418.5,116.4,417.1,117.5,415.7,118.5z M238.1,330.8c1.4,0,2.5,0,3.6,0c0.1-1.3,0.2-2.6,0.2-3.8c-1.2,0-2.2,0-3.5,0
			C238.4,328.2,238.2,329.4,238.1,330.8z M280.1,321.9c0,1.8,0,3.5,0,5.1c0.9,0,1.7,0,2.4,0c0-1.9,0-3.7,0-5.5
			C281.6,321.6,280.8,321.8,280.1,321.9z M263.5,154.8c0.1,0,0.2-0.1,0.3-0.1c-0.1-0.4-0.4-0.7-0.4-1.1c0-1.1,0.1-2.3,0.2-3.4
			c0.1-0.9-0.3-1.4-1-1.8c-0.8-0.4-1.6-0.7-2.7-1.2C261.2,149.9,262.3,152.3,263.5,154.8z M265.6,279.8c-0.5-2.6,0.6-4.5,2.6-6
			c-0.9-0.4-1.6-0.6-2.3-0.9C264.1,274.9,263.7,279,265.6,279.8z M274.7,326.5c0.5,0.1,0.9,0.2,1.3,0.2c0.2,0,0.6-0.1,0.6-0.2
			c0.1-1.5,0.2-3,0.3-4.4c-1,0-1.8,0-2.6,0C274.5,323.6,274.6,325,274.7,326.5z M193,310.5c-0.1,0.1-0.2,0.2-0.4,0.3
			c1,3.6,4.3,5.3,6.9,7.9c0.1-1.2-0.4-2-1.1-2.6c-1-0.8-2-1.5-2.8-2.4C194.6,312.8,193.9,311.6,193,310.5z M295.7,328.5
			c-1.7-0.9-3.2-1.6-4.8-2.5c0.1,1.3,0.2,2.3,0.2,3.4C292.7,328.9,294.5,330.1,295.7,328.5z M266,330.7c0.9,0,1.8,0,2.7,0
			c0.9,0,1.7,0.1,2.6,0.1c0.2,0,0.5-0.2,0.5-0.3c0-0.3,0-0.8-0.2-1c-0.3-0.3-0.7-0.5-1.1-0.4c-1.3,0.1-2.5,0.3-3.8,0.4
			C265.8,329.5,265.7,329.9,266,330.7z M225.5,315.4c0.3,1.6,0.6,2,1.7,1.9c1.8-0.2,3.6-0.4,5.4-0.7c0-0.1,0-0.2,0-0.4
			C230.2,316,227.9,315.7,225.5,315.4z M245.2,330.7c2.1,0.4,2.3,0.4,2.4-3.1C245.1,327.1,244.6,327.8,245.2,330.7z M220.3,313.8
			c0.2-0.4,0.5-0.8,0.5-1.2c0.2-0.7-0.2-1.3-0.9-1.2c-0.2,0-0.7,0.7-0.7,1.1c0,0.6,0.2,1.4,0.5,1.9c0.9,1.3,1.9,2.5,2.8,3.8
			c0.1-0.1,0.2-0.2,0.3-0.2C222.1,316.5,221.1,315.2,220.3,313.8z M273.8,151.3c-1.2,0.2-2,0.4-2,1.7c0,1.2,0,2.3,1,3.2
			C273.1,154.5,273.4,153,273.8,151.3z M247.6,358.6c0,0.2,0,0.4,0,0.5c2.7-0.3,5.4,0.3,8-0.5C253,358.6,250.3,358.6,247.6,358.6z
			 M252.1,327.5c-0.9-0.2-1.4-0.1-1.4,0.9c0,0.5-0.1,0.9-0.2,1.4c-0.2,0.6,0,1,0.6,0.9c0.4-0.1,0.9-0.5,1-0.8
			C252.2,329.1,252.1,328.3,252.1,327.5z M247.7,324.3c0.1-0.7,0.1-1.3,0.2-2.1c-0.9,0.4-2.1-0.7-2.3,0.8
			C245.4,324.3,245.6,324.3,247.7,324.3z M242.1,322.5c-0.4,0-0.9,0.2-1.3,0.1c-1.4-0.2-1.7,0-1.2,1.5c0.2,0,0.4,0,0.7-0.1
			c0.3,0,0.5-0.1,0.8-0.1C242.5,324,242.5,324,242.1,322.5z M257.1,325c0-0.9,0-1.8,0-2.9c-0.6,0.3-1.2,0.4-1.3,0.7
			C255.4,323.8,255.9,324.5,257.1,325z M281.9,143.7c-0.1,0-0.3-0.1-0.4-0.1c-0.3,1.2-2.1,2.2-0.6,4
			C281.3,146.2,281.6,144.9,281.9,143.7z M234.8,322.6c0,0.6,0,1.2,0,1.8c0.4-0.1,1,0,1.3-0.2c0.4-0.3,0.5-0.9,0.8-1.6
			C236,322.5,235.4,322.5,234.8,322.6z M254.9,330.1c0.6-0.3,1.7-2.7,1.4-3.3c-0.3,0-0.7,0.1-1,0.1C255.2,328,255.1,329,254.9,330.1
			z M236,359c1.3,0.7,2.7,0.2,4,0C238.7,358.5,237.4,358.6,236,359z M235.3,327.4c-0.8,0.4-1.1,1.9-0.9,3.4
			C235.1,330.7,235.3,329.7,235.3,327.4z M280,330.6c0.8-0.4,2.1,0.5,2.4-1C281.6,329.9,280.2,328.7,280,330.6z M275.6,328.9
			c-0.4,0.6-0.8,1.1-0.8,1.1c0.3,0.3,0.7,0.7,1.2,0.8c0.2,0,0.8-0.6,0.7-0.7C276.5,329.8,276.1,329.5,275.6,328.9z M157,129.5
			c0.5,0.2,1,0.5,1.7,0.8c0-0.7-0.1-1.3-0.1-1.9C157.6,128.1,157,128.4,157,129.5z M252.4,324.3c0-0.7-0.1-1.3-0.1-2
			c-0.5,0-0.8,0.1-1,0.1c-0.1,0.8-0.2,1.4-0.3,2.2C251.6,324.5,251.9,324.4,252.4,324.3z M241.5,358.8c0,0.2,0,0.4,0.1,0.5
			c1-0.1,2-0.2,3.1-0.3c0-0.2,0-0.3-0.1-0.5C243.6,358.6,242.6,358.7,241.5,358.8z M269.6,8.6c-1,0.6-0.8,1.2,0.9,2.3
			C270.2,10,269.9,9.3,269.6,8.6z"/>
		<path class="st1" d="M195.4,163.7c-2.9-0.2-5.2-0.6-7.3-1.7c-2-1.2-2.3-2.3-0.8-4.4c0.8-1.1,1.7-2.2,2.3-3.4
			c0.6-1.2,1.6-1.6,2.8-1.5c1.1,0.1,2-0.2,2.7-1.2c0.9-1.5,2.5-1.6,4-1.8c1.8-0.2,3.7-0.4,5.6-0.6c2.2-0.2,3,0.9,2.3,3
			c-0.5,1.5-1.3,2.8-1.9,4.2c-1.2,3-3.7,4.9-6.4,6.5C197.7,163.4,196.2,163.5,195.4,163.7z"/>
		<path class="st1" d="M200.3,120.5c-2.8,0.1-4.6-1.1-5-3.5c-0.1-0.8,0-1.9,0.4-2.6c1.4-2.7,3.6-4.6,6-6.3c1.8-1.2,4.1-1.8,6-2.9
			c1.3-0.8,2.5-0.9,3.9-1c0.4,0,0.9,0.1,1.1,0.3c0.2,0.3,0.4,0.9,0.2,1.2c-0.7,1.8-1.5,3.5-2.4,5.2c-1,2-2.1,4-3.3,5.8
			c-0.7,1-1.9,1.7-2.9,2.5C203.2,120.2,201.8,120.9,200.3,120.5z M208.6,107.7c-0.7,0.3-1.2,0.5-1.5,0.7c-0.2,0.1-0.4,0.5-0.4,0.7
			c0.1,0.3,0.4,0.6,0.7,0.7c0.1,0,0.4-0.3,0.6-0.6C208.3,108.8,208.4,108.4,208.6,107.7z"/>
		<path class="st1" d="M248,267c-0.5-0.7-0.9-1.3-1.3-2c-1.6-2.8-3.2-5.7-4.7-8.5c-0.4-0.7-0.8-1.3-1-2c-0.1-0.4,0.1-0.9,0.2-1.4
			c0.5,0.1,1,0.1,1.3,0.3c2.4,1.7,3.2,4.4,4.4,7c0.4,1,0.8,1.9,1.3,2.9c0.1,0.3,0.3,0.6,0.6,0.7c1.5,1.1,1.5,1.9-0.1,2.8
			C248.5,266.7,248.3,266.8,248,267z"/>
		<path class="st1" d="M258.7,222.8c-0.9-0.3-1.7-0.4-2.3-0.6c-2.7-1.1-5.2-2.5-7.4-4.3c-0.7-0.6-0.8-1.7-0.3-2.2
			c0.5-0.6,1.7-0.7,2.4-0.2c1.8,1.2,3.7,2.4,5.5,3.5c0.9,0.6,1.9,1.1,2.8,1.7c0.3,0.2,0.5,1,0.4,1.4
			C259.6,222.4,259,222.6,258.7,222.8z"/>
		<path class="st1" d="M232.5,253.8c0.3,2.7-0.2,4.8-0.7,7c-0.3,1.7-1.4,3.3-0.8,5.2c0.1,0.3-0.5,1.1-0.9,1.3
			c-0.5,0.2-1.3,0.2-1.9,0c-0.2-0.1-0.3-0.9-0.2-1.3c0.2-1.5,0.4-3.1,0.8-4.5c0.6-2.2,1.4-4.3,2.2-6.4
			C231.2,254.6,231.8,254.3,232.5,253.8z"/>
		<path class="st1" d="M248.3,236.9c0.7,0.6,1.4,1.2,2.1,1.8c1.5,1.3,3,2.6,4.4,4c1,1,1.8,2.1,2.6,3.2c0.2,0.3,0.1,0.8,0.1,1.2
			c-0.4,0-1,0.1-1.3-0.1c-1.1-0.8-2.2-1.6-3.3-2.5c-1.1-0.9-2.3-1.7-3.3-2.6c-1.2-0.9-2.6-1.7-2.7-3.5c0-1,0.2-1.4,1.3-1.3
			C248.2,237.1,248.2,237,248.3,236.9z"/>
		<path class="st1" d="M210.7,242.6c-0.5,1.3-0.9,2.3-1.4,3.3c-0.7,1.5-1.5,3-2.7,4.3c-0.6,0.7-0.9,1.7-1.3,2.5
			c-0.5,1-1.4,0.9-2.1,0.7c-0.9-0.3-0.6-1.1-0.4-1.8c0.9-2.6,2.8-4.4,4.3-6.6c0.5-0.8,0.9-1.8,1.5-2.5c0.3-0.3,0.8-0.6,1.3-0.6
			C210.2,241.8,210.5,242.3,210.7,242.6z"/>
		<path class="st1" d="M183.7,218.8c-0.8,0.9-1.5,1.8-2.3,2.8c-1.8,2.2-3.5,4.5-5.4,6.6c-0.3,0.3-1.2,0.2-1.8,0.3
			c0-0.7-0.1-1.5,0.1-2.1c0.1-0.4,0.7-0.7,1.1-1.1c1.6-2,3.2-3.9,4.9-5.9c0.5-0.5,1.1-1,1.7-1.3c0.4-0.2,1,0.2,1.5,0.3
			C183.6,218.5,183.7,218.7,183.7,218.8z"/>
		<path class="st1" d="M247.5,227.1c0.2-0.4,0.3-0.9,0.6-1c0.2-0.1,0.8,0,1.1,0.2c2.2,1.6,4.4,3.2,6.5,4.9c1,0.8,1.9,1.8,2.8,2.8
			c0.3,0.3,0.1,0.9,0.2,1.4c-0.5-0.1-1,0-1.4-0.2c-1.5-0.9-3-1.8-4.3-2.8c-1.8-1.4-3.4-2.9-5.1-4.4
			C247.7,227.9,247.7,227.5,247.5,227.1z"/>
		<path class="st1" d="M257.5,207.2c-0.4-0.1-0.9-0.3-1.5-0.5c-1.3-0.5-2.5-0.9-3.7-1.4c-1-0.5-2-1-3-1.6c-0.6-0.4-0.3-1.5,0.4-1.7
			c0.7-0.2,1.6-0.2,2.3,0c2.4,0.9,4.8,1.9,7.1,3c0.4,0.2,0.7,0.8,1,1.3c-0.4,0.3-0.8,0.6-1.2,0.8
			C258.6,207.1,258.1,207.1,257.5,207.2z"/>
		<path class="st1" d="M246.7,247.1c0.5,0.3,0.9,0.6,1.2,0.9c1.5,1.7,3,3.3,4.4,5.1c1,1.3,1.9,2.7,2.9,4c0.4,0.5,0.6,1.1-0.1,1.4
			c-0.4,0.2-1.2,0.1-1.5-0.3c-0.9-0.9-1.5-1.9-2.3-2.8c-1.4-1.7-2.9-3.4-4.3-5.1c-0.4-0.5-0.9-1.1-1.2-1.7c-0.1-0.2-0.1-0.7,0-0.9
			C245.9,247.4,246.3,247.3,246.7,247.1z"/>
		<path class="st1" d="M236.9,265.3c0-3.2,0-6.3,0.1-9.5c0-0.4,0.6-1.1,1.1-1.2c0.7-0.1,0.8,0.4,0.8,1.2c0,2.9,0,5.7,0.2,8.6
			c0.1,0.9,0.5,1.8,0,2.7c-0.2,0.3-0.6,0.8-0.8,0.8c-0.5-0.1-1.1-0.3-1.3-0.7c-0.3-0.5-0.2-1.2-0.3-1.7
			C236.7,265.3,236.8,265.3,236.9,265.3z"/>
		<path class="st1" d="M195.3,247.2c-1.4,0-1.9-1-1.4-1.9c0.6-1,1.4-2,2.1-2.9c1.3-1.8,2.6-3.5,3.9-5.3c0.5-0.7,1-0.6,1.5-0.4
			c0.6,0.3,0.5,0.9,0.2,1.4c-0.9,1.5-1.8,3.1-2.7,4.6c-0.6,1-1.1,2.1-1.8,3.1C196.6,246.4,195.8,246.8,195.3,247.2z"/>
		<path class="st1" d="M218.6,246.8c1-0.1,1.5,0.8,1.2,1.5c-1,2.3-1.8,4.5-2.9,6.7c-0.5,1-1.3,1.8-2.1,2.6c-0.2,0.2-0.9,0.2-1.2,0
			c-0.3-0.2-0.5-0.8-0.4-1.1c0.6-1.5,1.4-3,2.1-4.4c0.7-1.4,1.4-2.8,2.2-4.2C217.9,247.5,218.4,247.1,218.6,246.8z"/>
		<path class="st1" d="M187.5,227.9c-0.6,1-1,2.1-1.7,3c-1,1.3-2.1,2.4-3.2,3.6c-0.6,0.6-1.3,1.2-2.1,1.7c-0.7,0.5-1.4,0.1-1.9-0.4
			c-0.6-0.6-0.1-1.1,0.3-1.5c1.8-1.9,3.7-3.7,5.6-5.5c0.4-0.4,0.8-0.9,1.3-1.3c0.2-0.2,0.6-0.3,0.8-0.2
			C186.9,227.2,187.1,227.6,187.5,227.9z"/>
		<path class="st1" d="M225.6,252c-0.6,1.9-1.2,3.7-1.8,5.4c-0.5,1.3-1.1,2.7-1.4,4c-0.2,1.1-0.8,1.3-1.7,1.1c-0.9-0.2-1-1-0.7-1.8
			c0.9-2.3,1.9-4.7,2.8-7c0.3-0.7,0.7-1.4,1.1-2.1c0.2-0.3,0.6-0.5,1-0.8C225.1,251.2,225.3,251.6,225.6,252z"/>
		<path class="st1" d="M188.7,241.7c-0.6-0.3-1.3-0.5-1.4-0.8c-0.1-0.5,0-1.3,0.3-1.7c1.4-1.9,2.9-3.6,4.3-5.4
			c0.3-0.3,0.3-0.8,0.6-1.1c0.3-0.3,0.8-0.6,1.1-0.6c0.3,0.1,0.7,0.8,0.6,1.1c-0.3,1.1-0.8,2.1-1.3,3.1c-0.8,1.4-1.8,2.8-2.7,4.1
			C189.9,240.8,189.3,241.2,188.7,241.7z"/>
		<path class="st1" d="M164.9,210c0.3-0.5,0.5-1,0.9-1.4c1.2-1.2,2.4-2.3,3.7-3.3c0.9-0.7,2.1-1.2,3.2-1.6c0.3-0.1,1.1,0.3,1.3,0.6
			c0.3,0.5,0,0.8-0.6,1.3c-2,1.5-3.7,3.2-5.6,4.8c-0.4,0.3-0.8,0.6-1.3,0.8C165.6,211.6,165,211.2,164.9,210z"/>
		<path class="st1" d="M169.6,220.1c0.6-1.4,1.3-2.8,1.9-4.2c0.3-0.7,0.7-1.4,1.2-2.1c0.8-1.1,1.9-1.9,3.1-2.2
			c0.9-0.2,1.4,0.2,1.1,1.1c-0.2,0.5-0.5,1.3-0.9,1.4c-1.3,0.3-1.4,1.5-2,2.4c-0.7,1.1-1.2,2.3-1.9,3.4
			C171.6,220.8,170.8,221,169.6,220.1z"/>
		<path class="st1" d="M290.5,269c0.8-2.4,1.6-4.7,2.5-7c0.7-1.9,1.6-3.6,2.3-5.5c0.4-1,1-1.5,2-1.3c0.9,0.2,1.2,0.9,1.2,1.8
			c0,1.4-0.9,2.5-1.5,3.6c-0.9,1.9-2.1,3.7-3,5.6c-0.5,1-0.7,2.2-0.8,3.3c-0.1,0.8-0.3,1.4-1.2,1.4c-1-0.1-1.3-0.7-1.2-1.7
			C290.7,269.1,290.6,269.1,290.5,269z"/>
		<path class="st1" d="M278.7,240.2c0.3-0.5,0.3-0.8,0.5-1c2.1-2.1,4.3-4.2,6.5-6.2c1-0.9,2.2-1.7,3.4-2.5c0.3-0.2,0.9-0.1,1.3-0.1
			c-0.1,0.6,0.1,1.3-0.2,1.7c-2.1,2.1-4.3,4.2-6.4,6.3c-0.8,0.8-1.7,1.6-2.2,2.6c-0.4,0.9-0.9,0.9-1.5,0.6
			C279.6,241.3,279.2,240.7,278.7,240.2z"/>
		<path class="st1" d="M293.4,251.1c0.9,0.2,1.5,0.5,1.1,1.4c-0.4,0.8-0.8,1.5-1.2,2.2c-1.1,1.8-2.2,3.5-3.3,5.3
			c-0.6,0.9-1.1,1.9-1.8,2.8c-0.9,1.2-2.9,0.8-3.4-0.6c-0.1-0.3,0.1-0.7,0.3-0.9c1.9-2.5,3.8-4.9,5.7-7.4c0.6-0.7,1.1-1.5,1.7-2.2
			C292.8,251.4,293.2,251.2,293.4,251.1z"/>
		<path class="st1" d="M335.2,252.1c-0.9-0.9-1.8-1.7-2.5-2.6c-1-1.4-1.9-2.9-2.8-4.4c-0.5-0.8-1-1.6-1.2-2.4
			c-0.1-0.5,0.2-1.5,0.6-1.7c0.4-0.3,1.5-0.1,1.8,0.2c0.7,0.8,1.1,1.8,1.7,2.8c1,1.8,2.1,3.7,3.1,5.5c0.3,0.5,0.4,1.1,0.4,1.6
			C336.3,251.5,335.8,251.7,335.2,252.1z"/>
		<path class="st1" d="M283.4,255.8c-0.5-0.5-1-0.8-1.3-1.3c-0.3-0.5-0.5-1,0-1.6c1.7-1.8,3.2-3.6,4.9-5.4c0.6-0.7,1.4-1.4,2.1-1.9
			c0.4-0.2,1-0.1,1.5-0.1c0,0.5,0.2,1.2-0.1,1.6c-1.3,2.2-2.9,4.1-4.8,5.8c-0.6,0.5-0.8,1.3-1.2,2
			C284.3,255.1,283.9,255.3,283.4,255.8z"/>
		<path class="st1" d="M287.8,222.5c0,0.1-0.1,0.4-0.4,0.6c-1,0.8-2,1.4-2.9,2.2c-1.3,1.2-2.6,2.6-3.9,3.9c-0.8,0.8-1.8,0.9-2.4,0.3
			c-0.8-0.7-0.8-1.8,0.2-2.5c2.4-1.9,5-3.8,7.5-5.6C286.8,220.7,287.8,221.3,287.8,222.5z"/>
		<path class="st1" d="M304.6,260.2c0-1.3-0.1-2.5,0-3.8c0-0.6,0.2-1.3,0.6-1.7c0.3-0.3,1.3-0.4,1.5-0.1c0.4,0.5,0.8,1.3,0.8,1.9
			c-0.1,2.6-0.4,5.1-0.6,7.7c0,0.5,0,1,0,1.5c0,0.8-0.4,1-1.1,1c-0.8,0-1.1-0.5-1.1-1.3c0-1.7,0-3.5,0-5.2
			C304.6,260.2,304.6,260.2,304.6,260.2z"/>
		<path class="st1" d="M346.4,242.3c-0.7,1-1.5,1.2-2.5,0.6c-2.5-1.5-4.6-3.5-6.2-5.9c-0.3-0.4-0.3-1.4,0-1.7c0.6-0.7,2.1-0.6,2.6,0
			c1.2,1.5,2.5,3,3.7,4.5C344.9,240.6,345.7,241.4,346.4,242.3z"/>
		<path class="st1" d="M276.3,216.7c0.4-0.6,0.6-1.4,1.1-1.7c2.5-1.7,5-3.3,7.6-4.9c0.4-0.2,1.1-0.1,1.6,0.1
			c0.1,0.1,0.2,1.1-0.1,1.3c-2.6,2.1-5.3,4.1-8,6.1c-0.3,0.2-0.9,0.5-1.3,0.3C276.8,217.8,276.6,217.3,276.3,216.7z"/>
		<path class="st1" d="M352.4,233.8c-2.2-0.6-4.1-1.6-5.4-3.6c-0.4-0.6-1.3-0.9-1-2c0.3-0.9,1.3-1.4,2.1-0.8
			c1.4,1.1,2.7,2.2,4.1,3.1c0.8,0.6,1.8,0.9,2.7,1.4c0.3,0.2,0.5,0.6,0.5,0.9c0,0.2-0.4,0.5-0.7,0.6
			C354,233.6,353.2,233.7,352.4,233.8z"/>
		<path class="st1" d="M356.7,225.1c-1.3-0.4-2.7-0.8-4-1.4c-0.4-0.2-0.7-1.2-0.6-1.8c0.1-0.4,0.8-1,1.3-1.1
			c0.9-0.1,1.7,0.3,2.6,0.4c1.5,0.2,3,0.3,4.4,0.6c0.5,0.1,0.9,0.7,1.2,1.1c0.1,0.1-0.2,0.7-0.3,0.8
			C359.8,224.2,358.3,224.6,356.7,225.1z"/>
		<path class="st1" d="M327.4,254.5c0,0-0.3,0-0.4-0.2c-2.5-2-4.9-4-5.8-7.3c0-0.1-0.1-0.1-0.1-0.2c-0.3-0.6-1-1.2,0.2-1.6
			c1.1-0.4,1.8-0.1,2.3,0.8c0.7,1.3,1.6,2.5,2.4,3.8c0.8,1.2,1.6,2.3,2.3,3.5C328.8,254.2,328.5,254.5,327.4,254.5z"/>
		<path class="st1" d="M314,249.4c0.5,0.5,1.2,0.9,1.4,1.5c0.7,1.8,1.2,3.6,1.8,5.4c0.3,0.9,0.7,1.8,1.2,2.6
			c0.5,0.8-0.1,1.2-0.5,1.5c-0.3,0.2-1.1-0.1-1.2-0.4c-0.6-1-1.2-2-1.6-3.1c-0.8-2-1.6-4.1-2.3-6.1C312.5,250.1,313,249.7,314,249.4
			z"/>
		<path class="st1" d="M274.2,200.6c-0.4-0.6-0.9-1-1.2-1.6c-0.1-0.2,0.2-0.9,0.5-1c1.5-0.8,3.1-1.5,4.7-2.2c1.3-0.5,2.5-1,3.8-1.4
			c0.4-0.1,0.8,0.1,1.2,0.1c-0.1,0.6-0.1,1.5-0.4,1.7c-2.1,1.2-4.3,2.2-6.4,3.3C275.7,199.8,275.1,200.1,274.2,200.6z"/>
		<path class="st1" d="M283.7,199.5c0.4,0.2,0.8,0.4,0.9,0.6c0.1,0.2,0,0.8-0.2,0.9c-2.2,1.5-4.4,3-6.8,4.4
			c-1.2,0.7-1.7,0.4-2.1-0.7c-0.3-0.8,0.4-1.5,1.3-1.9c1.8-0.8,3.6-1.8,5.3-2.6C282.7,199.8,283.1,199.7,283.7,199.5z"/>
		<path class="st1" d="M360.3,217.9c-1-0.3-1.7-0.4-2.3-0.7c-0.8-0.4-1.3-1.1-0.9-2.1c0.3-0.7,1.6-1.2,2.5-1c1,0.2,2.1,0.3,3.1,0.5
			c0.6,0.1,1.1,0.5,1.6,0.8c-0.3,0.4-0.5,1.1-0.9,1.3C362.3,217.1,361.2,217.5,360.3,217.9z"/>
		<path class="st1" d="M363.6,208.6c0.8,0.2,1.9,0.3,3,0.6c0.9,0.3,1,0.9,0.2,1.4c-1.1,0.8-2.4,1.3-3.8,1.1c-1.1-0.2-2-1-1.9-1.8
			C361.1,209.2,362.1,208.6,363.6,208.6z"/>
		<path class="st1" d="M243,80.8c0-0.6,0-1.2,0-1.8c0-0.8-0.2-1.6-0.1-2.4c0.1-0.4,0.7-1,1-1c0.5,0.1,1.2,0.5,1.3,0.9
			c0.6,1.7,1,3.4,1.5,5.2c1.4-0.1,3.2-0.2,5-0.2c0-0.5,0-1-0.1-1.4c-0.5-1.6,0.3-3,0.8-4.5c0.1-0.4,1.1-0.8,1.6-0.7
			c0.5,0.1,1.1,0.8,1.2,1.3c0.3,1.8,0.3,3.6-0.4,5.3c-0.1,0.2,0.1,0.4,0.3,0.9c0.8-1.8,1.5-3.4,2.2-4.9c0.4-1,1.3-0.8,2-0.5
			c0.3,0.1,0.5,1,0.3,1.4c-0.5,1.6-1.2,3.1-1.8,4.5c0.9,1,1.8,2.1,2.8,3.2c1.7,1.9,2.4,4.4-0.6,6.1c-2.1,1.2-4.2,1.2-6.4,1.3
			c-4.3,0.2-8.5-0.2-12.5-1.8c-1.8-0.7-3.4-1.7-5.1-2.7c-0.8-0.5-0.8-1.5-0.2-2.4c0.9-1.5,2.4-2.2,4-2.9c1-0.4,1.9-0.8,3-1.3
			c-1.4,0.1-2.3-0.5-2.9-1.5c-0.6-0.9-1-2-1.4-3c0.1-0.1,0.2-0.2,0.3-0.2c-0.3-0.1-0.7,0-1-0.2c-0.5-0.4-1-0.8-1.2-1.3
			c-0.1-0.3,0.3-0.9,0.6-1.2c1.7-1.7,3.4-3.5,5.3-4.9c3.1-2.2,6.7-2.4,10.4-2.3c3.5,0.1,6.4,1.7,9,3.7c2.6,2.1,4.2,4.7,4.3,8.3
			c0,2.3,0.5,4.5,0.6,6.8c0,0.7-0.2,1.8-0.8,2.1c-0.4,0.3-1.4-0.1-2.2-0.2c-0.2,0-0.3-0.4-0.4-0.6c-0.2-1.6-0.3-3.3-0.5-4.9
			c-0.3-2-0.6-3.9-1-5.9c-0.4-2.2-2.1-3.3-3.9-4.1c-2.8-1.3-5.8-0.9-8.8-0.5c-1.8,0.2-3.6,0.8-5.4,1.3c-0.5,0.1-0.8,0.6-1.2,0.8
			c-0.6,0.4-1.2,0.8-1.7,1.2c-0.4,0.3-0.7,0.8-1.1,1.3C241.5,77.8,241.9,79.6,243,80.8c0,0.5,0,1.1,0,1.8c0.4-0.2,0.9-0.4,1.6-0.7
			C243.9,81.4,243.4,81.1,243,80.8z M243.3,89.4c-0.1-0.9-0.2-1.7-0.3-2.5c-1,0.4-1.9,0.7-2.8,1c0,0.1,0.1,0.3,0.1,0.4
			C241.3,88.6,242.2,88.9,243.3,89.4z M256.7,87.7c-0.2,1-0.4,1.7-0.5,2.4c0.1,0.1,0.2,0.1,0.3,0.2c0.6-0.3,1.1-0.7,1.8-1
			C257.7,88.7,257.3,88.3,256.7,87.7z"/>
		<path class="st1" d="M298,83.3c1.1,0.3,2,0.6,2.9,0.9c0-1.8,1.1-2.9,2.1-4.1c0.6-0.7,1.3-0.6,1.8-0.1c0.3,0.3,0.3,1.1,0.1,1.5
			c-0.6,1.2-1.4,2.2-2.4,3.9c0.8,0.7,1.9,1.5,2.9,2.4c0.4,0.3,0.6,1,0.5,1.5c0,0.2-0.8,0.4-1.2,0.6c-0.4,0.2-0.9,0.4-1.2,0.7
			c-1.4,1.3-3.3,1.7-5.1,2c-2.7,0.5-5.4,0.8-8.1,1.2c-0.3,0-0.7,0.1-0.9-0.1c-1.6-1.1-3.5-0.8-5.2-1.3c-2.1-0.6-4.1-1.4-6.2-2.1
			c-0.3-0.1-0.7-0.1-1-0.1c-1.5,0.2-2.2-0.1-2.4-1.6c-0.2-2,0-4.1,0.1-6.1c0.1-1.6,0.2-3.3,0.5-4.9c0.2-0.9,0.8-1.7,1.3-2.4
			c1.4-1.9,3.3-3.3,5.2-4.7c1.2-0.9,2.6-1.6,4.2-1.5c1.9,0.1,3.9-0.3,5.8-0.2c2.5,0.1,4.5,1.3,6.5,2.7c0.5,0.4,1.1,0.7,1.7,1
			c0.2,0.1,0.5,0.3,0.5,0.4c0.4,1.6,1.3,2.9,2.5,4c0.1,0.1-0.2,0.9-0.4,1c-0.5,0.1-1.2,0-1.7,0.1c-0.3,0-0.7,0.1-0.8,0.2
			C299.3,79.9,298.7,81.6,298,83.3z M298.5,76.7c0,0-0.3,0-0.5-0.1c-0.2-0.1-0.4-0.3-0.6-0.4c-3.3-2-6.5-4-10.6-3.3
			c-1.6,0.3-3.2,0.9-4.6,1.7c-2.6,1.4-2.9,4-3.2,6.6c-0.2,1.6-0.4,3.3-0.6,5c-0.1,0.6-0.1,1.1-0.1,1.7c0.1,0,0.2,0.1,0.3,0.1
			c2.3-2.5,5.4-3.2,8.2-4.4c-0.4-1.3-0.8-2.5-1.1-3.8c-0.2-0.6,0.6-1.8,1.1-1.9c0.5-0.1,1.9,0.7,2,1.1c0.1,1.1,0.3,2.2,0.5,3.3
			c0,0.2,0.4,0.6,0.6,0.6c0.7,0,1.5-0.1,2-0.1c-0.1-1.5-0.2-3-0.2-4.4c0-1,0.7-1.3,1.6-1.4c0.9-0.1,1.3,0.4,1.3,1.2
			c0,0.9,0,1.8,0,2.7c0,0.6,0,1.1,0,1.7c0.1,0,0.2,0.1,0.3,0.1C296,80.7,297.2,78.7,298.5,76.7z M285.5,90c0.1-0.8,0.2-1.5,0.2-2.3
			c-1.3-0.1-2.2,0.7-3.2,1.4C283.6,89.4,284.5,89.7,285.5,90z"/>
		<path class="st1" d="M250.9,78.1c0,1-0.3,1.8-1.4,2c-1.1,0.1-1.7-0.5-1.8-1.6c-0.1-1.1-0.7-2.3,0.1-3.3c0.3-0.3,0.8-0.8,1.1-0.7
			c0.5,0.2,1.1,0.6,1.3,1.1C250.6,76.4,250.7,77.3,250.9,78.1z"/>
		<path class="st1" d="M238.6,82.5c-0.1,0.1-0.3,0.8-0.6,0.8c-0.7,0-1.6,0-2.1-0.4c-0.6-0.5-1.1-1.4-1.4-2.1
			c-0.4-0.9,0.4-1.8,1.3-1.7C237,79.1,238.7,81,238.6,82.5z"/>
		<path class="st1" d="M368.5,99.1c4-0.1,7.9,0.5,11.5,2c1.9,0.8,3.7,2.1,5.4,3.3c1.1,0.7,2.1,1.6,3,2.6c1.3,1.4,2.3,3,3.5,4.4
			c1.2,1.4,1.5,3.1,1.9,4.8c0.3,1-0.1,2.3-0.6,3.2c-0.4,0.8-2.1,0.6-3.3,0.2c-4.3-1.3-6.7-5-9.6-8c-2.6-2.6-5.6-4.1-9-5.1
			c-2.1-0.6-4.2-1.2-6.3-1.9c-1.8-0.5-3.7-1.1-5.5-1.6c-0.8-0.3-1.2-0.8-1.1-1.7c0-0.8,0.5-1.2,1.3-1.3
			C362.7,99.7,365.6,99.4,368.5,99.1z"/>
		<path class="st1" d="M380.2,123.5c-1.3-0.6-2.6-1.2-3.8-1.9c-1.2-0.7-2.3-1.4-3.5-2.1c-2.8-1.9-5.6-3.8-8.4-5.6
			c-0.3-0.2-0.6-0.3-0.9-0.5c-0.7-0.5-0.8-1.8-0.1-2.4c2.6-2.8,3.3-2.7,6.8-1.3c2.7,1.1,5.3,2.4,7.9,3.7c2.5,1.2,4.3,3.1,6.4,4.8
			c0.3,0.3,0.1,1.2,0,1.8c0,0.2-0.4,0.4-0.5,0.7c-0.7,2.2-1.3,2.6-3.5,2.7c-0.1,0-0.2,0-0.4,0C380.3,123.4,380.2,123.5,380.2,123.5z
			"/>
		<path class="st1" d="M260.3,341.8c-0.3,2.7-0.5,5.4-1,8.1c-0.1,0.5-1.1,1.1-1.7,1.2c-1.5,0.2-3.1,0.1-4.7,0.2
			c-1.9,0.1-3.8,0.2-5.7,0.3c-4.2,0.1-8.3,0.3-12.5,0.4c-0.7,0-1.2-0.2-1.7-1c-1.7-2.4-0.3-4.9-0.5-7.3c-0.1-1.8,0-3.6,0-5.5
			c0-1.2,1-2.2,2.2-2.2c3,0.1,6,0.2,9,0.2c3,0,6,0,9,0c0.8,0,1.5,0,2.3-0.1c1.4-0.3,2.7,0.2,4,0.7c1,0.4,1.1,1.4,1.1,2.3
			c0.1,0.9,0,1.9,0,2.9C260.1,341.8,260.2,341.8,260.3,341.8z M248,348.8c1.2-0.1,2.1-0.1,3.1-0.2c1.3-0.1,2.5-0.2,3.8-0.3
			c0.7,0,1.2-0.3,1.2-1.1c0.2-2.4,0.4-4.7,0.5-7.1c0.1-0.8-0.4-1.1-1.3-1.1c-2.1,0.1-4.3,0-6.4,0C248.7,342.3,248.3,345.5,248,348.8
			z M246.2,339.1c-0.3,0-0.5-0.1-0.6-0.1c-2.4,0-4.7,0-7.1,0c-3.1,0-3.1,0-3,3.1c0,0.3,0,0.5,0,1c3.4,0,6.7,0,10.1,0
			C245.8,341.8,246,340.5,246.2,339.1z M244.9,345.6c-1.4,0-2.7,0-4.1,0c-1.6,0.1-3.2,0.2-4.8,0.4c-0.3,0-0.8,0.3-0.8,0.5
			c-0.1,0.8,0,1.7,0,2.6c3.2,0,6.5,0,9.7,0C244.9,347.9,244.9,346.9,244.9,345.6z"/>
		<path class="st1" d="M246.9,188.3c-1.4,0-1.9-1.2-2.7-2c-2.2-2-2.2-4.9-3-7.5c-0.4-1.3-0.9-2.6-1.2-3.9c-0.3-1.1-0.5-2.1-0.6-3.2
			c0-0.3,0.4-0.8,0.7-1c0.2-0.1,0.8,0.2,1,0.4c0.3,0.4,0.5,0.9,0.7,1.4c0.5,1.3,1.1,2.7,1.6,4.1c0.3,0.8,0.4,1.7,0.7,2.6
			c0.6,1.6,1.1,3.3,1.9,4.9c0.5,1,1.5,1.7,2,2.7C248.6,187.8,248.2,188.2,246.9,188.3z"/>
		<path class="st1" d="M254.1,188.7c0,1.3-0.6,1.7-1.4,1.2c-2.3-1.2-3.8-3.2-4.6-5.6c-0.8-2.6-1.4-5.4-2-8.1
			c-0.1-0.3,0.4-1.1,0.6-1.1c0.6,0.1,1.3,0.2,1.6,0.7c0.6,0.9,1,1.9,1.2,3c0.4,2.4,1.3,4.7,2.5,6.8c0.4,0.8,1.1,1.4,1.6,2.2
			C253.8,188.1,254,188.6,254.1,188.7z"/>
		<path class="st1" d="M256.7,179.3c1.2,3.1,2.3,5.9,3.4,8.8c0.2,0.6,0.2,1.2,0.2,1.8c0,0.2-0.4,0.7-0.6,0.6
			c-0.5-0.2-1.1-0.4-1.4-0.8c-0.9-1.6-1.8-3.2-2.4-4.8c-0.5-1.3-0.6-2.8-0.7-4.2C255.1,179.3,255.5,179,256.7,179.3z"/>
		<path class="st1" d="M220.5,190.1c-2.3,0.9-3.6,0.3-5.1-2.4c-0.5-1-0.7-2.2-1-3.4c-0.2-0.7,0.1-1.4,1-1.4c0.9-0.1,1.3,0.4,1.6,1.2
			c0.4,1,0.8,2,1.3,2.9c0.2,0.3,0.6,0.6,1,0.8C221,188.5,221,188.5,220.5,190.1C220.4,190.1,220.5,190.1,220.5,190.1z"/>
		<path class="st1" d="M227.5,177c0.7-0.2,1-0.4,1.4-0.5c0.7-0.1,1.2,0,1.5,0.8c1.1,2.3,1.2,4.7,1.1,7.1c-1.4,0.5-2,0.1-2.3-1.3
			c-0.3-1.3-0.7-2.5-1.1-3.8C228,178.6,227.8,177.9,227.5,177z"/>
		<path class="st1" d="M269,129.4c0.1,0,0.1,0,0.1,0c1.7-1.9,4-1.5,6.1-1.3c0.7,0.1,1.7,0.5,1.5,1.6c-0.1,0.9-0.8,1.3-1.7,1.3
			c-0.1,0-0.2,0-0.2,0c-1.8-0.3-3.2,0.3-4.4,1.7c-0.9,0.9-2.2,0.6-3-0.4c-0.3-0.4-1.2-0.6-1.8-0.7c-0.8-0.1-1.7,0.2-2.5,0.1
			c-0.5-0.1-1.3-0.5-1.4-0.9c0-0.5,0.4-1.2,0.8-1.6c1.2-0.9,2.7-1.3,4.2-1.1C267.6,128.2,268.3,128.9,269,129.4z"/>
		<path class="st1" d="M282.6,83.8c-0.3-0.3-1-0.6-1.4-1.2c-0.5-0.6-0.8-1.4-1-2.1c-0.1-0.3,0.2-1,0.5-1.2c0.4-0.2,1.3-0.3,1.5-0.1
			c0.8,0.9,1.6,1.8,2.1,2.9C284.9,83.3,284.4,83.8,282.6,83.8z"/>
	</g>
</g>
</svg>
