<svg viewBox="0 0 841.89 595.28" xmlns="http://www.w3.org/2000/svg"><path d="m125.7 309.86h-.3v-.31-28.13h-8.87v35.86h23.74v-7.42z"/><path d="m170.7 281.42v18.9c0 4.07 0 10.21-6.73 10.21-6.21 0-6.73-5-6.73-10.21v-18.9h-8.87v20.2c0 4.94.28 9.29 3.73 12.65 2.56 2.53 6.89 4 11.87 4s9.31-1.44 11.88-4c3.45-3.35 3.73-7.71 3.73-12.65v-20.2z"/><path d="m202 295.63-2.42-.73c-1.65-.53-4.42-1.42-4.42-3.77s2.61-3.34 4.37-3.34a10.1 10.1 0 0 1 6.17 2.25l3.47-6.76a24.54 24.54 0 0 0 -11-2.82c-7.34 0-12.27 4.79-12.27 11.93 0 6.78 3.64 8.3 9.64 10l.28.08c2.14.6 5.7 1.6 5.7 4.37s-2.54 4-4.9 4c-2.75 0-5.47-1.18-8.32-3.6l-3.76 7.07a22.26 22.26 0 0 0 12.42 3.95 15.65 15.65 0 0 0 10.16-3.36c2.43-2.07 3.66-5.29 3.66-9.58-.03-4.92-2.78-7.9-8.78-9.69z"/><path d="m248.31 293.85h8.88v23.43h-8.88z"/><path d="m133.52 281.4h6.69v13.82h-6.69z"/><path d="m257.42 285.15a4.74 4.74 0 1 1 -4.73-4.73 4.74 4.74 0 0 1 4.73 4.73z" fill="#ee2c7b"/><path d="m216.03 293.85h8.88v23.43h-8.88z"/><path d="m225.14 285.15a4.74 4.74 0 1 1 -4.74-4.73 4.75 4.75 0 0 1 4.74 4.73z" fill="#ee2c7b"/><path d="m232.46 293.85h8.88v23.43h-8.88z"/><path d="m241.57 285.15a4.74 4.74 0 1 1 -4.73-4.73 4.74 4.74 0 0 1 4.73 4.73z" fill="#ee2c7b"/><path d="m106.44 281.47 1.85 7.55v28.22h-29.74v-28.24l1.85-7.55h8.92a3.09 3.09 0 0 1 -.2-1.13c0-.75.52-3.31 4.3-3.31s4.31 2.56 4.31 3.31a3 3 0 0 1 -.21 1.13zm-25.76 7.53v26.09h10.19v-5.67a2.55 2.55 0 1 1 5.1 0v5.67h10.19v-26.09zm1.84 17.84v6.42h2.33v-6.42zm4.18 0v6.42h2.3v-6.42zm15.29 0v6.42h2.33v-6.42zm-4.18 0v6.42h2.34v-6.42zm-8.81-5.33h-6.48v2.66h6.48zm0-5.33h-6.48v2.67h6.48zm0-5.33h-6.48v2.67h6.48zm8.78 13.32h6.51v-2.66h-6.48zm0-5.32h6.51v-2.67h-6.48zm0-5.33h6.51v-2.67h-6.48zm-6.94 10.65h5.16v-2.66h-5.1zm0-5.32h5.16v-2.67h-5.1zm0-5.33h5.16v-2.67h-5.1zm2.56-14.63c-1.39 0-2.32.67-2.32 1.52a1.56 1.56 0 0 0 .33 1.06h4a1.5 1.5 0 0 0 .35-1.05c-.01-.84-.96-1.53-2.33-1.53zm2.51 5.52h-5v1.92h5zm8.35 0h-6.43v1.92h6.46zm-17.77 0h-1.49v1.92h1.49z" fill="#231f20"/><path d="m684.49 293.85h8.88v23.43h-8.88z"/><path d="m727.2 281.42-17.91 22.99v-22.99h-8.87v35.86h9.03l17.9-23.1v23.1h8.88v-35.86z"/><path d="m743.2 281.42v35.86h20.14v-7.42h-10.96-.3v-.31-6.29-.3h.3 10.38v-7.42h-10.38-.3v-.3-6.09-.3h.3 10.96v-7.43z"/><path d="m693.6 285.15a4.74 4.74 0 1 1 -4.73-4.73 4.74 4.74 0 0 1 4.73 4.73z" fill="#ee2c7b"/><path d="m297.04 293.85h8.88v23.43h-8.88z"/><path d="m306.15 285.15a4.74 4.74 0 1 1 -4.74-4.73 4.75 4.75 0 0 1 4.74 4.73z" fill="#ee2c7b"/><path d="m264.75 293.85h8.88v23.43h-8.88z"/><path d="m273.86 285.15a4.74 4.74 0 1 1 -4.73-4.73 4.74 4.74 0 0 1 4.73 4.73z" fill="#ee2c7b"/><path d="m281.19 293.85h8.88v23.43h-8.88z"/><path d="m290.3 285.15a4.74 4.74 0 1 1 -4.74-4.73 4.75 4.75 0 0 1 4.74 4.73z" fill="#ee2c7b"/><path d="m345.18 293.85h8.88v23.43h-8.88z"/><path d="m354.29 285.15a4.74 4.74 0 1 1 -4.74-4.73 4.75 4.75 0 0 1 4.74 4.73z" fill="#ee2c7b"/><path d="m312.89 293.85h8.88v23.43h-8.88z"/><path d="m322 285.15a4.74 4.74 0 1 1 -4.74-4.73 4.75 4.75 0 0 1 4.74 4.73z" fill="#ee2c7b"/><path d="m329.33 293.85h8.88v23.43h-8.88z"/><path d="m338.44 285.15a4.74 4.74 0 1 1 -4.74-4.73 4.75 4.75 0 0 1 4.74 4.73z" fill="#ee2c7b"/><path d="m361.61 293.85h8.88v23.43h-8.88z"/><path d="m370.72 285.15a4.74 4.74 0 1 1 -4.73-4.73 4.74 4.74 0 0 1 4.73 4.73z" fill="#ee2c7b"/><path d="m409.75 293.85h8.88v23.43h-8.88z"/><path d="m418.86 285.15a4.74 4.74 0 1 1 -4.73-4.73 4.74 4.74 0 0 1 4.73 4.73z" fill="#ee2c7b"/><path d="m377.46 293.85h8.88v23.43h-8.88z"/><path d="m386.57 285.15a4.74 4.74 0 1 1 -4.73-4.73 4.74 4.74 0 0 1 4.73 4.73z" fill="#ee2c7b"/><path d="m393.9 293.85h8.88v23.43h-8.88z"/><path d="m403 285.15a4.74 4.74 0 1 1 -4.73-4.73 4.74 4.74 0 0 1 4.73 4.73z" fill="#ee2c7b"/><path d="m458.48 293.85h8.88v23.43h-8.88z"/><path d="m467.59 285.15a4.74 4.74 0 1 1 -4.74-4.73 4.75 4.75 0 0 1 4.74 4.73z" fill="#ee2c7b"/><path d="m426.19 293.85h8.88v23.43h-8.88z"/><path d="m435.3 285.15a4.74 4.74 0 1 1 -4.74-4.73 4.75 4.75 0 0 1 4.74 4.73z" fill="#ee2c7b"/><path d="m442.63 293.85h8.88v23.43h-8.88z"/><path d="m451.74 285.15a4.74 4.74 0 1 1 -4.74-4.73 4.75 4.75 0 0 1 4.74 4.73z" fill="#ee2c7b"/><path d="m506.61 293.85h8.88v23.43h-8.88z"/><path d="m515.72 285.15a4.74 4.74 0 1 1 -4.73-4.73 4.74 4.74 0 0 1 4.73 4.73z" fill="#ee2c7b"/><path d="m474.33 293.85h8.88v23.43h-8.88z"/><path d="m483.44 285.15a4.74 4.74 0 1 1 -4.74-4.73 4.75 4.75 0 0 1 4.74 4.73z" fill="#ee2c7b"/><path d="m490.76 293.85h8.88v23.43h-8.88z"/><path d="m499.87 285.15a4.74 4.74 0 1 1 -4.73-4.73 4.74 4.74 0 0 1 4.73 4.73z" fill="#ee2c7b"/><path d="m523.05 293.85h8.88v23.43h-8.88z"/><path d="m532.16 285.15a4.74 4.74 0 1 1 -4.73-4.73 4.74 4.74 0 0 1 4.73 4.73z" fill="#ee2c7b"/><path d="m571.19 293.85h8.88v23.43h-8.88z"/><path d="m580.3 285.15a4.74 4.74 0 1 1 -4.74-4.73 4.74 4.74 0 0 1 4.74 4.73z" fill="#ee2c7b"/><path d="m538.9 293.85h8.88v23.43h-8.88z"/><path d="m548 285.15a4.74 4.74 0 1 1 -4.73-4.73 4.74 4.74 0 0 1 4.73 4.73z" fill="#ee2c7b"/><path d="m555.34 293.85h8.88v23.43h-8.88z"/><path d="m564.45 285.15a4.74 4.74 0 1 1 -4.74-4.73 4.74 4.74 0 0 1 4.74 4.73z" fill="#ee2c7b"/><path d="m619.91 293.85h8.88v23.43h-8.88z"/><path d="m629 285.15a4.74 4.74 0 1 1 -4.73-4.73 4.74 4.74 0 0 1 4.73 4.73z" fill="#ee2c7b"/><path d="m587.63 293.85h8.88v23.43h-8.88z"/><path d="m596.74 285.15a4.74 4.74 0 1 1 -4.74-4.73 4.75 4.75 0 0 1 4.74 4.73z" fill="#ee2c7b"/><path d="m604.06 293.85h8.88v23.43h-8.88z"/><path d="m613.17 285.15a4.74 4.74 0 1 1 -4.73-4.73 4.74 4.74 0 0 1 4.73 4.73z" fill="#ee2c7b"/><path d="m668.05 293.85h8.88v23.43h-8.88z"/><path d="m677.16 285.15a4.74 4.74 0 1 1 -4.73-4.73 4.74 4.74 0 0 1 4.73 4.73z" fill="#ee2c7b"/><path d="m635.77 293.85h8.88v23.43h-8.88z"/><path d="m644.88 285.15a4.74 4.74 0 1 1 -4.74-4.73 4.75 4.75 0 0 1 4.74 4.73z" fill="#ee2c7b"/><path d="m652.2 293.85h8.88v23.43h-8.88z"/><path d="m661.31 285.15a4.74 4.74 0 1 1 -4.73-4.73 4.74 4.74 0 0 1 4.73 4.73z" fill="#ee2c7b"/></svg>