<?xml version="1.0" encoding="utf-8"?>
<!-- Generator: Adobe Illustrator 23.0.6, SVG Export Plug-In . SVG Version: 6.00 Build 0)  -->
<svg version="1.1" id="Layer_1" xmlns="http://www.w3.org/2000/svg" xmlns:xlink="http://www.w3.org/1999/xlink" x="0px" y="0px"
	 viewBox="0 0 29.7 40.2" style="enable-background:new 0 0 29.7 40.2;" xml:space="preserve">
<style type="text/css">
	.st0{fill:#FFFFFF;}
</style>
<path class="st0" d="M27.9,4.5l1.8,7.5v28.2H0V12l1.8-7.5h8.9c-0.1-0.4-0.2-0.7-0.2-1.1c0-0.8,0.5-3.3,4.3-3.3s4.3,2.6,4.3,3.3
	c0,0.4-0.1,0.8-0.2,1.1L27.9,4.5z M2.1,12v26.1h10.2v-5.7c0-1.4,1.1-2.6,2.5-2.6c1.4,0,2.6,1.1,2.6,2.5c0,0,0,0,0,0v5.7h10.2V12H2.1
	z M4,29.8v6.4h2.3v-6.4H4z M8.1,29.8v6.4h2.3v-6.4H8.1z M23.4,29.8v6.4h2.3v-6.4H23.4z M19.3,29.8v6.4h2.3v-6.4H19.3z M10.4,24.5H4
	v2.7h6.5V24.5z M10.4,19.2H4v2.7h6.5V19.2z M10.4,13.8H4v2.7h6.5V13.8z M19.2,27.2h6.5v-2.7h-6.5L19.2,27.2z M19.2,21.8h6.5v-2.7
	h-6.5L19.2,21.8z M19.2,16.5h6.5v-2.7h-6.5L19.2,16.5z M12.3,27.2h5.2v-2.7h-5.1L12.3,27.2z M12.3,21.8h5.2v-2.7h-5.1L12.3,21.8z
	 M12.3,16.5h5.2v-2.7h-5.1L12.3,16.5z M14.8,1.9c-1.4,0-2.3,0.7-2.3,1.5c0,0.4,0.1,0.8,0.3,1.1h4c0.2-0.3,0.4-0.7,0.3-1
	C17.2,2.6,16.2,1.9,14.8,1.9L14.8,1.9z M17.4,7.4h-5v1.9h5V7.4z M25.7,7.4h-6.4v1.9h6.5L25.7,7.4z M7.9,7.4H6.4v1.9h1.5V7.4z"/>
</svg>
