<svg id="Calque_1" data-name="Calque 1" xmlns="http://www.w3.org/2000/svg" viewBox="0 0 317.95 280.14"><defs><style>.cls-1{fill:#fff;fill-rule:evenodd;}</style></defs><title>Plan de travail 1 copie 2</title><path class="cls-1" d="M11.61,279.78c.57-2.49,1.42-4.9,2-7.38.7-3,1.18-6,1.85-9,.42-1.86,1.09-3.65,1.5-5.51.54-2.46.86-5,1.41-7.42a72,72,0,0,1,2.08-7.95c1.55-4.45,3.22-8.87,5.09-13.19a41,41,0,0,1,3.59-5.74c.91-1.4,1.85-2.77,2.79-4.14.13-.2.26-.47.45-.53,1.71-.54,1.65-1.88,2-3.35.44-2.11-.28-3.31-1.79-4.52a3.88,3.88,0,0,1-1.4-3.85c.42-1.69,1.2-3.34,3.36-3.67a2.66,2.66,0,0,0,2.3-1.71,4.78,4.78,0,0,1,1.94-2.12,7,7,0,0,1,2.56-.43c.34,0,.7-.05,1.15-.08a8.75,8.75,0,0,1-.49-1.51c-.2-1.6,2.13-4.06,3.74-3.88.67.07,1.28.59,2,.71a4.53,4.53,0,0,0,4.19-1.64c1.55-1.62,3.21-3.16,4.71-4.83,1.27-1.42,2.39-3,3.58-4.46,0-.08-.07-.19-.12-.2-2.28-.66-2.3-1.45-.82-3.34a1.72,1.72,0,0,0,.48-1.87,1.5,1.5,0,0,1,1-1.91A11.41,11.41,0,0,0,62,175.4c-1.32-.84-3.82-.24-2.93-2.92a56,56,0,0,1-11.91-7c-3.62-2.6-7.48-4.85-11.11-7.43-2.54-1.8-4.89-3.87-7.28-5.87S24,148.13,21.62,146c-1.57-1.4-3-3-4.55-4.38-3.54-3.18-6.09-7.15-8.9-10.91a41.88,41.88,0,0,1-5.07-9.49,23.24,23.24,0,0,1-.84-4c-.53-2.67-1.06-5.33-1.58-8a4.22,4.22,0,0,1-.1-.7c-.08-2.38-.13-4.76-.24-7.14-.09-2-.36-4-.34-6A34.29,34.29,0,0,1,.54,89.7c.46-2.59,1-5.17,1.73-7.71.56-2.11,1.31-4.18,2.06-6.24,1.14-3.11,2.34-6.2,3.53-9.29a58.21,58.21,0,0,1,2.92-7.26A25,25,0,0,1,15,53.73c3.19-3.22,7.37-4.85,11.49-6.48,1.72-.68,3.49-1.19,5.25-1.76a2.34,2.34,0,0,1,.7-.13c3.32-.17,6.75-.89,10-.33,3.62.64,5.6-1.47,7.92-3.17a29.44,29.44,0,0,1,8.51-4.18c2.16-.69,4.3-1.49,6.5-2A21.83,21.83,0,0,1,75,35.4a32.28,32.28,0,0,1,5.8,1.6,30.8,30.8,0,0,1,5.41,3.25c1.36,1,1.54,1,2.87-.11a6.78,6.78,0,0,1,2.25-1.2,5.75,5.75,0,0,0,3.35-3.41c.38-.79-.14-1.18-.66-1.57a7.43,7.43,0,0,0-1.27-.82,2.74,2.74,0,0,1-1.54-3.37,23.78,23.78,0,0,1,1.53-4.06,1.12,1.12,0,0,1,.55-.44A18.35,18.35,0,0,1,96,24c1.72-.53,2.18-1.87,2.25-3.36,0-1.15.74-1.58,1.55-2,1.57-.82,3.15-1.61,4.71-2.43,1.21-.63,1.22-1.85,1.41-3s-.16-2.52.91-3.57c1.89-1.86,3.5-4.11,6.22-4.79a9.62,9.62,0,0,1,3.42.08c1.09.13,2.15.46,3.23.68A3.19,3.19,0,0,0,122,5.11,23.92,23.92,0,0,1,127.43,3a4.66,4.66,0,0,1,4.43,1.7c1.56,1.66,3.54,1.78,5.52,2A6,6,0,0,0,141.94,5a2.88,2.88,0,0,1,2.93-.76,5.38,5.38,0,0,0,4.44-1.09,22.68,22.68,0,0,1,4-2.47,7.88,7.88,0,0,1,6.05,0c2.44,1.12,4.54.23,6.77-.42a4.59,4.59,0,0,1,2-.27c1.47.21,2.92.57,4.37.92a5.45,5.45,0,0,1,3.45,2.52,6.58,6.58,0,0,0,1.17,1.31c1.65,1.54,2,3.68,2.7,5.65A4.16,4.16,0,0,0,182.06,13a30.05,30.05,0,0,1,6.47,3.34,6.68,6.68,0,0,1,2.46,6.4,20.58,20.58,0,0,0-.56,3.63c0,1.41,1,2.36,2,3.23a8.43,8.43,0,0,1,2.94,7.8,6.54,6.54,0,0,0,.36,4.15,24.91,24.91,0,0,0,2.21,2.42,30.39,30.39,0,0,1,4,6.48,23.16,23.16,0,0,1,1.45,9.85c-.05,2.83-.41,5.66-.74,8.48-.24,2-1.78,3.37-3,4.78a7.27,7.27,0,0,1-4.45,2.15c-.73.11-.95.4-1,1-.13,1.25-.23,2.5-.4,3.74s-.46,2.19-.59,3.29a27.7,27.7,0,0,1-.23,3.43c-.6,2.55-1.34,5.07-2.12,7.58-1,3.27-2.28,6.47-3.16,9.78a27.88,27.88,0,0,0-.75,9.46c.18,2.21.72,4.38,1,6.58a26.83,26.83,0,0,1-.68,8.7c-.46,2.09-.86,4.21-1.45,6.27-.38,1.36-1.13,2.61-1.57,3.95-.65,2-1.13,4-1.77,5.9-.44,1.34-1.09,2.62-1.56,4-1,2.89-1.63,5.83-.58,9.15.74-2.39,2.09-4.22,2.1-6.73,0-1.9.91-3.85,1.67-5.68,1.73-4.21,4.5-8,5.59-12.47.61-2.54,1.43-5,1.06-7.69a12.47,12.47,0,0,0-.83-3.43,17.46,17.46,0,0,1-1.87-6.81,43.68,43.68,0,0,1,.46-7,47.54,47.54,0,0,1,1.59-7.38,56.79,56.79,0,0,0,1.42-6.81c.37-2,1.37-3.83,1.84-5.8.54-2.29.7-4.67,1.23-7A26.89,26.89,0,0,1,196.09,77c.64-1.5,2.12-1.82,3.55-2a7.76,7.76,0,0,0,4.59-2.17,5.49,5.49,0,0,0,1.1-2.58A21,21,0,0,0,205,59.69c-.27-1-.41-2-.62-3s-.51-2.2-.71-3.3c-.32-1.68.46-3.06,1.24-4.44a19.21,19.21,0,0,1,5.39-5.65c2.94-2.28,6.11-2.61,9.51-2.1,1.17.18,1.23-.82,1.77-1.27.91-.76,1.59-1.81,2.53-2.54a25.27,25.27,0,0,1,3.49-2.14,1.8,1.8,0,0,1,2.19.34,2.83,2.83,0,0,0,3.72.36,25.21,25.21,0,0,0,6.14-5.07,7,7,0,0,1,2.58-1.83c2.3-.82,4.61-1.71,7.16-1.44a47.66,47.66,0,0,1,5.64.48,20.28,20.28,0,0,1,4.82,2,5.64,5.64,0,0,1,2.65,3.18,4.52,4.52,0,0,1-.07,1.56,28.77,28.77,0,0,0,4.14.62,8.72,8.72,0,0,1,3.87,1.18c1.08.56,2.09,1.27,3.21,1.73,2.14.88,2.81,2.67,3,4.7.11.93.57,1,1.34,1.22,2.49.73,5.2.48,7.53,1.87,2.08,1.24,4.19,2.43,6.36,3.52,1.13.58,2.44.81,3.61,1.33a29.91,29.91,0,0,1,7.89,5.43,5,5,0,0,1,.68,6.53A7.47,7.47,0,0,1,302,64.35a24.55,24.55,0,0,1,1.34,2.8,28,28,0,0,1,1.56,5.53c.11.78-.77,1.77-1.36,2.55-1.06,1.38-2.68,1-4.12,1a1.19,1.19,0,0,0,.79,1.72c1.93.77,3.91,1.42,5.79,2.29a13.24,13.24,0,0,1,3.52,2.26,3.44,3.44,0,0,1,.86,3.7c-.32,1-.49,2.11-.83,3.13a4.11,4.11,0,0,1-.8,1.06c1.85.1,3.68.14,5.5.31a3,3,0,0,1,2.11,4.08,6.57,6.57,0,0,1-4.23,3.58,4.24,4.24,0,0,0-3.38,3.42,1.17,1.17,0,0,0,.44.94,11.24,11.24,0,0,0,2.16,1.16,2.66,2.66,0,0,0,3-.58l.08-.09a2.22,2.22,0,0,1,2.82-.53c1.06.61.62,1.69.59,2.6a6.61,6.61,0,0,1-.35,1.69c-.37,1.24-.78,2.46-1.17,3.69-1.54,4.77-5.22,7.4-9.52,9.37a4.23,4.23,0,0,1-1.51.3c-1.54.08-2.22.75-2.2,2.29a11.42,11.42,0,0,1-3.87,8.78c-.35.32-.59.76-1,1-1.1.85-2.23,1.67-3.36,2.47a19.41,19.41,0,0,0-6.92,8c-.91,2.1-1.75,4.23-2.68,6.33a9.46,9.46,0,0,1-1.09,1.68c-1.87,2.58-3.71,5.2-6.49,6.92-1.53,1-3.11,1.81-4.69,2.69a2.31,2.31,0,0,1-.79.21,5.1,5.1,0,0,0-3.68,2.06,2.42,2.42,0,0,1-1.2.91c-1.56.39-2.2,1.59-2.69,2.9-.88,2.36-2.38,3.76-5.05,3.68a8.61,8.61,0,0,0-1.93.3c-.13,0-.34.16-.36.27-.26,1.4-1.55,2.56-.8,4.2a2,2,0,0,1-.86,2.76,4.16,4.16,0,0,0-1.65,1.75,5.92,5.92,0,0,0-.29,2.39,7.32,7.32,0,0,1-1.71,4.42c-.54.71-.64,1.77-1.21,2.45a22.65,22.65,0,0,1-3.33,3.31,2.16,2.16,0,0,0-.68,2.55,9.83,9.83,0,0,1,.55,1.89,2.6,2.6,0,0,1-.51,1.87c-1.71,1.45-1.9,3.27-1.67,5.28a1.1,1.1,0,0,1,.05.35c-.76,4,1.51,7.2,2.83,10.63a103.9,103.9,0,0,1,3.62,10.4c1,3.57,2.44,7,3.66,10.52.59,1.7,1.07,3.44,1.64,5.15.82,2.44,1.73,4.86,2.52,7.31.6,1.83,1.11,3.7,1.6,5.56,1.15,4.38,2.25,8.77,3.41,13.14.4,1.53.92,3,1.29,4.56.28,1.15.37,2.34.63,3.49.39,1.76.91,3.49,1.28,5.25m-173.85-90,2,.65c.18-2.05,1.09-2.36,3.5-1.18.24-.65.48-1.31.71-2-2.58-.52-3.23-1.09-3.91-3.5-.22-.79-.32-1.62-.61-2.39-.41-1.07.27-1.54,1-1.76s1.42.08,1.57,1.1c.2,1.4.53,2.88,1.82,3.65s1.52,1.47.77,2.67l1.77.38c.81-1.08,1.72-2,3-1.2a18.35,18.35,0,0,1,.61-2.69c.15-.39.78-.58,1.11-.94.5-.56.92-1.2,1.39-1.82-.53-3.55-1.09-7.27-1.57-10.49a5,5,0,0,1-1.44.92c-.83.25-1,.75-1,1.48a2.45,2.45,0,0,1-1.73,2.41,27.78,27.78,0,0,1-2.74.49,26.35,26.35,0,0,1-1.62,2.55c-.87,1-1.75.06-2.57-.19-.38.86-.53,1.89-1.12,2.34s-1.61.27-2.63.39c-.63,1.28-.76,1.75-5.59-.12l-.9,1.57c-.65,1.17-1.51,1.35-2.48.48a14.88,14.88,0,0,0-1.25-1.26,1.16,1.16,0,0,0-1.1,0,12.41,12.41,0,0,0-1.1,1.44c-.88,1-2,.73-2.47-.55a10.42,10.42,0,0,0-.75-1.28c-3.74,2.61-4.46,2.7-6.07.71l-.68.38c.86,1.36,1.68,2.61,2.46,3.89a1,1,0,0,1,0,.68c-.33.94-1.1,1.06-2.23.35-1.5-.95-1.5-2.47-1.47-4-2,.5-2.51,0-2.18-2.12a4.18,4.18,0,0,0,0-.71c0-1-.09-1.74-1.38-1.07-.24.13-.61,0-.92.05a3.12,3.12,0,0,0-.69.28c.15.18.29.5.47.54a1,1,0,0,1,.88,1.3c-.15,1-.35,2.09-.54,3.17.55.2,1.48.27,1.93.77s.41,1.44.59,2.2c2.37-1.83,3.36,0,4.19,2,2.46-1.62,2.94-2.38,4.83.67l1-1.23a36,36,0,0,1-1.32-3.75c-.12-.51.25-1.15.39-1.74a5.1,5.1,0,0,1,1.34.88c.73.95,1.24,2.09,2,3,1.19,1.36,1.26,1.35,0,2.59l.72,1c2.12-.83,3-.35,3.46,2.17l2.08-2.2c0-.09,0-.13-.06-.15s-.25-.2-.37-.3a8.28,8.28,0,0,1-3.36-6.08,1.3,1.3,0,0,1,.81-1c.43-.05,1.23.24,1.33.55A10.6,10.6,0,0,0,86.24,188c.85.93,1.88,2,.67,3.37l1.33,1.57c2-2.72,2.77-2.11,4-.44l1.6-2.43ZM25.11,130.75c.39,1.7.66,3.15,1,4.57.45,1.65.92,3.31,1.51,4.92a52.91,52.91,0,0,0,2.14,5,11.22,11.22,0,0,0,1.92,2.91c1,1,2.25,1.77,3.32,2.71.55.47.89,1.17,1.41,1.68.77.75,1.63,1.4,2.43,2.12,2.34,2.12,4.58,4.34,7,6.33a67.71,67.71,0,0,0,6.24,4.37c1.66,1.08,3.42,2,5.16,3a24.5,24.5,0,0,0,5,2.55,37,37,0,0,0,7.76,1.27,46.35,46.35,0,0,0,7.53-.32c3-.3,6.07-.49,8.66-2.33,1.52-1.08,3.34-1.8,4.31-3.56q1.13-2,2.28-4.08a5,5,0,0,0,.8-4c-.12-.45.35-1.52.57-1.53,1.1,0,1-.84,1.15-1.47s.12-1,.25-1.52c.41-1.58.89-3.14,1.28-4.73.29-1.15.44-2.36.66-3.5s.3-2.26.54-3.38c.7-3.38,1.54-6.74,2.13-10.14a27,27,0,0,0,.64-7.19,45.82,45.82,0,0,0-2.18-10.74c-.93-2.59-3-4.78-4.54-7.13-.08-.12-.28-.16-.41-.24A32.51,32.51,0,0,1,89,103.11c-1.81-1.69-3.54-1-5.34-.37s-3.45,1.42-5.23,1.94a13.87,13.87,0,0,0-6.61,3.76,17.48,17.48,0,0,0-4,5.85,11.17,11.17,0,0,1-1.72,3.28c-1.37,1.67-2.32,2.4-5.09.93a2.34,2.34,0,0,1-1.34-2.83,17.13,17.13,0,0,1,2.26-4.6,22.12,22.12,0,0,1,7.55-6.95c2.53-1.33,4.92-2.82,7.76-3.35,2.35-.44,4.71-.77,7.43-1.21C82.25,97.5,80,95.64,77.75,93.7c-1.26-1.1-2.46-2.29-3.63-3.49s-2.5-2.69-3.54-3.82c-1.38.59-2.47,1-3.52,1.5-3,1.42-6.28,1.43-9.47,1.85-2.4.31-4.82.43-7.23.56-3.09.16-6.2.36-9-1.51-.81-.55-.83-.84,0-1.43a1.65,1.65,0,0,0,.71-.85,15.39,15.39,0,0,0,.29-2.71,1.91,1.91,0,0,0-.36-1.19c-1.22-1.43-1.24-1.41-.1-2.94a1.91,1.91,0,0,0-.2-2.81,7.71,7.71,0,0,1-1.13-1.23c-.9-1.39-.85-2.06.23-3.11a13.24,13.24,0,0,0,1.38-2c-.86-.65-1.56-1.17-2.24-1.71-1.15-.9-1.23-1.5-.29-2.64.69-.83,1.41-1.63,2-2.33-.7-.77-1.2-1.4-1.78-1.93a.92.92,0,0,1-.06-1.52,21.93,21.93,0,0,1,1.67-1.67c.5-.44.51-.73.1-1.29-.74-1-.58-1.7.28-2.57a13.17,13.17,0,0,0,1.2-1.56l-.37.05c-.33-.91-1.1-2-.88-2.7s1.42-1.3,2.18-1.94c-1.19-1.44-2.6-1.54-4.7-.49a24.67,24.67,0,0,1-.63,3.8c-.54,1.61-2,1.31-3.45,1.09a6.21,6.21,0,0,0,.39.88,3.47,3.47,0,0,1,0,4.29,3.74,3.74,0,0,0-.68,4.2c.06.15.06.32.12.46a2.09,2.09,0,0,1-.54,2.39c-.52.52-1,1.06-1.51,1.56.13.21.16.28.21.34,1.72,1.92,1.79,3.38.32,5.54-.18.25-.34.83-.23.92,1.52,1.3.57,2.7-.1,3.75s-.66,1.53.34,2.13c.15.1.17.47.18.72a6.23,6.23,0,0,1-1.57,4.77,5.39,5.39,0,0,0,1.3.53c.93.08,1.4.44,1.23,1.44-.11.68-.47,1.59-.18,2a5.46,5.46,0,0,1,.8,4.07c-2.62.54-4.06,2.49-5.33,4.49-.88,1.41-1.17,3.19-2.08,4.56A19,19,0,0,0,24.8,111c-.34,3.56-.28,7.17-.4,11.12,1.38-.48,2.38-.8,3.35-1.17,3.88-1.47,7.78-2.83,12-2.76a15.37,15.37,0,0,1,8.66,2.36A16.75,16.75,0,0,1,54,126.72,25.22,25.22,0,0,1,56,132c.37,1.38.22,2.91.57,4.3a63.78,63.78,0,0,0,2.2,6.91,3,3,0,0,0,1.7,1.63,4.32,4.32,0,0,0,4.46-2,5.27,5.27,0,0,1,1.28-1.49,35.6,35.6,0,0,1,3.7-2.23c1.55-.81,1.58-.8,1.14-2.42-.07-.26-.24-.66-.13-.78.43-.47.94-1.18,1.45-1.2,1.17,0,2.65,2.63,2.13,3.7a6.81,6.81,0,0,1-2.89,2.88c-1.51.85-3.16,1.53-4.24,3a7.75,7.75,0,0,1-5.9,3.29c-1.38.1-2.93.36-4-.78a17,17,0,0,1-4.17-8.07c-.48-1.94-.47-4-.78-6a13.25,13.25,0,0,0-3.93-8.12,1.65,1.65,0,0,0-1.14-.28,14.12,14.12,0,0,1-1.94.38c-3.18-.19-6.26-1.33-9.51-.84-1.35.21-2.76.2-4.09.51-1.95.46-3.86,1.08-5.76,1.73-.5.17-.89.71-1.33,1.08l.19.29a12.3,12.3,0,0,0,1.63-.21c2.13-.57,4-1.8,6.34-1.9s4.89-.7,7.35-.83a6.83,6.83,0,0,1,5.08,1.87,3.94,3.94,0,0,1,.81,2.86c-.25,2.37-4.11,5.06-7.08,5.18a22.54,22.54,0,0,1-7-1.26c-1.73-.47-3.39-1.25-5.08-1.89C26.46,131.2,25.91,131,25.11,130.75Zm20.28,65.5c-.11.13-.22.25-.34.37.06.22.12.44.19.66a3.57,3.57,0,0,1-1.56,4.2,5.44,5.44,0,0,1-3,.92c-.43,0-1.2.41-1.27.74-.4,2.13-2.12,2.55-3.75,3.17a2.45,2.45,0,0,0-1.12.88c-.13.2.1.73.31,1a27,27,0,0,0,2.06,2.47c1,1,.84,2.17.63,3.4a19.38,19.38,0,0,0-.28,2.94.91.91,0,0,0,.53.65,5.68,5.68,0,0,1,3.61,3,5.42,5.42,0,0,1,.86,3.49c-.08.43-.38.86-.34,1.27.18,1.86.59,3.57,2.39,4.68a8.62,8.62,0,0,1,4.41,5.76c.34,1.79,1.29,3.07,3.5,2.76.39-.06,1.07.56,1.28,1a8.76,8.76,0,0,1,.59,2.46c.28,1.84.93,2.49,2.8,2.48a4.42,4.42,0,0,1,3.22.83c1,.88,2.34,1.67,2.75,2.79a2.64,2.64,0,0,0,2.38,2.07c2.1.13,3.16,1.43,4.29,2.93.46.62,1.68,1.31,2.22,1.11,1.73-.67,2.71.06,3.61,1.3a2.86,2.86,0,0,0,2.6,1.27,7,7,0,0,1,3.16.69A40.52,40.52,0,0,1,86,260.82c1.71,1.28,3.29,2.72,5,4.06a2.11,2.11,0,0,0,1.1.49c1.87.13,3.35.67,4.17,2.61.65,1.52,1.4,1.58,2.84.75.67-.39,1.37-.81,2,.16s1.4,1.44,2,2.26c1.07,1.57,1.73,1.85,3.36,1a5.82,5.82,0,0,0,1.3-1.19c.69-.72,1.33-.72,1.87.09.24.35.35.8.59,1.16a2.71,2.71,0,0,0,2.39,1.45c1.42,0,2.42-.78,3.6-1.25,1-.39,1.8-.76,2.84.28,1.91,1.91,4,1.79,6.27.2.6-.42,1.64-.92,2.1-.67a3.2,3.2,0,0,0,4.13-.4c1.12-.9,1.53-1.6,1.12-2.93-.6-1.93-.51-3.73,1.31-5.06a.83.83,0,0,0,.25-.53c.2-2,.81-4,0-6.07a2.16,2.16,0,0,1,.56-2.48c.85-.89,1.73-1.75,2.53-2.68a1.58,1.58,0,0,0,.44-1.16,12.38,12.38,0,0,0-1.22-3.31c-.77-1.26-.27-2.27.25-3.3,1-2,2.12-3.95,1.14-6.33a7.59,7.59,0,0,1-.31-2,8.93,8.93,0,0,1,.85-4c1.36-4,.41-7.69-1.66-11.17-1.12-1.87-1.14-4,.35-5a7.35,7.35,0,0,0,2.47-3.87,4.69,4.69,0,0,0,.15-2.57,15.46,15.46,0,0,1,.53-8,5.85,5.85,0,0,0-.16-3.84c-.19-.51-.33-1-.54-1.66a8,8,0,0,1-1,.33c-.41.09-1,.31-1.23.13-1.19-.88-2.17-.21-3.18.28a1.77,1.77,0,0,1-2.16-.16,3,3,0,0,0-3.12-.84,4.07,4.07,0,0,1-4.25-.62c-.79-.78-1.35-1.78-2.08-2.61a4.57,4.57,0,0,0-1.17-.71c-.2.41-.58.82-.57,1.23,0,.94.39,1.88.37,2.82,0,2.08-.24,4.16-.34,6.25-.17,3.35-.28,6.71-.47,10.07-.11,2-.34,4-.5,6-.08,1-.06,2-.21,3-.45,3.16-.6,6.34-1.19,9.51a64,64,0,0,1-1.91,8.74c-.56,1.64-1,3.34-1.49,5-.19.61-.8,1.11-.9,1.71-.38,2.16-1.6,3.12-3.64,2.94a25.2,25.2,0,0,1-4.1-.89c-2.82-.74-5.8-.8-8.45-2.33-2.37-1.37-5-2.35-7.39-3.64-2.23-1.18-4.41-2.47-6.53-3.85-2.65-1.72-5.23-3.55-7.79-5.41-1.55-1.11-3-2.32-4.47-3.56s-2.86-2.57-4.25-3.9c-.77-.73-1.45-1.55-2.2-2.32-1.39-1.43-2.89-2.77-4.17-4.29-1.76-2.1-3.18-4.48-5-6.47A49,49,0,0,1,49,202c-.83-1.53-1.53-3.12-2.38-4.64A5,5,0,0,0,45.39,196.25Zm102.24-3.52a9.19,9.19,0,0,0-1.2,2,24.48,24.48,0,0,0-.69,4c-.19,2-.11,3.84,1.36,5.55a5.64,5.64,0,0,1,.8,3.53,21.62,21.62,0,0,1-.84,4,34.81,34.81,0,0,0-.85,3.6c-.14,1.15-.19,2.31,1.06,3.16a2.86,2.86,0,0,1,1.11,2.13,13.81,13.81,0,0,1-.91,4.56,5.2,5.2,0,0,0,1,6,5.23,5.23,0,0,1,.87,4.91c-.59,2.29-1.59,4.47-2.36,6.72a2,2,0,0,0,0,1.36,38.6,38.6,0,0,0,2,3.54,4.79,4.79,0,0,1,.39,4.07c-.36,1.37-.52,2.61.72,3.73a8.49,8.49,0,0,1,2.73,7.72,1.92,1.92,0,0,0,.49,1.5,14.81,14.81,0,0,1,5.48,8.81,6,6,0,0,0,2.64,4.49c.25.16.62.44.79.36,1.46-.73,2.9-1.51,4.32-2.32,1.61-.91,3-2.64,5.19-1.18,1.18.78,2.31.53,3.33-.67a6.32,6.32,0,0,1,2.64-1.85,7.41,7.41,0,0,1,3.38-.18,6.84,6.84,0,0,0,5.62-1.22c1.25-1,2.18-2.36,3.41-3.37.77-.63,1.93-1.42,2.74-1.25,2.31.48,3.46-.78,4.52-2.36s2.42-2.76,4.65-2.32a4.61,4.61,0,0,0,4.13-1.56c1-.92,1.77-2,2.7-3a2.14,2.14,0,0,1,2.53-.67c2,.74,3.34-.19,4.21-2.16a3.27,3.27,0,0,1,3.14-2.23c.83,0,1.65.21,2.47.2,1.73,0,3.35-.15,4.23-2.11a21.72,21.72,0,0,0,2-6.39,3.11,3.11,0,0,1,2.94-2.84c.85-.16,2.06-.45,2.37-1a36.15,36.15,0,0,0,1.65-4.9,9.2,9.2,0,0,1,1.23-2.84,12,12,0,0,1,2.9-2.39,3.09,3.09,0,0,0,1.42-3.16c-.43-2.22.9-3.65,1.92-5.11,1.16-1.68,1.31-2-.19-3.74a2.3,2.3,0,0,1-.44-2.63,5.4,5.4,0,0,1,1.38-1.88,1.89,1.89,0,0,0,.62-2.22,31.07,31.07,0,0,1-1-4,31.5,31.5,0,0,1-.09-4c0-.51-.08-.84-.77-.65-1.22.33-2.47.53-3.7.85a1.63,1.63,0,0,0-.84.6c-.5.68-.9,1.43-1.36,2.14-.61,1-1.22,1.92-1.85,2.86s-1.27,1.86-1.91,2.78c-.84,1.2-1.61,2.46-2.55,3.58s-2,1.67-2.75,2.69c-2.08,2.83-4.21,5.56-7.34,7.34a15.51,15.51,0,0,0-1.93,1.54c-1.92,1.53-3.81,3.11-5.79,4.57s-4.22,2.69-6.13,4.27a89.19,89.19,0,0,1-10.91,7.62c-2,1.22-3.94,2.69-5.95,4a29.77,29.77,0,0,1-4.39,2.33c-2,.82-4.12,1.28-6.1,2.11-2.32,1-4.55.64-6.8,0a1.35,1.35,0,0,1-.76-.81q-.9-3.3-1.68-6.62c-.39-1.65-.74-3.31-1-5-.48-2.67-.89-5.36-1.35-8-.36-2.07-.79-4.13-1.14-6.19-.58-3.34-1.11-6.69-1.68-10-.53-3-1.09-6-1.63-9.06-.37-2.07-.63-4.18-1.14-6.22-.6-2.39-1.59-4.7-2.06-7.11a3,3,0,0,0-2.37-2.6,12.6,12.6,0,0,1-2.48,2.4C151.82,193.48,149.79,194.28,147.63,192.73Zm14.11-73.35c.4.39.54,1.07,1,1.38.72.51,1.59.79,2.36,1.23a5.83,5.83,0,0,0,5,.32c2.93-1,4.49-3.64,6.48-5.76a.71.71,0,0,0,.14-.32c.43-2,.9-4,1.27-6,.2-1,.2-2.13.35-3.19.34-2.42.68-4.85,1.09-7.26.35-2.06.8-4.11,1.19-6.16.24-1.27.54-2.53.7-3.8A16.11,16.11,0,0,0,180.09,82c-.61-1.58-1.05-3.22-1.74-4.76s-1.6-3-2.34-4.46c-1-2.13-2-4.28-4.08-5.69-1-.66-2-1.28-2.93-1.92a19.81,19.81,0,0,0-2.16-1.39c-2.85-1.4-5.73-2.73-8.59-4.08a48.09,48.09,0,0,1-4.4-2.11,8.55,8.55,0,0,1-4-4.35,30.28,30.28,0,0,1-1.11-6.15c-.25-2.44-.26-4.91-.38-7.37l-.47-.06a1.87,1.87,0,0,0-.26.63c-.06,1.6,0,3.2-.12,4.8a39.12,39.12,0,0,1-.42,4.46,5.81,5.81,0,0,1-1.93,3.38,48,48,0,0,1-3.92,3A16.66,16.66,0,0,1,138,57.84c-2.36,1-4.78,1.77-7.17,2.62-.66.23-1.34.4-2,.59-1.77.49-3.52,1-5.31,1.44a16.54,16.54,0,0,0-5,1.68,45.87,45.87,0,0,0-6.52,5c-1.67,1.42-2.43,3.44-3.42,5.3a10.83,10.83,0,0,0-1.33,4.57c0,.55.1,1.1.07,1.64-.11,2.25-.19,4.5-.42,6.73-.25,2.39-.62,4.78-1,7.16a23.57,23.57,0,0,0-.67,3.1c0,3.18,1.67,5.75,3.27,8.32s3.29,4.68,4.09,7.52a13.92,13.92,0,0,0,3.78,6.83,1.86,1.86,0,0,0,2.25.45l5.35-2.58a2.7,2.7,0,0,0,.59-.35c1.19-1.08,2.34-2.2,3.56-3.25s6.9-3.33,9.48-5.71c1.22-1.27,3.66.5,4.52,1.84a2.07,2.07,0,0,0,2.34.77c.58-.27.67-.53,1-1,1.24-1.48,2.88-3.33,4.17-1.93C150.05,109,159.06,116.72,161.74,119.38Zm94.78-41.19c-1.47-.82-3-.37-4.46-.23a3.46,3.46,0,0,0-2.65,1.37A16.05,16.05,0,0,0,248,81.87a12.92,12.92,0,0,0-.67,7.43c.29,1.91-.27,2.54-2.24,2.41a10.38,10.38,0,0,0-9.34,3.79,15.28,15.28,0,0,1-10,5.28,8.4,8.4,0,0,0-4.24,1.85,39.2,39.2,0,0,0-4.29,5.26,1.28,1.28,0,0,0-.15.74,30.4,30.4,0,0,0,1.9,9.89,4.17,4.17,0,0,1,.24,1.52c-.15,2.84-.35,5.68-.53,8.53-.14,2.26,1.59,4.82,3.49,5.35,2.31.65,4.59,1.39,6.87,2.12a61.84,61.84,0,0,0,7,2.19,93.1,93.1,0,0,0,9.3,1,1.58,1.58,0,0,0,1.15-.67,4.44,4.44,0,0,0,.19-4.14,6.47,6.47,0,0,1,.46-5.34,3.78,3.78,0,0,1,5.25-1.85,1,1,0,0,1,.65,1.41.87.87,0,0,1-1.43.48c-.74-.5-1.07,0-1.39.53a3.33,3.33,0,0,0,.84,3.93,16.14,16.14,0,0,0,4,2.54c1,.55,2.16.8,2.91,1.53a25.86,25.86,0,0,1,4.32,5.11,3.37,3.37,0,0,0,2.69,1.62,1.57,1.57,0,0,0,1.34-.47,8.1,8.1,0,0,0,1.08-2.21c.68-2.09,1.18-4.24,1.93-6.3,1.22-3.27,2.48-6.53,3.91-9.72,1.19-2.68,2.89-5,6.08-5.59a4.4,4.4,0,0,0,.81-.35l-.5-.72a6.12,6.12,0,0,1-.64-6.31,18.9,18.9,0,0,1,4.31-5.42,51.83,51.83,0,0,1,6.26-4.43c1.54-1,2.42-3.42,1.53-5a75.83,75.83,0,0,0-4.93-8,25.27,25.27,0,0,0-4.51-4.31,38.62,38.62,0,0,0-4.46-3c-1.31-.79-2.69-1.48-4.06-2.17a4.85,4.85,0,0,0-1.22-.31c-.06.44-.33,1-.15,1.32,1.27,2.32,2.64,4.6,4,6.88a11.4,11.4,0,0,1,1.81,6.12c-.08,2.6-1.71,4.52-3.69,6.09a11.89,11.89,0,0,1-5.81,2.13c-4.35.69-8.21-.68-11.77-2.92a26.35,26.35,0,0,1-4.57-3.95c-1.66-1.7-3.17-3.7-3-6.18a34.27,34.27,0,0,1,1.37-6,3.18,3.18,0,0,1,.57-1.51C252.28,80.38,253.82,78.42,256.52,78.19Zm-91,110.72c.08.62.08,1,.18,1.44.71,2.76,1.49,5.5,2.13,8.28.56,2.42,1,4.88,1.46,7.32.61,3.05,1.2,6.12,1.86,9.16.7,3.21,1.46,6.4,2.21,9.6.91,3.91,1.81,7.84,2.79,11.74a5.26,5.26,0,0,0,1.13,2.17c.18.2,1-.16,1.56-.29a15.4,15.4,0,0,0,2.07-.58c2.57-1.06,5.16-2.08,7.67-3.28s5-2.55,7.46-3.93a13.84,13.84,0,0,0,3.33-2.36,19.78,19.78,0,0,1,5.57-4.44,34.45,34.45,0,0,0,4.08-2.26c1.55-1,2.9-2.42,4.52-3.34,2.77-1.55,4.43-4.23,6.76-6.23,2.08-1.79,4-3.83,5.92-5.74,1.07-1,2.19-2,3.21-3.12a1.22,1.22,0,0,0,.16-1.14c-1.18-1.55-2.43-3-3.67-4.56a4,4,0,0,0-5-1.15A22.37,22.37,0,0,1,217,197c-.5.09-1,.11-1.49.21a6.65,6.65,0,0,1-2,.49c-2.47-.33-4.91-.88-7.38-1.23a9.77,9.77,0,0,0-3.1.1c-1.66.33-3.29.62-4.85-.27a11.56,11.56,0,0,1-2.29-1.62c-1.4-1.33-3-1.19-4.73-1a28.78,28.78,0,0,1-3.71.15c-2.26-.07-3.7-2.05-5.76-2.62a3.63,3.63,0,0,1-.92-.51c-1.41-.91-2.8-1.85-4.21-2.74a5.25,5.25,0,0,0-5,.27c-1.24.82-2.29,2.39-4.17,1.54C166.89,189.49,166.34,189.27,165.51,188.91ZM60,187.28c-2,1.88-3,4.3-5.21,5.77a10,10,0,0,0-2,1.9,1.32,1.32,0,0,0-.19,1.19c.84,1.55,1.76,3.06,2.7,4.55,1.1,1.72,2.14,3.5,3.4,5.1,1.71,2.17,3.61,4.19,5.43,6.28a10.68,10.68,0,0,0,1.07,1.25c1.6,1.32,3.2,2.65,4.86,3.89,2.91,2.2,5.79,4.46,8.84,6.45a61,61,0,0,0,6.08,3c1.46.73,2.91,1.5,4.29,2.37,2.34,1.49,4.63,3.06,7,4.6,1.62,1.08,3.22,2.22,4.89,3.22a29.67,29.67,0,0,0,3.25,1.46,5.8,5.8,0,0,0,.58-1c.57-2,1.15-4,1.65-5.95.6-2.4,1.19-4.81,1.66-7.24.62-3.16,1.19-6.34,1.64-9.53.5-3.47.91-6.95,1.25-10.44.17-1.79.08-3.6.16-5.4.05-1.21.27-2.42.31-3.64a31.83,31.83,0,0,1,.09-5c.37-1.8-.71-2.64-1.82-4-.39.95-.63,1.7-1,2.37-.26.49-.6,1.12-1,1.29-1.12.41-2.08.78-2.38,2.13-.07.32-.84.64-1.31.66a8.7,8.7,0,0,1-2-.33c-.34,2-2,1.29-3.2,1.43A1.51,1.51,0,0,1,97,194.89c-.49-.14-.91-.51-1.4-.6-.32-.07-.9.05-1,.28-1.11,2-2.62,2.36-4.2,1.22a10.66,10.66,0,0,1-2.8,1.47c-1.37.24-1.14-1.54-1.81-2-1,.65-1.78,1.54-2.72,1.72-1.28.24-1.86-1-2.37-2.11-.77.69-1.41,1.83-2.47.88a11,11,0,0,1-1.55-2.29c-2.09,1.82-3.19.42-3.95-1.61-3.4,2.35-3.4,2.35-5.08-1-1,.1-2,1.5-3,.25a13.37,13.37,0,0,1-1.31-3.06C62.32,188.31,60.91,189.13,60,187.28Zm-11,10a10.74,10.74,0,0,0,.85,2c1.87,2.75,3.79,5.46,5.72,8.17.43.6,1,1.1,1.45,1.69,1.66,2.15,3.2,4.39,4.95,6.46s3.56,3.85,5.41,5.71c1.69,1.71,3.4,3.41,5.22,5,2.49,2.14,5,4.25,7.68,6.16,2.87,2.06,5.88,3.93,8.88,5.78,1.71,1.06,3.53,2,5.33,2.87a42.64,42.64,0,0,0,6,2.81c2.75.9,5.64,1.36,8.45,2.1.89.24,1.33,0,1.49-.81.27-1.21.36-2.49,2-2.72.12,0,.22-.31.29-.5.24-.69.43-1.42.71-2.1,2-4.91,2.56-10.14,3.23-15.32.55-4.18.91-8.4,1.23-12.61.36-4.57.64-9.16.81-13.74a43.27,43.27,0,0,0-.37-5.56,1.2,1.2,0,0,0-.51-.87c-1.26-.61-2.56-1.12-4-1.76,0,3.67.06,7.25,0,10.82-.06,3.13-.16,6.26-.46,9.37-.2,2-.82,4-1.19,6-.65,3.5-1.24,7-1.9,10.52-.33,1.71-.68,3.42-1.15,5.1-.84,3-1.72,6.08-2.69,9.09-.39,1.22-1.14,1.3-2.14.49a6.73,6.73,0,0,0-1-.52c-2-1-3.92-2-5.82-3.18-.87-.52-1.53-1.39-2.38-2-2.09-1.38-4.2-2.74-6.37-4s-4.68-2.57-7.06-3.79a42.77,42.77,0,0,1-3.94-1.81c-2.81-1.85-5.62-3.72-8.23-5.84-3.06-2.47-6-5.14-8.8-7.87a26.32,26.32,0,0,1-2.84-3.86c-1-1.4-2-2.79-3-4.23s-2-3.07-2.89-4.64c-.51-.87-.92-1.8-1.36-2.67Zm184.7,5.86-.36-.45a7.2,7.2,0,0,0-1.5,1.06c-1,1.13-1.68,2.47-2.73,3.49-1.53,1.5-3.36,2.68-4.88,4.18-1.69,1.66-3.05,3.64-4.76,5.28a57.74,57.74,0,0,1-5.37,4.33c-1.9,1.42-3.85,2.79-5.82,4.11-1.13.76-2.39,1.31-3.51,2.08a23.5,23.5,0,0,0-4,3.06,13.23,13.23,0,0,1-3.61,2.77c-1.28.67-2.59,1.3-3.85,2-.91.52-1.7,1.28-2.65,1.71-2.81,1.27-5.65,2.46-8.5,3.61-2,.82-4.08,1.47-6.27.47-2-.93-2.29-2.94-2.75-4.7-.82-3.1-1.31-6.3-2.06-9.42-.68-2.86-1.6-5.67-2.26-8.53s-1.19-6.06-1.82-9.09c-.36-1.74-.9-3.44-1.2-5.19-.27-1.5-.22-3-.48-4.55-.43-2.44-1.07-4.84-1.49-7.28-.38-2.28-.47-2.38-2.31-1.19l-.54.37c.31,1.22.66,2.42.92,3.64.45,2.16.8,4.34,1.26,6.5.25,1.16.71,2.27.94,3.43.46,2.4.86,4.82,1.24,7.24.35,2.22.58,4.46,1,6.67.76,4.26,1.58,8.5,2.41,12.74.61,3.13,1.25,6.25,1.9,9.37.48,2.35,1,4.69,1.5,7,.11.46.43,1.14.77,1.21a6.1,6.1,0,0,0,2.87.14c2.24-.62,4.41-1.47,6.6-2.24a14.19,14.19,0,0,0,2.62-1c2-1.18,4-2.43,6-3.72,3.09-2,6.16-4.08,9.21-6.15.5-.35.83-1,1.33-1.31,1.88-1.35,3.8-2.66,5.7-4s3.85-2.57,5.68-4c2.28-1.76,4.42-3.7,6.69-5.46a19.41,19.41,0,0,0,3.82-4.17,25.4,25.4,0,0,1,3.46-3.87,10.8,10.8,0,0,0,2.83-3.71,3.38,3.38,0,0,1,.75-1.29C232.16,206.92,232.6,204.82,233.74,203.13ZM113.08,153.88c-.09.84.11,1.86-.27,2.15-1,.8-.82,1.88-1,2.88,0,.22-.06.47-.13.68a5.44,5.44,0,0,0-.59,1.66,2.69,2.69,0,0,1-1.14,2.43,2,2,0,0,0-.84,2c.26,1.75.47,3.52.71,5.27a62.54,62.54,0,0,0,1,6.72,63.38,63.38,0,0,0,2.36,6.92,5.46,5.46,0,0,0,1.27,2.26c1.32,1.14,2.76,2.25,4.75,1.7.22-.06.51.21.78.23.76.07,1.52.07,2.28.12.52,0,1.18-.06,1.52.21a21.37,21.37,0,0,1,1.77,2c.49.54,1,1.26,1.6,1.47a4,4,0,0,0,3.94-.66c.69.36,1.49.53,1.82,1,.67,1,1.32.84,2.23.45s2.09-1,3.23-.18c.12.09.37,0,.82,0a15.6,15.6,0,0,0-.31-3.05c-.65-2.12-1.44-4.2-2.26-6.26a32.12,32.12,0,0,0-1.66-3.32c-1.4-2.61-4.18-3.68-6.25-5.55a1,1,0,0,0-.78-.19c-2.06.41-3.93-.49-5.75-1.08a11.37,11.37,0,0,1-7.53-7.61,19.5,19.5,0,0,1-.51-11.12C114.42,153.81,113.87,153.86,113.08,153.88Zm150.6-4.54a2.42,2.42,0,0,0,.09.69,21.55,21.55,0,0,0,1,2.82c.76,1.57,1.6,3.12,2.47,4.63a2.79,2.79,0,0,0,3.06,1.33c1.87-.54,3.88-1,5.34-2.51a6.62,6.62,0,0,1,.89-.79,24.57,24.57,0,0,0,6.17-7.12c1.43-2.23,2.18-4.88,3.19-7.36.08-.19-.21-.77-.38-.79-2.52-.32-4.65-1.61-6.81-2.78a49.81,49.81,0,0,1-4.67-3c-.81-.56-1.15-.38-1.41.51-.75,2.63-1.44,5.27-2.35,7.85a9.49,9.49,0,0,1-2.06,3.74C267.05,147.71,265.4,148.34,263.68,149.34ZM70.61,174.83c.6,1.06,1,1.74,1.38,2.46s.69,1.61,1.09,2.38c.1.19.55.41.7.34a3,3,0,0,0,1.07-.85c1.5-2,2.18-2.1,4-.23.08.08.19.14.09.06,1-.45,1.88-1.2,2.73-1.15s1.85.82,2.8,1.29c.41-.78.58-2.23,2-2.06a9.64,9.64,0,0,1,2.69,1.16l1.45-2.47,2.61,1.4c1-2.95,1.13-3,3.66-2.58,0-.21-.14-.41-.09-.57.13-.49.19-1.14.53-1.41a2.68,2.68,0,0,1,1.68-.49,12,12,0,0,1,2.29.64c-.07-1.19-1.32-1.83-.67-3.16.74-1.49,2-.63,2.94-1.08-.79-1.61-.38-2.51,1.47-3.18a3.13,3.13,0,0,0,0-1.06,2.08,2.08,0,0,1,.21-2.22c.13-.16.07-.46.11-.7a7.49,7.49,0,0,0-.58-2.86,76.79,76.79,0,0,1-1.14-8.46c-.28-2.57-.21-5.2-1.88-7.85-.25.9-.48,1.53-.6,2.19-.2,1.16-.33,2.34-.49,3.51-.25,1.77-1.52,3.13-1.84,4.93-.6,3.41-1.48,6.77-2.4,10.1a11.61,11.61,0,0,1-1.86,3.92,17.58,17.58,0,0,1-9.65,6.72,40.1,40.1,0,0,1-6.17,1.23C76.11,175,73.52,174.83,70.61,174.83ZM187.7,190.77l.35.25c.38-.46.75-1,1.16-1.39,1.87-2,3.78-3.9,5.61-5.9,1.06-1.15,1.41-1.24,2.82-.09-1.27,2.79-4.31,4.18-5.84,6.93h5.25c1.13-1.36,2.47-2.95,3.79-4.55a1.22,1.22,0,0,1,2,0,2.1,2.1,0,0,1,.08,1.91,11.82,11.82,0,0,1-1.95,2c-.8.82-1.58,1.66-2.38,2.49,1.51,1.38,2.9,1.68,4.16,1.15A4.67,4.67,0,0,1,205,193c1.91.25,3.78.78,5.68,1.08a20,20,0,0,0,4.08.29,14.91,14.91,0,0,0,3-.79,9,9,0,0,1-1.1-1.23c-1-1.62-2.34-1.84-4.14-1.69a6.94,6.94,0,0,1-6.66-3.27,9.34,9.34,0,0,0-2.47-2.68,49.39,49.39,0,0,0-5.25-2.62,6.67,6.67,0,0,1-4-4.55,6.14,6.14,0,0,0-2.43-3.65c-1.18-.8-2.66-1.17-3.82-2a8,8,0,0,1-2.62-2.74,19.11,19.11,0,0,1-2.08-7.32,10.32,10.32,0,0,0-.54-1.94c-.77,1.55-1.45,2.88-2.08,4.23a.92.92,0,0,0,.09.81c.62.76,1.32,1.47,2,2.21,1.46,1.65,2.33,3.47,1.45,5.71-.54,1.36-1.14,2.69.19,4a1.13,1.13,0,0,1,.26.89c-.17,1.18.08,2.42-.75,3.52a6.28,6.28,0,0,0-.72,2.29.94.94,0,0,0,.25.82c.56.38,2.7-.87,2.79-1.57.18-1.5,1.24-2.12,2.35-1.22.91.75,1.25.27,1.78-.36a18.8,18.8,0,0,1,2.13-2.24,1.13,1.13,0,0,1,1.9.24,1.84,1.84,0,0,1-.45,2.61,15.22,15.22,0,0,0-1.78,2c-.89,1.13-1.8,2.12-3.45,1.6a.85.85,0,0,0-.64.16c-.74.45-1.44,1-2.18,1.42s-1.3.77-2,1.15c0,.15,0,.31,0,.46l3.9,1.32ZM157.28,187a5.52,5.52,0,0,0,1.61.79,10.07,10.07,0,0,0,2.74-.09c.58-.1,1.08-.65,1.66-.74a1.22,1.22,0,0,0,1.18-1.09c.7-3.6,2.68-6.84,3-10.57,0-.39.75-.87,1.24-1,.26-.08,1,.42,1,.74a7.24,7.24,0,0,1,.26,3c-.62,2.45-1.53,4.83-2.26,7.25-.1.35,0,1,.2,1.16.45.31,1,.91,1.65.19s1.18-2.06,2.43-2.47c.12,0,.14-.72,0-1.05a23.13,23.13,0,0,1-.81-10.55,17.3,17.3,0,0,0,0-2.87c-1.93-.43-3.3,1.59-5.25.88a19,19,0,0,1-1.85,2.34c-.9.86-1.87.57-2.67-.27-2.46,2.3-3.78,2.69-5.23,1.58-1.2.82-.32,4.23-3.5,2.61a15.75,15.75,0,0,1-.13,1.71c-.18,1-.54,1.94-.64,2.92a9.7,9.7,0,0,0,.58,4.28,2,2,0,0,1-.27,1.78,2.31,2.31,0,0,1-1.89,0,7.81,7.81,0,0,1-3.52-2.66c-.55-.78-1.24-1.48-2-2.39-.79,3.34,1.31,6.12.83,9.17.56-2.37,1.43-2.76,3.57-1.57a8.16,8.16,0,0,0,.84.41c.74.33,2.9-.26,3.2-1,.61-1.46,1.12-3,1.7-4.45.69-1.75,1.33-3.53,2.18-5.2.24-.49,1.28-1,1.66-.87.8.33.9,1.21.41,2,0,0-.06.06-.07.09C158.53,183.09,157.91,185.05,157.28,187ZM98.43,106.37c.15-1.89-1.18-3.6-.14-5.43.09-.17-.18-.69-.41-.86-.72-.55-1.52-1-2.26-1.5a3.7,3.7,0,0,1-1.59-4,18.93,18.93,0,0,1,1.26-3.11c.67-1.43.62-2-.48-3.16-1.46-1.55-2.15-5.28-1.18-7.2.81-1.61,1.8-3.14,2.75-4.69.52-.83.42-1.32-.46-1.9a42.26,42.26,0,0,1-4.26-3.31,1.49,1.49,0,0,1-.52-2c.32-.5.71-.94,1.07-1.41A1.24,1.24,0,0,0,92,65.88a4.69,4.69,0,0,1-1.11-2,4.47,4.47,0,0,1,.71-4.19c1.56-2.07.56-4.84-1.64-6.15a5.52,5.52,0,0,1-2.13-2.67,4.28,4.28,0,0,1,.89-4.09,1.7,1.7,0,0,0,0-1.65,12.54,12.54,0,0,0-2.46-1.67A12.92,12.92,0,0,0,86.43,45a8.09,8.09,0,0,1-.49,5.32,3.67,3.67,0,0,0,.12,3.58c.39.71,1,1.29,1.46,2,.65,1,1.53,2.1.85,3.35a9.46,9.46,0,0,1-2,2.27c-.51.47-.82.85-.25,1.46A11.45,11.45,0,0,0,87,64c2,1.7,2.68,4.13,1.53,6-.9,1.49-.81,2.15.49,3.26.75.64,1.55,1.23,2.28,1.88a3.54,3.54,0,0,1,.66,4.48c-1,1.64-1.75,3.53-1.1,5.27s.4,3.23.4,4.86c0,.48.46,1,.76,1.44.47.74,1.34,1.42,1.41,2.19a36.79,36.79,0,0,1-.1,5.55c0,.64-.17,1.12.42,1.67a7,7,0,0,1,1.9,2.53A6.87,6.87,0,0,0,98.43,106.37Zm29.63,23c1.28.9,2.49,1.77,3.72,2.61,1.56,1.05,3.17,2,4.71,3.11a11.39,11.39,0,0,0,5.25,2.34,4,4,0,0,0,2.94-.48c1.45-1.05,3-2,4.5-2.94s3.31-1.94,4.94-2.95a19,19,0,0,0,1.73-1.32c-1.12-1.22-2.1-2.34-3.15-3.39-2.19-2.2-3.92-2.33-6.53-.71-1.61,1-3.32,1.8-5.29.91-1.51-.68-3-1.31-4.53-2s-3.39-.93-4.93.84C130.36,126.6,129.35,127.85,128.06,129.39Zm43.2-74.48c-.36,1.12-.79,2.33-1.13,3.56a1.79,1.79,0,0,0,0,1.19,5.17,5.17,0,0,0,1.12,1.46,20.39,20.39,0,0,1,4.45,5.5c1.17,2.11,2.82,2.78,5.24,2.44a9.25,9.25,0,0,1,4,.12,54.76,54.76,0,0,1,5.86,2.64,6.13,6.13,0,0,0,6.1-.62c2.07-1.26,2.9-3.22,3.3-5.59a43.22,43.22,0,0,0,.07-10.78,8,8,0,0,0-.81-3.21A49.84,49.84,0,0,0,196,46.3a4.74,4.74,0,0,0-5.36-1.95,22.13,22.13,0,0,1-5.28.28,6.8,6.8,0,0,1-2-.71l-.24.34a10.45,10.45,0,0,0,2.18,1.52c2.34.89,4.75,1.58,7.11,2.41,1.88.67,3.89,1.12,4.92,3.18a7.81,7.81,0,0,1,.81,5.78c-.39,1.36-1.53,2.42-1.61,4a38.25,38.25,0,0,1-.72,6.14c-.59,2.71-3,4.31-6.09,2.8A23.07,23.07,0,0,0,180,67.29a3.89,3.89,0,0,1-1.8-.73c-1.61-1-1.64-2.71-2-4.33A8.55,8.55,0,0,0,175,58.84,40.47,40.47,0,0,0,171.26,54.91ZM184.18,49a9.39,9.39,0,0,0,.7.9c.87.8,1.74,1.6,2.65,2.36a4.12,4.12,0,0,0,1.05.52,14,14,0,0,1,1.68.73c1.94,1.13,2.57,3,2.2,5.66a5.52,5.52,0,0,1-4,4.35c-1.14.27-3.08-1-3.79-2.44-.94-1.86-2-3.63-4.14-4.3-3.07-1-4.44-4-4.28-6.86.05-.9.52-1.39,1.29-1.39,1.6,0,3.2-.7,4.79,0,.06,0,.18-.1.34-.19-1.48-1.78-2.9-3.52-5.56-3a.65.65,0,0,1-.24,0c-1-.36-1.63.18-2.2.85a6.91,6.91,0,0,0-1.39,1.92,5.13,5.13,0,0,0-.37,2.79,6.78,6.78,0,0,0,1.59,2.93c2.18,2.32,3.89,4.8,4.32,8.07.25,1.87.69,2,2.6,2.31a43.27,43.27,0,0,1,5.16,1.17c1.61.47,3.15,1.16,4.74,1.72,1.08.38,1.57-.31,1.71-1.19a22.48,22.48,0,0,0,.38-4,8.45,8.45,0,0,1,1.83-6.05c1-1.16.07-3.52-1.37-3.91-.83-.23-1.65-.5-2.47-.76Zm-14.07,95.88a15,15,0,0,0-1.48,1.66,19.87,19.87,0,0,0-2.39,6.58c-.55,2.38-.75,4.87-2.26,6.92-.64.88-.87,2.07-2.19,2.44a6.8,6.8,0,0,0-2.86,1.44,33.24,33.24,0,0,0-4,4.83,13.22,13.22,0,0,0-1.19,3.32c1.19-1.86,2.24-2.06,4.45-.6.45-.6,1-1.18,1.38-1.82.63-1,1.24-1.13,2.21-.41l1.22.92c1.83-3.84,1.83-3.84,3.31-3.23l1.67-1.62c.22-.22.58-.45.61-.69.27-2.87.49-5.75.71-8.62C169.56,152.35,169.82,148.73,170.11,144.85Zm10.63,42c0-.54,0-.85-.06-1.05-1.12-2-.81-3.88.16-5.82.28-.58.53-1.56.24-2-1.39-2-1-4,0-5.94a1.75,1.75,0,0,0-.1-2.13c-1-1.21-2-2.35-3-3.49a.79.79,0,0,0-.66-.14c-2.06.57-3.39.92-3.21,3.37,0,.54,0,1.08,0,1.62.12,3-.58,6,.15,9,.53,2.22,1,4.3,3.51,5.15A23.81,23.81,0,0,1,180.74,186.83Zm23.32-91c.25-1,.48-1.82.61-2.63a1.29,1.29,0,0,0-.28-.81C203,90.49,201,90.47,199,90.82s-3,1.76-3.89,3.31a4.64,4.64,0,0,0,.13,4.8,5.44,5.44,0,0,1,.77,4.18q-1.06,3.66-2.24,7.29c-.63,2,.26,3.2,2.33,3.29,3,.13,5-1.79,7.36-3.12.16-.09.11-.55.16-.83a2.69,2.69,0,0,0-.74-.07,5.28,5.28,0,0,0-1.24.33,2.19,2.19,0,0,1-3.23-2.1,5.29,5.29,0,0,1,2.2-4.38,13.15,13.15,0,0,1,2-.8l-1.14-.33c-4.38-1.5-5.07-2.69-5.16-6.38a2.18,2.18,0,0,1,.78-1.69,12,12,0,0,1,3.06-1.17,1.66,1.66,0,0,1,1.24.35C202.27,94.17,203.05,94.94,204.06,95.85Zm44,62.07c-.37.33-.56.66-.77.67-1.1,0-2.2,0-3.3,0l-.4.25c.53.35,1.29.57,1.54,1.06a2.58,2.58,0,0,0,2.83,1.49,31.78,31.78,0,0,0,4.54-1.32,11.39,11.39,0,0,0,1.54-.73,11.57,11.57,0,0,0-1.58-.47c-1.77-.73-4.1-.8-4.26-3.51,0-.23-.28-.63-.45-.64-1.07-.06-2.16,0-3.23,0a2.44,2.44,0,0,0-.1.24ZM143.87,257.59a9.75,9.75,0,0,0-1.2-.8c-.29-.14-.75-.32-.94-.19-1.35.95-2.78,1.67-3.6,3.36-1.64,3.39.25,8.5,3.83,9.93.91.36,2.65-.46,2.82-1.16-1-.45-2.05-.91-3.07-1.33a4.55,4.55,0,0,1-2.07-6.57C140.61,259.25,141.63,257.83,143.87,257.59ZM116.33,160a13.52,13.52,0,0,0,2.07,7.34c1.44,2.36,3.9,3.22,6.61,3.49a1.87,1.87,0,0,0-.93-.65,3.7,3.7,0,0,1-2.73-2.33,20.59,20.59,0,0,1-1.56-5.13c-.27-1.44-.73-2.29-2.34-2.12C117.2,160.58,116.91,160.28,116.33,160Zm125.22,1.53.24-.31a35.12,35.12,0,0,1-2.88-3.24,14,14,0,0,1-1.58-3.31,13.07,13.07,0,0,1-.39-2.44,1.13,1.13,0,0,1,.85-1.46,5.27,5.27,0,0,1,3.44,0,16.21,16.21,0,0,0,2.89.54l.09-.32c-.22-.15-.41-.38-.64-.44-.95-.25-1.9-.48-2.86-.64-1.66-.27-3.32-.51-5-.67-.23,0-.7.49-.73.79a12.67,12.67,0,0,0-.07,2.82,8.13,8.13,0,0,0,2.37,5.39c.89.81,1.93,1.45,2.89,2.18C240.64,160.73,241.09,161.11,241.55,161.48Zm-62-110.1c-.12.21-.24.41-.35.62.75.61,1.48,1.26,2.27,1.82a19.93,19.93,0,0,1,3,2.11,37.9,37.9,0,0,1,2.66,3.68,1,1,0,0,0,.92.32,3.34,3.34,0,0,0,1.1-1c.9-1.25.54-2.52-.9-2.91a6.36,6.36,0,0,1-3-1.76,10.16,10.16,0,0,0-2.61-2A16.36,16.36,0,0,0,179.53,51.38Zm-.21-9.44,0-.32c-.53-.24-1-.53-1.59-.72s-1.25-.23-1.82-.47c-2.55-1.08-3.61-.8-5.3,1.41a5.89,5.89,0,0,0-.74,5.31c.93-1.08,1.87-2.21,2.85-3.3,1.19-1.32,2.5-2.35,4.49-1.93A10.3,10.3,0,0,0,179.32,41.94Zm81.59,50.89a43.85,43.85,0,0,0,3.57,2.59c1,.61,2.46.34,2.81-.3a5.22,5.22,0,0,0-.8-4.55C264.83,91.65,262.51,91.15,260.91,92.83Zm13.75,36.28c5.62.84,10,3.9,14.49,7.11l1.06-1.2-14.57-7.74ZM147.06,30.25l.3-.06a20.5,20.5,0,0,0,0-2.48c-.38-3-.73-6-1.25-8.94-.4-2.28-1-4.53-1.6-6.77-.07-.26-.45-.44-.69-.66a2.61,2.61,0,0,0-.17.92c.59,2.57,1.31,5.11,1.83,7.69.45,2.25.68,4.56,1,6.84C146.67,27.94,146.87,29.09,147.06,30.25Zm142.09,88.21.27.45a13,13,0,0,0,3.18-.07,4.17,4.17,0,0,0,2.24-1.54c.37-.54.13-1.51.15-2.28a5.49,5.49,0,0,0-1.69.47C291.88,116.42,290.53,117.46,289.15,118.46ZM136.89,154.77l.34-.12a4,4,0,0,1-.35-1.12c0-1.14.06-2.28.18-3.41a1.62,1.62,0,0,0-1-1.79c-.81-.38-1.65-.72-2.69-1.18C134.6,149.86,135.75,152.31,136.89,154.77Zm2.15,125c-.51-2.63.57-4.5,2.58-6l-2.27-.9C137.52,274.86,137.17,279,139,279.82Zm8.17-128.5c-1.15.18-2,.42-2,1.65s0,2.3,1,3.19C146.53,154.49,146.85,153,147.21,151.32Zm8.15-7.63-.43-.11c-.32,1.24-2.06,2.17-.58,4C154.73,146.16,155.05,144.92,155.36,143.69ZM30.43,129.48l1.73.8c0-.73-.07-1.29-.1-1.86C31,128.13,30.47,128.38,30.43,129.48ZM143.05,8.61c-1,.59-.79,1.17.89,2.33C143.6,10,143.33,9.33,143.05,8.61Z"/><path class="cls-1" d="M68.85,163.73A16.25,16.25,0,0,1,61.57,162c-2-1.15-2.28-2.27-.76-4.42a29.91,29.91,0,0,0,2.31-3.4,2.67,2.67,0,0,1,2.8-1.52,2.65,2.65,0,0,0,2.66-1.21c.94-1.5,2.49-1.63,4-1.83q2.78-.37,5.56-.58c2.15-.15,3,.94,2.33,3-.5,1.45-1.29,2.8-1.87,4.23-1.22,3.05-3.73,4.87-6.36,6.46A12.15,12.15,0,0,1,68.85,163.73Z"/><path class="cls-1" d="M73.76,120.53c-2.85.11-4.64-1.13-5-3.51a4.7,4.7,0,0,1,.42-2.61,16.93,16.93,0,0,1,6-6.25c1.85-1.21,4.12-1.77,6-2.91a8.93,8.93,0,0,1,3.87-1,1.39,1.39,0,0,1,1.1.32,1.47,1.47,0,0,1,.24,1.24c-.73,1.77-1.48,3.54-2.37,5.24a47.7,47.7,0,0,1-3.34,5.76,13.38,13.38,0,0,1-2.94,2.47A4.85,4.85,0,0,1,73.76,120.53Zm8.3-12.86a11.84,11.84,0,0,0-1.54.71c-.2.14-.43.54-.36.7a1.9,1.9,0,0,0,.74.75s.44-.32.56-.55C81.68,108.84,81.81,108.35,82.06,107.67Z"/><path class="cls-1" d="M121.43,267c-.46-.7-.93-1.34-1.32-2-1.6-2.83-3.17-5.68-4.74-8.52a10.33,10.33,0,0,1-1-2,3.89,3.89,0,0,1,.15-1.41,3.57,3.57,0,0,1,1.35.31c2.41,1.7,3.22,4.44,4.38,6.95.44.95.84,1.92,1.29,2.87a1.88,1.88,0,0,0,.58.73c1.5,1.08,1.47,1.93-.13,2.77C121.88,266.7,121.76,266.79,121.43,267Z"/><path class="cls-1" d="M132.1,222.75a20.58,20.58,0,0,1-2.34-.64,29.14,29.14,0,0,1-7.41-4.28,1.68,1.68,0,0,1-.31-2.25,1.9,1.9,0,0,1,2.37-.23c1.82,1.21,3.66,2.38,5.5,3.54.93.59,1.94,1.07,2.8,1.74a1.58,1.58,0,0,1,.39,1.38C133,222.36,132.38,222.56,132.1,222.75Z"/><path class="cls-1" d="M105.92,253.85a21.58,21.58,0,0,1-.66,7c-.35,1.67-1.37,3.27-.8,5.15.1.34-.49,1.15-.93,1.33a2.92,2.92,0,0,1-1.89,0c-.21-.08-.3-.89-.24-1.34a32.53,32.53,0,0,1,.81-4.53c.63-2.18,1.42-4.31,2.25-6.42C104.62,254.57,105.26,254.34,105.92,253.85Z"/><path class="cls-1" d="M121.72,236.94c.71.6,1.43,1.2,2.13,1.82,1.48,1.32,3,2.61,4.41,4a26.35,26.35,0,0,1,2.58,3.18c.19.27.06.78.08,1.18-.44,0-1,.13-1.32-.08-1.14-.76-2.21-1.63-3.31-2.46s-2.25-1.69-3.35-2.58-2.59-1.65-2.67-3.49c0-1,.24-1.42,1.26-1.32Z"/><path class="cls-1" d="M84.16,242.55c-.5,1.25-.87,2.32-1.35,3.33a15.3,15.3,0,0,1-2.7,4.29,8.73,8.73,0,0,0-1.28,2.53,1.55,1.55,0,0,1-2.13.7c-.87-.3-.6-1.1-.35-1.82.88-2.56,2.83-4.4,4.27-6.59.54-.83.93-1.76,1.52-2.55a1.94,1.94,0,0,1,1.27-.61C83.63,241.8,83.92,242.3,84.16,242.55Z"/><path class="cls-1" d="M57.14,218.84c-.76.92-1.52,1.83-2.27,2.76-1.79,2.22-3.53,4.49-5.41,6.64-.31.35-1.2.18-1.83.26a8.78,8.78,0,0,1,.14-2.13c.13-.43.73-.7,1.06-1.09,1.64-2,3.23-3.95,4.91-5.88a4.77,4.77,0,0,1,1.74-1.31c.38-.16,1,.17,1.47.28C57,218.53,57.08,218.69,57.14,218.84Z"/><path class="cls-1" d="M120.92,227.14c.21-.36.33-.85.63-1a1.25,1.25,0,0,1,1.07.23c2.2,1.61,4.4,3.21,6.52,4.91a20.58,20.58,0,0,1,2.79,2.81c.26.31.14,1,.19,1.44a3.83,3.83,0,0,1-1.39-.22,39.88,39.88,0,0,1-4.32-2.8c-1.76-1.38-3.4-2.92-5.06-4.41A3.2,3.2,0,0,1,120.92,227.14Z"/><path class="cls-1" d="M131,207.21l-1.49-.54c-1.25-.47-2.53-.88-3.74-1.43a20.66,20.66,0,0,1-3-1.63c-.57-.36-.32-1.53.41-1.7a4.2,4.2,0,0,1,2.28,0c2.42.92,4.8,1.95,7.15,3,.42.2.65.84,1,1.28a7.34,7.34,0,0,1-1.21.75A6.33,6.33,0,0,1,131,207.21Z"/><path class="cls-1" d="M120.08,247.12a8.72,8.72,0,0,1,1.24.94c1.5,1.67,3,3.33,4.41,5.07,1,1.28,1.89,2.68,2.85,4,.38.52.57,1.12-.08,1.39a1.72,1.72,0,0,1-1.53-.26c-.86-.86-1.52-1.9-2.3-2.84-1.43-1.71-2.9-3.38-4.32-5.09a10.35,10.35,0,0,1-1.2-1.74,1.06,1.06,0,0,1,0-.92C119.32,247.45,119.71,247.34,120.08,247.12Z"/><path class="cls-1" d="M110.28,265.33c0-3.17,0-6.34,0-9.52a1.74,1.74,0,0,1,1.1-1.23c.67-.13.82.43.82,1.17,0,2.86,0,5.72.23,8.56.06.91.49,1.8,0,2.67-.2.33-.58.83-.83.81a1.81,1.81,0,0,1-1.26-.71,5.12,5.12,0,0,1-.28-1.74Z"/><path class="cls-1" d="M68.75,247.19c-1.39,0-1.94-1-1.39-1.87s1.4-2,2.12-2.95c1.29-1.77,2.63-3.51,3.85-5.33a1.07,1.07,0,0,1,1.51-.41c.63.28.52.88.2,1.41-.91,1.53-1.84,3.06-2.74,4.6a29.06,29.06,0,0,1-1.78,3.08A8.41,8.41,0,0,1,68.75,247.19Z"/><path class="cls-1" d="M92,246.82a1.11,1.11,0,0,1,1.22,1.53c-1,2.26-1.85,4.54-2.93,6.74a10.81,10.81,0,0,1-2.11,2.59,1.26,1.26,0,0,1-1.21,0,1.24,1.24,0,0,1-.39-1.12c.65-1.5,1.4-3,2.15-4.41s1.45-2.8,2.24-4.16A7.28,7.28,0,0,1,92,246.82Z"/><path class="cls-1" d="M60.88,227.92a23.86,23.86,0,0,1-1.69,3A41.7,41.7,0,0,1,56,234.44a13,13,0,0,1-2.09,1.68c-.73.49-1.38.08-1.88-.44s-.08-1.13.32-1.53c1.84-1.86,3.72-3.69,5.57-5.53.45-.45.85-1,1.33-1.35a.92.92,0,0,1,.81-.2C60.35,227.22,60.57,227.58,60.88,227.92Z"/><path class="cls-1" d="M99,252c-.62,1.87-1.19,3.66-1.79,5.43a37.74,37.74,0,0,0-1.38,4c-.23,1.09-.84,1.31-1.66,1.11s-1-1-.73-1.82c.91-2.34,1.86-4.67,2.82-7a13,13,0,0,1,1.08-2.1,4,4,0,0,1,1-.81Z"/><path class="cls-1" d="M62.15,241.73c-.61-.34-1.33-.51-1.41-.83a2.42,2.42,0,0,1,.31-1.75c1.38-1.86,2.89-3.63,4.32-5.45.27-.33.35-.81.65-1.1s.82-.64,1.12-.55a1.23,1.23,0,0,1,.6,1.07,16.36,16.36,0,0,1-1.35,3.06c-.83,1.41-1.75,2.78-2.71,4.11A11.78,11.78,0,0,1,62.15,241.73Z"/><path class="cls-1" d="M38.35,210a7.46,7.46,0,0,1,.9-1.38,39.9,39.9,0,0,1,3.68-3.34,12.71,12.71,0,0,1,3.19-1.65,1.52,1.52,0,0,1,1.3.63c.26.45,0,.84-.61,1.26-2,1.47-3.74,3.18-5.6,4.77a5.27,5.27,0,0,1-1.26.85C39,211.57,38.45,211.16,38.35,210Z"/><path class="cls-1" d="M43,220.13c.63-1.36,1.26-2.82,2-4.24a15.89,15.89,0,0,1,1.19-2.09,5.58,5.58,0,0,1,3.15-2.24c.89-.24,1.36.24,1.08,1.1-.17.53-.52,1.3-.94,1.41-1.28.35-1.41,1.52-2,2.36-.71,1.07-1.23,2.27-1.87,3.38S44.21,221,43,220.13Z"/><path class="cls-1" d="M164,269c.83-2.35,1.62-4.72,2.52-7.05.72-1.86,1.65-3.64,2.34-5.51a1.67,1.67,0,0,1,2-1.3c.92.18,1.24.86,1.23,1.79,0,1.43-.94,2.47-1.51,3.65-.91,1.89-2.1,3.66-3,5.57a11.48,11.48,0,0,0-.82,3.26c-.12.82-.34,1.44-1.25,1.37s-1.33-.73-1.24-1.65Z"/><path class="cls-1" d="M152.11,240.25a4.21,4.21,0,0,1,.51-1c2.15-2.09,4.27-4.2,6.48-6.22a25.23,25.23,0,0,1,3.38-2.5c.32-.21.88-.06,1.33-.08-.05.57.12,1.34-.19,1.66-2.06,2.15-4.25,4.18-6.35,6.3a10.74,10.74,0,0,0-2.16,2.62c-.41.85-.92.86-1.46.56A8.66,8.66,0,0,1,152.11,240.25Z"/><path class="cls-1" d="M166.83,251.07c.95.16,1.51.48,1.09,1.38a22.54,22.54,0,0,1-1.21,2.2c-1.08,1.77-2.19,3.53-3.28,5.29-.59.94-1.12,1.91-1.77,2.79a2,2,0,0,1-3.36-.58,1.23,1.23,0,0,1,.29-.93q2.82-3.72,5.68-7.4c.57-.74,1.12-1.48,1.73-2.17A3.82,3.82,0,0,1,166.83,251.07Z"/><path class="cls-1" d="M208.62,252.14a26.44,26.44,0,0,1-2.46-2.56c-1-1.39-1.88-2.88-2.77-4.36a8.37,8.37,0,0,1-1.18-2.4,1.94,1.94,0,0,1,.6-1.71,1.83,1.83,0,0,1,1.78.22,15.87,15.87,0,0,1,1.65,2.76c1,1.84,2.1,3.67,3.1,5.53a3.15,3.15,0,0,1,.41,1.6C209.74,251.48,209.18,251.71,208.62,252.14Z"/><path class="cls-1" d="M156.8,255.75a8.45,8.45,0,0,1-1.31-1.29,1.13,1.13,0,0,1,0-1.56c1.66-1.78,3.24-3.63,4.9-5.42a12.14,12.14,0,0,1,2.14-1.91c.36-.24,1-.1,1.48-.13,0,.54.18,1.19-.07,1.59a24.89,24.89,0,0,1-4.8,5.79,11.24,11.24,0,0,0-1.23,2A7,7,0,0,1,156.8,255.75Z"/><path class="cls-1" d="M161.21,222.55a1.77,1.77,0,0,1-.38.61c-1,.76-2,1.39-2.94,2.21-1.34,1.22-2.57,2.57-3.87,3.85a1.69,1.69,0,0,1-2.4.27,1.58,1.58,0,0,1,.16-2.53c2.45-1.93,5-3.78,7.51-5.58C160.2,220.73,161.19,221.28,161.21,222.55Z"/><path class="cls-1" d="M178,260.18c0-1.27-.06-2.55,0-3.81a2.84,2.84,0,0,1,.64-1.7,1.56,1.56,0,0,1,1.48-.14,3.09,3.09,0,0,1,.79,1.94c-.11,2.57-.4,5.13-.6,7.7a11.69,11.69,0,0,0,0,1.45c0,.81-.43,1.05-1.12,1s-1.11-.54-1.12-1.26c0-1.73,0-3.47,0-5.2Z"/><path class="cls-1" d="M219.85,242.3a1.59,1.59,0,0,1-2.45.59,20,20,0,0,1-6.17-5.86,1.88,1.88,0,0,1,.05-1.74,2,2,0,0,1,2.57,0c1.24,1.51,2.48,3,3.74,4.5C218.32,240.62,219.1,241.45,219.85,242.3Z"/><path class="cls-1" d="M149.68,216.74c.42-.64.64-1.36,1.13-1.69q3.72-2.52,7.57-4.85a2.08,2.08,0,0,1,1.57.12,1.52,1.52,0,0,1-.06,1.26c-2.63,2.09-5.3,4.11-8,6.11a1.59,1.59,0,0,1-1.25.32C150.27,217.84,150.06,217.28,149.68,216.74Z"/><path class="cls-1" d="M225.8,233.81a8.45,8.45,0,0,1-5.35-3.64c-.39-.62-1.3-.94-1-2a1.29,1.29,0,0,1,2.05-.77c1.36,1,2.69,2.15,4.11,3.12.83.57,1.82.89,2.69,1.41a1.15,1.15,0,0,1,.46.88c0,.22-.39.53-.66.6C227.38,233.6,226.6,233.68,225.8,233.81Z"/><path class="cls-1" d="M230.09,225.08a26.87,26.87,0,0,1-4-1.38c-.42-.21-.67-1.22-.58-1.81a1.71,1.71,0,0,1,1.25-1.07,14.18,14.18,0,0,1,2.61.42c1.47.2,3,.27,4.43.56.49.1.91.7,1.25,1.15.09.11-.15.71-.34.77C233.26,224.21,231.74,224.61,230.09,225.08Z"/><path class="cls-1" d="M200.83,254.51a1,1,0,0,1-.4-.16c-2.46-2-4.9-4-5.81-7.27a1.47,1.47,0,0,0-.1-.22c-.33-.59-1-1.19.23-1.61A1.65,1.65,0,0,1,197,246c.73,1.3,1.6,2.53,2.42,3.78s1.61,2.31,2.32,3.53C202.25,254.16,202,254.53,200.83,254.51Z"/><path class="cls-1" d="M187.43,249.43c.49.49,1.2.89,1.44,1.49.71,1.78,1.2,3.64,1.84,5.45A15.47,15.47,0,0,0,191.9,259c.45.79-.11,1.21-.54,1.45a1.32,1.32,0,0,1-1.25-.37,18.42,18.42,0,0,1-1.63-3.11c-.82-2-1.57-4-2.28-6.11C185.93,250.06,186.43,249.69,187.43,249.43Z"/><path class="cls-1" d="M147.63,200.65a8.87,8.87,0,0,1-1.15-1.6,1.19,1.19,0,0,1,.48-1c1.53-.79,3.09-1.5,4.68-2.17,1.26-.53,2.55-1,3.85-1.4a3.1,3.1,0,0,1,1.19.11c-.13.57-.09,1.47-.43,1.66-2.1,1.17-4.3,2.17-6.45,3.25C149.16,199.78,148.54,200.15,147.63,200.65Z"/><path class="cls-1" d="M157.09,199.45c.36.22.79.36.95.64a1,1,0,0,1-.22.93c-2.22,1.49-4.44,3-6.76,4.35-1.22.69-1.73.37-2.09-.75-.26-.81.35-1.48,1.31-1.91,1.82-.8,3.56-1.76,5.35-2.64C156.08,199.85,156.56,199.68,157.09,199.45Z"/><path class="cls-1" d="M233.73,217.88a11,11,0,0,1-2.3-.7,1.67,1.67,0,0,1-.94-2.15,2.48,2.48,0,0,1,2.46-1c1,.21,2.09.25,3.11.49a8.1,8.1,0,0,1,1.6.77c-.3.45-.49,1.07-.9,1.29A27.36,27.36,0,0,1,233.73,217.88Z"/><path class="cls-1" d="M237,208.58c.79.17,1.93.33,3,.65.89.26,1,.94.24,1.44a5.27,5.27,0,0,1-3.84,1.07c-1.06-.18-2-1-1.92-1.78S235.55,208.57,237,208.58Z"/><path class="cls-1" d="M116.39,80.8c0-.59,0-1.18,0-1.76a12.41,12.41,0,0,1-.13-2.42c0-.38.71-1,1-1a1.86,1.86,0,0,1,1.35.94c.57,1.67,1,3.41,1.45,5.24l5-.24a6.54,6.54,0,0,0-.13-1.44c-.51-1.62.28-3,.77-4.46a1.88,1.88,0,0,1,1.64-.7,1.84,1.84,0,0,1,1.16,1.29,9.4,9.4,0,0,1-.43,5.27c-.08.16.11.45.25.88.8-1.84,1.46-3.39,2.16-4.93.45-1,1.33-.81,2-.51.27.12.48,1,.34,1.37-.54,1.6-1.23,3.14-1.78,4.51.88,1,1.79,2.13,2.76,3.19,1.72,1.88,2.38,4.42-.63,6.11-2.07,1.16-4.25,1.24-6.44,1.35a30.13,30.13,0,0,1-12.49-1.77,37,37,0,0,1-5.12-2.72,1.66,1.66,0,0,1-.24-2.39,8,8,0,0,1,4-2.86c1-.42,1.95-.76,3-1.29A2.87,2.87,0,0,1,113,81a26.1,26.1,0,0,1-1.44-3l.34-.24c-.34-.06-.74,0-1-.21a3.67,3.67,0,0,1-1.25-1.29c-.12-.27.26-.9.57-1.21a53.22,53.22,0,0,1,5.31-4.89c3.06-2.25,6.69-2.4,10.37-2.3a15,15,0,0,1,9,3.73,10.37,10.37,0,0,1,4.28,8.26c0,2.26.52,4.5.64,6.77a2.83,2.83,0,0,1-.76,2.14c-.44.32-1.43-.08-2.16-.23-.16,0-.34-.35-.36-.55-.2-1.65-.31-3.3-.54-4.94-.27-2-.62-3.91-1-5.85-.4-2.22-2.07-3.3-3.92-4.13-2.84-1.25-5.82-.91-8.76-.52A41,41,0,0,0,117,73.85a4.46,4.46,0,0,0-1.24.84A20.58,20.58,0,0,0,114,75.91a11.85,11.85,0,0,0-1.13,1.28c2,.59,2.43,2.38,3.51,3.59v1.81l1.62-.7Zm.32,8.57c-.1-1-.18-1.66-.28-2.53l-2.76,1c0,.13.06.26.1.4Zm13.45-1.64-.5,2.44.25.2,1.76-1Z"/><path class="cls-1" d="M171.38,83.31l2.94.92c0-1.8,1.08-2.9,2.08-4a1.13,1.13,0,0,1,1.77-.08,1.63,1.63,0,0,1,.07,1.51c-.6,1.16-1.37,2.24-2.4,3.86.82.67,1.94,1.48,2.93,2.43a2.18,2.18,0,0,1,.53,1.54c0,.23-.76.41-1.17.63a5.43,5.43,0,0,0-1.23.69c-1.45,1.35-3.29,1.67-5.11,2-2.67.47-5.36.84-8,1.23a1.52,1.52,0,0,1-.93-.08c-1.58-1.11-3.5-.78-5.21-1.29-2.1-.62-4.14-1.42-6.22-2.12a2,2,0,0,0-1-.08c-1.45.2-2.24-.14-2.36-1.61a46.67,46.67,0,0,1,.1-6.14,34.89,34.89,0,0,1,.47-4.9,6.86,6.86,0,0,1,1.28-2.39,21.27,21.27,0,0,1,5.2-4.68,6.92,6.92,0,0,1,4.25-1.54c1.93.06,3.86-.28,5.79-.22,2.46.09,4.54,1.32,6.54,2.66.55.37,1.14.66,1.71,1,.19.12.47.26.52.44a9.22,9.22,0,0,0,2.46,4c.11.1-.18.91-.4,1a9.13,9.13,0,0,1-1.74,0c-.27,0-.71.06-.78.23C172.72,79.92,172.07,81.58,171.38,83.31Zm.53-6.65a1.88,1.88,0,0,1-.5-.11,5.45,5.45,0,0,1-.58-.4c-3.27-2-6.55-4-10.59-3.27a16.7,16.7,0,0,0-4.62,1.66c-2.62,1.36-2.89,4-3.25,6.59-.23,1.64-.42,3.3-.61,5-.06.55-.07,1.11-.11,1.67l.29.14c2.26-2.47,5.44-3.18,8.23-4.4-.39-1.32-.76-2.54-1.1-3.77a1.91,1.91,0,0,1,1.13-1.86c.51-.06,1.92.75,2,1.14.15,1.08.26,2.18.46,3.25.05.25.39.62.61.63a16.14,16.14,0,0,0,2-.1c-.07-1.52-.19-3-.2-4.39,0-1,.67-1.31,1.58-1.38s1.3.37,1.31,1.24,0,1.78,0,2.67c0,.57,0,1.15,0,1.72l.3.1C169.46,80.73,170.66,78.72,171.91,76.66ZM159,90c.08-.77.15-1.46.23-2.26-1.33-.14-2.2.67-3.25,1.36Z"/><path class="cls-1" d="M124.31,78.11c0,1-.3,1.84-1.38,2s-1.69-.47-1.84-1.56-.72-2.25.15-3.29c.27-.32.83-.76,1.1-.67a2.34,2.34,0,0,1,1.32,1.06A12.64,12.64,0,0,1,124.31,78.11Z"/><path class="cls-1" d="M112.05,82.51c-.08.12-.3.82-.58.84a3.23,3.23,0,0,1-2.09-.4A5.6,5.6,0,0,1,108,80.8a1.28,1.28,0,0,1,1.32-1.73C110.4,79.11,112.08,81,112.05,82.51Z"/><path class="cls-1" d="M241.91,99.13a29.32,29.32,0,0,1,11.54,2,30,30,0,0,1,5.4,3.34,16.36,16.36,0,0,1,3,2.57c1.25,1.4,2.26,3,3.51,4.42s1.52,3.15,1.95,4.79a5.13,5.13,0,0,1-.62,3.25c-.42.82-2.09.57-3.29.19-4.3-1.35-6.66-5-9.57-8a19.89,19.89,0,0,0-8.95-5.13l-6.33-1.85c-1.83-.54-3.67-1-5.48-1.64a1.56,1.56,0,0,1-1.14-1.73,1.22,1.22,0,0,1,1.25-1.3Z"/><path class="cls-1" d="M253.61,123.55c-1.28-.64-2.59-1.23-3.84-1.92s-2.34-1.38-3.46-2.13c-2.81-1.86-5.59-3.76-8.38-5.64-.29-.19-.62-.32-.9-.52a1.72,1.72,0,0,1-.12-2.43c2.6-2.81,3.29-2.75,6.84-1.31,2.67,1.1,5.26,2.41,7.87,3.66,2.45,1.17,4.34,3.12,6.42,4.8.31.25.1,1.21,0,1.83,0,.24-.37.43-.45.68-.74,2.2-1.27,2.62-3.5,2.68h-.36Z"/><path class="cls-1" d="M120.35,188.29c-1.41,0-1.89-1.23-2.72-2-2.17-2-2.22-4.94-3-7.53-.41-1.31-.89-2.59-1.24-3.91a17.76,17.76,0,0,1-.56-3.23c0-.31.39-.8.72-1s.75.16,1,.41a5.79,5.79,0,0,1,.72,1.4c.55,1.35,1.11,2.7,1.59,4.08.3.84.41,1.74.71,2.58a42.68,42.68,0,0,0,1.89,4.87c.48,1,1.47,1.7,2,2.66C122,187.77,121.63,188.2,120.35,188.29Z"/><path class="cls-1" d="M127.54,188.72c0,1.29-.55,1.66-1.41,1.21a9.34,9.34,0,0,1-4.58-5.62c-.83-2.65-1.4-5.38-2-8.09-.07-.32.41-1.1.57-1.08.56.08,1.33.25,1.58.66a8.6,8.6,0,0,1,1.21,3,20.93,20.93,0,0,0,2.46,6.8,23.55,23.55,0,0,0,1.57,2.18C127.21,188.15,127.44,188.56,127.54,188.72Z"/><path class="cls-1" d="M130.1,179.31c1.19,3.08,2.32,5.95,3.39,8.83a5.17,5.17,0,0,1,.22,1.84c0,.23-.45.66-.55.62-.49-.17-1.13-.37-1.35-.77a31.82,31.82,0,0,1-2.36-4.84,17,17,0,0,1-.74-4.16C128.56,179.25,128.92,179,130.1,179.31Z"/><path class="cls-1" d="M93.88,190.06c-2.32.88-3.64.33-5.06-2.39a13.56,13.56,0,0,1-1-3.36,1.06,1.06,0,0,1,1-1.44c.89-.08,1.32.43,1.62,1.24a20,20,0,0,0,1.35,2.94,2,2,0,0,0,1,.77c1.62.71,1.63.69,1.06,2.27Z"/><path class="cls-1" d="M100.93,177a13.57,13.57,0,0,1,1.41-.46,1.24,1.24,0,0,1,1.54.83,14,14,0,0,1,1.12,7.14c-1.44.45-2,.09-2.27-1.34-.28-1.28-.7-2.54-1.07-3.81C101.44,178.61,101.19,177.85,100.93,177Z"/><path class="cls-1" d="M142.44,129.43c.07,0,.12,0,.14,0,1.72-1.94,4-1.5,6.15-1.35.71,0,1.7.5,1.53,1.58a1.51,1.51,0,0,1-1.73,1.27,1,1,0,0,1-.24,0,4.53,4.53,0,0,0-4.45,1.7,1.9,1.9,0,0,1-3-.38,2.71,2.71,0,0,0-1.77-.67c-.81-.08-1.66.2-2.47.1-.51-.07-1.33-.52-1.37-.86a2.14,2.14,0,0,1,.8-1.56,5.73,5.73,0,0,1,4.23-1.15C141,128.17,141.69,128.93,142.44,129.43Z"/><path class="cls-1" d="M156,83.81a7,7,0,0,1-1.42-1.22,6,6,0,0,1-1-2.12,1.31,1.31,0,0,1,.5-1.15c.42-.22,1.26-.34,1.5-.09a11.5,11.5,0,0,1,2.13,2.88C158.33,83.27,157.82,83.81,156,83.81Z"/></svg>