<?xml version="1.0" encoding="utf-8"?>
<!-- Generator: Adobe Illustrator 23.0.6, SVG Export Plug-In . SVG Version: 6.00 Build 0)  -->
<svg version="1.1" id="Layer_1" xmlns="http://www.w3.org/2000/svg" xmlns:xlink="http://www.w3.org/1999/xlink" x="0px" y="0px"
	 viewBox="0 0 684.8 41.3" style="enable-background:new 0 0 684.8 41.3;" xml:space="preserve">
<style type="text/css">
	.st0{fill:#ed6ea7;}
	.st1{fill:#231F20;}
</style>
<path d="M47.1,32.8h-0.3v-0.3V4.4H38v35.9h23.7v-7.4L47.1,32.8z"/>
<path d="M92.1,4.4v18.9c0,4.1,0,10.2-6.7,10.2c-6.2,0-6.7-5-6.7-10.2V4.4h-8.9v20.2c0,4.9,0.3,9.3,3.7,12.6c2.6,2.5,6.9,4,11.9,4
	s9.3-1.4,11.9-4c3.4-3.4,3.7-7.7,3.7-12.6V4.4H92.1z"/>
<path d="M123.4,18.6l-2.4-0.7c-1.6-0.5-4.4-1.4-4.4-3.8s2.6-3.3,4.4-3.3c2.2,0,4.4,0.8,6.2,2.2l3.5-6.8c-3.4-1.8-7.2-2.8-11-2.8
	c-7.3,0-12.3,4.8-12.3,11.9c0,6.8,3.6,8.3,9.6,10l0.3,0.1c2.1,0.6,5.7,1.6,5.7,4.4s-2.5,4-4.9,4c-2.8,0-5.5-1.2-8.3-3.6l-3.8,7.1
	c3.7,2.5,8,3.9,12.4,4c3.7,0.1,7.3-1.1,10.2-3.4c2.4-2.1,3.7-5.3,3.7-9.6C132.2,23.4,129.4,20.4,123.4,18.6z"/>
<path d="M169.8,16.8h8.9v23.4h-8.9V16.8z"/>
<path d="M55,4.4h6.7v13.8H55V4.4z"/>
<path class="st0" d="M178.9,8.1c0,2.6-2.1,4.7-4.7,4.7s-4.7-2.1-4.7-4.7s2.1-4.7,4.7-4.7c0,0,0,0,0,0C176.8,3.4,178.9,5.5,178.9,8.1
	z"/>
<path d="M137.5,16.8h8.9v23.4h-8.9V16.8z"/>
<path class="st0" d="M146.6,8.1c0,2.6-2.1,4.7-4.7,4.7c-2.6,0-4.7-2.1-4.7-4.7c0-2.6,2.1-4.7,4.7-4.8c0,0,0,0,0,0
	C144.5,3.4,146.6,5.5,146.6,8.1z"/>
<path d="M153.9,16.8h8.9v23.4h-8.9V16.8z"/>
<path class="st0" d="M163,8.1c0,2.6-2.1,4.7-4.7,4.7s-4.7-2.1-4.7-4.7s2.1-4.7,4.7-4.7c0,0,0,0,0,0C160.9,3.4,163,5.5,163,8.1z"/>
<path class="st1" d="M27.9,4.5l1.8,7.5v28.2H0V12l1.8-7.5h8.9c-0.1-0.4-0.2-0.7-0.2-1.1c0-0.8,0.5-3.3,4.3-3.3s4.3,2.6,4.3,3.3
	c0,0.4-0.1,0.8-0.2,1.1L27.9,4.5z M2.1,12v26.1h10.2v-5.7c0-1.4,1.1-2.6,2.5-2.6c1.4,0,2.6,1.1,2.6,2.5c0,0,0,0,0,0v5.7h10.2V12H2.1
	z M4,29.8v6.4h2.3v-6.4H4z M8.1,29.8v6.4h2.3v-6.4H8.1z M23.4,29.8v6.4h2.3v-6.4H23.4z M19.3,29.8v6.4h2.3v-6.4H19.3z M10.4,24.5H4
	v2.7h6.5V24.5z M10.4,19.2H4v2.7h6.5V19.2z M10.4,13.8H4v2.7h6.5V13.8z M19.2,27.2h6.5v-2.7h-6.5L19.2,27.2z M19.2,21.8h6.5v-2.7
	h-6.5L19.2,21.8z M19.2,16.5h6.5v-2.7h-6.5L19.2,16.5z M12.3,27.2h5.2v-2.7h-5.1L12.3,27.2z M12.3,21.8h5.2v-2.7h-5.1L12.3,21.8z
	 M12.3,16.5h5.2v-2.7h-5.1L12.3,16.5z M14.8,1.9c-1.4,0-2.3,0.7-2.3,1.5c0,0.4,0.1,0.8,0.3,1.1h4c0.2-0.3,0.4-0.7,0.3-1
	C17.2,2.6,16.2,1.9,14.8,1.9L14.8,1.9z M17.4,7.4h-5v1.9h5V7.4z M25.7,7.4h-6.4v1.9h6.5L25.7,7.4z M7.9,7.4H6.4v1.9h1.5V7.4z"/>
<path d="M605.9,16.8h8.9v23.4h-8.9V16.8z"/>
<path d="M648.7,4.4l-17.9,23v-23h-8.9v35.9h9l17.9-23.1v23.1h8.9V4.4L648.7,4.4z"/>
<path d="M664.7,4.4v35.9h20.1v-7.4h-11h-0.3v-0.3v-6.3V26h0.3h10.4v-7.4h-10.4h-0.3v-0.3v-6.1v-0.3h0.3h11V4.4L664.7,4.4z"/>
<path class="st0" d="M615,8.1c0,2.6-2.1,4.7-4.7,4.7c-2.6,0-4.7-2.1-4.7-4.7s2.1-4.7,4.7-4.7c0,0,0,0,0,0C612.9,3.4,615,5.5,615,8.1
	z"/>
<path d="M218.5,16.8h8.9v23.4h-8.9V16.8z"/>
<path class="st0" d="M227.6,8.1c0,2.6-2.1,4.7-4.7,4.7c-2.6,0-4.7-2.1-4.7-4.7c0-2.6,2.1-4.7,4.7-4.8c0,0,0,0,0,0
	C225.5,3.4,227.6,5.5,227.6,8.1z"/>
<path d="M186.2,16.8h8.9v23.4h-8.9V16.8z"/>
<path class="st0" d="M195.3,8.1c0,2.6-2.1,4.7-4.7,4.7s-4.7-2.1-4.7-4.7s2.1-4.7,4.7-4.7c0,0,0,0,0,0C193.2,3.4,195.3,5.5,195.3,8.1
	z"/>
<path d="M202.6,16.8h8.9v23.4h-8.9V16.8z"/>
<path class="st0" d="M211.7,8.1c0,2.6-2.1,4.7-4.7,4.7c-2.6,0-4.7-2.1-4.7-4.7c0-2.6,2.1-4.7,4.7-4.8c0,0,0,0,0,0
	C209.6,3.4,211.7,5.5,211.7,8.1z"/>
<path d="M266.6,16.8h8.9v23.4h-8.9V16.8z"/>
<path class="st0" d="M275.7,8.1c0,2.6-2.1,4.7-4.7,4.7c-2.6,0-4.7-2.1-4.8-4.7c0-2.6,2.1-4.7,4.7-4.8c0,0,0,0,0,0
	C273.6,3.4,275.7,5.5,275.7,8.1z"/>
<path d="M234.3,16.8h8.9v23.4h-8.9V16.8z"/>
<path class="st0" d="M243.4,8.1c0,2.6-2.1,4.7-4.7,4.7c-2.6,0-4.7-2.1-4.7-4.7c0-2.6,2.1-4.7,4.7-4.8c0,0,0,0,0,0
	C241.3,3.4,243.4,5.5,243.4,8.1z"/>
<path d="M250.8,16.8h8.9v23.4h-8.9V16.8z"/>
<path class="st0" d="M259.9,8.1c0,2.6-2.1,4.7-4.7,4.7c-2.6,0-4.7-2.1-4.7-4.7c0-2.6,2.1-4.7,4.7-4.8c0,0,0,0,0,0
	C257.8,3.4,259.9,5.5,259.9,8.1z"/>
<path d="M283.1,16.8h8.9v23.4h-8.9V16.8z"/>
<path class="st0" d="M292.2,8.1c0,2.6-2.1,4.7-4.7,4.7c-2.6,0-4.7-2.1-4.8-4.7c0-2.6,2.1-4.7,4.7-4.7c0,0,0,0,0,0
	C290.1,3.4,292.2,5.5,292.2,8.1z"/>
<path d="M331.2,16.8h8.9v23.4h-8.9V16.8z"/>
<path class="st0" d="M340.3,8.1c0,2.6-2.1,4.7-4.7,4.7c-2.6,0-4.7-2.1-4.7-4.7c0-2.6,2.1-4.7,4.7-4.7c0,0,0,0,0,0
	C338.2,3.4,340.3,5.5,340.3,8.1z"/>
<path d="M298.9,16.8h8.9v23.4h-8.9V16.8z"/>
<path class="st0" d="M308,8.1c0,2.6-2.1,4.7-4.7,4.7c-2.6,0-4.7-2.1-4.7-4.7c0-2.6,2.1-4.7,4.7-4.7c0,0,0,0,0,0
	C305.9,3.4,308,5.5,308,8.1z"/>
<path d="M315.3,16.8h8.9v23.4h-8.9V16.8z"/>
<path class="st0" d="M324.5,8.1c0,2.6-2.1,4.7-4.7,4.7c-2.6,0-4.7-2.1-4.7-4.7c0-2.6,2.1-4.7,4.7-4.7c0,0,0,0,0,0
	C322.3,3.4,324.4,5.5,324.5,8.1z"/>
<path d="M379.9,16.8h8.9v23.4h-8.9V16.8z"/>
<path class="st0" d="M389,8.1c0,2.6-2.1,4.7-4.7,4.7c-2.6,0-4.7-2.1-4.8-4.7c0-2.6,2.1-4.7,4.7-4.8c0,0,0,0,0,0
	C386.9,3.4,389,5.5,389,8.1z"/>
<path d="M347.6,16.8h8.9v23.4h-8.9V16.8z"/>
<path class="st0" d="M356.8,8.1c0,2.6-2.1,4.7-4.7,4.7c-2.6,0-4.7-2.1-4.7-4.7c0-2.6,2.1-4.7,4.7-4.8c0,0,0,0,0,0
	C354.6,3.4,356.7,5.5,356.8,8.1z"/>
<path d="M364.1,16.8h8.9v23.4h-8.9V16.8z"/>
<path class="st0" d="M373.2,8.1c0,2.6-2.1,4.7-4.7,4.7c-2.6,0-4.7-2.1-4.7-4.7c0-2.6,2.1-4.7,4.7-4.8c0,0,0,0,0,0
	C371.1,3.4,373.2,5.5,373.2,8.1z"/>
<path d="M428.1,16.8h8.9v23.4h-8.9V16.8z"/>
<path class="st0" d="M437.2,8.1c0,2.6-2.1,4.7-4.7,4.7c-2.6,0-4.7-2.1-4.7-4.7c0-2.6,2.1-4.7,4.7-4.7c0,0,0,0,0,0
	C435,3.4,437.2,5.5,437.2,8.1z"/>
<path d="M395.8,16.8h8.9v23.4h-8.9V16.8z"/>
<path class="st0" d="M404.9,8.1c0,2.6-2.1,4.7-4.7,4.7c-2.6,0-4.7-2.1-4.7-4.7c0-2.6,2.1-4.7,4.7-4.8c0,0,0,0,0,0
	C402.8,3.4,404.9,5.5,404.9,8.1z"/>
<path d="M412.2,16.8h8.9v23.4h-8.9V16.8z"/>
<path class="st0" d="M421.3,8.1c0,2.6-2.1,4.7-4.7,4.7c-2.6,0-4.7-2.1-4.7-4.7c0-2.6,2.1-4.7,4.7-4.7c0,0,0,0,0,0
	C419.2,3.4,421.3,5.5,421.3,8.1z"/>
<path d="M444.5,16.8h8.9v23.4h-8.9V16.8z"/>
<path class="st0" d="M453.6,8.1c0,2.6-2.1,4.7-4.7,4.7c-2.6,0-4.7-2.1-4.7-4.7s2.1-4.7,4.7-4.7c0,0,0,0,0,0
	C451.5,3.4,453.6,5.5,453.6,8.1z"/>
<path d="M492.6,16.8h8.9v23.4h-8.9V16.8z"/>
<path class="st0" d="M501.8,8.1c0,2.6-2.1,4.7-4.7,4.7c-2.6,0-4.7-2.1-4.8-4.7c0-2.6,2.1-4.7,4.7-4.8c0,0,0,0,0,0
	C499.6,3.4,501.7,5.5,501.8,8.1z"/>
<path d="M460.4,16.8h8.9v23.4h-8.9V16.8z"/>
<path class="st0" d="M469.5,8.1c0,2.6-2.1,4.7-4.7,4.7c-2.6,0-4.7-2.1-4.7-4.7s2.1-4.7,4.7-4.7c0,0,0,0,0,0
	C467.3,3.4,469.4,5.5,469.5,8.1z"/>
<path d="M476.8,16.8h8.9v23.4h-8.9V16.8z"/>
<path class="st0" d="M485.9,8.1c0,2.6-2.1,4.7-4.7,4.7c-2.6,0-4.7-2.1-4.8-4.7c0-2.6,2.1-4.7,4.7-4.8c0,0,0,0,0,0
	C483.8,3.4,485.9,5.5,485.9,8.1z"/>
<path d="M541.4,16.8h8.9v23.4h-8.9V16.8z"/>
<path class="st0" d="M550.5,8.1c0,2.6-2.1,4.7-4.7,4.7c-2.6,0-4.7-2.1-4.7-4.7s2.1-4.7,4.7-4.7c0,0,0,0,0,0
	C548.3,3.4,550.4,5.5,550.5,8.1z"/>
<path d="M509.1,16.8h8.9v23.4h-8.9V16.8z"/>
<path class="st0" d="M518.2,8.1c0,2.6-2.1,4.7-4.7,4.7c-2.6,0-4.7-2.1-4.8-4.7c0-2.6,2.1-4.7,4.7-4.8c0,0,0,0,0,0
	C516.1,3.4,518.2,5.5,518.2,8.1z"/>
<path d="M525.5,16.8h8.9v23.4h-8.9V16.8z"/>
<path class="st0" d="M534.6,8.1c0,2.6-2.1,4.7-4.7,4.7c-2.6,0-4.7-2.1-4.7-4.7s2.1-4.7,4.7-4.7c0,0,0,0,0,0
	C532.5,3.4,534.6,5.5,534.6,8.1z"/>
<path d="M589.5,16.8h8.9v23.4h-8.9V16.8z"/>
<path class="st0" d="M598.6,8.1c0,2.6-2.1,4.7-4.7,4.7c-2.6,0-4.7-2.1-4.7-4.7s2.1-4.7,4.7-4.7c0,0,0,0,0,0
	C596.5,3.4,598.6,5.5,598.6,8.1z"/>
<path d="M557.2,16.8h8.9v23.4h-8.9V16.8z"/>
<path class="st0" d="M566.3,8.1c0,2.6-2.1,4.7-4.7,4.7c-2.6,0-4.7-2.1-4.8-4.7c0-2.6,2.1-4.7,4.7-4.8c0,0,0,0,0,0
	C564.2,3.4,566.3,5.5,566.3,8.1z"/>
<path d="M573.7,16.8h8.9v23.4h-8.9V16.8z"/>
<path class="st0" d="M582.8,8.1c0,2.6-2.1,4.7-4.7,4.7c-2.6,0-4.7-2.1-4.7-4.7s2.1-4.7,4.7-4.7c0,0,0,0,0,0
	C580.6,3.4,582.8,5.5,582.8,8.1z"/>
</svg>
